# Apple ModelIO OBJ File: sarten_
mtllib sarten_.mtl
g Cylinder.001
v 0.474002 -0.009086 0.132967
v 0.418925 -0.009086 0.143923
v 0.418925 -0.030094 0.123952
v 0.466359 -0.030094 0.114516
v 0.418925 -0.029139 0
v 0.464752 -0.029139 -0.110637
v 0.418925 -0.029139 -0.119753
v 0.418925 -0.008966 -0.137782
v 0.471652 -0.008966 -0.127294
v 0.418925 -0.030443 0
v 0.503603 -0.029139 -0.084678
v 0.516351 -0.008966 -0.097426
v 0.520694 -0.009086 0.101769
v 0.506572 -0.030094 0.087647
v 0.529562 -0.029139 -0.045827
v 0.546219 -0.008966 -0.052727
v 0.538678 -0.029139 0
v 0.556707 -0.008966 0
v 0.551892 -0.009086 0.055077
v 0.533441 -0.030094 0.047434
v 0.529562 -0.029139 0.045827
v 0.546219 -0.008966 0.052727
v 0.503603 -0.029139 0.084678
v 0.516351 -0.008966 0.097426
v 0.562848 -0.009086 0
v 0.542877 -0.030094 0
v 0.464752 -0.029139 0.110637
v 0.471652 -0.008966 0.127294
v 0.418925 -0.029139 0.119753
v 0.418925 -0.008966 0.137782
v 0.551892 -0.009086 -0.055077
v 0.533441 -0.030094 -0.047434
v 0.373097 -0.029139 0.110637
v 0.366198 -0.008966 0.127294
v 0.334247 -0.029139 0.084678
v 0.321499 -0.008966 0.097426
v 0.520694 -0.009086 -0.101769
v 0.506572 -0.030094 -0.087647
v 0.308288 -0.029139 0.045827
v 0.291631 -0.008966 0.052727
v 0.299172 -0.029139 0
v 0.281143 -0.008966 0
v 0.474002 -0.009086 -0.132967
v 0.466359 -0.030094 -0.114516
v 0.308288 -0.029139 -0.045827
v 0.291631 -0.008966 -0.052727
v 0.334247 -0.029139 -0.084678
v 0.321499 -0.008966 -0.097426
v 0.418925 -0.009086 -0.143923
v 0.418925 -0.030094 -0.123952
v 0.373097 -0.029139 -0.110637
v 0.366198 -0.008966 -0.127294
v 0.366198 0.029139 -0.127294
v 0.418925 0.029139 -0.137782
v 0.321499 0.029139 -0.097426
v 0.291631 0.029139 -0.052727
v 0.281143 0.029139 0
v 0.291631 0.029139 0.052727
v 0.321499 0.029139 0.097426
v 0.366198 0.029139 0.127294
v 0.418925 0.029139 0.137782
v 0.471652 0.029139 0.127294
v 0.516351 0.029139 0.097426
v 0.546219 0.029139 0.052727
v 0.556707 0.029139 0
v 0.546219 0.029139 -0.052727
v 0.516351 0.029139 -0.097426
v 0.471652 0.029139 -0.127294
v 0.371491 -0.030094 0.114516
v 0.363848 -0.009086 0.132967
v 0.331278 -0.030094 0.087647
v 0.317156 -0.009086 0.101769
v 0.304408 -0.030094 0.047434
v 0.285958 -0.009086 0.055077
v 0.294973 -0.030094 0
v 0.275002 -0.009086 0
v 0.304408 -0.030094 -0.047434
v 0.285958 -0.009086 -0.055077
v 0.331278 -0.030094 -0.087647
v 0.317156 -0.009086 -0.101769
v 0.371491 -0.030094 -0.114516
v 0.363848 -0.009086 -0.132967
v 0.363838 0.029139 -0.132992
v 0.418925 0.029139 -0.143949
v 0.317138 0.029139 -0.101787
v 0.285933 0.029139 -0.055087
v 0.274976 0.029139 0
v 0.285933 0.029139 0.055087
v 0.317138 0.029139 0.101787
v 0.363838 0.029139 0.132992
v 0.418925 0.029139 0.143949
v 0.474012 0.029139 0.132992
v 0.520712 0.029139 0.101787
v 0.551917 0.029139 0.055087
v 0.562874 0.029139 0
v 0.551917 0.029139 -0.055087
v 0.520712 0.029139 -0.101787
v 0.474012 0.029139 -0.132992
vn 0.1427 -0.6819 0.7174
vn -0 1 -0
vn -0.1467 0.6592 0.7376
vn 0.0006 -1 0.0028
vn -0.4178 0.6592 0.6253
vn 0.4063 -0.6819 0.6081
vn -0.6253 0.6592 0.4178
vn 0.0016 -1 0.0024
vn -0.7376 0.6592 0.1467
vn 0.6081 -0.6819 0.4063
vn -0.7376 0.6592 -0.1467
vn 0.0024 -1 0.0016
vn -0.6253 0.6592 -0.4178
vn 0.7174 -0.6819 0.1427
vn -0.4178 0.6592 -0.6253
vn 0.0028 -1 0.0006
vn -0.1467 0.6592 -0.7376
vn 0.7174 -0.6819 -0.1427
vn 0.1467 0.6592 -0.7376
vn 0.0028 -1 -0.0006
vn 0.4178 0.6592 -0.6253
vn 0.6081 -0.6819 -0.4063
vn 0.6253 0.6592 -0.4178
vn 0.0024 -1 -0.0016
vn 0.7376 0.6592 -0.1467
vn 0.4063 -0.6819 -0.6081
vn 0.7376 0.6592 0.1467
vn 0.0016 -1 -0.0024
vn 0.6253 0.6592 0.4178
vn 0.1427 -0.6819 -0.7174
vn 0.4178 0.6592 0.6253
vn 0.0006 -1 -0.0028
vn 0.1467 0.6592 0.7376
vn 0.1951 -0 0.9808
vn 0.5556 -0 0.8315
vn 0.8315 -0 0.5556
vn 0.9808 -0 0.1951
vn 0.9808 -0 -0.1951
vn 0.8315 -0 -0.5556
vn 0.5556 -0 -0.8315
vn 0.1951 -0 -0.9808
vn -0.1951 -0 -0.9808
vn -0.5556 -0 -0.8315
vn -0.8315 -0 -0.5556
vn -0.9808 -0 -0.1951
vn -0.9808 -0 0.1951
vn -0.8315 -0 0.5556
vn -0.5556 -0 0.8315
vn -0.1951 -0 0.9808
vn -0.0006 -1 0.0028
vn -0.1427 -0.6819 0.7174
vn -0.0016 -1 0.0024
vn -0.4063 -0.6819 0.6081
vn -0.0024 -1 0.0016
vn -0.6081 -0.6819 0.4063
vn -0.0028 -1 0.0006
vn -0.7174 -0.6819 0.1427
vn -0.0028 -1 -0.0006
vn -0.7174 -0.6819 -0.1427
vn -0.0024 -1 -0.0016
vn -0.6081 -0.6819 -0.4063
vn -0.0016 -1 -0.0024
vn -0.4063 -0.6819 -0.6081
vn -0.0006 -1 -0.0028
vn -0.1427 -0.6819 -0.7174
vn -0.1951 -0.0007 -0.9808
vn -0.5556 -0.0007 -0.8315
vn -0.8315 -0.0007 -0.5556
vn -0.9808 -0.0007 -0.1951
vn -0.9808 -0.0007 0.1951
vn -0.8315 -0.0007 0.5556
vn -0.5556 -0.0007 0.8315
vn -0.1951 -0.0007 0.9808
vn 0.1951 -0.0007 0.9808
vn 0.5556 -0.0007 0.8315
vn 0.8315 -0.0007 0.5556
vn 0.9808 -0.0007 0.1951
vn 0.9808 -0.0007 -0.1951
vn 0.8315 -0.0007 -0.5556
vn 0.5556 -0.0007 -0.8315
vn 0.1951 -0.0007 -0.9808
vt 0.478897 0.690298
vt 0.518614 0.690348
vt 0.521597 0.614257
vt 0.487391 0.614215
vt 0.742357 0.704129
vt 0.652443 0.686244
vt 0.652443 0.722013
vt 0.879381 0.384297
vt 0.876688 0.311315
vt 0.838225 0.384297
vt 0.840918 0.311315
vt 0.335082 0.641252
vt 0.428149 0.659764
vt 0.428149 0.622739
vt 0.666132 0.653196
vt 0.807871 0.311357
vt 0.800203 0.384344
vt 0.132805 0.624792
vt 0.163204 0.624704
vt 0.150501 0.548632
vt 0.124321 0.548708
vt 0.691425 0.627903
vt 0.771102 0.384432
vt 0.782578 0.311433
vt 0.41398 0.693969
vt 0.724472 0.614215
vt 0.388317 0.828055
vt 0.380649 0.755067
vt 0.347602 0.755026
vt 0.350294 0.828007
vt 0.093088 0.624837
vt 0.090115 0.548746
vt 0.760242 0.614215
vt 0.309139 0.828007
vt 0.311832 0.755026
vt 0.3878 0.720149
vt 0.793289 0.627903
vt 0.278785 0.755067
vt 0.271117 0.828055
vt 0.050099 0.624831
vt 0.053091 0.548742
vt 0.818582 0.653196
vt 0.242016 0.828142
vt 0.253492 0.755143
vt 0.353594 0.734318
vt 0.832271 0.686244
vt 0.989646 0.083383
vt 0.981978 0.010395
vt 0.948931 0.010354
vt 0.951624 0.083335
vt 0.010382 0.624777
vt 0.018885 0.548695
vt 0.832271 0.722013
vt 0.910469 0.083335
vt 0.913161 0.010354
vt 0.31657 0.734318
vt 0.818582 0.755061
vt 0.880114 0.010395
vt 0.872446 0.083383
vt 0.792239 0.086514
vt 0.822637 0.086426
vt 0.809934 0.010354
vt 0.783754 0.01043
vt 0.793289 0.780354
vt 0.64908 0.08347
vt 0.637604 0.010471
vt 0.619979 0.083383
vt 0.612311 0.010395
vt 0.282364 0.720149
vt 0.760242 0.794042
vt 0.579264 0.010354
vt 0.581956 0.083335
vt 0.752522 0.086559
vt 0.749549 0.010468
vt 0.724472 0.794042
vt 0.540801 0.083335
vt 0.543494 0.010354
vt 0.256184 0.693969
vt 0.691425 0.780354
vt 0.510447 0.010395
vt 0.502779 0.083383
vt 0.709533 0.086554
vt 0.712524 0.010464
vt 0.666132 0.755061
vt 0.473678 0.08347
vt 0.485154 0.010471
vt 0.242016 0.659764
vt 0.917403 0.384344
vt 0.909735 0.311357
vt 0.917403 0.522275
vt 0.879381 0.522228
vt 0.502779 0.221314
vt 0.473678 0.221401
vt 0.540801 0.221266
vt 0.581956 0.221266
vt 0.619979 0.221314
vt 0.872446 0.221314
vt 0.843345 0.08347
vt 0.843345 0.221401
vt 0.910469 0.221266
vt 0.951624 0.221266
vt 0.989646 0.221314
vt 0.271117 0.965985
vt 0.242016 0.966073
vt 0.309139 0.965938
vt 0.350294 0.965938
vt 0.388317 0.965985
vt 0.800203 0.522275
vt 0.771102 0.522363
vt 0.838225 0.522228
vt 0.41398 0.588534
vt 0.561603 0.690348
vt 0.558621 0.614257
vt 0.3878 0.562354
vt 0.60132 0.690298
vt 0.592827 0.614215
vt 0.353594 0.548185
vt 0.010354 0.389403
vt 0.040752 0.389498
vt 0.049255 0.313416
vt 0.023075 0.313334
vt 0.31657 0.548185
vt 0.080469 0.389553
vt 0.083461 0.313463
vt 0.282364 0.562354
vt 0.123459 0.389558
vt 0.120485 0.313467
vt 0.256184 0.588534
vt 0.163176 0.389513
vt 0.154691 0.313429
vt 0.242016 0.622739
vt 0.193574 0.389425
vt 0.180871 0.313353
vt 0.669816 0.086499
vt 0.678319 0.010417
vt 0.669788 0.224865
vt 0.709512 0.22492
vt 0.16317 0.527879
vt 0.193574 0.527791
vt 0.123446 0.527924
vt 0.080448 0.527919
vt 0.040724 0.527864
vt 0.601332 0.828664
vt 0.631735 0.828573
vt 0.631719 0.690207
vt 0.561607 0.828714
vt 0.51861 0.828714
vt 0.478886 0.828664
vt 0.1328 0.763158
vt 0.163204 0.76307
vt 0.093076 0.763203
vt 0.050078 0.763198
vt 0.010354 0.763143
vt 0.792233 0.22488
vt 0.822637 0.224792
vt 0.752509 0.224925
vt 0.291497 0.331695
vt 0.288874 0.32777
vt 0.25847 0.358173
vt 0.262396 0.360796
vt 0.408697 0.331695
vt 0.41132 0.32777
vt 0.370674 0.315946
vt 0.371595 0.311315
vt 0.453547 0.439974
vt 0.458178 0.440895
vt 0.453547 0.398819
vt 0.458178 0.397898
vt 0.370674 0.522846
vt 0.371596 0.527477
vt 0.41132 0.511023
vt 0.408697 0.507097
vt 0.262396 0.477996
vt 0.25847 0.480619
vt 0.288874 0.511023
vt 0.291497 0.507097
vt 0.246647 0.398819
vt 0.242016 0.397898
vt 0.329519 0.315946
vt 0.328598 0.311315
vt 0.246647 0.439974
vt 0.242016 0.440895
vt 0.441723 0.358173
vt 0.437798 0.360796
vt 0.441723 0.480619
vt 0.437798 0.477996
vt 0.329519 0.522846
vt 0.328598 0.527477
usemtl 
f 1/1/1 2/2/1 3/3/1
f 1/1/1 3/3/1 4/4/1
f 5/5/2 6/6/2 7/7/2
f 8/8/3 7/9/3 9/10/3
f 7/9/3 6/11/3 9/10/3
f 10/12/4 4/13/4 3/14/4
f 5/5/2 11/15/2 6/6/2
f 9/10/5 6/11/5 11/16/5
f 9/10/5 11/16/5 12/17/5
f 13/18/6 1/19/6 4/20/6
f 13/18/6 4/20/6 14/21/6
f 5/5/2 15/22/2 11/15/2
f 12/17/7 11/16/7 16/23/7
f 11/16/7 15/24/7 16/23/7
f 10/12/8 14/25/8 4/13/8
f 5/5/2 17/26/2 15/22/2
f 16/27/9 15/28/9 17/29/9
f 16/27/9 17/29/9 18/30/9
f 19/31/10 13/18/10 20/32/10
f 13/18/10 14/21/10 20/32/10
f 5/5/2 21/33/2 17/26/2
f 18/30/11 17/29/11 22/34/11
f 17/29/11 21/35/11 22/34/11
f 10/12/12 20/36/12 14/25/12
f 5/5/2 23/37/2 21/33/2
f 22/34/13 21/35/13 23/38/13
f 22/34/13 23/38/13 24/39/13
f 25/40/14 19/31/14 26/41/14
f 19/31/14 20/32/14 26/41/14
f 5/5/2 27/42/2 23/37/2
f 24/39/15 23/38/15 28/43/15
f 23/38/15 27/44/15 28/43/15
f 10/12/16 26/45/16 20/36/16
f 5/5/2 29/46/2 27/42/2
f 28/47/17 27/48/17 29/49/17
f 28/47/17 29/49/17 30/50/17
f 31/51/18 25/40/18 26/41/18
f 31/51/18 26/41/18 32/52/18
f 5/5/2 33/53/2 29/46/2
f 30/50/19 29/49/19 34/54/19
f 29/49/19 33/55/19 34/54/19
f 10/12/20 32/56/20 26/45/20
f 5/5/2 35/57/2 33/53/2
f 34/54/21 33/55/21 35/58/21
f 34/54/21 35/58/21 36/59/21
f 37/60/22 31/61/22 32/62/22
f 37/60/22 32/62/22 38/63/22
f 5/5/2 39/64/2 35/57/2
f 36/65/23 35/66/23 40/67/23
f 35/66/23 39/68/23 40/67/23
f 10/12/24 38/69/24 32/56/24
f 5/5/2 41/70/2 39/64/2
f 40/67/25 39/68/25 41/71/25
f 40/67/25 41/71/25 42/72/25
f 43/73/26 37/60/26 44/74/26
f 37/60/26 38/63/26 44/74/26
f 5/5/2 45/75/2 41/70/2
f 42/72/27 41/71/27 46/76/27
f 41/71/27 45/77/27 46/76/27
f 10/12/28 44/78/28 38/69/28
f 5/5/2 47/79/2 45/75/2
f 46/76/29 45/77/29 47/80/29
f 46/76/29 47/80/29 48/81/29
f 49/82/30 43/73/30 50/83/30
f 43/73/30 44/74/30 50/83/30
f 5/5/2 51/84/2 47/79/2
f 48/81/31 47/80/31 52/85/31
f 47/80/31 51/86/31 52/85/31
f 10/12/32 50/87/32 44/78/32
f 5/5/2 7/7/2 51/84/2
f 52/88/33 51/89/33 7/9/33
f 52/88/33 7/9/33 8/8/33
f 53/90/34 52/88/34 8/8/34
f 53/90/34 8/8/34 54/91/34
f 55/92/35 48/81/35 52/85/35
f 55/92/35 52/85/35 53/93/35
f 56/94/36 46/76/36 48/81/36
f 56/94/36 48/81/36 55/92/36
f 57/95/37 42/72/37 46/76/37
f 57/95/37 46/76/37 56/94/37
f 58/96/38 40/67/38 42/72/38
f 58/96/38 42/72/38 57/95/38
f 59/97/39 36/59/39 40/98/39
f 59/97/39 40/98/39 58/99/39
f 60/100/40 34/54/40 36/59/40
f 60/100/40 36/59/40 59/97/40
f 61/101/41 30/50/41 34/54/41
f 61/101/41 34/54/41 60/100/41
f 62/102/42 28/47/42 30/50/42
f 62/102/42 30/50/42 61/101/42
f 63/103/43 24/39/43 28/43/43
f 63/103/43 28/43/43 62/104/43
f 64/105/44 22/34/44 24/39/44
f 64/105/44 24/39/44 63/103/44
f 65/106/45 18/30/45 22/34/45
f 65/106/45 22/34/45 64/105/45
f 66/107/46 16/27/46 18/30/46
f 66/107/46 18/30/46 65/106/46
f 67/108/47 12/17/47 16/23/47
f 67/108/47 16/23/47 66/109/47
f 68/110/48 9/10/48 12/17/48
f 68/110/48 12/17/48 67/108/48
f 54/91/49 8/8/49 9/10/49
f 54/91/49 9/10/49 68/110/49
f 10/12/50 3/14/50 69/111/50
f 2/2/51 70/112/51 3/3/51
f 70/112/51 69/113/51 3/3/51
f 10/12/52 69/111/52 71/114/52
f 70/112/53 72/115/53 69/113/53
f 72/115/53 71/116/53 69/113/53
f 10/12/54 71/114/54 73/117/54
f 72/118/55 74/119/55 73/120/55
f 72/118/55 73/120/55 71/121/55
f 10/12/56 73/117/56 75/122/56
f 74/119/57 76/123/57 73/120/57
f 76/123/57 75/124/57 73/120/57
f 10/12/58 75/122/58 77/125/58
f 76/123/59 78/126/59 77/127/59
f 76/123/59 77/127/59 75/124/59
f 10/12/60 77/125/60 79/128/60
f 78/126/61 80/129/61 77/127/61
f 80/129/61 79/130/61 77/127/61
f 10/12/62 79/128/62 81/131/62
f 80/129/63 82/132/63 81/133/63
f 80/129/63 81/133/63 79/130/63
f 10/12/64 81/131/64 50/87/64
f 82/134/65 49/82/65 50/83/65
f 82/134/65 50/83/65 81/135/65
f 83/136/66 84/137/66 49/82/66
f 83/136/66 49/82/66 82/134/66
f 85/138/67 83/139/67 80/129/67
f 83/139/67 82/132/67 80/129/67
f 86/140/68 85/138/68 80/129/68
f 86/140/68 80/129/68 78/126/68
f 87/141/69 86/140/69 78/126/69
f 87/141/69 78/126/69 76/123/69
f 88/142/70 87/141/70 76/123/70
f 88/142/70 76/123/70 74/119/70
f 89/143/71 88/144/71 74/145/71
f 89/143/71 74/145/71 72/115/71
f 90/146/72 89/143/72 72/115/72
f 90/146/72 72/115/72 70/112/72
f 91/147/73 90/146/73 2/2/73
f 90/146/73 70/112/73 2/2/73
f 92/148/74 91/147/74 2/2/74
f 92/148/74 2/2/74 1/1/74
f 93/149/75 92/150/75 13/18/75
f 92/150/75 1/19/75 13/18/75
f 94/151/76 93/149/76 13/18/76
f 94/151/76 13/18/76 19/31/76
f 95/152/77 94/151/77 19/31/77
f 95/152/77 19/31/77 25/40/77
f 96/153/78 95/152/78 25/40/78
f 96/153/78 25/40/78 31/51/78
f 97/154/79 96/155/79 31/61/79
f 97/154/79 31/61/79 37/60/79
f 98/156/80 97/154/80 37/60/80
f 98/156/80 37/60/80 43/73/80
f 84/137/81 98/156/81 49/82/81
f 98/156/81 43/73/81 49/82/81
f 66/157/2 96/158/2 97/159/2
f 66/157/2 97/159/2 67/160/2
f 63/161/2 93/162/2 64/163/2
f 93/162/2 94/164/2 64/163/2
f 60/165/2 90/166/2 61/167/2
f 90/166/2 91/168/2 61/167/2
f 57/169/2 87/170/2 88/171/2
f 57/169/2 88/171/2 58/172/2
f 53/173/2 83/174/2 85/175/2
f 53/173/2 85/175/2 55/176/2
f 67/160/2 97/159/2 68/177/2
f 97/159/2 98/178/2 68/177/2
f 64/163/2 94/164/2 65/179/2
f 94/164/2 95/180/2 65/179/2
f 68/177/2 98/178/2 54/181/2
f 98/178/2 84/182/2 54/181/2
f 61/167/2 91/168/2 92/183/2
f 61/167/2 92/183/2 62/184/2
f 58/172/2 88/171/2 89/185/2
f 58/172/2 89/185/2 59/186/2
f 55/176/2 85/175/2 56/187/2
f 85/175/2 86/188/2 56/187/2
f 54/181/2 84/182/2 83/174/2
f 54/181/2 83/174/2 53/173/2
f 65/179/2 95/180/2 96/158/2
f 65/179/2 96/158/2 66/157/2
f 62/184/2 92/183/2 93/162/2
f 62/184/2 93/162/2 63/161/2
f 59/186/2 89/185/2 60/165/2
f 89/185/2 90/166/2 60/165/2
f 56/187/2 86/188/2 57/169/2
f 86/188/2 87/170/2 57/169/2
s off
g Cube.001
v 0.287817 0.019552 -0.013433
v 0.287817 0.019552 0.013433
v 0.287817 -0.003693 0.013433
v 0.287817 -0.003693 -0.013433
v 0.103581 0.019552 0.021897
v 0.103581 0.005821 0.021897
v 0.103581 0.005821 -0.021897
v 0.057524 0.005821 -0.021897
v 0.057524 0.019552 -0.021897
v 0.103581 0.019552 -0.021897
v 0.057524 0.019552 0.021897
v 0.057524 0.005821 0.021897
v 0.065085 0.005821 -0.012225
v 0.065085 0.019552 -0.012225
v 0.065085 0.019552 0.012225
v 0.065085 0.005821 0.012225
v 0.09602 0.005821 -0.012225
v 0.09602 0.019552 -0.012225
v 0.09602 0.019552 0.012225
v 0.09602 0.005821 0.012225
vn 1 -0 -0
vn 0.0459 -0 0.9989
vn -0 -0 -1
vn 0.0459 -0 -0.9989
vn -0 1 -0
vn -0.0516 -0.9987 -0
vn -1 -0 -0
vn -0 -0 1
vn -0 -1 -0
vt 0.135754 0.913319
vt 0.135754 0.783911
vt 0.010354 0.783911
vt 0.010354 0.913318
vt 0.624994 0.311315
vt 0.624994 0.537558
vt 0.699068 0.537558
vt 0.750394 0.311315
vt 0.55296 0.367264
vt 0.55296 0.311315
vt 0.478886 0.311315
vt 0.478886 0.367264
vt 0.478886 0.593507
vt 0.604286 0.593507
vt 0.412197 0.010354
vt 0.282789 0.010354
vt 0.242016 0.234558
vt 0.45297 0.234558
vt 0.010354 0.236633
vt 0.221308 0.236633
vt 0.180535 0.010354
vt 0.051127 0.010354
vt 0.927053 0.825169
vt 0.927053 0.614215
vt 0.852979 0.614215
vt 0.852979 0.825169
vt 0.652443 0.932524
vt 0.726517 0.932524
vt 0.726517 0.81475
vt 0.652443 0.81475
vt 0.409025 0.755026
vt 0.409025 0.8291
vt 0.446604 0.8291
vt 0.446604 0.755026
vt 0.624994 0.593507
vt 0.699068 0.593507
vt 0.40638 0.243759
vt 0.288606 0.243759
vt 0.174718 0.245825
vt 0.056944 0.245825
vt 0.288606 0.281406
vt 0.242016 0.290607
vt 0.45297 0.290607
vt 0.40638 0.281406
vt 0.056944 0.283434
vt 0.010354 0.292626
vt 0.221308 0.292626
vt 0.174718 0.283434
vt 0.156462 0.783911
vt 0.156462 0.857985
vt 0.194042 0.857985
vt 0.194042 0.783911
vt 0.747225 0.932524
vt 0.821299 0.932524
vt 0.821299 0.81475
vt 0.747225 0.81475
usemtl 
f 99/189/82 100/190/82 101/191/82
f 99/189/82 101/191/82 102/192/82
f 100/193/83 103/194/83 104/195/83
f 100/193/83 104/195/83 101/196/83
f 105/197/84 106/198/84 107/199/84
f 105/197/84 107/199/84 108/200/84
f 108/200/85 99/201/85 105/197/85
f 99/201/85 102/202/85 105/197/85
f 100/203/86 99/204/86 108/205/86
f 100/203/86 108/205/86 103/206/86
f 104/207/87 105/208/87 102/209/87
f 104/207/87 102/209/87 101/210/87
f 109/211/88 107/212/88 106/213/88
f 109/211/88 106/213/88 110/214/88
f 111/215/82 112/216/82 113/217/82
f 111/215/82 113/217/82 114/218/82
f 115/219/89 116/220/89 112/221/89
f 115/219/89 112/221/89 111/222/89
f 103/194/89 109/223/89 110/224/89
f 103/194/89 110/224/89 104/195/89
f 117/225/86 103/206/86 116/226/86
f 103/206/86 108/205/86 116/226/86
f 115/227/90 105/208/90 118/228/90
f 105/208/90 104/207/90 118/228/90
f 112/229/86 107/230/86 109/231/86
f 112/229/86 109/231/86 113/232/86
f 114/233/90 110/234/90 106/235/90
f 114/233/90 106/235/90 111/236/90
f 116/226/86 108/205/86 107/230/86
f 116/226/86 107/230/86 112/229/86
f 111/236/90 106/235/90 115/227/90
f 106/235/90 105/208/90 115/227/90
f 113/232/86 109/231/86 117/225/86
f 109/231/86 103/206/86 117/225/86
f 118/228/90 104/207/90 110/234/90
f 118/228/90 110/234/90 114/233/90
f 114/237/84 113/238/84 117/239/84
f 114/237/84 117/239/84 118/240/84
f 118/241/88 117/242/88 116/243/88
f 118/241/88 116/243/88 115/244/88
s off
