# Apple ModelIO OBJ File: sarten_para_texturizar_
mtllib sarten_para_texturizar_.mtl
g Cylinder
v -1.97555 -0.158615 0
v -1.54207 -0.158615 -0.79331
v -1.97555 -0.158615 -0.916035
v -1.47129 -0.003702 0.896155
v -1.43824 0.158278 0.930641
v -1.97555 -0.003702 1.03479
v -1.97555 0.158278 1.07461
v -1.47555 0.158278 -0.866025
v -1.97555 0.158278 -1
v -1.22474 -0.158615 -0.458017
v -1.97555 -0.169433 0
v -1.51758 -0.165682 0.838127
v -1.97555 -0.165682 0.967785
v -1.10952 0.158278 -0.5
v -1.1086 -0.158615 0
v -1.10214 -0.003702 0.517395
v -1.0449 0.158278 0.537306
v -0.975545 0.158278 0
v -1.22474 -0.158615 0.458017
v -1.10214 -0.003702 -0.517395
v -1.0449 0.158278 -0.537306
v -0.900933 0.158278 0
v -0.967028 -0.003702 0
v -1.10952 0.158278 0.5
v -1.54207 -0.158615 0.79331
v -1.47129 -0.003702 -0.896155
v -1.43824 0.158278 -0.930641
v -1.47555 0.158278 0.866025
v -1.97555 -0.158615 0.916035
v -1.51758 -0.165682 -0.838127
v -1.18233 -0.165682 -0.483893
v -1.97555 0.158278 1
v -2.40902 -0.158615 0.79331
v -1.97555 -0.003702 -1.03479
v -1.97555 0.158278 -1.07461
v -2.47554 0.158278 0.866025
v -2.72635 -0.158615 0.458017
v -1.97555 -0.165682 -0.967785
v -2.84157 0.158278 0.5
v -2.84249 -0.158615 0
v -1.05962 -0.165682 0
v -2.97554 0.158278 0
v -2.72635 -0.158615 -0.458017
v -1.18233 -0.165682 0.483893
v -2.84157 0.158278 -0.5
v -2.40902 -0.158615 -0.79331
v -2.47554 0.158278 -0.866025
v -2.43351 -0.165682 0.838127
v -2.51285 0.158278 0.930641
v -2.4798 -0.003702 0.896155
v -2.76876 -0.165682 0.483893
v -2.90619 0.158278 0.537306
v -2.84895 -0.003702 0.517395
v -2.89147 -0.165682 0
v -3.05016 0.158278 0
v -2.98406 -0.003702 0
v -2.76876 -0.165682 -0.483893
v -2.84895 -0.003702 -0.517395
v -2.90619 0.158278 -0.537306
v -2.43351 -0.165682 -0.838127
v -2.4798 -0.003702 -0.896155
v -2.51285 0.158278 -0.930641
v -4.59298 0.238341 -0.137916
v -4.59298 0.020119 -0.137916
v -4.68104 0.072946 -0.071142
v -4.68104 0.185514 -0.071142
v -2.998 -0.074585 -0.094275
v -2.998 0.074585 -0.094275
v -2.91629 0.074585 -0.094275
v -2.91629 -0.074585 -0.094275
v -2.91629 0.074585 0.094275
v -2.91629 -0.074585 0.094275
v -4.1457 0.046629 0.137916
v -4.1457 0.264851 0.137916
v -4.59298 0.238341 0.137916
v -4.59298 0.020119 0.137916
v -2.998 -0.074585 0.094275
v -4.21241 0.260897 0.066688
v -4.21241 0.260897 -0.066688
v -4.21241 0.042675 -0.066688
v -4.21241 0.042675 0.066688
v -4.1457 0.264851 -0.137916
v -2.998 0.074585 0.094275
v -4.52627 0.242294 0.066688
v -4.52627 0.024073 0.066688
v -4.1457 0.046629 -0.137916
v -4.52627 0.024073 -0.066688
v -4.52627 0.242294 -0.066688
v -4.68104 0.072946 0.071142
v -4.68104 0.185514 0.071142
vn -0 1 -0
vn 0.2542 -0.2408 0.9367
vn -0.2562 0.2572 0.9318
vn 0.0011 -1 0.0039
vn -0.6798 0.3148 0.6624
vn 0.6784 -0.3016 0.67
vn -0.8997 0.368 0.2349
vn 0.9025 -0.3583 -0.2388
vn -0.8997 0.368 -0.2349
vn 0.6784 -0.3016 -0.67
vn -0.6798 0.3148 -0.6624
vn 0.003 -1 -0.0028
vn -0.2562 0.2572 -0.9318
vn 0.2542 -0.2408 -0.9367
vn 0.2562 0.2572 -0.9318
vn 0.0011 -1 -0.0039
vn 0.6798 0.3148 -0.6624
vn 0.0041 -1 -0.001
vn 0.8997 0.368 -0.2349
vn 0.003 -1 0.0028
vn 0.8997 0.368 0.2349
vn 0.9025 -0.3583 0.2388
vn 0.6798 0.3148 0.6624
vn 0.0041 -1 0.001
vn 0.2562 0.2572 0.9318
vn -0.0011 -1 0.0039
vn -0.2542 -0.2408 0.9367
vn -0.003 -1 0.0028
vn -0.6784 -0.3016 0.67
vn -0.0041 -1 0.001
vn -0.9025 -0.3583 0.2388
vn -0.0041 -1 -0.001
vn -0.9025 -0.3583 -0.2388
vn -0.003 -1 -0.0028
vn -0.6784 -0.3016 -0.67
vn -0.0011 -1 -0.0039
vn -0.2542 -0.2408 -0.9367
vn -0.6042 -0 -0.7968
vn -0 -0 -1
vn 1 -0 -0
vn -0 -0 1
vn -0 -1 -0
vn -1 -0 -0
vn 0.1635 0.9865 -0
vn 0.038 -0 0.9993
vn -0.105 -0.9945 -0
vn 0.038 -0 -0.9993
vn -0.2485 -0.3795 -0.8912
vn -0.6507 -0.4307 -0.6253
vn -0.8513 -0.4767 -0.2192
vn -0.8513 -0.4767 0.2192
vn -0.6507 -0.4307 0.6253
vn -0.2485 -0.3795 0.8912
vn 0.8513 -0.4767 0.2192
vn 0.2485 -0.3795 -0.8912
vn 0.6507 -0.4307 -0.6253
vn 0.8513 -0.4767 -0.2192
vn 0.6507 -0.4307 0.6253
vn 0.2485 -0.3795 0.8912
vn 0.0592 -0.9982 -0
vn -0.0592 0.9982 -0
vn -0.6042 -0 0.7968
vn -0.5144 0.8575 -0
vn -0.5144 -0.8575 -0
vt 0.108658 0.65785
vt 0.176879 0.731424
vt 0.133629 0.756434
vt 0.726938 0.129325
vt 0.723278 0.015669
vt 0.78298 0.12913
vt 0.782991 0.015467
vt 0.797112 0.774198
vt 0.749041 0.774026
vt 0.741613 0.55187
vt 0.797065 0.552058
vt 0.201849 0.6867
vt 0.612224 0.656092
vt 0.684355 0.733838
vt 0.638761 0.760207
vt 0.46084 0.756476
vt 0.423616 0.757082
vt 0.428277 0.535059
vt 0.468913 0.53436
vt 0.201849 0.634245
vt 0.437382 0.129536
vt 0.439592 0.01581
vt 0.479432 0.130416
vt 0.48326 0.016747
vt 0.372767 0.757304
vt 0.372767 0.535315
vt 0.176879 0.588115
vt 0.3225 0.129536
vt 0.320289 0.01581
vt 0.379941 0.015467
vt 0.379941 0.129214
vt 0.321918 0.757082
vt 0.317257 0.535059
vt 0.133629 0.560671
vt 0.28045 0.130416
vt 0.276621 0.016747
vt 0.284694 0.756476
vt 0.276621 0.53436
vt 0.083688 0.559265
vt 0.638761 0.553413
vt 0.684355 0.582454
vt 0.977105 0.237623
vt 0.929034 0.237795
vt 0.984533 0.015467
vt 0.929081 0.015655
vt 0.040437 0.584275
vt 0.79702 0.407052
vt 0.797009 0.293389
vt 0.856722 0.293592
vt 0.853062 0.407247
vt 0.880857 0.237623
vt 0.873514 0.015467
vt 0.015467 0.628999
vt 0.586113 0.55187
vt 0.698413 0.519903
vt 0.661189 0.520659
vt 0.66585 0.298709
vt 0.706486 0.297837
vt 0.015467 0.681454
vt 0.710679 0.631212
vt 0.61034 0.520936
vt 0.61034 0.299028
vt 0.040437 0.727584
vt 0.710679 0.686622
vt 0.559491 0.520659
vt 0.55483 0.298709
vt 0.083688 0.755029
vt 0.522267 0.519903
vt 0.514194 0.297837
vt 0.845289 0.774026
vt 0.852632 0.55187
vt 0.586113 0.758664
vt 0.84258 0.015669
vt 0.838902 0.129325
vt 0.540518 0.729623
vt 0.28045 0.389739
vt 0.276621 0.276076
vt 0.320289 0.275325
vt 0.3225 0.389034
vt 0.514194 0.680865
vt 0.379941 0.27505
vt 0.379941 0.388776
vt 0.514194 0.625454
vt 0.437382 0.389034
vt 0.439592 0.275325
vt 0.540518 0.578239
vt 0.479432 0.389738
vt 0.48326 0.276076
vt 0.741098 0.407247
vt 0.73742 0.293592
vt 0.023459 0.101919
vt 0.023459 0.159382
vt 0.015467 0.09977
vt 0.015467 0.161521
vt 0.101875 0.023469
vt 0.052161 0.052171
vt 0.046311 0.046311
vt 0.099733 0.015467
vt 0.208993 0.052264
vt 0.159279 0.023503
vt 0.161421 0.015504
vt 0.214844 0.046411
vt 0.237695 0.159509
vt 0.237695 0.102046
vt 0.245687 0.161658
vt 0.245687 0.099907
vt 0.052161 0.209164
vt 0.046311 0.215017
vt 0.208993 0.209257
vt 0.214844 0.215117
vt 0.101875 0.237925
vt 0.159279 0.237959
vt 0.099733 0.245924
vt 0.161421 0.245961
vt 0.158758 0.276895
vt 0.015467 0.330682
vt 0.046641 0.308568
vt 0.120556 0.280823
vt 0.015467 0.519839
vt 0.113416 0.483072
vt 0.116604 0.491564
vt 0.018655 0.528331
vt 0.184322 0.891975
vt 0.184322 0.787368
vt 0.205254 0.787368
vt 0.205254 0.891975
vt 0.657485 0.109207
vt 0.514194 0.055421
vt 0.549054 0.015467
vt 0.692344 0.069254
vt 0.888411 0.560909
vt 0.888411 0.55187
vt 0.909344 0.55187
vt 0.909344 0.560909
vt 0.224551 0.276895
vt 0.239358 0.276895
vt 0.239358 0.429938
vt 0.224551 0.429938
vt 0.081869 0.918059
vt 0.077024 0.787368
vt 0.107646 0.787368
vt 0.102801 0.918059
vt 0.887656 0.306438
vt 0.922501 0.293389
vt 0.922501 0.446442
vt 0.887656 0.459491
vt 0.692344 0.258411
vt 0.594395 0.221644
vt 0.193617 0.316849
vt 0.050327 0.370635
vt 0.689156 0.266903
vt 0.591207 0.230136
vt 0.224551 0.460872
vt 0.233612 0.460872
vt 0.233612 0.481804
vt 0.224551 0.481804
vt 0.883566 0.680784
vt 0.914189 0.680784
vt 0.746257 0.520936
vt 0.797044 0.520754
vt 0.433662 0.502786
vt 0.472989 0.503426
vt 0.379941 0.502552
vt 0.326219 0.502786
vt 0.286892 0.503426
vt 0.782956 0.242831
vt 0.833743 0.243014
vt 0.379941 0.243025
vt 0.433662 0.243317
vt 0.847942 0.520936
vt 0.286892 0.244116
vt 0.326219 0.243317
vt 0.472989 0.244116
vt 0.732058 0.243014
vt 0.891473 0.724208
vt 0.906281 0.724208
vt 0.914189 0.731819
vt 0.883566 0.731819
vt 0.284529 0.831209
vt 0.299336 0.831209
vt 0.307244 0.838741
vt 0.276621 0.838741
vt 0.891473 0.688395
vt 0.284529 0.795769
vt 0.276621 0.788238
vt 0.299336 0.795769
vt 0.307244 0.788238
vt 0.906281 0.688395
vt 0.883566 0.762753
vt 0.918411 0.775802
vt 0.918411 0.928855
vt 0.883566 0.915806
vt 0.13858 0.787368
vt 0.153388 0.787368
vt 0.153388 0.940398
vt 0.13858 0.940398
vt 0.02288 0.903194
vt 0.02288 0.824249
vt 0.038677 0.824249
vt 0.038677 0.903194
vt 0.587256 0.019394
vt 0.66117 0.04714
vt 0.015467 0.787368
vt 0.04609 0.787368
vt 0.04609 0.940411
vt 0.015467 0.940411
usemtl 
f 1/1/1 2/2/1 3/3/1
f 4/4/2 5/5/2 6/6/2
f 5/5/2 7/7/2 6/6/2
f 3/8/3 2/9/3 8/10/3
f 3/8/3 8/10/3 9/11/3
f 1/1/1 10/12/1 2/2/1
f 11/13/4 12/14/4 13/15/4
f 2/16/5 10/17/5 14/18/5
f 2/16/5 14/18/5 8/19/5
f 1/1/1 15/20/1 10/12/1
f 16/21/6 17/22/6 4/23/6
f 17/22/6 5/24/6 4/23/6
f 10/17/7 15/25/7 18/26/7
f 10/17/7 18/26/7 14/18/7
f 1/1/1 19/27/1 15/20/1
f 20/28/8 21/29/8 22/30/8
f 20/28/8 22/30/8 23/31/8
f 15/25/9 19/32/9 18/26/9
f 19/32/9 24/33/9 18/26/9
f 1/1/1 25/34/1 19/27/1
f 26/35/10 27/36/10 21/29/10
f 26/35/10 21/29/10 20/28/10
f 19/32/11 25/37/11 24/33/11
f 25/37/11 28/38/11 24/33/11
f 1/1/1 29/39/1 25/34/1
f 11/13/12 30/40/12 31/41/12
f 25/42/13 29/43/13 28/44/13
f 29/43/13 32/45/13 28/44/13
f 1/1/1 33/46/1 29/39/1
f 34/47/14 35/48/14 27/49/14
f 34/47/14 27/49/14 26/50/14
f 29/43/15 33/51/15 36/52/15
f 29/43/15 36/52/15 32/45/15
f 1/1/1 37/53/1 33/46/1
f 11/13/16 38/54/16 30/40/16
f 33/55/17 37/56/17 39/57/17
f 33/55/17 39/57/17 36/58/17
f 1/1/1 40/59/1 37/53/1
f 11/13/18 31/41/18 41/60/18
f 37/56/19 40/61/19 42/62/19
f 37/56/19 42/62/19 39/57/19
f 1/1/1 43/63/1 40/59/1
f 11/13/20 44/64/20 12/14/20
f 40/61/21 43/65/21 42/62/21
f 43/65/21 45/66/21 42/62/21
f 1/1/1 46/67/1 43/63/1
f 23/31/22 22/30/22 16/21/22
f 22/30/22 17/22/22 16/21/22
f 43/65/23 46/68/23 45/66/23
f 46/68/23 47/69/23 45/66/23
f 1/1/1 3/3/1 46/67/1
f 11/13/24 41/60/24 44/64/24
f 46/70/25 3/8/25 47/71/25
f 3/8/25 9/11/25 47/71/25
f 11/13/26 13/15/26 48/72/26
f 6/6/27 7/7/27 49/73/27
f 6/6/27 49/73/27 50/74/27
f 11/13/28 48/72/28 51/75/28
f 50/76/29 49/77/29 52/78/29
f 50/76/29 52/78/29 53/79/29
f 11/13/30 51/75/30 54/80/30
f 53/79/31 52/78/31 55/81/31
f 53/79/31 55/81/31 56/82/31
f 11/13/32 54/80/32 57/83/32
f 56/82/33 55/81/33 58/84/33
f 55/81/33 59/85/33 58/84/33
f 11/13/34 57/83/34 60/86/34
f 58/84/35 59/85/35 61/87/35
f 59/85/35 62/88/35 61/87/35
f 11/13/36 60/86/36 38/54/36
f 61/89/37 62/90/37 34/47/37
f 62/90/37 35/48/37 34/47/37
f 39/91/1 42/92/1 52/93/1
f 42/92/1 55/94/1 52/93/1
f 32/95/1 36/96/1 49/97/1
f 32/95/1 49/97/1 7/98/1
f 24/99/1 28/100/1 5/101/1
f 24/99/1 5/101/1 17/102/1
f 14/103/1 18/104/1 21/105/1
f 18/104/1 22/106/1 21/105/1
f 42/92/1 45/107/1 59/108/1
f 42/92/1 59/108/1 55/94/1
f 36/96/1 39/91/1 52/93/1
f 36/96/1 52/93/1 49/97/1
f 28/100/1 32/95/1 5/101/1
f 32/95/1 7/98/1 5/101/1
f 18/104/1 24/99/1 17/102/1
f 18/104/1 17/102/1 22/106/1
f 8/109/1 14/103/1 27/110/1
f 14/103/1 21/105/1 27/110/1
f 47/111/1 9/112/1 62/113/1
f 9/112/1 35/114/1 62/113/1
f 45/107/1 47/111/1 59/108/1
f 47/111/1 62/113/1 59/108/1
f 9/112/1 8/109/1 27/110/1
f 9/112/1 27/110/1 35/114/1
f 63/115/38 64/116/38 65/117/38
f 63/115/38 65/117/38 66/118/38
f 67/119/39 68/120/39 69/121/39
f 67/119/39 69/121/39 70/122/39
f 70/123/40 69/124/40 71/125/40
f 70/123/40 71/125/40 72/126/40
f 73/127/41 74/128/41 75/129/41
f 73/127/41 75/129/41 76/130/41
f 67/131/42 70/132/42 72/133/42
f 67/131/42 72/133/42 77/134/42
f 78/135/43 79/136/43 80/137/43
f 78/135/43 80/137/43 81/138/43
f 68/139/44 82/140/44 74/141/44
f 68/139/44 74/141/44 83/142/44
f 84/143/39 78/144/39 81/145/39
f 84/143/39 81/145/39 85/146/39
f 77/147/45 83/148/45 74/128/45
f 77/147/45 74/128/45 73/127/45
f 64/116/39 63/115/39 82/149/39
f 64/116/39 82/149/39 86/150/39
f 72/151/41 71/152/41 83/148/41
f 72/151/41 83/148/41 77/147/41
f 69/153/1 68/154/1 83/155/1
f 69/153/1 83/155/1 71/156/1
f 86/157/46 67/131/46 77/134/46
f 86/157/46 77/134/46 73/158/46
f 86/150/47 82/149/47 68/120/47
f 86/150/47 68/120/47 67/119/47
f 60/159/48 61/89/48 38/160/48
f 61/89/48 34/47/48 38/160/48
f 57/161/49 58/84/49 60/162/49
f 58/84/49 61/87/49 60/162/49
f 54/163/50 56/82/50 57/161/50
f 56/82/50 58/84/50 57/161/50
f 51/164/51 53/79/51 56/82/51
f 51/164/51 56/82/51 54/163/51
f 48/165/52 50/76/52 53/79/52
f 48/165/52 53/79/52 51/164/52
f 13/166/53 6/6/53 50/74/53
f 13/166/53 50/74/53 48/167/53
f 41/168/54 23/31/54 44/169/54
f 23/31/54 16/21/54 44/169/54
f 38/160/55 34/47/55 26/50/55
f 38/160/55 26/50/55 30/170/55
f 30/171/56 26/35/56 20/28/56
f 30/171/56 20/28/56 31/172/56
f 31/172/57 20/28/57 23/31/57
f 31/172/57 23/31/57 41/168/57
f 44/169/58 16/21/58 12/173/58
f 16/21/58 4/23/58 12/173/58
f 12/174/59 4/4/59 13/166/59
f 4/4/59 6/6/59 13/166/59
f 87/175/60 85/176/60 76/177/60
f 87/175/60 76/177/60 64/178/60
f 84/179/61 88/180/61 63/181/61
f 84/179/61 63/181/61 75/182/61
f 80/183/60 87/175/60 64/178/60
f 80/183/60 64/178/60 86/157/60
f 78/184/61 84/179/61 75/182/61
f 78/184/61 75/182/61 74/185/61
f 88/180/61 79/186/61 82/187/61
f 88/180/61 82/187/61 63/181/61
f 85/176/60 81/188/60 73/158/60
f 85/176/60 73/158/60 76/177/60
f 79/186/61 78/184/61 74/185/61
f 79/186/61 74/185/61 82/187/61
f 81/188/60 80/183/60 86/157/60
f 81/188/60 86/157/60 73/158/60
f 79/189/41 88/190/41 87/191/41
f 79/189/41 87/191/41 80/192/41
f 88/193/40 84/194/40 85/195/40
f 88/193/40 85/195/40 87/196/40
f 89/197/43 90/198/43 66/199/43
f 89/197/43 66/199/43 65/200/43
f 76/130/62 75/129/62 90/201/62
f 76/130/62 90/201/62 89/202/62
f 75/203/63 63/204/63 66/199/63
f 75/203/63 66/199/63 90/198/63
f 64/205/64 76/206/64 89/197/64
f 64/205/64 89/197/64 65/200/64
s off
