# Apple ModelIO OBJ File: tapete
mtllib tapete.mtl
g Cube_Material
v 3.44124 -0.07795 -2.68034
v 3.44124 -0.07795 2.68034
v -3.44124 -0.07795 2.68034
v -3.44124 -0.07795 -2.68034
v 3.44124 0.07795 2.68034
v -3.44124 0.07795 2.68034
v -3.44124 0.07795 -2.68034
v 3.44124 0.07795 -2.68034
vn -0 -1 -0
vn -0 -0 1
vn -1 -0 -0
vn -0 1 -0
vn 1 -0 -0
vn -0 -0 -1
vt 0.323899 0.009434
vt 0.009434 0.009434
vt 0.009434 0.323899
vt 0.323899 0.323899
vt 0.323899 0.657233
vt 0.323899 0.342767
vt 0.009434 0.342767
vt 0.009434 0.657233
vt 0.657233 0.323899
vt 0.657233 0.009434
vt 0.342767 0.009434
vt 0.342767 0.323899
vt 0.657233 0.342767
vt 0.342767 0.342767
vt 0.342767 0.657233
vt 0.657233 0.657233
vt 0.323899 0.990566
vt 0.323899 0.676101
vt 0.009434 0.676101
vt 0.009434 0.990566
vt 0.657233 0.990566
vt 0.657233 0.676101
vt 0.342767 0.676101
vt 0.342767 0.990566
usemtl Material
f 1/1/1 2/2/1 3/3/1
f 1/1/1 3/3/1 4/4/1
f 5/5/2 6/6/2 3/7/2
f 5/5/2 3/7/2 2/8/2
f 6/9/3 7/10/3 4/11/3
f 6/9/3 4/11/3 3/12/3
f 7/13/4 6/14/4 5/15/4
f 7/13/4 5/15/4 8/16/4
f 8/17/5 5/18/5 2/19/5
f 8/17/5 2/19/5 1/20/5
f 7/21/6 8/22/6 1/23/6
f 7/21/6 1/23/6 4/24/6
s off
