# Apple ModelIO OBJ File: lamparita_
mtllib lamparita_.mtl
g Sphere.001
v -0.977794 0.392053 -0.255586
v -0.946836 0.703328 -0.309208
v -0.797973 0.703328 -0.160345
v -0.851594 0.392053 -0.129386
v -1.15019 0.967215 -0.187372
v -1.15019 1.00554 -0.115681
v -1.07084 1.00554 -0.094421
v -1.035 0.967215 -0.156507
v -1.15019 0.915646 -0.250209
v -1.00358 0.915646 -0.210926
v -1.15019 0.703328 -0.363695
v -1.15019 0.852808 -0.301779
v -0.977794 0.852808 -0.255586
v -1.10974 0.215729 -0.027054
v -1.08013 0.215729 0.002557
v -1.15019 1.02913 -0.037892
v -1.15019 1.0371 0.043006
v -1.10974 1.02913 -0.027054
v -1.15019 0.207761 0.043006
v -1.15019 0.215729 -0.037892
v -1.08013 1.02913 0.002557
v -1.01276 1.00554 -0.036337
v -0.805402 0.392053 0.043006
v -1.06929 0.215729 0.043006
v -0.950674 0.967215 -0.072183
v -0.896255 0.915646 -0.103602
v -0.851594 0.852808 -0.129386
v -0.743485 0.703328 0.043006
v -0.805402 0.852808 0.043006
v -0.797973 0.703328 0.246357
v -0.851594 0.392053 0.215398
v -1.06929 1.02913 0.043006
v -0.9915 1.00554 0.043006
v -1.08013 0.215729 0.083455
v -0.919809 0.967215 0.043006
v -0.856971 0.915646 0.043006
v -1.08013 1.02913 0.083455
v -1.01276 1.00554 0.12235
v -0.977794 0.392053 0.341598
v -1.10974 0.215729 0.113066
v -0.950674 0.967215 0.158195
v -0.896255 0.915646 0.189614
v -0.851594 0.852808 0.215398
v -0.946836 0.703328 0.39522
v -0.977794 0.852808 0.341598
v -1.15019 0.703328 0.449707
v -1.15019 0.392053 0.387791
v -1.10974 1.02913 0.113066
v -1.07084 1.00554 0.180433
v -1.035 0.967215 0.242519
v -1.00358 0.915646 0.296938
v -1.15019 0.215729 0.123904
v -1.32258 0.392053 0.341598
v -1.19064 0.215729 0.113066
v -1.15019 0.967215 0.273384
v -1.15019 1.00554 0.201693
v -1.15019 0.915646 0.336221
v -1.15019 0.852808 0.387791
v -1.35354 0.703328 0.39522
v -1.15019 1.02913 0.123904
v -1.32258 0.852808 0.341598
v -1.44878 0.392053 0.215398
v -1.22025 0.215729 0.083455
v -1.19064 1.02913 0.113066
v -1.22953 1.00554 0.180433
v -1.26538 0.967215 0.242519
v -1.29679 0.915646 0.296938
v -1.5024 0.703328 0.246357
v -1.55689 0.703328 0.043006
v -1.49497 0.392053 0.043006
v -1.28761 1.00554 0.12235
v -1.3497 0.967215 0.158195
v -1.40412 0.915646 0.189614
v -1.44878 0.852808 0.215398
v -1.49497 0.852808 0.043006
v -1.22025 1.02913 0.083455
v -1.23108 0.215729 0.043006
v -1.44878 0.392053 -0.129386
v -1.22025 0.215729 0.002557
v -1.23108 1.02913 0.043006
v -1.30887 1.00554 0.043006
v -1.38056 0.967215 0.043006
v -1.4434 0.915646 0.043006
v -1.5024 0.703328 -0.160345
v -1.32258 0.392053 -0.255586
v -1.35354 0.703328 -0.309208
v -1.3497 0.967215 -0.072183
v -1.40412 0.915646 -0.103602
v -1.44878 0.852808 -0.129386
v -1.19064 0.215729 -0.027054
v -1.15019 0.392053 -0.301779
v -1.22025 1.02913 0.002557
v -1.28761 1.00554 -0.036337
v -1.19064 1.02913 -0.027054
v -1.22953 1.00554 -0.094421
v -1.26538 0.967215 -0.156507
v -1.29679 0.915646 -0.210926
v -1.32258 0.852808 -0.255586
vn 0.6944 -0.1887 -0.6944
vn 0.1253 0.875 -0.4677
vn 0.1676 0.7621 -0.6254
vn 0.2403 0.3715 -0.8968
vn 0.2028 0.6212 -0.7569
vn 0.4023 -0.8224 -0.4023
vn 0.0263 0.9948 -0.098
vn 0.0263 -0.9948 -0.098
vn 0.0775 0.9541 -0.2894
vn 0.0717 -0.9948 -0.0717
vn 0.2119 0.9541 -0.2119
vn 0.5495 -0.8224 -0.1472
vn 0.3424 0.875 -0.3424
vn 0.4578 0.7621 -0.4578
vn 0.6565 0.3715 -0.6565
vn 0.5541 0.6212 -0.5541
vn 0.9486 -0.1887 -0.2542
vn 0.0717 0.9948 -0.0717
vn 0.8968 0.3715 -0.2403
vn 0.9486 -0.1887 0.2542
vn 0.098 0.9948 -0.0263
vn 0.098 -0.9948 -0.0263
vn 0.2894 0.9541 -0.0775
vn 0.5495 -0.8224 0.1472
vn 0.4677 0.875 -0.1253
vn 0.6254 0.7621 -0.1676
vn 0.7569 0.6212 -0.2028
vn 0.2894 0.9541 0.0775
vn 0.4023 -0.8224 0.4023
vn 0.4677 0.875 0.1253
vn 0.6254 0.7621 0.1676
vn 0.8968 0.3715 0.2403
vn 0.7569 0.6212 0.2028
vn 0.6565 0.3715 0.6565
vn 0.098 0.9948 0.0263
vn 0.098 -0.9948 0.0263
vn 0.6944 -0.1887 0.6944
vn 0.2542 -0.1887 0.9486
vn 0.0717 0.9948 0.0717
vn 0.0717 -0.9948 0.0717
vn 0.2119 0.9541 0.2119
vn 0.3424 0.875 0.3424
vn 0.4578 0.7621 0.4578
vn 0.1472 -0.8224 0.5495
vn 0.5541 0.6212 0.5541
vn -0.1472 -0.8224 0.5495
vn 0.1253 0.875 0.4677
vn 0.1676 0.7621 0.6254
vn 0.2403 0.3715 0.8968
vn 0.2028 0.6212 0.7569
vn -0.2542 -0.1887 0.9486
vn 0.0263 0.9948 0.098
vn 0.0263 -0.9948 0.098
vn 0.0775 0.9541 0.2894
vn -0.2403 0.3715 0.8968
vn -0.4023 -0.8224 0.4023
vn -0.0263 0.9948 0.098
vn -0.0263 -0.9948 0.098
vn -0.0775 0.9541 0.2894
vn -0.1253 0.875 0.4677
vn -0.1676 0.7621 0.6254
vn -0.9486 -0.1887 0.2542
vn -0.2028 0.6212 0.7569
vn -0.3424 0.875 0.3424
vn -0.6944 -0.1887 0.6944
vn -0.4578 0.7621 0.4578
vn -0.6565 0.3715 0.6565
vn -0.5541 0.6212 0.5541
vn -0.8968 0.3715 0.2403
vn -0.0717 0.9948 0.0717
vn -0.0717 -0.9948 0.0717
vn -0.2119 0.9541 0.2119
vn -0.5495 -0.8224 -0.1472
vn -0.5495 -0.8224 0.1472
vn -0.098 0.9948 0.0263
vn -0.098 -0.9948 0.0263
vn -0.2894 0.9541 0.0775
vn -0.4677 0.875 0.1253
vn -0.6254 0.7621 0.1676
vn -0.6944 -0.1887 -0.6944
vn -0.7569 0.6212 0.2028
vn -0.9486 -0.1887 -0.2542
vn -0.6254 0.7621 -0.1676
vn -0.8968 0.3715 -0.2403
vn -0.7569 0.6212 -0.2028
vn -0.1472 -0.8224 -0.5495
vn -0.098 0.9948 -0.0263
vn -0.098 -0.9948 -0.0263
vn -0.2894 0.9541 -0.0775
vn -0.4677 0.875 -0.1253
vn -0.4023 -0.8224 -0.4023
vn -0.0717 0.9948 -0.0717
vn -0.0717 -0.9948 -0.0717
vn -0.2119 0.9541 -0.2119
vn -0.3424 0.875 -0.3424
vn -0.4578 0.7621 -0.4578
vn -0.6565 0.3715 -0.6565
vn -0.5541 0.6212 -0.5541
vn -0.2542 -0.1887 -0.9486
vn -0.2403 0.3715 -0.8968
vn -0.2028 0.6212 -0.7569
vn -0.0263 0.9948 -0.098
vn -0.0263 -0.9948 -0.098
vn -0.0775 0.9541 -0.2894
vn 0.1472 -0.8224 -0.5495
vn -0.1253 0.875 -0.4677
vn -0.1676 0.7621 -0.6254
vn 0.2542 -0.1887 -0.9486
vt 0.892722 0.508414
vt 0.825885 0.511825
vt 0.825885 0.467019
vt 0.892722 0.47043
vt 0.655925 0.663006
vt 0.666714 0.673441
vt 0.657973 0.688567
vt 0.643235 0.684966
vt 0.646469 0.654022
vt 0.630317 0.681972
vt 0.827091 0.550627
vt 0.795825 0.541309
vt 0.794803 0.508414
vt 0.782888 0.533549
vt 0.782019 0.505574
vt 0.308551 0.720688
vt 0.352842 0.7604
vt 0.320231 0.779392
vt 0.300899 0.725144
vt 0.678421 0.684924
vt 0.690595 0.697016
vt 0.673965 0.692636
vt 0.296259 0.708513
vt 0.312968 0.712969
vt 0.673965 0.70154
vt 0.657973 0.706034
vt 0.282575 0.779392
vt 0.292064 0.725144
vt 0.643235 0.710324
vt 0.630317 0.714246
vt 0.794803 0.47043
vt 0.782019 0.473271
vt 0.827091 0.428217
vt 0.893744 0.437535
vt 0.795825 0.437535
vt 0.832364 0.760295
vt 0.831159 0.721493
vt 0.897996 0.718082
vt 0.899018 0.750977
vt 0.678421 0.709252
vt 0.666714 0.72116
vt 0.284412 0.720688
vt 0.249963 0.7604
vt 0.655925 0.732284
vt 0.646469 0.742196
vt 0.782888 0.445296
vt 0.686139 0.713704
vt 0.681854 0.729893
vt 0.231135 0.727505
vt 0.279994 0.712969
vt 0.677905 0.744963
vt 0.674444 0.758333
vt 0.801098 0.750977
vt 0.800077 0.718082
vt 0.638708 0.750515
vt 0.671603 0.76949
vt 0.831159 0.676688
vt 0.800077 0.680098
vt 0.897996 0.680098
vt 0.832364 0.637885
vt 0.899018 0.647203
vt 0.695051 0.713704
vt 0.699336 0.729893
vt 0.703285 0.744963
vt 0.706747 0.758333
vt 0.231135 0.689521
vt 0.279994 0.704057
vt 0.787293 0.715242
vt 0.787293 0.682939
vt 0.249963 0.656626
vt 0.284412 0.696339
vt 0.725265 0.732284
vt 0.714476 0.72116
vt 0.734722 0.742196
vt 0.801098 0.647203
vt 0.709587 0.76949
vt 0.742482 0.750515
vt 0.916688 0.131302
vt 0.850035 0.14062
vt 0.84883 0.101818
vt 0.915667 0.098407
vt 0.70277 0.709252
vt 0.818769 0.131302
vt 0.817747 0.098407
vt 0.282575 0.637634
vt 0.292064 0.691882
vt 0.707226 0.70154
vt 0.723217 0.706034
vt 0.737955 0.710324
vt 0.750873 0.714246
vt 0.915667 0.060423
vt 0.84883 0.057012
vt 0.850035 0.01821
vt 0.916688 0.027528
vt 0.805832 0.123541
vt 0.804963 0.095566
vt 0.723217 0.688567
vt 0.737955 0.684966
vt 0.750873 0.681972
vt 0.817747 0.060423
vt 0.804963 0.063264
vt 0.818769 0.027528
vt 0.707226 0.692636
vt 0.300899 0.691882
vt 0.320231 0.637634
vt 0.352842 0.656626
vt 0.308551 0.696339
vt 0.70277 0.684924
vt 0.714476 0.673441
vt 0.725265 0.663006
vt 0.734722 0.654022
vt 0.741021 0.886107
vt 0.674184 0.889518
vt 0.741021 0.848123
vt 0.674184 0.844713
vt 0.805832 0.035289
vt 0.675389 0.92832
vt 0.742042 0.919002
vt 0.703285 0.650327
vt 0.706747 0.637885
vt 0.644123 0.919002
vt 0.643101 0.886107
vt 0.631186 0.911242
vt 0.630317 0.883267
vt 0.312968 0.704057
vt 0.37167 0.689521
vt 0.37167 0.727505
vt 0.695051 0.680472
vt 0.699336 0.664707
vt 0.686139 0.680472
vt 0.681854 0.664707
vt 0.677905 0.650327
vt 0.674444 0.637885
vt 0.643101 0.848123
vt 0.630317 0.850964
vt 0.742042 0.815228
vt 0.675389 0.80591
vt 0.644123 0.815228
vt 0.631186 0.822989
vt 0.893744 0.541309
usemtl 
f 1/1/1 2/2/1 3/3/1
f 1/1/1 3/3/1 4/4/1
f 5/5/2 6/6/2 7/7/2
f 5/5/2 7/7/2 8/8/2
f 9/9/3 5/5/3 10/10/3
f 5/5/3 8/8/3 10/10/3
f 11/11/4 12/12/4 2/2/4
f 12/12/4 13/13/4 2/2/4
f 12/12/5 9/14/5 10/15/5
f 12/12/5 10/15/5 13/13/5
f 14/16/6 1/17/6 4/18/6
f 14/16/6 4/18/6 15/19/6
f 16/20/7 17/21/7 18/22/7
f 19/23/8 20/24/8 14/16/8
f 6/6/9 16/20/9 18/22/9
f 6/6/9 18/22/9 7/7/9
f 19/23/10 14/16/10 15/19/10
f 7/7/11 18/22/11 21/25/11
f 7/7/11 21/25/11 22/26/11
f 15/19/12 4/18/12 23/27/12
f 15/19/12 23/27/12 24/28/12
f 8/8/13 7/7/13 25/29/13
f 7/7/13 22/26/13 25/29/13
f 10/10/14 8/8/14 25/29/14
f 10/10/14 25/29/14 26/30/14
f 2/2/15 13/13/15 27/31/15
f 2/2/15 27/31/15 3/3/15
f 13/13/16 10/15/16 27/31/16
f 10/15/16 26/32/16 27/31/16
f 4/4/17 3/3/17 28/33/17
f 4/4/17 28/33/17 23/34/17
f 18/22/18 17/21/18 21/25/18
f 3/3/19 27/31/19 28/33/19
f 27/31/19 29/35/19 28/33/19
f 28/36/20 30/37/20 31/38/20
f 28/36/20 31/38/20 23/39/20
f 21/25/21 17/21/21 32/40/21
f 19/23/22 15/19/22 24/28/22
f 22/26/23 21/25/23 33/41/23
f 21/25/23 32/40/23 33/41/23
f 24/28/24 23/27/24 34/42/24
f 23/27/24 31/43/24 34/42/24
f 25/29/25 22/26/25 35/44/25
f 22/26/25 33/41/25 35/44/25
f 26/30/26 25/29/26 36/45/26
f 25/29/26 35/44/26 36/45/26
f 27/31/27 26/32/27 36/46/27
f 27/31/27 36/46/27 29/35/27
f 33/41/28 32/40/28 37/47/28
f 33/41/28 37/47/28 38/48/28
f 31/43/29 39/49/29 40/50/29
f 31/43/29 40/50/29 34/42/29
f 35/44/30 33/41/30 38/48/30
f 35/44/30 38/48/30 41/51/30
f 36/45/31 35/44/31 41/51/31
f 36/45/31 41/51/31 42/52/31
f 28/36/32 29/53/32 43/54/32
f 28/36/32 43/54/32 30/37/32
f 29/55/33 36/45/33 43/56/33
f 36/45/33 42/52/33 43/56/33
f 30/37/34 43/54/34 44/57/34
f 43/54/34 45/58/34 44/57/34
f 32/40/35 17/21/35 37/47/35
f 19/23/36 24/28/36 34/42/36
f 31/38/37 30/37/37 44/57/37
f 31/38/37 44/57/37 39/59/37
f 44/57/38 46/60/38 47/61/38
f 44/57/38 47/61/38 39/59/38
f 37/47/39 17/21/39 48/62/39
f 19/23/40 34/42/40 40/50/40
f 38/48/41 37/47/41 49/63/41
f 37/47/41 48/62/41 49/63/41
f 41/51/42 38/48/42 49/63/42
f 41/51/42 49/63/42 50/64/42
f 42/52/43 41/51/43 51/65/43
f 41/51/43 50/64/43 51/65/43
f 40/50/44 39/49/44 47/66/44
f 40/50/44 47/66/44 52/67/44
f 43/54/45 42/68/45 45/58/45
f 42/68/45 51/69/45 45/58/45
f 47/66/46 53/70/46 54/71/46
f 47/66/46 54/71/46 52/67/46
f 50/64/47 49/63/47 55/72/47
f 49/63/47 56/73/47 55/72/47
f 51/65/48 50/64/48 55/72/48
f 51/65/48 55/72/48 57/74/48
f 44/57/49 45/58/49 58/75/49
f 44/57/49 58/75/49 46/60/49
f 45/76/50 51/65/50 58/77/50
f 51/65/50 57/74/50 58/77/50
f 47/78/51 46/79/51 59/80/51
f 47/78/51 59/80/51 53/81/51
f 48/62/52 17/21/52 60/82/52
f 19/23/53 40/50/53 52/67/53
f 49/63/54 48/62/54 56/73/54
f 48/62/54 60/82/54 56/73/54
f 58/83/55 61/84/55 59/80/55
f 58/83/55 59/80/55 46/79/55
f 54/71/56 53/70/56 62/85/56
f 54/71/56 62/85/56 63/86/56
f 60/82/57 17/21/57 64/87/57
f 19/23/58 52/67/58 54/71/58
f 56/73/59 60/82/59 64/87/59
f 56/73/59 64/87/59 65/88/59
f 55/72/60 56/73/60 65/88/60
f 55/72/60 65/88/60 66/89/60
f 57/74/61 55/72/61 67/90/61
f 55/72/61 66/89/61 67/90/61
f 62/91/62 68/92/62 69/93/62
f 62/91/62 69/93/62 70/94/62
f 58/83/63 57/95/63 67/96/63
f 58/83/63 67/96/63 61/84/63
f 66/89/64 65/88/64 71/97/64
f 66/89/64 71/97/64 72/98/64
f 59/80/65 68/92/65 53/81/65
f 68/92/65 62/91/65 53/81/65
f 67/90/66 66/89/66 73/99/66
f 66/89/66 72/98/66 73/99/66
f 59/80/67 61/84/67 68/92/67
f 61/84/67 74/100/67 68/92/67
f 61/84/68 67/96/68 73/101/68
f 61/84/68 73/101/68 74/100/68
f 74/100/69 75/102/69 69/93/69
f 74/100/69 69/93/69 68/92/69
f 64/87/70 17/21/70 76/103/70
f 19/23/71 54/71/71 63/86/71
f 65/88/72 64/87/72 71/97/72
f 64/87/72 76/103/72 71/97/72
f 77/104/73 70/105/73 78/106/73
f 77/104/73 78/106/73 79/107/73
f 62/85/74 70/105/74 77/104/74
f 62/85/74 77/104/74 63/86/74
f 76/103/75 17/21/75 80/108/75
f 19/23/76 63/86/76 77/104/76
f 71/97/77 76/103/77 80/108/77
f 71/97/77 80/108/77 81/109/77
f 72/98/78 71/97/78 81/109/78
f 72/98/78 81/109/78 82/110/78
f 73/99/79 72/98/79 83/111/79
f 72/98/79 82/110/79 83/111/79
f 78/112/80 84/113/80 85/114/80
f 84/113/80 86/115/80 85/114/80
f 74/100/81 73/101/81 75/102/81
f 73/101/81 83/116/81 75/102/81
f 69/117/82 84/113/82 78/112/82
f 69/117/82 78/112/82 70/118/82
f 83/111/83 82/110/83 87/119/83
f 83/111/83 87/119/83 88/120/83
f 69/117/84 75/121/84 89/122/84
f 69/117/84 89/122/84 84/113/84
f 75/121/85 83/123/85 88/124/85
f 75/121/85 88/124/85 89/122/85
f 90/125/86 85/126/86 91/127/86
f 90/125/86 91/127/86 20/24/86
f 80/108/87 17/21/87 92/128/87
f 19/23/88 77/104/88 79/107/88
f 81/109/89 80/108/89 93/129/89
f 80/108/89 92/128/89 93/129/89
f 82/110/90 81/109/90 87/119/90
f 81/109/90 93/129/90 87/119/90
f 78/106/91 85/126/91 90/125/91
f 78/106/91 90/125/91 79/107/91
f 92/128/92 17/21/92 94/130/92
f 19/23/93 79/107/93 90/125/93
f 93/129/94 92/128/94 94/130/94
f 93/129/94 94/130/94 95/131/94
f 87/119/95 93/129/95 95/131/95
f 87/119/95 95/131/95 96/132/95
f 88/120/96 87/119/96 97/133/96
f 87/119/96 96/132/96 97/133/96
f 84/113/97 89/122/97 98/134/97
f 84/113/97 98/134/97 86/115/97
f 89/122/98 88/124/98 98/134/98
f 88/124/98 97/135/98 98/134/98
f 85/114/99 86/115/99 91/136/99
f 86/115/99 11/137/99 91/136/99
f 86/115/100 98/134/100 12/138/100
f 86/115/100 12/138/100 11/137/100
f 98/134/101 97/135/101 12/138/101
f 97/135/101 9/139/101 12/138/101
f 94/130/102 17/21/102 16/20/102
f 19/23/103 90/125/103 20/24/103
f 95/131/104 94/130/104 6/6/104
f 94/130/104 16/20/104 6/6/104
f 20/24/105 91/127/105 14/16/105
f 91/127/105 1/17/105 14/16/105
f 96/132/106 95/131/106 5/5/106
f 95/131/106 6/6/106 5/5/106
f 97/133/107 96/132/107 5/5/107
f 97/133/107 5/5/107 9/9/107
f 11/11/108 2/2/108 91/140/108
f 2/2/108 1/1/108 91/140/108
s off
g Cylinder
v -0.6983 0.018829 0.943801
v -0.931435 0.910451 0.45969
v -1.13563 0.910451 0.506296
v -1.13563 0.018829 1.04362
v -1.13563 0.855723 0.03568
v -1.13563 0.855723 -0.399422
v -0.946844 0.855723 -0.356334
v -1.13563 -0.014482 -0.916163
v -0.722639 -0.014482 -0.8219
v -0.767686 0.910451 -0.257744
v -0.931435 0.910451 -0.38833
v -0.973333 0.979967 -0.301329
v -0.843183 0.979967 -0.197537
v -0.795451 0.855723 -0.235602
v -0.391448 -0.014482 -0.557784
v -0.34759 0.018829 0.664119
v -0.767686 0.910451 0.329104
v -0.711434 0.855723 -0.06114
v -0.20765 -0.014482 -0.176125
v -1.50357 0.910451 -0.257744
v -1.59444 0.910451 -0.069042
v -1.42807 0.979967 -0.197537
v -1.5003 0.979967 -0.047554
v -0.711434 0.855723 0.132499
v -0.20765 -0.014482 0.247485
v -0.15296 0.018829 0.259967
v -0.676812 0.910451 0.140402
v -0.795451 0.855723 0.306962
v -0.391448 -0.014482 0.629144
v -1.13563 0.910451 -0.434936
v -1.33982 0.910451 -0.38833
v -1.29792 0.979967 -0.301329
v -1.13563 0.979967 -0.338372
v -0.946844 0.855723 0.427694
v -0.722639 -0.014482 0.89326
v -0.152961 0.018829 -0.188608
v -0.676812 0.910451 -0.069042
v -1.13563 0.855723 0.470782
v -1.13563 -0.014482 0.987522
v -1.59444 0.910451 0.140402
v -1.50357 0.910451 0.329104
v -1.42807 0.979967 0.268897
v -1.5003 0.979967 0.118914
v -1.32441 0.855723 0.427694
v -1.54862 -0.014482 0.89326
v -0.34759 0.018829 -0.59276
v -1.47581 0.855723 0.306962
v -1.87981 -0.014482 0.629144
v -1.33982 0.910451 0.45969
v -1.29792 0.979967 0.372689
v -1.13563 0.979967 0.409731
v -1.55982 0.855723 0.132499
v -2.06361 -0.014482 0.247485
v -0.6983 0.018829 -0.872441
v -1.55982 0.855723 -0.06114
v -2.06361 -0.014482 -0.176125
v -0.973333 0.979967 0.372689
v -0.843183 0.979967 0.268897
v -1.47581 0.855723 -0.235602
v -1.87981 -0.014482 -0.557784
v -1.13563 0.018829 -0.972259
v -1.32441 0.855723 -0.356334
v -1.54862 -0.014482 -0.8219
v -0.770955 0.979967 -0.047554
v -0.770955 0.979967 0.118914
v -1.57296 0.018829 0.943801
v -1.92367 0.018829 0.664119
v -2.11829 0.018829 0.259967
v -2.11829 0.018829 -0.188608
v -1.92367 0.018829 -0.59276
v -1.57296 0.018829 -0.872441
v -1.13563 0.988308 0.03568
vn 0.1919 0.5066 0.8406
vn -0 -1 -0
vn -0.1926 -0.501 0.8437
vn 0.3704 0.8045 -0.4644
vn -0.5396 -0.501 0.6766
vn 0.5376 0.5066 0.6741
vn -0.7797 -0.501 0.3755
vn -0.5352 0.8045 -0.2577
vn -0.8654 -0.501 -0
vn 0.7768 0.5066 0.3741
vn -0.7797 -0.501 -0.3755
vn -0.1322 0.8045 -0.5791
vn -0.5396 -0.501 -0.6766
vn 0.8622 0.5066 -0
vn -0.1926 -0.501 -0.8437
vn -0.5352 0.8045 0.2577
vn 0.1926 -0.501 -0.8437
vn 0.7768 0.5066 -0.3741
vn 0.5396 -0.501 -0.6766
vn -0.1322 0.8045 0.5791
vn 0.7797 -0.501 -0.3755
vn 0.5376 0.5066 -0.6741
vn 0.8654 -0.501 -0
vn 0.3704 0.8045 0.4644
vn 0.7797 -0.501 0.3755
vn 0.1919 0.5066 -0.8406
vn 0.5396 -0.501 0.6766
vn 0.594 0.8045 -0
vn 0.1926 -0.501 0.8437
vn -0.3704 0.8045 -0.4644
vn -0.1919 0.5066 0.8406
vn -0.594 0.8045 -0
vn -0.5376 0.5066 0.6741
vn 0.1322 0.8045 -0.5791
vn -0.7768 0.5066 0.3741
vn -0.3704 0.8045 0.4644
vn -0.8622 0.5066 -0
vn 0.1322 0.8045 0.5791
vn -0.7768 0.5066 -0.3741
vn 0.5352 0.8045 0.2577
vn -0.5376 0.5066 -0.6741
vn 0.5352 0.8045 -0.2577
vn -0.1919 0.5066 -0.8406
vn -0.1158 -0.8541 -0.5071
vn 0.3243 -0.8541 -0.4067
vn 0.4687 -0.8541 0.2257
vn 0.1158 -0.8541 -0.5071
vn -0.1158 -0.8541 0.5071
vn -0.5202 -0.854 -0
vn 0.5202 -0.8541 -0
vn 0.1158 -0.8541 0.5071
vn -0.4687 -0.8541 0.2257
vn -0.3243 -0.8541 -0.4067
vn 0.4687 -0.8541 -0.2257
vn 0.3243 -0.8541 0.4067
vn -0.3243 -0.8541 0.4067
vn -0.4687 -0.8541 -0.2257
vn 0.0051 0.9997 0.0223
vn 0.0143 0.9997 0.0179
vn 0.0206 0.9997 0.0099
vn 0.0229 0.9997 -0
vn 0.0206 0.9997 -0.0099
vn 0.0143 0.9997 -0.0179
vn 0.0051 0.9997 -0.0223
vn -0.0051 0.9997 0.0223
vn -0.0143 0.9997 0.0179
vn -0.0206 0.9997 0.0099
vn -0.0229 0.9997 -0
vn -0.0206 0.9997 -0.0099
vn -0.0143 0.9997 -0.0179
vn -0.0051 0.9997 -0.0223
vt 0.444061 0.662118
vt 0.546059 0.654511
vt 0.550112 0.675275
vt 0.452743 0.706589
vt 0.561534 0.26184
vt 0.520496 0.25676
vt 0.521323 0.244102
vt 0.713095 0.428217
vt 0.733999 0.454895
vt 0.639873 0.487439
vt 0.630317 0.475244
vt 0.333745 0.480897
vt 0.329367 0.461283
vt 0.341369 0.461153
vt 0.344848 0.476743
vt 0.530114 0.234956
vt 0.745599 0.493447
vt 0.645176 0.505062
vt 0.44963 0.619437
vt 0.548659 0.634583
vt 0.545129 0.231135
vt 0.745599 0.536236
vt 0.645176 0.524621
vt 0.492846 0.464263
vt 0.478958 0.480222
vt 0.482629 0.458249
vt 0.471591 0.470934
vt 0.563392 0.233396
vt 0.733999 0.574787
vt 0.639873 0.542243
vt 0.29664 0.589699
vt 0.359952 0.512061
vt 0.376591 0.517437
vt 0.332276 0.601214
vt 0.581288 0.24129
vt 0.713095 0.601465
vt 0.630317 0.554439
vt 0.500554 0.428217
vt 0.500554 0.445703
vt 0.488755 0.443497
vt 0.488755 0.429599
vt 0.595271 0.253254
vt 0.679956 0.166263
vt 0.663028 0.129736
vt 0.760806 0.104058
vt 0.768544 0.120756
vt 0.26389 0.561769
vt 0.34466 0.49902
vt 0.602573 0.266919
vt 0.656987 0.087376
vt 0.758044 0.084695
vt 0.461639 0.490419
vt 0.444321 0.492833
vt 0.444061 0.480957
vt 0.457826 0.479038
vt 0.601746 0.279578
vt 0.663028 0.047572
vt 0.760806 0.0665
vt 0.240511 0.522955
vt 0.592954 0.288723
vt 0.679956 0.01821
vt 0.768544 0.053078
vt 0.560017 0.692762
vt 0.569008 0.68481
vt 0.561135 0.670911
vt 0.57794 0.292544
vt 0.602573 0.383439
vt 0.569727 0.391797
vt 0.231135 0.480946
vt 0.559676 0.290283
vt 0.529772 0.386852
vt 0.557913 0.654408
vt 0.55998 0.638569
vt 0.541781 0.282389
vt 0.490623 0.369583
vt 0.237619 0.444061
vt 0.332394 0.444061
vt 0.527797 0.270425
vt 0.460033 0.34341
vt 0.353524 0.491147
vt 0.365678 0.501512
vt 0.444061 0.313516
vt 0.473956 0.744042
vt 0.573811 0.703508
vt 0.503499 0.767058
vt 0.343775 0.447465
vt 0.473462 0.583017
vt 0.510553 0.577846
vt 0.579971 0.693352
vt 0.547645 0.556008
vt 0.57739 0.521828
vt 0.557398 0.619437
vt 0.566926 0.626531
vt 0.593898 0.482076
vt 0.593898 0.444626
vt 0.041179 0.908158
vt 0.035138 0.865798
vt 0.040978 0.863691
vt 0.047375 0.908548
vt 0.01821 0.977324
vt 0.035138 0.947961
vt 0.023052 0.98179
vt 0.040978 0.950697
vt 0.941516 0.70822
vt 0.941516 0.751009
vt 0.935437 0.706959
vt 0.935437 0.75227
vt 0.956341 0.44979
vt 0.935437 0.423112
vt 0.961737 0.446257
vt 0.939601 0.418007
vt 0.956341 0.569682
vt 0.967942 0.531131
vt 0.974021 0.532391
vt 0.961737 0.573215
vt 0.953117 0.78956
vt 0.947722 0.793093
vt 0.974021 0.64299
vt 0.953117 0.669668
vt 0.947722 0.666136
vt 0.969858 0.637885
vt 0.967942 0.488342
vt 0.974021 0.487081
vt 0.01821 0.829271
vt 0.023052 0.825011
vt 0.974021 0.816239
vt 0.969858 0.821344
vt 0.935437 0.59636
vt 0.939601 0.601465
vt 0.58521 0.657645
vt 0.371605 0.470442
vt 0.457368 0.447411
usemtl 
f 99/141/109 100/142/109 101/143/109
f 99/141/109 101/143/109 102/144/109
f 103/145/110 104/146/110 105/147/110
f 106/148/111 107/149/111 105/150/111
f 106/148/111 105/150/111 104/151/111
f 108/152/112 109/153/112 110/154/112
f 108/152/112 110/154/112 111/155/112
f 103/145/110 105/147/110 112/156/110
f 107/149/113 113/157/113 105/150/113
f 113/157/113 112/158/113 105/150/113
f 114/159/114 115/160/114 100/142/114
f 114/159/114 100/142/114 99/141/114
f 103/145/110 112/156/110 116/161/110
f 113/157/115 117/162/115 116/163/115
f 113/157/115 116/163/115 112/158/115
f 118/164/116 119/165/116 120/166/116
f 119/165/116 121/167/116 120/166/116
f 103/145/110 116/161/110 122/168/110
f 117/162/117 123/169/117 122/170/117
f 117/162/117 122/170/117 116/163/117
f 124/171/118 125/172/118 115/173/118
f 124/171/118 115/173/118 114/174/118
f 103/145/110 122/168/110 126/175/110
f 123/169/119 127/176/119 126/177/119
f 123/169/119 126/177/119 122/170/119
f 128/178/120 129/179/120 130/180/120
f 128/178/120 130/180/120 131/181/120
f 103/145/110 126/175/110 132/182/110
f 127/183/121 133/184/121 132/185/121
f 127/183/121 132/185/121 126/186/121
f 134/187/122 135/188/122 124/171/122
f 135/188/122 125/172/122 124/171/122
f 103/145/110 132/182/110 136/189/110
f 133/184/123 137/190/123 132/185/123
f 137/190/123 136/191/123 132/185/123
f 138/192/124 139/193/124 140/194/124
f 138/192/124 140/194/124 141/195/124
f 103/145/110 136/189/110 142/196/110
f 137/190/125 143/197/125 142/198/125
f 137/190/125 142/198/125 136/191/125
f 144/199/126 108/152/126 135/188/126
f 144/199/126 135/188/126 134/187/126
f 103/145/110 142/196/110 145/200/110
f 143/197/127 146/201/127 145/202/127
f 143/197/127 145/202/127 142/198/127
f 147/203/128 101/143/128 148/204/128
f 101/143/128 149/205/128 148/204/128
f 103/145/110 145/200/110 150/206/110
f 146/207/129 151/208/129 145/200/129
f 151/208/129 150/206/129 145/200/129
f 152/209/130 109/153/130 144/199/130
f 109/153/130 108/152/130 144/199/130
f 103/145/110 150/206/110 153/210/110
f 151/208/131 154/211/131 153/210/131
f 151/208/131 153/210/131 150/206/131
f 100/142/132 115/160/132 155/212/132
f 115/160/132 156/213/132 155/212/132
f 103/145/110 153/210/110 157/214/110
f 154/211/133 158/215/133 157/214/133
f 154/211/133 157/214/133 153/210/133
f 159/216/134 128/217/134 109/153/134
f 159/216/134 109/153/134 152/209/134
f 103/145/110 157/214/110 160/218/110
f 158/215/135 161/219/135 160/218/135
f 158/215/135 160/218/135 157/214/135
f 125/172/136 135/188/136 162/220/136
f 125/172/136 162/220/136 163/221/136
f 103/145/110 160/218/110 104/146/110
f 161/219/137 106/222/137 160/218/137
f 106/222/137 104/146/137 160/218/137
f 129/179/138 118/164/138 130/180/138
f 118/164/138 120/166/138 130/180/138
f 102/144/139 101/143/139 164/223/139
f 101/143/139 147/203/139 164/223/139
f 119/165/140 138/192/140 141/195/140
f 119/165/140 141/195/140 121/167/140
f 164/223/141 147/203/141 139/224/141
f 164/223/141 139/224/141 165/225/141
f 109/153/142 128/217/142 131/226/142
f 109/153/142 131/226/142 110/154/142
f 165/227/143 139/193/143 138/192/143
f 165/227/143 138/192/143 166/228/143
f 139/224/144 147/203/144 148/204/144
f 139/224/144 148/204/144 140/229/144
f 166/228/145 138/192/145 119/165/145
f 166/228/145 119/165/145 167/230/145
f 101/143/146 100/142/146 155/212/146
f 101/143/146 155/212/146 149/205/146
f 167/230/147 119/165/147 168/231/147
f 119/165/147 118/164/147 168/231/147
f 115/160/148 125/232/148 163/233/148
f 115/160/148 163/233/148 156/213/148
f 168/231/149 118/164/149 129/179/149
f 168/231/149 129/179/149 169/234/149
f 135/188/150 108/152/150 162/220/150
f 108/152/150 111/155/150 162/220/150
f 169/234/151 129/179/151 128/178/151
f 169/234/151 128/178/151 159/235/151
f 106/236/152 161/237/152 169/238/152
f 106/236/152 169/238/152 159/239/152
f 113/240/153 107/241/153 144/242/153
f 107/241/153 152/243/153 144/242/153
f 127/244/154 123/245/154 114/246/154
f 123/245/154 124/247/154 114/246/154
f 107/241/155 106/236/155 152/243/155
f 106/236/155 159/239/155 152/243/155
f 143/248/156 137/249/156 164/250/156
f 137/249/156 102/251/156 164/250/156
f 154/252/157 151/253/157 166/254/157
f 154/252/157 166/254/157 167/255/157
f 123/245/158 117/256/158 124/247/158
f 117/256/158 134/257/158 124/247/158
f 137/258/159 133/259/159 99/260/159
f 137/258/159 99/260/159 102/261/159
f 151/253/160 146/262/160 165/263/160
f 151/253/160 165/263/160 166/254/160
f 161/237/161 158/264/161 168/265/161
f 161/237/161 168/265/161 169/238/161
f 117/256/162 113/266/162 144/267/162
f 117/256/162 144/267/162 134/257/162
f 133/259/163 127/244/163 99/260/163
f 127/244/163 114/246/163 99/260/163
f 146/262/164 143/248/164 164/250/164
f 146/262/164 164/250/164 165/263/164
f 158/268/165 154/252/165 168/269/165
f 154/252/165 167/255/165 168/269/165
f 170/270/166 149/205/166 155/212/166
f 170/270/167 155/212/167 156/213/167
f 170/270/168 156/213/168 163/233/168
f 170/271/169 163/221/169 162/220/169
f 170/271/170 162/220/170 111/155/170
f 170/271/171 111/155/171 110/154/171
f 170/271/172 110/154/172 131/226/172
f 170/270/173 148/204/173 149/205/173
f 170/270/174 140/229/174 148/204/174
f 170/272/175 141/195/175 140/194/175
f 170/272/176 121/167/176 141/195/176
f 170/272/177 120/166/177 121/167/177
f 170/272/178 130/180/178 120/166/178
f 170/272/179 131/181/179 130/180/179
s off
g Cube
v -1.17432 1.15738 0.056472
v -1.17432 3.33063 0.056472
v -1.17432 3.33063 0.014888
v -1.17432 1.15738 0.014888
v -1.1352 3.33063 0.014888
v -1.1352 1.15738 0.014888
v -1.1352 3.33063 0.056472
v -1.1352 1.15738 0.056472
vn -1 -0 -0
vn -0 -0 -1
vn 1 -0 -0
vn -0 -0 1
vn -0 -1 -0
vn -0 1 -0
vt 0.194716 0.194716
vt 0.01821 0.194716
vt 0.01821 0.01821
vt 0.194716 0.01821
vt 0.194716 0.407641
vt 0.01821 0.407641
vt 0.01821 0.231135
vt 0.194716 0.231135
vt 0.407641 0.194716
vt 0.231135 0.194716
vt 0.231135 0.01821
vt 0.407641 0.01821
vt 0.407641 0.407641
vt 0.231135 0.407641
vt 0.231135 0.231135
vt 0.407641 0.231135
vt 0.194716 0.444061
vt 0.194716 0.620567
vt 0.01821 0.620567
vt 0.01821 0.444061
vt 0.620567 0.01821
vt 0.620567 0.194716
vt 0.444061 0.194716
vt 0.444061 0.01821
usemtl 
f 171/273/180 172/274/180 173/275/180
f 171/273/180 173/275/180 174/276/180
f 174/277/181 173/278/181 175/279/181
f 174/277/181 175/279/181 176/280/181
f 176/281/182 175/282/182 177/283/182
f 176/281/182 177/283/182 178/284/182
f 178/285/183 177/286/183 172/287/183
f 178/285/183 172/287/183 171/288/183
f 174/289/184 176/290/184 178/291/184
f 174/289/184 178/291/184 171/292/184
f 175/293/185 173/294/185 172/295/185
f 175/293/185 172/295/185 177/296/185
s off
g Sphere.002
v -1.05987 1.00676 -0.077487
v -1.04738 1.13237 -0.099126
v -1.00894 1.00676 -0.026561
v -0.987304 1.13237 -0.039054
v -1.12944 1.23886 -0.04996
v -1.12944 1.25432 -0.02103
v -1.09742 1.25432 -0.012451
v -1.08295 1.23886 -0.037505
v -1.12944 1.21805 -0.075318
v -1.07027 1.21805 -0.059465
v -1.12944 1.13237 -0.121114
v -1.12944 1.19269 -0.096128
v -1.05987 1.19269 -0.077487
v -1.11311 0.935607 0.014734
v -1.10116 0.935607 0.026683
v -1.12944 1.26385 0.010361
v -1.12944 1.26706 0.043006
v -1.11311 1.26385 0.014734
v -1.12944 0.932391 0.043006
v -1.12944 0.935607 0.010361
v -1.10116 1.26385 0.026683
v -1.07398 1.25432 0.010988
v -0.990302 1.00676 0.043006
v -1.09679 0.935607 0.043006
v -1.04893 1.23886 -0.003477
v -1.02697 1.21805 -0.016156
v -1.00894 1.19269 -0.026561
v -0.965316 1.13237 0.043006
v -0.990302 1.19269 0.043006
v -0.987304 1.13237 0.125066
v -1.00894 1.00676 0.112573
v -1.09679 1.26385 0.043006
v -1.0654 1.25432 0.043006
v -1.10116 0.935607 0.059329
v -1.03647 1.23886 0.043006
v -1.01111 1.21805 0.043006
v -1.10116 1.26385 0.059329
v -1.07398 1.25432 0.075024
v -1.05987 1.00676 0.1635
v -1.11311 0.935607 0.071278
v -1.04893 1.23886 0.089489
v -1.02697 1.21805 0.102168
v -1.00894 1.19269 0.112573
v -1.05987 1.19269 0.1635
v -1.04738 1.13237 0.185138
v -1.12944 1.13237 0.207126
v -1.12944 1.00676 0.18214
v -1.11311 1.26385 0.071278
v -1.09742 1.25432 0.098463
v -1.08295 1.23886 0.123517
v -1.07027 1.21805 0.145477
v -1.12944 0.935607 0.075652
v -1.199 1.00676 0.1635
v -1.14576 0.935607 0.071278
v -1.12944 1.23886 0.135972
v -1.12944 1.25432 0.107042
v -1.12944 1.21805 0.16133
v -1.12944 1.19269 0.18214
v -1.2115 1.13237 0.185138
v -1.12944 1.26385 0.075652
v -1.199 1.19269 0.1635
v -1.15771 0.935607 0.059329
v -1.24993 1.00676 0.112573
v -1.14576 1.26385 0.071278
v -1.16145 1.25432 0.098463
v -1.17592 1.23886 0.123517
v -1.1886 1.21805 0.145477
v -1.27157 1.13237 0.125066
v -1.29356 1.13237 0.043006
v -1.26857 1.00676 0.043006
v -1.18489 1.25432 0.075024
v -1.20995 1.23886 0.089489
v -1.23191 1.21805 0.102168
v -1.24993 1.19269 0.112573
v -1.26857 1.19269 0.043006
v -1.15771 1.26385 0.059329
v -1.16208 0.935607 0.043006
v -1.15771 0.935607 0.026683
v -1.24993 1.00676 -0.026561
v -1.16208 1.26385 0.043006
v -1.19347 1.25432 0.043006
v -1.2224 1.23886 0.043006
v -1.24776 1.21805 0.043006
v -1.27157 1.13237 -0.039054
v -1.2115 1.13237 -0.099126
v -1.199 1.00676 -0.077487
v -1.20995 1.23886 -0.003477
v -1.23191 1.21805 -0.016156
v -1.24993 1.19269 -0.026561
v -1.14576 0.935607 0.014734
v -1.12944 1.00676 -0.096128
v -1.15771 1.26385 0.026683
v -1.18489 1.25432 0.010988
v -1.14576 1.26385 0.014734
v -1.16145 1.25432 -0.012451
v -1.17592 1.23886 -0.037505
v -1.1886 1.21805 -0.059465
v -1.199 1.19269 -0.077487
vn 0.6944 -0.1887 -0.6944
vn 0.1253 0.875 -0.4677
vn 0.1676 0.7621 -0.6254
vn 0.2403 0.3715 -0.8968
vn 0.2028 0.6212 -0.7569
vn 0.4023 -0.8224 -0.4023
vn 0.0263 0.9948 -0.098
vn 0.0263 -0.9948 -0.098
vn 0.0775 0.9541 -0.2894
vn 0.0717 -0.9948 -0.0717
vn 0.2119 0.9541 -0.2119
vn 0.5495 -0.8224 -0.1472
vn 0.3424 0.875 -0.3424
vn 0.4578 0.7621 -0.4578
vn 0.6565 0.3715 -0.6565
vn 0.5541 0.6212 -0.5541
vn 0.9486 -0.1887 -0.2542
vn 0.0717 0.9948 -0.0717
vn 0.8968 0.3715 -0.2403
vn 0.9486 -0.1887 0.2542
vn 0.098 0.9948 -0.0263
vn 0.098 -0.9948 -0.0263
vn 0.2894 0.9541 -0.0775
vn 0.5495 -0.8224 0.1472
vn 0.4677 0.875 -0.1253
vn 0.6254 0.7621 -0.1676
vn 0.7569 0.6212 -0.2028
vn 0.2894 0.9541 0.0775
vn 0.4023 -0.8224 0.4023
vn 0.4677 0.875 0.1253
vn 0.6254 0.7621 0.1676
vn 0.8968 0.3715 0.2403
vn 0.7569 0.6212 0.2028
vn 0.6565 0.3715 0.6565
vn 0.098 0.9948 0.0263
vn 0.098 -0.9948 0.0263
vn 0.6944 -0.1887 0.6944
vn 0.2542 -0.1887 0.9486
vn 0.0717 0.9948 0.0717
vn 0.0717 -0.9948 0.0717
vn 0.2119 0.9541 0.2119
vn 0.3424 0.875 0.3424
vn 0.4578 0.7621 0.4578
vn 0.1472 -0.8224 0.5495
vn 0.5541 0.6212 0.5541
vn -0.1472 -0.8224 0.5495
vn 0.1253 0.875 0.4677
vn 0.1676 0.7621 0.6254
vn 0.2403 0.3715 0.8968
vn 0.2028 0.6212 0.7569
vn -0.2542 -0.1887 0.9486
vn 0.0263 0.9948 0.098
vn 0.0263 -0.9948 0.098
vn 0.0775 0.9541 0.2894
vn -0.2403 0.3715 0.8968
vn -0.4023 -0.8224 0.4023
vn -0.0263 0.9948 0.098
vn -0.0263 -0.9948 0.098
vn -0.0775 0.9541 0.2894
vn -0.1253 0.875 0.4677
vn -0.1676 0.7621 0.6254
vn -0.9486 -0.1887 0.2542
vn -0.2028 0.6212 0.7569
vn -0.3424 0.875 0.3424
vn -0.6944 -0.1887 0.6944
vn -0.4578 0.7621 0.4578
vn -0.6565 0.3715 0.6565
vn -0.5541 0.6212 0.5541
vn -0.8968 0.3715 0.2403
vn -0.0717 0.9948 0.0717
vn -0.0717 -0.9948 0.0717
vn -0.2119 0.9541 0.2119
vn -0.5495 -0.8224 -0.1472
vn -0.5495 -0.8224 0.1472
vn -0.098 0.9948 0.0263
vn -0.098 -0.9948 0.0263
vn -0.2894 0.9541 0.0775
vn -0.4677 0.875 0.1253
vn -0.6254 0.7621 0.1676
vn -0.6944 -0.1887 -0.6944
vn -0.7569 0.6212 0.2028
vn -0.9486 -0.1887 -0.2542
vn -0.6254 0.7621 -0.1676
vn -0.8968 0.3715 -0.2403
vn -0.7569 0.6212 -0.2028
vn -0.1472 -0.8224 -0.5495
vn -0.098 0.9948 -0.0263
vn -0.098 -0.9948 -0.0263
vn -0.2894 0.9541 -0.0775
vn -0.4677 0.875 -0.1253
vn -0.4023 -0.8224 -0.4023
vn -0.0717 0.9948 -0.0717
vn -0.0717 -0.9948 -0.0717
vn -0.2119 0.9541 -0.2119
vn -0.3424 0.875 -0.3424
vn -0.4578 0.7621 -0.4578
vn -0.6565 0.3715 -0.6565
vn -0.5541 0.6212 -0.5541
vn -0.2542 -0.1887 -0.9486
vn -0.2403 0.3715 -0.8968
vn -0.2028 0.6212 -0.7569
vn -0.0263 0.9948 -0.098
vn -0.0263 -0.9948 -0.098
vn -0.0775 0.9541 -0.2894
vn 0.1472 -0.8224 -0.5495
vn -0.1253 0.875 -0.4677
vn -0.1676 0.7621 -0.6254
vn 0.2542 -0.1887 -0.9486
vt 0.897996 0.876912
vt 0.831159 0.880323
vt 0.897996 0.838928
vt 0.831159 0.835518
vt 0.043818 0.682108
vt 0.054607 0.692542
vt 0.045866 0.707669
vt 0.031128 0.704068
vt 0.034361 0.673124
vt 0.01821 0.701074
vt 0.832364 0.919125
vt 0.801098 0.909808
vt 0.800077 0.876912
vt 0.788162 0.902047
vt 0.787293 0.874072
vt 0.716407 0.314189
vt 0.760698 0.353902
vt 0.728087 0.372894
vt 0.708756 0.318645
vt 0.066313 0.704026
vt 0.078488 0.716118
vt 0.061857 0.711737
vt 0.704116 0.302015
vt 0.720825 0.306471
vt 0.061857 0.720642
vt 0.045866 0.725135
vt 0.690431 0.372894
vt 0.69992 0.318645
vt 0.031128 0.729425
vt 0.01821 0.733348
vt 0.800077 0.838928
vt 0.787293 0.841769
vt 0.832364 0.796715
vt 0.899018 0.806033
vt 0.801098 0.806033
vt 0.489133 0.925889
vt 0.487927 0.887086
vt 0.554764 0.883675
vt 0.555786 0.916571
vt 0.066313 0.728353
vt 0.054607 0.740262
vt 0.692269 0.314189
vt 0.65782 0.353902
vt 0.043818 0.751386
vt 0.034361 0.761298
vt 0.788162 0.813794
vt 0.074032 0.732805
vt 0.069747 0.748995
vt 0.638992 0.321007
vt 0.687851 0.306471
vt 0.065798 0.764064
vt 0.062336 0.777435
vt 0.457867 0.916571
vt 0.456845 0.883675
vt 0.0266 0.769617
vt 0.059496 0.788592
vt 0.456845 0.845691
vt 0.487927 0.842281
vt 0.554764 0.845691
vt 0.489133 0.803478
vt 0.555786 0.812796
vt 0.082944 0.732805
vt 0.087229 0.748995
vt 0.091178 0.764064
vt 0.094639 0.777435
vt 0.687851 0.297559
vt 0.638992 0.283023
vt 0.444061 0.880835
vt 0.444061 0.848532
vt 0.65782 0.250127
vt 0.692269 0.28984
vt 0.113158 0.751386
vt 0.102369 0.740262
vt 0.122614 0.761298
vt 0.457867 0.812796
vt 0.09748 0.788592
vt 0.130375 0.769617
vt 0.927671 0.344228
vt 0.861018 0.353546
vt 0.926649 0.311333
vt 0.859812 0.314743
vt 0.090662 0.728353
vt 0.829752 0.344228
vt 0.82873 0.311333
vt 0.69992 0.285384
vt 0.690431 0.231135
vt 0.095118 0.720642
vt 0.11111 0.725135
vt 0.125848 0.729425
vt 0.138766 0.733348
vt 0.926649 0.273349
vt 0.859812 0.269938
vt 0.861018 0.231135
vt 0.927671 0.240453
vt 0.816815 0.336467
vt 0.815946 0.308492
vt 0.11111 0.707669
vt 0.125848 0.704068
vt 0.138766 0.701074
vt 0.82873 0.273349
vt 0.815946 0.276189
vt 0.829752 0.240453
vt 0.095118 0.711737
vt 0.708756 0.285384
vt 0.728087 0.231135
vt 0.716407 0.28984
vt 0.760698 0.250127
vt 0.090662 0.704026
vt 0.102369 0.692542
vt 0.113158 0.682108
vt 0.122614 0.673124
vt 0.341839 0.896009
vt 0.275002 0.89942
vt 0.275002 0.854615
vt 0.341839 0.858025
vt 0.816815 0.248214
vt 0.276207 0.938222
vt 0.34286 0.928904
vt 0.091178 0.669429
vt 0.094639 0.656987
vt 0.244941 0.928904
vt 0.243919 0.896009
vt 0.232004 0.921144
vt 0.231135 0.893169
vt 0.720825 0.297559
vt 0.779526 0.283023
vt 0.779526 0.321007
vt 0.082944 0.699574
vt 0.087229 0.683809
vt 0.074032 0.699574
vt 0.069747 0.683809
vt 0.065798 0.669429
vt 0.062336 0.656987
vt 0.243919 0.858025
vt 0.231135 0.860866
vt 0.34286 0.82513
vt 0.276207 0.815812
vt 0.244941 0.82513
vt 0.232004 0.832891
vt 0.899018 0.909808
usemtl 
f 179/297/186 180/298/186 181/299/186
f 180/298/186 182/300/186 181/299/186
f 183/301/187 184/302/187 185/303/187
f 183/301/187 185/303/187 186/304/187
f 187/305/188 183/301/188 186/304/188
f 187/305/188 186/304/188 188/306/188
f 189/307/189 190/308/189 180/298/189
f 190/308/189 191/309/189 180/298/189
f 190/308/190 187/310/190 191/309/190
f 187/310/190 188/311/190 191/309/190
f 192/312/191 179/313/191 181/314/191
f 192/312/191 181/314/191 193/315/191
f 194/316/192 195/317/192 196/318/192
f 197/319/193 198/320/193 192/312/193
f 184/302/194 194/316/194 196/318/194
f 184/302/194 196/318/194 185/303/194
f 197/319/195 192/312/195 193/315/195
f 185/303/196 196/318/196 199/321/196
f 185/303/196 199/321/196 200/322/196
f 193/315/197 181/314/197 201/323/197
f 193/315/197 201/323/197 202/324/197
f 186/304/198 185/303/198 203/325/198
f 185/303/198 200/322/198 203/325/198
f 188/306/199 186/304/199 204/326/199
f 186/304/199 203/325/199 204/326/199
f 180/298/200 191/309/200 205/327/200
f 180/298/200 205/327/200 182/300/200
f 191/309/201 188/311/201 205/327/201
f 188/311/201 204/328/201 205/327/201
f 181/299/202 182/300/202 206/329/202
f 181/299/202 206/329/202 201/330/202
f 196/318/203 195/317/203 199/321/203
f 182/300/204 205/327/204 206/329/204
f 205/327/204 207/331/204 206/329/204
f 206/332/205 208/333/205 209/334/205
f 206/332/205 209/334/205 201/335/205
f 199/321/206 195/317/206 210/336/206
f 197/319/207 193/315/207 202/324/207
f 200/322/208 199/321/208 211/337/208
f 199/321/208 210/336/208 211/337/208
f 202/324/209 201/323/209 212/338/209
f 201/323/209 209/339/209 212/338/209
f 203/325/210 200/322/210 213/340/210
f 200/322/210 211/337/210 213/340/210
f 204/326/211 203/325/211 214/341/211
f 203/325/211 213/340/211 214/341/211
f 205/327/212 204/328/212 214/342/212
f 205/327/212 214/342/212 207/331/212
f 211/337/213 210/336/213 215/343/213
f 211/337/213 215/343/213 216/344/213
f 209/339/214 217/345/214 212/338/214
f 217/345/214 218/346/214 212/338/214
f 213/340/215 211/337/215 216/344/215
f 213/340/215 216/344/215 219/347/215
f 214/341/216 213/340/216 219/347/216
f 214/341/216 219/347/216 220/348/216
f 206/332/217 207/349/217 221/350/217
f 206/332/217 221/350/217 208/333/217
f 207/351/218 214/341/218 221/352/218
f 214/341/218 220/348/218 221/352/218
f 208/333/219 221/350/219 222/353/219
f 208/333/219 222/353/219 223/354/219
f 210/336/220 195/317/220 215/343/220
f 197/319/221 202/324/221 212/338/221
f 209/334/222 208/333/222 223/354/222
f 209/334/222 223/354/222 217/355/222
f 223/354/223 224/356/223 217/355/223
f 224/356/223 225/357/223 217/355/223
f 215/343/224 195/317/224 226/358/224
f 197/319/225 212/338/225 218/346/225
f 216/344/226 215/343/226 227/359/226
f 215/343/226 226/358/226 227/359/226
f 219/347/227 216/344/227 227/359/227
f 219/347/227 227/359/227 228/360/227
f 220/348/228 219/347/228 228/360/228
f 220/348/228 228/360/228 229/361/228
f 218/346/229 217/345/229 230/362/229
f 217/345/229 225/363/229 230/362/229
f 221/350/230 220/364/230 229/365/230
f 221/350/230 229/365/230 222/353/230
f 225/363/231 231/366/231 230/362/231
f 231/366/231 232/367/231 230/362/231
f 228/360/232 227/359/232 233/368/232
f 227/359/232 234/369/232 233/368/232
f 229/361/233 228/360/233 235/370/233
f 228/360/233 233/368/233 235/370/233
f 223/354/234 222/353/234 224/356/234
f 222/353/234 236/371/234 224/356/234
f 222/372/235 229/361/235 235/370/235
f 222/372/235 235/370/235 236/373/235
f 225/374/236 224/375/236 231/376/236
f 224/375/236 237/377/236 231/376/236
f 226/358/237 195/317/237 238/378/237
f 197/319/238 218/346/238 230/362/238
f 227/359/239 226/358/239 238/378/239
f 227/359/239 238/378/239 234/369/239
f 236/379/240 239/380/240 224/375/240
f 239/380/240 237/377/240 224/375/240
f 232/367/241 231/366/241 240/381/241
f 231/366/241 241/382/241 240/381/241
f 238/378/242 195/317/242 242/383/242
f 197/319/243 230/362/243 232/367/243
f 234/369/244 238/378/244 243/384/244
f 238/378/244 242/383/244 243/384/244
f 233/368/245 234/369/245 243/384/245
f 233/368/245 243/384/245 244/385/245
f 235/370/246 233/368/246 244/385/246
f 235/370/246 244/385/246 245/386/246
f 241/387/247 246/388/247 247/389/247
f 241/387/247 247/389/247 248/390/247
f 236/379/248 235/391/248 239/380/248
f 235/391/248 245/392/248 239/380/248
f 244/385/249 243/384/249 249/393/249
f 244/385/249 249/393/249 250/394/249
f 237/377/250 246/388/250 241/387/250
f 237/377/250 241/387/250 231/376/250
f 245/386/251 244/385/251 251/395/251
f 244/385/251 250/394/251 251/395/251
f 237/377/252 239/380/252 252/396/252
f 237/377/252 252/396/252 246/388/252
f 239/380/253 245/392/253 252/396/253
f 245/392/253 251/397/253 252/396/253
f 252/396/254 253/398/254 247/389/254
f 252/396/254 247/389/254 246/388/254
f 242/383/255 195/317/255 254/399/255
f 197/319/256 232/367/256 240/381/256
f 243/384/257 242/383/257 254/399/257
f 243/384/257 254/399/257 249/393/257
f 255/400/258 248/401/258 256/402/258
f 248/401/258 257/403/258 256/402/258
f 241/382/259 248/401/259 240/381/259
f 248/401/259 255/400/259 240/381/259
f 254/399/260 195/317/260 258/404/260
f 197/319/261 240/381/261 255/400/261
f 249/393/262 254/399/262 259/405/262
f 254/399/262 258/404/262 259/405/262
f 250/394/263 249/393/263 260/406/263
f 249/393/263 259/405/263 260/406/263
f 251/395/264 250/394/264 261/407/264
f 250/394/264 260/406/264 261/407/264
f 257/408/265 262/409/265 263/410/265
f 257/408/265 263/410/265 264/411/265
f 252/396/266 251/397/266 261/412/266
f 252/396/266 261/412/266 253/398/266
f 247/413/267 262/409/267 248/414/267
f 262/409/267 257/408/267 248/414/267
f 261/407/268 260/406/268 265/415/268
f 261/407/268 265/415/268 266/416/268
f 247/413/269 253/417/269 262/409/269
f 253/417/269 267/418/269 262/409/269
f 253/417/270 261/419/270 267/418/270
f 261/419/270 266/420/270 267/418/270
f 268/421/271 264/422/271 269/423/271
f 268/421/271 269/423/271 198/320/271
f 258/404/272 195/317/272 270/424/272
f 197/319/273 255/400/273 256/402/273
f 259/405/274 258/404/274 270/424/274
f 259/405/274 270/424/274 271/425/274
f 260/406/275 259/405/275 271/425/275
f 260/406/275 271/425/275 265/415/275
f 257/403/276 264/422/276 256/402/276
f 264/422/276 268/421/276 256/402/276
f 270/424/277 195/317/277 272/426/277
f 197/319/278 256/402/278 268/421/278
f 271/425/279 270/424/279 273/427/279
f 270/424/279 272/426/279 273/427/279
f 265/415/280 271/425/280 274/428/280
f 271/425/280 273/427/280 274/428/280
f 266/416/281 265/415/281 274/428/281
f 266/416/281 274/428/281 275/429/281
f 262/409/282 267/418/282 263/410/282
f 267/418/282 276/430/282 263/410/282
f 267/418/283 266/420/283 275/431/283
f 267/418/283 275/431/283 276/430/283
f 264/411/284 263/410/284 269/432/284
f 263/410/284 189/433/284 269/432/284
f 263/410/285 276/430/285 190/434/285
f 263/410/285 190/434/285 189/433/285
f 276/430/286 275/431/286 187/435/286
f 276/430/286 187/435/286 190/434/286
f 272/426/287 195/317/287 194/316/287
f 197/319/288 268/421/288 198/320/288
f 273/427/289 272/426/289 184/302/289
f 272/426/289 194/316/289 184/302/289
f 198/320/290 269/423/290 192/312/290
f 269/423/290 179/313/290 192/312/290
f 274/428/291 273/427/291 183/301/291
f 273/427/291 184/302/291 183/301/291
f 275/429/292 274/428/292 187/305/292
f 274/428/292 183/301/292 187/305/292
f 189/307/293 180/298/293 269/436/293
f 180/298/293 179/297/293 269/436/293
s off
