# Apple ModelIO OBJ File: olla_03_terminada
mtllib olla_03_terminada.mtl
g Cylinder.001_olla
v -0.006355 0.421116 0.855201
v -0.006355 0.387544 0.855201
v -0.375705 0.387544 0.770899
v -0.375705 0.421116 0.770899
v -0.448059 0.512236 -0.91327
v -0.383927 0.580443 -0.780099
v -0.802277 0.512236 -0.63079
v -0.686715 0.580443 -0.538633
v -0.006355 0.421116 -1.01409
v 0.435348 0.421116 -0.91327
v 0.435348 0.512236 -0.91327
v -0.006355 0.512236 -1.01409
v 0.362995 0.421116 0.770899
v 0.362995 0.387544 0.770899
v -0.998854 0.512236 0.230468
v -0.85475 0.580443 0.197577
v -0.686715 0.580443 0.546506
v -0.802277 0.512236 0.638663
v 0.789567 0.421116 -0.63079
v 0.789567 0.512236 -0.63079
v -0.375705 0.421116 -0.763026
v -0.375705 0.387544 -0.763026
v -0.006355 0.387544 -0.847328
v -0.006355 0.421116 -0.847328
v -0.006355 0.512236 1.02196
v -0.006355 0.580443 0.87415
v 0.435348 0.512236 0.921143
v 0.371216 0.580443 0.787971
v 0.986143 0.421116 -0.222595
v 0.986143 0.512236 -0.222595
v 0.65919 0.421116 0.534691
v 0.65919 0.387544 0.534691
v 0.986143 0.512236 0.230468
v 0.84204 0.580443 0.197577
v 0.84204 0.580443 -0.189704
v 0.986143 0.421116 0.230468
v -0.6719 0.421116 -0.526818
v -0.6719 0.387544 -0.526818
v 0.371216 0.580443 -0.780099
v -0.006355 0.580443 -0.866277
v 0.789567 0.421116 0.638663
v 0.789567 0.512236 0.638663
v 0.823566 0.421116 0.193361
v 0.823566 0.387544 0.193361
v -0.998854 0.512236 -0.222595
v -0.85475 0.580443 -0.189704
v 0.435348 0.421116 0.921143
v -0.836277 0.421116 -0.185488
v -0.836277 0.387544 -0.185488
v -0.448059 0.512236 0.921143
v -0.383927 0.580443 0.787971
v -0.006355 0.421116 1.02196
v 0.823566 0.421116 -0.185488
v 0.823566 0.387544 -0.185488
v 0.674005 0.580443 0.546506
v -0.448059 0.421116 0.921143
v -0.836277 0.421116 0.193361
v -0.836277 0.387544 0.193361
v 0.674005 0.580443 -0.538633
v -0.802277 0.421116 0.638663
v 0.65919 0.421116 -0.526818
v 0.65919 0.387544 -0.526818
v -0.998854 0.421116 0.230468
v -0.6719 0.421116 0.534691
v -0.6719 0.387544 0.534691
v -0.998854 0.421116 -0.222595
v 0.362995 0.421116 -0.763026
v 0.362995 0.387544 -0.763026
v -0.802277 0.421116 -0.63079
v -0.448059 0.421116 -0.91327
v -0.46392 0.641507 0.368832
v -0.260285 0.641507 0.531226
v 0.45121 0.641507 0.368832
v 0.564219 0.641507 0.134166
v 0.247574 0.641507 -0.523353
v -0.006355 0.641507 -0.581311
v -0.46392 0.641507 -0.360959
v -0.576929 0.641507 -0.126293
v -0.006355 0.641507 0.589184
v 0.564219 0.641507 -0.126293
v -0.576929 0.641507 0.134166
v 0.247574 0.641507 0.531226
v 0.45121 0.641507 -0.360959
v -0.260285 0.641507 -0.523353
v -0.315149 0.663266 0.074416
v -0.253988 0.663266 0.201417
v -0.006355 0.663266 -0.312798
v -0.143781 0.663266 -0.281431
v 0.131071 0.663266 0.289304
v 0.241278 0.663266 0.201417
v 0.241278 0.663266 -0.193544
v 0.131071 0.663266 -0.281431
v -0.253988 0.663266 -0.193544
v -0.143781 0.663266 0.289304
v 0.302438 0.663266 0.074416
v -0.315149 0.663266 -0.066544
v -0.006355 0.663266 0.320671
v 0.302438 0.663266 -0.066544
v -0.006356 0.685469 0.085406
v 0.034244 0.685469 0.07614
v 0.084872 0.685469 -0.028989
v 0.066803 0.685469 -0.066509
v -0.097583 0.685469 0.012655
v -0.079514 0.685469 0.050175
v -0.006356 0.685469 -0.101741
v -0.046956 0.685469 -0.092474
v 0.066803 0.685469 0.050175
v 0.034244 0.685469 -0.092474
v -0.079514 0.685469 -0.066509
v -0.046956 0.685469 0.07614
v 0.084872 0.685469 0.012655
v -0.097583 0.685469 -0.028989
v -0.042712 0.743265 0.000124
v -0.035514 0.74326 0.015077
v -0.006349 0.743259 -0.045457
v -0.022529 0.743263 -0.041767
v 0.009818 0.743244 0.025433
v 0.022794 0.743242 0.015088
v 0.022803 0.743248 -0.031412
v 0.00983 0.743253 -0.041761
v -0.035506 0.743266 -0.031422
v -0.022541 0.743255 0.025427
v 0.029998 0.743241 0.000137
v -0.042709 0.743267 -0.016471
v -0.006362 0.743249 0.029123
v 0.030001 0.743243 -0.016458
v -0.022916 0.809121 -0.012504
v -0.022918 0.80912 -0.00382
v -0.006338 0.809112 0.011354
v 0.001042 0.80911 0.009423
v 0.010248 0.809109 -0.012497
v 0.006965 0.809111 -0.020322
v -0.019635 0.809118 0.004005
v -0.006332 0.809117 -0.027672
v -0.013712 0.80912 -0.025741
v 0.006961 0.809108 0.00401
v 0.001048 0.809114 -0.025738
v -0.019631 0.809121 -0.020327
v -0.013717 0.809115 0.00942
v 0.010247 0.809108 -0.003813
v -0.006335 0.809115 -0.008159
v -0.006355 0.420596 0.865112
v -0.380005 0.420596 0.779829
v -0.006355 0.387544 0.870472
v -0.382331 0.387544 0.784658
v -0.454677 0.512269 -0.927013
v -0.814203 0.512269 -0.640301
v -0.390478 0.580545 -0.793703
v -0.698521 0.580545 -0.548047
v -0.006355 0.420665 -1.02556
v -0.006355 0.512269 -1.02934
v 0.441966 0.512269 -0.927013
v 0.440324 0.420665 -0.923603
v 0.367295 0.420596 0.779829
v 0.36962 0.387544 0.784658
v -1.01373 0.512269 0.233862
v -0.814203 0.512269 0.648174
v -0.698521 0.580545 0.55592
v -0.869471 0.580545 0.200937
v 0.801492 0.512269 -0.640301
v 0.798533 0.420665 -0.637941
v -0.380005 0.420596 -0.771956
v -0.006355 0.420596 -0.857239
v -0.006355 0.387544 -0.862599
v -0.382331 0.387544 -0.776785
v -0.006355 0.512269 1.03721
v 0.441966 0.512269 0.934886
v 0.377768 0.580545 0.801576
v -0.006355 0.580545 0.889249
v 0.997325 0.420665 -0.225147
v 1.00101 0.512269 -0.225989
v 0.666939 0.420596 0.540871
v 0.671129 0.387544 0.544213
v 1.00101 0.512269 0.233862
v 0.856761 0.580545 -0.193064
v 0.856761 0.580545 0.200937
v 0.997325 0.420665 0.23302
v -0.679649 0.420596 -0.532998
v -0.68384 0.387544 -0.53634
v 0.377768 0.580545 -0.793703
v -0.006355 0.580545 -0.881376
v 0.801492 0.512269 0.648174
v 0.798533 0.420665 0.645814
v 0.833229 0.420596 0.195566
v 0.838454 0.387544 0.196759
v -1.01373 0.512269 -0.225989
v -0.869471 0.580545 -0.193064
v 0.440324 0.420665 0.931476
v -0.845939 0.420596 -0.187693
v -0.851165 0.387544 -0.188886
v -0.454677 0.512269 0.934886
v -0.390478 0.580545 0.801576
v -0.006355 0.420665 1.03343
v 0.833229 0.420596 -0.187693
v 0.838454 0.387544 -0.188886
v 0.68581 0.580545 0.55592
v -0.453035 0.420665 0.931476
v -0.845939 0.420596 0.195566
v -0.851165 0.387544 0.196759
v 0.68581 0.580545 -0.548047
v -0.811244 0.420665 0.645814
v 0.666939 0.420596 -0.532998
v 0.671129 0.387544 -0.53634
v -1.01004 0.420665 0.23302
v -0.679649 0.420596 0.540871
v -0.68384 0.387544 0.544213
v -1.01004 0.420665 -0.225147
v 0.367295 0.420596 -0.771956
v 0.36962 0.387544 -0.776785
v -0.811244 0.420665 -0.637941
v -0.453035 0.420665 -0.923603
v -0.475144 0.641741 0.377783
v -0.266513 0.641741 0.54416
v 0.462433 0.641741 0.377783
v 0.578214 0.641741 0.137361
v -0.006355 0.641741 -0.595666
v 0.253803 0.641741 -0.536287
v -0.590925 0.641741 -0.129488
v -0.475144 0.641741 -0.36991
v -0.006355 0.641741 0.603539
v 0.578214 0.641741 -0.129488
v -0.590925 0.641741 0.137361
v 0.253803 0.641741 0.54416
v 0.462433 0.641741 -0.36991
v -0.266513 0.641741 -0.536287
v -0.328429 0.663575 0.077467
v -0.264612 0.663577 0.209908
v -0.006355 0.663567 -0.326505
v -0.149733 0.663568 -0.293771
v 0.251901 0.663577 0.209908
v 0.136956 0.663579 0.301545
v 0.137022 0.663568 -0.293771
v 0.251984 0.66357 -0.202063
v -0.264694 0.66357 -0.202063
v -0.149667 0.663579 0.301545
v 0.315718 0.663575 0.077467
v -0.328466 0.663572 -0.069564
v -0.006355 0.663579 0.334246
v 0.315755 0.663572 -0.069564
v -0.006355 0.685638 0.100202
v 0.040676 0.685637 0.089469
v 0.099338 0.685629 -0.032316
v 0.078409 0.685626 -0.075789
v -0.091106 0.685635 0.059394
v -0.112043 0.685632 0.01593
v -0.053397 0.685624 -0.105877
v -0.006355 0.685624 -0.116614
v 0.078395 0.685635 0.059394
v 0.040687 0.685624 -0.105876
v -0.091119 0.685626 -0.07579
v -0.053386 0.685637 0.089469
v 0.099332 0.685632 0.015931
v -0.112049 0.685629 -0.032317
v -0.047543 0.74328 0.024476
v -0.057609 0.743284 0.003455
v -0.006346 0.743278 -0.060722
v -0.02926 0.743283 -0.055468
v 0.016551 0.743264 0.039133
v 0.034822 0.743261 0.024488
v 0.016566 0.743272 -0.05546
v 0.034833 0.743267 -0.040809
v -0.047533 0.743286 -0.040823
v -0.029275 0.743274 0.039127
v 0.044894 0.743261 0.003471
v -0.057606 0.743286 -0.019805
v -0.006362 0.743268 0.044388
v 0.044898 0.743263 -0.019788
v -0.033927 0.809583 -0.014909
v -0.033925 0.809581 -0.001369
v -0.006271 0.80956 0.022884
v 0.006241 0.809559 0.019681
v 0.016056 0.809566 -0.027201
v 0.021348 0.809566 -0.014886
v -0.028609 0.809575 0.010954
v -0.006261 0.809567 -0.039172
v -0.01879 0.809573 -0.035986
v 0.016041 0.809562 0.010935
v 0.006258 0.809565 -0.03596
v -0.028613 0.809579 -0.027238
v -0.018791 0.809567 0.019697
v 0.021342 0.809565 -0.001371
v -0.006209 0.809798 -0.008114
v 0 0.863508 0.008252
v -0.023302 0.854771 0.056639
v 0 0.854771 0.061957
v 0 0.8309 0.101273
v -0.04036 0.8309 0.092061
v -0.046604 0.798291 0.105026
v 0 0.798291 0.115663
v 0 0.765683 0.101273
v -0.04036 0.765683 0.092061
v -0.023302 0.734747 0.056639
v 0 0.734747 0.061957
v 0 0.72601 0.008252
v -0.041989 0.854771 0.041737
v -0.072726 0.8309 0.066249
v -0.083977 0.798291 0.075222
v -0.072726 0.765683 0.066249
v -0.041989 0.734747 0.041737
v -0.052359 0.854771 0.020203
v -0.090688 0.8309 0.028951
v -0.104718 0.798291 0.032153
v -0.090688 0.765683 0.028951
v -0.052359 0.734747 0.020203
v -0.052359 0.854771 -0.003699
v -0.090688 0.8309 -0.012447
v -0.104718 0.798291 -0.015649
v -0.090688 0.765683 -0.012447
v -0.052359 0.734747 -0.003699
v -0.041989 0.854771 -0.025233
v -0.072726 0.8309 -0.049745
v -0.083977 0.798291 -0.058718
v -0.072726 0.765683 -0.049745
v -0.041989 0.734747 -0.025233
v -0.046604 0.798291 -0.088522
v -0.04036 0.765683 -0.075557
v -0.023302 0.734747 -0.040135
v -0.023302 0.854771 -0.040135
v -0.04036 0.8309 -0.075557
v 0 0.734747 -0.045453
v 0 0.854771 -0.045453
v 0 0.8309 -0.084769
v 0 0.798291 -0.099159
v 0 0.765683 -0.084769
v 0.023302 0.854771 -0.040135
v 0.04036 0.8309 -0.075557
v 0.046604 0.798291 -0.088522
v 0.04036 0.765683 -0.075557
v 0.023302 0.734747 -0.040135
v 0.041989 0.854771 -0.025233
v 0.072726 0.8309 -0.049745
v 0.083977 0.798291 -0.058718
v 0.072726 0.765683 -0.049745
v 0.041989 0.734747 -0.025233
v 0.052359 0.854771 -0.003699
v 0.090688 0.8309 -0.012447
v 0.104718 0.798291 -0.015649
v 0.090688 0.765683 -0.012447
v 0.052359 0.734747 -0.003699
v 0.090688 0.8309 0.028951
v 0.104718 0.798291 0.032153
v 0.090688 0.765683 0.028951
v 0.052359 0.734747 0.020203
v 0.052359 0.854771 0.020203
v 0.072726 0.765683 0.066249
v 0.041989 0.734747 0.041737
v 0.041989 0.854771 0.041737
v 0.072726 0.8309 0.066249
v 0.083977 0.798291 0.075222
v 0.023302 0.854771 0.056639
v 0.04036 0.8309 0.092061
v 0.046604 0.798291 0.105026
v 0.04036 0.765683 0.092061
v 0.023302 0.734747 0.056639
vn 0.2225 -0 -0.9749
vn 0.2667 -0.9039 0.3345
vn -0.2225 -0 0.9749
vn -0.2225 -0 -0.9749
vn 0.3854 -0.9039 -0.1856
vn -0.6235 -0 0.7818
vn 0.2225 -0 0.9749
vn -0.0952 -0.9039 -0.4171
vn -0.901 -0 0.4339
vn -0.6235 -0 -0.7818
vn -0.4278 -0.9039 -0
vn -1 -0 -0
vn 0.6235 -0 0.7818
vn -0.0952 -0.9039 0.4171
vn -0.901 -0 -0.4339
vn 0.4278 -0.9039 -0
vn 0.901 -0 0.4339
vn 0.0952 -0.9039 -0.4171
vn -0.3855 -0.9039 -0.1856
vn 1 -0 -0
vn -0.2667 -0.9039 0.3345
vn 0.6235 -0 -0.7818
vn 0.0952 -0.9039 0.4171
vn 0.901 -0 -0.4339
vn 0.3854 -0.9039 0.1856
vn 0.2667 -0.9039 -0.3345
vn -0.2667 -0.9039 -0.3345
vn -0.3855 -0.9039 0.1856
vn 0.1338 -0.9767 -0.1678
vn -0.1934 -0.9767 -0.0931
vn -0.0478 -0.9767 0.2093
vn 0.1934 -0.9767 0.0931
vn 0.0478 -0.9767 -0.2093
vn -0.2147 -0.9767 -0
vn 0.2147 -0.9767 -0
vn -0.0478 -0.9767 -0.2093
vn -0.1934 -0.9767 0.0931
vn 0.1934 -0.9767 -0.0931
vn 0.0478 -0.9767 0.2093
vn -0.1338 -0.9767 -0.1678
vn -0.1338 -0.9767 0.1678
vn 0.1338 -0.9767 0.1678
vn 0.0746 -0.9966 -0.0359
vn 0.0184 -0.9966 0.0808
vn -0.0516 -0.9966 -0.0648
vn -0.0516 -0.9966 0.0648
vn 0.0516 -0.9966 0.0648
vn 0.0516 -0.9966 -0.0648
vn -0.0746 -0.9966 -0.0359
vn -0.0184 -0.9966 0.0808
vn 0.0746 -0.9966 0.0359
vn 0.0184 -0.9966 -0.0808
vn 0.021 -0.9954 -0.0931
vn -0.0828 -0.9966 -0
vn 0.0828 -0.9966 -0
vn -0.0184 -0.9966 -0.0808
vn -0.021 -0.9954 -0.0931
vn -0.0746 -0.9966 0.0359
vn -0.0214 -0.9953 -0.0939
vn -0.0937 -0.9946 0.0451
vn 0.0893 -0.9951 -0.043
vn 0.0239 -0.9942 0.1046
vn -0.0607 -0.9953 -0.0761
vn -0.0661 -0.9944 0.0829
vn 0.0661 -0.9944 0.0829
vn 0.0607 -0.9953 -0.0761
vn -0.0893 -0.9951 -0.043
vn -0.0239 -0.9942 0.1046
vn 0.0937 -0.9946 0.0451
vn 0.0214 -0.9953 -0.0939
vn -0.1015 -0.9948 -0
vn 0.1015 -0.9948 -0
vn 0.6534 -0.6885 -0.3147
vn 0.1613 -0.6886 0.707
vn -0.4521 -0.6887 -0.5669
vn -0.4522 -0.6886 0.5669
vn 0.4521 -0.6885 0.567
vn 0.4521 -0.6886 -0.567
vn -0.6532 -0.6887 -0.3146
vn -0.1615 -0.6886 0.7069
vn 0.6534 -0.6885 0.3147
vn 0.1613 -0.6886 -0.707
vn -0.7251 -0.6887 -0.0001
vn 0.7252 -0.6885 -0
vn -0.1614 -0.6886 -0.7069
vn -0.6533 -0.6886 0.3145
vn 0.9577 -0.2878 0.0002
vn -0.2244 -0.256 -0.9403
vn -0.8718 -0.2814 0.401
vn 0.8716 -0.2818 -0.4011
vn 0.2242 -0.2564 0.9402
vn -0.6172 -0.2675 -0.74
vn -0.6174 -0.2677 0.7397
vn 0.617 -0.268 0.7399
vn 0.6172 -0.2678 -0.7398
vn -0.8716 -0.2812 -0.4015
vn -0.2248 -0.2563 0.9401
vn 0.8715 -0.2819 0.4013
vn 0.2246 -0.2562 -0.9402
vn -0.9579 -0.2872 -0.0002
vn -0.0004 -1 -0.0001
vn -0.0003 -1 -0.0002
vn -0.0004 -1 -0.0002
vn -0.0003 -1 -0.0001
vn -0 1 -0
vn -0.2198 0.1562 0.963
vn -0.2667 0.9039 -0.3345
vn 0.2223 -0.0402 -0.9741
vn 0.2198 0.1562 0.963
vn -0.3854 0.9039 0.1856
vn 0.623 -0.0402 -0.7812
vn -0.2198 0.1562 -0.963
vn 0.0952 0.9039 0.4171
vn 0.9002 -0.0402 -0.4335
vn 0.6158 0.1561 0.7722
vn 0.4278 0.9039 -0
vn 0.9992 -0.0402 -0
vn -0.6158 0.1562 -0.7722
vn 0.0952 0.9039 -0.4171
vn 0.9002 -0.0402 0.4335
vn 0.8899 0.1561 0.4286
vn -0.4278 0.9039 -0
vn 0.623 -0.0402 0.7812
vn -0.8899 0.1562 -0.4286
vn -0.0952 0.9039 0.4171
vn 0.2223 -0.0402 0.9741
vn 0.9877 0.1561 -0
vn 0.3854 0.9039 0.1856
vn -0.2223 -0.0402 0.9741
vn -0.9877 0.1562 -0
vn 0.2667 0.9039 -0.3345
vn -0.623 -0.0402 0.7812
vn 0.8899 0.1561 -0.4286
vn -0.0952 0.9039 -0.4171
vn -0.9002 -0.0402 0.4335
vn -0.8899 0.1562 0.4286
vn -0.3854 0.9039 -0.1856
vn -0.9992 -0.0402 -0
vn 0.6158 0.1562 -0.7722
vn -0.2667 0.9039 0.3345
vn -0.9002 -0.0402 -0.4335
vn -0.6158 0.1562 0.7722
vn 0.2667 0.9039 0.3345
vn -0.623 -0.0402 -0.7812
vn 0.2198 0.1562 -0.963
vn 0.3854 0.9039 -0.1856
vn -0.2223 -0.0402 -0.9741
vn -0.1338 0.9767 0.1678
vn 0.1933 0.9767 0.0931
vn 0.0477 0.9767 -0.2092
vn -0.1933 0.9767 -0.0931
vn -0.0477 0.9767 0.2092
vn 0.2146 0.9767 -0
vn -0.2146 0.9767 -0
vn 0.0477 0.9767 0.2092
vn 0.1933 0.9767 -0.0931
vn -0.1933 0.9767 0.0931
vn -0.0477 0.9767 -0.2092
vn 0.1338 0.9767 0.1678
vn 0.1338 0.9767 -0.1678
vn -0.1338 0.9767 -0.1678
vn -0.0747 0.9966 0.036
vn -0.0184 0.9966 -0.0808
vn 0.0517 0.9966 0.0648
vn 0.0517 0.9966 -0.0648
vn -0.0517 0.9966 -0.0648
vn -0.0517 0.9966 0.0648
vn 0.0747 0.9966 0.036
vn 0.0184 0.9966 -0.0808
vn -0.0747 0.9966 -0.036
vn -0.0184 0.9966 0.0808
vn -0.021 0.9954 0.093
vn 0.0829 0.9966 -0
vn -0.0829 0.9966 -0
vn 0.0184 0.9966 0.0808
vn 0.021 0.9954 0.093
vn 0.0747 0.9966 -0.036
vn 0.0214 0.9954 0.0938
vn 0.0936 0.9946 -0.0451
vn -0.0892 0.9951 0.043
vn -0.0238 0.9942 -0.1045
vn 0.0606 0.9953 0.076
vn 0.0661 0.9944 -0.0829
vn -0.0661 0.9944 -0.0829
vn -0.0606 0.9953 0.076
vn 0.0892 0.9951 0.043
vn 0.0238 0.9942 -0.1045
vn -0.0936 0.9946 -0.0451
vn -0.0214 0.9954 0.0938
vn 0.1014 0.9948 -0
vn -0.1014 0.9948 -0
vn -0.6553 0.6865 0.3151
vn -0.1619 0.687 -0.7084
vn 0.4537 0.6866 0.568
vn 0.4537 0.6869 -0.5677
vn -0.4536 0.6868 -0.5679
vn -0.4538 0.6865 0.5681
vn 0.6552 0.6866 0.3151
vn 0.1621 0.687 -0.7084
vn -0.6552 0.6867 -0.315
vn -0.162 0.6866 0.7087
vn 0.727 0.6867 0.0001
vn -0.7271 0.6865 -0
vn 0.162 0.6866 0.7087
vn 0.6551 0.6868 -0.3148
vn -0.9417 0.3364 -0
vn 0.2213 0.3034 0.9268
vn 0.8577 0.3289 -0.3951
vn -0.8571 0.3302 0.3955
vn -0.2206 0.3044 -0.9267
vn 0.6076 0.3148 0.7292
vn 0.6079 0.3153 -0.7287
vn -0.6069 0.3164 -0.7291
vn -0.6071 0.3159 0.7291
vn 0.8576 0.3287 0.3957
vn 0.2217 0.304 -0.9265
vn -0.857 0.3305 -0.3955
vn -0.2209 0.3038 0.9268
vn 0.9423 0.3347 0.0003
vn -0.0015 1 -0.0026
vn 0.0036 1 -0.0068
vn 0.0003 1 -0.0074
vn 0.0064 1 -0.0047
vn 0.008 1 -0.0016
vn 0.008 1 0.0018
vn 0.0075 1 0.0036
vn 0.0036 1 0.007
vn 0.002 1 0.0077
vn -0.0055 1 0.0013
vn -0.003 1 0.007
vn -0.0014 1 0.0077
vn -0.0058 1 0.0049
vn -0.0074 1 0.0019
vn -0.0074 1 -0.0016
vn -0.0073 1 -0.0038
vn -0.0047 1 -0.006
vn -0.0014 1 -0.0074
vn 0.0002 -1 -0.0004
vn -0 -1 -0.0004
vn 0.0003 -1 -0.0003
vn 0.0004 -1 -0.0001
vn 0.0004 -1 0.0001
vn 0.0003 -1 0.0003
vn 0.0002 -1 0.0004
vn -0 -1 0.0004
vn -0.0002 -1 0.0004
vn -0.0003 -1 0.0003
vn -0.0004 -1 0.0001
vn -0.0003 -1 -0.0003
vn -0.0002 -1 -0.0004
vn -0 -1 -0
vn -0.0366 0.9864 0.1605
vn -0.2044 0.3952 0.8956
vn -0.1398 -0.7782 0.6123
vn -0.1176 0.8488 0.5154
vn -0.2044 -0.3952 0.8956
vn -0.0366 -0.9864 0.1605
vn -0.3296 0.8488 0.4133
vn -0.5727 -0.3952 0.7182
vn -0.1026 -0.9864 0.1287
vn -0.1026 0.9864 0.1287
vn -0.5727 0.3952 0.7182
vn -0.3916 -0.7782 0.491
vn -0.4763 0.8488 0.2294
vn -0.8276 -0.3952 0.3986
vn -0.1483 -0.9864 0.0714
vn -0.1483 0.9864 0.0714
vn -0.8276 0.3952 0.3986
vn -0.5659 -0.7782 0.2725
vn -0.5287 0.8488 -0
vn -0.9186 -0.3952 -0
vn -0.1646 -0.9864 -0
vn -0.1646 0.9864 -0
vn -0.9186 0.3952 -0
vn -0.6281 -0.7782 -0
vn -0.4763 0.8488 -0.2294
vn -0.8276 -0.3952 -0.3986
vn -0.1483 -0.9864 -0.0714
vn -0.1483 0.9864 -0.0714
vn -0.8276 0.3952 -0.3986
vn -0.5659 -0.7782 -0.2725
vn -0.5727 -0.3952 -0.7182
vn -0.1026 -0.9864 -0.1287
vn -0.1026 0.9864 -0.1287
vn -0.5727 0.3952 -0.7182
vn -0.3916 -0.7782 -0.491
vn -0.3296 0.8488 -0.4133
vn -0.0366 -0.9864 -0.1605
vn -0.0366 0.9864 -0.1605
vn -0.2044 0.3952 -0.8956
vn -0.1398 -0.7782 -0.6123
vn -0.1176 0.8488 -0.5154
vn -0.2044 -0.3952 -0.8956
vn 0.0366 0.9864 -0.1605
vn 0.2044 0.3952 -0.8956
vn 0.1398 -0.7782 -0.6123
vn 0.1176 0.8488 -0.5154
vn 0.2044 -0.3952 -0.8956
vn 0.0366 -0.9864 -0.1605
vn 0.1026 0.9864 -0.1287
vn 0.5727 0.3952 -0.7182
vn 0.3916 -0.7782 -0.491
vn 0.3296 0.8488 -0.4133
vn 0.5727 -0.3952 -0.7182
vn 0.1026 -0.9864 -0.1287
vn 0.1483 0.9864 -0.0714
vn 0.8276 0.3952 -0.3986
vn 0.5659 -0.7782 -0.2725
vn 0.4763 0.8488 -0.2294
vn 0.8276 -0.3952 -0.3986
vn 0.1483 -0.9864 -0.0714
vn 0.9186 0.3952 -0
vn 0.6281 -0.7782 -0
vn 0.5287 0.8488 -0
vn 0.9186 -0.3952 -0
vn 0.1646 -0.9864 -0
vn 0.1646 0.9864 -0
vn 0.5659 -0.7782 0.2725
vn 0.4763 0.8488 0.2294
vn 0.8276 -0.3952 0.3986
vn 0.1483 -0.9864 0.0714
vn 0.1483 0.9864 0.0714
vn 0.8276 0.3952 0.3986
vn 0.3296 0.8488 0.4133
vn 0.5727 -0.3952 0.7182
vn 0.1026 -0.9864 0.1287
vn 0.1026 0.9864 0.1287
vn 0.5727 0.3952 0.7182
vn 0.3916 -0.7782 0.491
vn 0.1176 0.8488 0.5154
vn 0.2044 -0.3952 0.8956
vn 0.0366 -0.9864 0.1605
vn 0.0366 0.9864 0.1605
vn 0.2044 0.3952 0.8956
vn 0.1398 -0.7782 0.6123
vt 0.52013 0.898163
vt 0.516638 0.898162
vt 0.516179 0.862676
vt 0.519671 0.862676
vt 0.573494 0.473597
vt 0.58017 0.459738
vt 0.619458 0.484088
vt 0.61946 0.468706
vt 0.882412 0.694121
vt 0.883403 0.664857
vt 0.892882 0.664856
vt 0.89189 0.69412
vt 0.52013 0.937585
vt 0.516638 0.937585
vt 0.702281 0.444203
vt 0.690257 0.434611
vt 0.707743 0.398302
vt 0.722736 0.401726
vt 0.883953 0.622453
vt 0.893432 0.622452
vt 0.557398 0.937692
vt 0.560891 0.937692
vt 0.561345 0.973135
vt 0.557853 0.973135
vt 0.702281 0.312104
vt 0.690257 0.321693
vt 0.665421 0.28271
vt 0.658749 0.296566
vt 0.883953 0.575308
vt 0.893432 0.575307
vt 0.519671 0.973136
vt 0.516179 0.973136
vt 0.573494 0.28271
vt 0.58017 0.296566
vt 0.548662 0.321693
vt 0.536634 0.312104
vt 0.883403 0.532759
vt 0.892882 0.532758
vt 0.557398 0.898269
vt 0.560891 0.89827
vt 0.516179 0.401726
vt 0.531176 0.398302
vt 0.536635 0.444203
vt 0.548662 0.434612
vt 0.882412 0.503235
vt 0.89189 0.503234
vt 0.886733 0.756078
vt 0.883241 0.756078
vt 0.882412 0.73139
vt 0.885904 0.731389
vt 0.665421 0.473597
vt 0.65875 0.459738
vt 0.9307 0.635332
vt 0.931249 0.592817
vt 0.940728 0.592818
vt 0.940179 0.635332
vt 0.557853 0.862676
vt 0.561345 0.862676
vt 0.722736 0.354581
vt 0.707743 0.358002
vt 0.931249 0.545672
vt 0.940728 0.545672
vt 0.887193 0.791656
vt 0.883701 0.791657
vt 0.619457 0.272219
vt 0.61946 0.287598
vt 0.9307 0.503234
vt 0.940179 0.503234
vt 0.107876 0.920481
vt 0.111368 0.920479
vt 0.1108 0.955687
vt 0.107309 0.955689
vt 0.516179 0.354581
vt 0.531176 0.358002
vt 0.936616 0.018634
vt 0.937295 0.061469
vt 0.927818 0.061475
vt 0.92714 0.01864
vt 0.887193 0.831079
vt 0.883701 0.831079
vt 0.937295 0.108607
vt 0.927818 0.108613
vt 0.107876 0.881065
vt 0.111368 0.881063
vt 0.936616 0.150711
vt 0.92714 0.150717
vt 0.886733 0.866537
vt 0.883241 0.866537
vt 0.940786 0.27222
vt 0.940242 0.314786
vt 0.930763 0.314785
vt 0.931307 0.272219
vt 0.107309 0.845246
vt 0.1108 0.845244
vt 0.940242 0.361931
vt 0.930763 0.36193
vt 0.885904 0.891008
vt 0.882412 0.891008
vt 0.940786 0.404317
vt 0.931307 0.404316
vt 0.678835 0.391703
vt 0.678835 0.364599
vt 0.619461 0.317251
vt 0.593038 0.323282
vt 0.560088 0.391703
vt 0.571848 0.416122
vt 0.619462 0.439052
vt 0.645885 0.43302
vt 0.667075 0.34018
vt 0.571848 0.34018
vt 0.667075 0.416122
vt 0.645885 0.323282
vt 0.560088 0.364599
vt 0.593038 0.433021
vt 0.645231 0.3987
vt 0.651595 0.385485
vt 0.593694 0.3987
vt 0.605162 0.407846
vt 0.633763 0.348456
vt 0.619462 0.345192
vt 0.587329 0.370817
vt 0.587329 0.385485
vt 0.619462 0.41111
vt 0.651595 0.370817
vt 0.605162 0.348456
vt 0.633763 0.407846
vt 0.645231 0.357601
vt 0.593694 0.357601
vt 0.626091 0.372865
vt 0.622703 0.370163
vt 0.610865 0.372865
vt 0.608985 0.376769
vt 0.626091 0.385007
vt 0.627971 0.381102
vt 0.610865 0.385007
vt 0.614253 0.387709
vt 0.618478 0.369198
vt 0.608985 0.381102
vt 0.618478 0.388673
vt 0.627971 0.376769
vt 0.614253 0.370163
vt 0.622703 0.387709
vt 0.60331 0.862676
vt 0.601909 0.868876
vt 0.600183 0.868876
vt 0.598978 0.862676
vt 0.615446 0.381353
vt 0.616796 0.38243
vt 0.620164 0.375439
vt 0.618481 0.375054
vt 0.614697 0.37807
vt 0.614697 0.379797
vt 0.603228 0.913074
vt 0.6019 0.918934
vt 0.600173 0.918934
vt 0.598895 0.913074
vt 0.622263 0.379799
vt 0.622263 0.378072
vt 0.616797 0.375438
vt 0.618479 0.382815
vt 0.620163 0.382431
vt 0.621514 0.376516
vt 0.615447 0.376515
vt 0.621513 0.381354
vt 0.598854 0.975663
vt 0.600168 0.969806
vt 0.601895 0.969806
vt 0.603188 0.975663
vt 0.977435 0.73139
vt 0.976153 0.737246
vt 0.973101 0.73139
vt 0.974426 0.737246
vt 0.603452 0.868901
vt 0.60216 0.875806
vt 0.601353 0.875793
vt 0.600586 0.963003
vt 0.601379 0.963004
vt 0.97564 0.744043
vt 0.974758 0.744044
vt 0.600472 0.875791
vt 0.603452 0.918914
vt 0.602293 0.925726
vt 0.601568 0.925735
vt 0.603452 0.969827
vt 0.602106 0.963015
vt 0.973984 0.744036
vt 0.972872 0.737227
vt 0.600735 0.925734
vt 0.599692 0.875801
vt 0.598614 0.8689
vt 0.978792 0.737189
vt 0.977043 0.744014
vt 0.977711 0.737225
vt 0.976456 0.744032
vt 0.973472 0.74402
vt 0.9718 0.737191
vt 0.598614 0.918915
vt 0.599959 0.925722
vt 0.598614 0.969825
vt 0.599883 0.963013
vt 0.976347 0.108094
vt 0.976861 0.110059
vt 0.976067 0.110059
vt 0.975329 0.10967
vt 0.974792 0.108969
vt 0.974563 0.108094
vt 0.974687 0.10722
vt 0.97514 0.106519
vt 0.975832 0.10613
vt 0.976626 0.10613
vt 0.977365 0.106519
vt 0.977902 0.10722
vt 0.978131 0.108094
vt 0.978006 0.108968
vt 0.977553 0.10967
vt 0.659193 0.204378
vt 0.666715 0.220012
vt 0.620793 0.213151
vt 0.620793 0.230504
vt 0.689987 0.179798
vt 0.703542 0.190617
vt 0.707077 0.144279
vt 0.723979 0.14814
vt 0.707077 0.104856
vt 0.723979 0.100994
vt 0.689987 0.069338
vt 0.703542 0.058518
vt 0.659193 0.044759
vt 0.666715 0.029124
vt 0.620793 0.035987
vt 0.620793 0.018634
vt 0.582392 0.04476
vt 0.57487 0.029126
vt 0.551598 0.06934
vt 0.538043 0.058521
vt 0.534508 0.104859
vt 0.517606 0.100998
vt 0.534508 0.144282
vt 0.517606 0.148143
vt 0.551598 0.1798
vt 0.538043 0.190619
vt 0.582392 0.204379
vt 0.57487 0.220014
vt 0.889872 0.019137
vt 0.889033 0.043893
vt 0.886427 0.018634
vt 0.885583 0.043544
vt 0.327567 0.476615
vt 0.290188 0.446781
vt 0.333942 0.46274
vt 0.301916 0.437178
vt 0.685672 0.857658
vt 0.69519 0.857747
vt 0.695747 0.900821
vt 0.686227 0.900574
vt 0.066588 0.881449
vt 0.066128 0.845594
vt 0.069578 0.845244
vt 0.070041 0.881323
vt 0.269445 0.355817
vt 0.290188 0.312703
vt 0.301916 0.3223
vt 0.284143 0.35924
vt 0.02886 0.883121
vt 0.019323 0.883366
vt 0.018634 0.839889
vt 0.028174 0.839803
vt 0.195592 0.881554
vt 0.195592 0.921436
vt 0.192139 0.921561
vt 0.192139 0.881431
vt 0.374178 0.272219
vt 0.420788 0.282866
vt 0.413814 0.296735
vt 0.373878 0.287613
vt 0.028174 0.792134
vt 0.018634 0.792045
vt 0.066588 0.921331
vt 0.070041 0.921453
vt 0.478911 0.355813
vt 0.478911 0.403665
vt 0.463613 0.400236
vt 0.463613 0.359237
vt 0.019323 0.74931
vt 0.02886 0.749555
vt 0.196057 0.84559
vt 0.192607 0.845243
vt 0.420788 0.476614
vt 0.374178 0.487263
vt 0.413814 0.462739
vt 0.373878 0.471863
vt 0.933982 0.865223
vt 0.924461 0.865466
vt 0.925013 0.822262
vt 0.934532 0.822177
vt 0.066128 0.957339
vt 0.069578 0.957685
vt 0.269445 0.403668
vt 0.284143 0.400239
vt 0.934532 0.774501
vt 0.925013 0.774411
vt 0.889033 0.155638
vt 0.889872 0.180614
vt 0.885583 0.155985
vt 0.886427 0.181116
vt 0.327567 0.282868
vt 0.333942 0.296737
vt 0.933982 0.731637
vt 0.924461 0.73139
vt 0.150874 0.881217
vt 0.151448 0.8456
vt 0.154871 0.845242
vt 0.154294 0.881081
vt 0.458167 0.3127
vt 0.44584 0.322298
vt 0.883971 0.272575
vt 0.893495 0.272219
vt 0.892489 0.301922
vt 0.882968 0.302169
vt 0.888568 0.119645
vt 0.885115 0.119768
vt 0.458167 0.446778
vt 0.44584 0.437176
vt 0.89193 0.344961
vt 0.882412 0.345051
vt 0.150874 0.921093
vt 0.154294 0.921205
vt 0.89193 0.392813
vt 0.882412 0.392727
vt 0.888568 0.079764
vt 0.885115 0.079638
vt 0.892489 0.435999
vt 0.882968 0.435755
vt 0.151448 0.957328
vt 0.154871 0.957666
vt 0.883971 0.465612
vt 0.893495 0.465966
vt 0.686227 0.766988
vt 0.695747 0.766743
vt 0.685672 0.809982
vt 0.69519 0.809895
vt 0.196057 0.957335
vt 0.192607 0.957684
vt 0.324871 0.340834
vt 0.346562 0.323521
vt 0.422348 0.340833
vt 0.434385 0.36585
vt 0.37361 0.44213
vt 0.400657 0.43595
vt 0.312834 0.393621
vt 0.324871 0.418639
vt 0.37361 0.317341
vt 0.434385 0.393619
vt 0.312834 0.365852
vt 0.400657 0.32352
vt 0.422348 0.418637
vt 0.346562 0.435951
vt 0.340029 0.372084
vt 0.346664 0.358302
vt 0.373514 0.41412
vt 0.358607 0.410714
vt 0.400364 0.358301
vt 0.388413 0.348765
vt 0.38842 0.410714
vt 0.400372 0.40117
vt 0.346655 0.401171
vt 0.358614 0.348766
vt 0.406999 0.372083
vt 0.340025 0.387384
vt 0.373514 0.345363
vt 0.407002 0.387383
vt 0.373417 0.369716
vt 0.378307 0.370833
vt 0.384406 0.383506
vt 0.38223 0.38803
vt 0.364606 0.373963
vt 0.362429 0.378486
vt 0.368526 0.391161
vt 0.373417 0.392278
vt 0.382228 0.373963
vt 0.378308 0.391161
vt 0.364604 0.38803
vt 0.368527 0.370833
vt 0.384405 0.378485
vt 0.362428 0.383506
vt 0.876716 0.227919
vt 0.876722 0.222899
vt 0.882869 0.224232
vt 0.882867 0.226658
vt 0.930763 0.442899
vt 0.935732 0.442178
vt 0.932937 0.448798
vt 0.935358 0.448447
vt 0.970249 0.95394
vt 0.975269 0.95394
vt 0.971576 0.960085
vt 0.974012 0.960085
vt 0.375547 0.385912
vt 0.377446 0.384388
vt 0.940221 0.441585
vt 0.937534 0.44816
vt 0.876786 0.218384
vt 0.882899 0.222038
vt 0.377445 0.377593
vt 0.378492 0.37978
vt 0.373165 0.38646
vt 0.368883 0.384389
vt 0.367836 0.382202
vt 0.373163 0.375522
vt 0.370781 0.37607
vt 0.378493 0.3822
vt 0.876769 0.232451
vt 0.882893 0.228842
vt 0.375546 0.376069
vt 0.889845 0.227328
vt 0.889829 0.226056
vt 0.969375 0.960114
vt 0.970785 0.967056
vt 0.972008 0.967041
vt 0.976724 0.018669
vt 0.979149 0.018669
vt 0.978769 0.025485
vt 0.977377 0.025484
vt 0.889829 0.224661
vt 0.934425 0.455609
vt 0.935756 0.455417
vt 0.973373 0.967044
vt 0.981366 0.018634
vt 0.980042 0.025468
vt 0.936947 0.455263
vt 0.889844 0.2234
vt 0.9762 0.960113
vt 0.974606 0.967061
vt 0.930763 0.449142
vt 0.933245 0.455797
vt 0.882942 0.230364
vt 0.889872 0.228248
vt 0.882952 0.220517
vt 0.889872 0.222539
vt 0.974563 0.018634
vt 0.976121 0.025464
vt 0.977598 0.065812
vt 0.976301 0.068709
vt 0.975185 0.067961
vt 0.97766 0.068862
vt 0.978982 0.068419
vt 0.98003 0.067481
vt 0.980618 0.066217
vt 0.980618 0.064851
vt 0.98 0.063659
vt 0.978886 0.062909
vt 0.977527 0.062754
vt 0.976203 0.063196
vt 0.975152 0.064134
vt 0.974563 0.065401
vt 0.974564 0.066769
vt 0.03571 0.402004
vt 0.053014 0.437936
vt 0.03932 0.448856
vt 0.018634 0.405901
vt 0.03571 0.362122
vt 0.018634 0.358225
vt 0.053014 0.32619
vt 0.03932 0.31527
vt 0.084195 0.301324
vt 0.076595 0.285544
vt 0.123076 0.29245
vt 0.123076 0.274935
vt 0.161958 0.301324
vt 0.169558 0.285544
vt 0.193139 0.32619
vt 0.206833 0.31527
vt 0.210443 0.362122
vt 0.227519 0.358225
vt 0.210443 0.402004
vt 0.227519 0.405901
vt 0.193139 0.437936
vt 0.206832 0.448856
vt 0.161958 0.462802
vt 0.169557 0.478582
vt 0.123076 0.471676
vt 0.123076 0.489191
vt 0.084195 0.462802
vt 0.076595 0.478582
vt 0.288099 0.669932
vt 0.318921 0.694512
vt 0.318231 0.695943
vt 0.286856 0.670923
vt 0.426611 0.559472
vt 0.395789 0.534892
vt 0.396479 0.533461
vt 0.427854 0.558481
vt 0.270994 0.634413
vt 0.269445 0.634767
vt 0.443716 0.594991
vt 0.445265 0.594637
vt 0.443716 0.634413
vt 0.445265 0.634767
vt 0.270994 0.594991
vt 0.269445 0.594637
vt 0.426611 0.669932
vt 0.427854 0.670923
vt 0.288099 0.559472
vt 0.286856 0.558481
vt 0.395789 0.694512
vt 0.396479 0.695943
vt 0.318921 0.534892
vt 0.318231 0.533461
vt 0.357355 0.703284
vt 0.357355 0.704873
vt 0.357355 0.52612
vt 0.357355 0.524531
vt 0.826735 0.213465
vt 0.829183 0.208461
vt 0.831127 0.210009
vt 0.937625 0.673952
vt 0.937534 0.676626
vt 0.934111 0.675688
vt 0.934215 0.672601
vt 0.778252 0.207548
vt 0.780122 0.211429
vt 0.776132 0.21234
vt 0.775053 0.210099
vt 0.834389 0.207539
vt 0.831022 0.204858
vt 0.930841 0.673952
vt 0.93075 0.676627
vt 0.770683 0.213584
vt 0.826759 0.20791
vt 0.826823 0.203903
vt 0.934053 0.680162
vt 0.9307 0.680501
vt 0.776132 0.214827
vt 0.937484 0.680501
vt 0.780122 0.215737
vt 0.824335 0.208465
vt 0.822625 0.204865
vt 0.934053 0.685137
vt 0.9307 0.684809
vt 0.775053 0.217068
vt 0.937484 0.684808
vt 0.778253 0.219618
vt 0.822391 0.210017
vt 0.819258 0.207553
vt 0.934111 0.689626
vt 0.93075 0.688697
vt 0.773109 0.218619
vt 0.937534 0.688696
vt 0.774885 0.222304
vt 0.821312 0.212257
vt 0.81739 0.211433
vt 0.934215 0.692741
vt 0.930841 0.691395
vt 0.770684 0.219172
vt 0.937625 0.691394
vt 0.770685 0.223263
vt 0.644168 0.958606
vt 0.64411 0.963091
vt 0.640758 0.963422
vt 0.640808 0.959537
vt 0.768259 0.218619
vt 0.821312 0.214743
vt 0.647592 0.959537
vt 0.647542 0.963422
vt 0.766485 0.222304
vt 0.81739 0.215739
vt 0.766315 0.217068
vt 0.822391 0.216981
vt 0.647542 0.96773
vt 0.64411 0.968066
vt 0.763117 0.219618
vt 0.819258 0.219616
vt 0.640758 0.967729
vt 0.824335 0.21853
vt 0.647592 0.971607
vt 0.644168 0.972543
vt 0.761248 0.215737
vt 0.765235 0.214827
vt 0.822625 0.222298
vt 0.640808 0.971607
vt 0.826759 0.219081
vt 0.685734 0.951114
vt 0.685672 0.9472
vt 0.689015 0.947505
vt 0.689086 0.952024
vt 0.761248 0.211429
vt 0.765235 0.21234
vt 0.826824 0.223252
vt 0.692516 0.95111
vt 0.692454 0.947196
vt 0.829183 0.218525
vt 0.685672 0.942893
vt 0.689015 0.942531
vt 0.763117 0.207548
vt 0.766314 0.210099
vt 0.831022 0.22229
vt 0.692454 0.942889
vt 0.685734 0.939045
vt 0.689086 0.938089
vt 0.766485 0.204862
vt 0.768259 0.208548
vt 0.831127 0.216974
vt 0.834389 0.219603
vt 0.692516 0.939041
vt 0.770685 0.203903
vt 0.770684 0.207995
vt 0.832206 0.214733
vt 0.836257 0.215722
vt 0.972799 0.916672
vt 0.972856 0.91218
vt 0.976159 0.915743
vt 0.976209 0.911854
vt 0.969375 0.915743
vt 0.969425 0.911853
vt 0.832206 0.212247
vt 0.836257 0.211417
vt 0.972856 0.907206
vt 0.976209 0.907546
vt 0.773108 0.208548
vt 0.969425 0.907545
vt 0.774884 0.204862
vt 0.972799 0.902734
vt 0.976159 0.903673
vt 0.969375 0.903672
usemtl olla
f 1/1/1 2/2/1 3/3/1
f 1/1/1 3/3/1 4/4/1
f 5/5/2 6/6/2 7/7/2
f 6/6/2 8/8/2 7/7/2
f 9/9/3 10/10/3 11/11/3
f 9/9/3 11/11/3 12/12/3
f 13/13/4 14/14/4 2/2/4
f 13/13/4 2/2/4 1/1/4
f 15/15/5 16/16/5 17/17/5
f 15/15/5 17/17/5 18/18/5
f 10/10/6 19/19/6 20/20/6
f 10/10/6 20/20/6 11/11/6
f 21/21/7 22/22/7 23/23/7
f 21/21/7 23/23/7 24/24/7
f 25/25/8 26/26/8 27/27/8
f 26/26/8 28/28/8 27/27/8
f 19/19/9 29/29/9 30/30/9
f 19/19/9 30/30/9 20/20/9
f 31/31/10 32/32/10 14/14/10
f 31/31/10 14/14/10 13/13/10
f 33/33/11 34/34/11 35/35/11
f 33/33/11 35/35/11 30/36/11
f 29/29/12 36/37/12 33/38/12
f 29/29/12 33/38/12 30/30/12
f 37/39/13 38/40/13 22/22/13
f 37/39/13 22/22/13 21/21/13
f 11/41/14 39/42/14 12/43/14
f 39/42/14 40/44/14 12/43/14
f 36/37/15 41/45/15 42/46/15
f 36/37/15 42/46/15 33/38/15
f 43/47/15 44/48/15 32/49/15
f 43/47/15 32/49/15 31/50/15
f 45/51/16 46/52/16 16/16/16
f 45/51/16 16/16/16 15/15/16
f 41/53/10 47/54/10 27/55/10
f 41/53/10 27/55/10 42/56/10
f 48/57/17 49/58/17 38/40/17
f 48/57/17 38/40/17 37/39/17
f 50/59/18 51/60/18 26/26/18
f 50/59/18 26/26/18 25/25/18
f 47/54/4 52/61/4 25/62/4
f 47/54/4 25/62/4 27/55/4
f 53/63/12 54/64/12 44/48/12
f 53/63/12 44/48/12 43/47/12
f 42/65/19 55/66/19 33/33/19
f 55/66/19 34/34/19 33/33/19
f 52/61/1 56/67/1 50/68/1
f 52/61/1 50/68/1 25/62/1
f 57/69/20 58/70/20 49/71/20
f 57/69/20 49/71/20 48/72/20
f 20/73/21 59/74/21 39/42/21
f 20/73/21 39/42/21 11/41/21
f 56/75/22 60/76/22 18/77/22
f 56/75/22 18/77/22 50/78/22
f 61/79/9 62/80/9 54/64/9
f 61/79/9 54/64/9 53/63/9
f 12/43/23 40/44/23 6/6/23
f 12/43/23 6/6/23 5/5/23
f 60/76/24 63/81/24 15/82/24
f 60/76/24 15/82/24 18/77/24
f 64/83/24 65/84/24 58/70/24
f 64/83/24 58/70/24 57/69/24
f 7/7/25 8/8/25 45/51/25
f 8/8/25 46/52/25 45/51/25
f 63/81/20 66/85/20 45/86/20
f 63/81/20 45/86/20 15/82/20
f 67/87/6 68/88/6 62/80/6
f 67/87/6 62/80/6 61/79/6
f 18/18/26 17/17/26 50/59/26
f 17/17/26 51/60/26 50/59/26
f 66/89/17 69/90/17 7/91/17
f 66/89/17 7/91/17 45/92/17
f 4/93/22 3/94/22 65/84/22
f 4/93/22 65/84/22 64/83/22
f 27/27/27 28/28/27 55/66/27
f 27/27/27 55/66/27 42/65/27
f 69/90/13 70/95/13 5/96/13
f 69/90/13 5/96/13 7/91/13
f 24/97/3 23/98/3 68/88/3
f 24/97/3 68/88/3 67/87/3
f 30/36/28 35/35/28 59/74/28
f 30/36/28 59/74/28 20/73/28
f 70/95/7 9/99/7 12/100/7
f 70/95/7 12/100/7 5/96/7
f 17/17/29 71/101/29 72/102/29
f 17/17/29 72/102/29 51/60/29
f 55/66/30 73/103/30 74/104/30
f 55/66/30 74/104/30 34/34/30
f 39/42/31 75/105/31 76/106/31
f 39/42/31 76/106/31 40/44/31
f 8/8/32 77/107/32 78/108/32
f 8/8/32 78/108/32 46/52/32
f 51/60/33 72/102/33 26/26/33
f 72/102/33 79/109/33 26/26/33
f 34/34/34 74/104/34 80/110/34
f 34/34/34 80/110/34 35/35/34
f 46/52/35 78/108/35 81/111/35
f 46/52/35 81/111/35 16/16/35
f 26/26/36 79/109/36 82/112/36
f 26/26/36 82/112/36 28/28/36
f 35/35/37 80/110/37 59/74/37
f 80/110/37 83/113/37 59/74/37
f 16/16/38 81/111/38 17/17/38
f 81/111/38 71/101/38 17/17/38
f 40/44/39 76/106/39 6/6/39
f 76/106/39 84/114/39 6/6/39
f 28/28/40 82/112/40 55/66/40
f 82/112/40 73/103/40 55/66/40
f 59/74/41 83/113/41 39/42/41
f 83/113/41 75/105/41 39/42/41
f 6/6/42 84/114/42 8/8/42
f 84/114/42 77/107/42 8/8/42
f 81/111/43 85/115/43 71/101/43
f 85/115/43 86/116/43 71/101/43
f 76/106/44 87/117/44 84/114/44
f 87/117/44 88/118/44 84/114/44
f 82/112/45 89/119/45 73/103/45
f 89/119/45 90/120/45 73/103/45
f 83/113/46 91/121/46 92/122/46
f 83/113/46 92/122/46 75/105/46
f 84/114/47 88/118/47 93/123/47
f 84/114/47 93/123/47 77/107/47
f 71/101/48 86/116/48 72/102/48
f 86/116/48 94/124/48 72/102/48
f 73/103/49 90/120/49 74/104/49
f 90/120/49 95/125/49 74/104/49
f 75/105/50 92/122/50 87/117/50
f 75/105/50 87/117/50 76/106/50
f 77/107/51 93/123/51 96/126/51
f 77/107/51 96/126/51 78/108/51
f 72/102/52 94/124/53 97/127/53
f 72/102/52 97/127/53 79/109/52
f 74/104/54 95/125/54 98/128/54
f 74/104/54 98/128/54 80/110/54
f 78/108/55 96/126/55 85/115/55
f 78/108/55 85/115/55 81/111/55
f 79/109/56 97/127/57 82/112/56
f 97/127/57 89/119/57 82/112/56
f 80/110/58 98/128/58 83/113/58
f 98/128/58 91/121/58 83/113/58
f 97/127/57 99/129/59 100/130/59
f 97/127/57 100/130/59 89/119/57
f 98/128/60 101/131/60 91/121/60
f 101/131/60 102/132/60 91/121/60
f 85/115/61 103/133/61 86/116/61
f 103/133/61 104/134/61 86/116/61
f 87/117/62 105/135/62 88/118/62
f 105/135/62 106/136/62 88/118/62
f 89/119/63 100/130/63 90/120/63
f 100/130/63 107/137/63 90/120/63
f 91/121/64 102/132/64 108/138/64
f 91/121/64 108/138/64 92/122/64
f 88/118/65 106/136/65 93/123/65
f 106/136/65 109/139/65 93/123/65
f 86/116/66 104/134/66 110/140/66
f 86/116/66 110/140/66 94/124/66
f 90/120/67 107/137/67 111/141/67
f 90/120/67 111/141/67 95/125/67
f 92/122/68 108/138/68 105/135/68
f 92/122/68 105/135/68 87/117/68
f 93/123/69 109/139/69 112/142/69
f 93/123/69 112/142/69 96/126/69
f 94/124/53 110/140/70 97/127/53
f 110/140/70 99/129/70 97/127/53
f 95/125/71 111/141/71 98/128/71
f 111/141/71 101/131/71 98/128/71
f 96/126/72 112/142/72 103/133/72
f 96/126/72 103/133/72 85/115/72
f 103/143/73 113/144/73 114/145/73
f 103/143/73 114/145/73 104/146/73
f 105/135/74 115/147/74 106/136/74
f 115/147/74 116/148/74 106/136/74
f 100/130/75 117/149/75 118/150/75
f 100/130/75 118/150/75 107/137/75
f 102/132/76 119/151/76 108/138/76
f 119/151/76 120/152/76 108/138/76
f 106/153/77 116/154/77 121/155/77
f 106/153/77 121/155/77 109/156/77
f 104/134/78 114/157/78 122/158/78
f 104/134/78 122/158/78 110/140/78
f 107/137/79 118/150/79 123/159/79
f 107/137/79 123/159/79 111/141/79
f 108/138/80 120/152/80 105/135/80
f 120/152/80 115/147/80 105/135/80
f 109/139/81 121/160/81 124/161/81
f 109/139/81 124/161/81 112/142/81
f 110/140/82 122/158/82 125/162/82
f 110/140/82 125/162/82 99/129/82
f 111/141/83 123/159/83 126/163/83
f 111/141/83 126/163/83 101/131/83
f 112/142/84 124/161/84 113/164/84
f 112/142/84 113/164/84 103/133/84
f 99/165/85 125/166/85 117/167/85
f 99/165/85 117/167/85 100/168/85
f 101/169/86 126/170/86 102/171/86
f 126/170/86 119/172/86 102/171/86
f 124/173/87 127/174/87 128/175/87
f 124/173/87 128/175/87 113/144/87
f 125/166/88 129/176/88 117/167/88
f 129/176/88 130/177/88 117/167/88
f 126/170/89 131/178/89 132/179/89
f 126/170/89 132/179/89 119/172/89
f 113/144/90 128/175/90 133/180/90
f 113/144/90 133/180/90 114/145/90
f 115/181/91 134/182/91 116/154/91
f 134/182/91 135/183/91 116/154/91
f 117/167/92 130/177/92 118/184/92
f 130/177/92 136/185/92 118/184/92
f 119/172/93 132/179/93 137/186/93
f 119/172/93 137/186/93 120/187/93
f 116/154/94 135/183/94 121/155/94
f 135/183/94 138/188/94 121/155/94
f 114/145/95 133/180/95 139/189/95
f 114/145/95 139/189/95 122/190/95
f 118/191/96 136/192/96 123/193/96
f 136/192/96 140/194/96 123/193/96
f 120/187/97 137/186/97 134/195/97
f 120/187/97 134/195/97 115/196/97
f 121/155/98 138/188/98 124/197/98
f 138/188/98 127/198/98 124/197/98
f 122/199/99 139/200/99 129/176/99
f 122/199/99 129/176/99 125/166/99
f 123/193/100 140/194/100 126/170/100
f 140/194/100 131/178/100 126/170/100
f 141/201/101 134/202/101 137/203/101
f 141/201/101 137/203/101 132/204/101
f 141/201/101 132/204/101 131/205/101
f 141/201/101 131/205/101 140/206/101
f 141/201/101 140/206/101 136/207/101
f 141/201/101 136/207/101 130/208/101
f 141/201/101 130/208/101 129/209/102
f 141/201/101 129/209/102 139/210/103
f 141/201/101 139/210/103 133/211/104
f 141/201/101 133/211/104 128/212/104
f 141/201/101 128/212/104 127/213/104
f 141/201/101 127/213/104 138/214/104
f 141/201/101 138/214/104 135/215/101
f 141/201/101 135/215/101 134/202/101
f 67/216/105 10/217/105 24/218/105
f 10/217/105 9/219/105 24/218/105
f 61/220/105 19/221/105 67/216/105
f 19/221/105 10/217/105 67/216/105
f 53/222/105 29/223/105 19/221/105
f 53/222/105 19/221/105 61/220/105
f 43/224/105 36/225/105 53/222/105
f 36/225/105 29/223/105 53/222/105
f 31/226/105 41/227/105 43/224/105
f 41/227/105 36/225/105 43/224/105
f 13/228/105 47/229/105 41/227/105
f 13/228/105 41/227/105 31/226/105
f 1/230/105 52/231/105 47/229/105
f 1/230/105 47/229/105 13/228/105
f 4/232/105 56/233/105 1/230/105
f 56/233/105 52/231/105 1/230/105
f 64/234/105 60/235/105 56/233/105
f 64/234/105 56/233/105 4/232/105
f 57/236/105 63/237/105 60/235/105
f 57/236/105 60/235/105 64/234/105
f 48/238/105 66/239/105 57/236/105
f 66/239/105 63/237/105 57/236/105
f 37/240/105 69/241/105 48/238/105
f 69/241/105 66/239/105 48/238/105
f 21/242/105 70/243/105 37/240/105
f 70/243/105 69/241/105 37/240/105
f 24/218/105 9/219/105 70/243/105
f 24/218/105 70/243/105 21/242/105
f 142/244/106 143/245/106 144/246/106
f 143/245/106 145/247/106 144/246/106
f 146/248/107 147/249/107 148/250/107
f 147/249/107 149/251/107 148/250/107
f 150/252/108 151/253/108 152/254/108
f 150/252/108 152/254/108 153/255/108
f 154/256/109 142/257/109 144/258/109
f 154/256/109 144/258/109 155/259/109
f 156/260/110 157/261/110 158/262/110
f 156/260/110 158/262/110 159/263/110
f 153/264/111 152/265/111 160/266/111
f 153/264/111 160/266/111 161/267/111
f 162/268/112 163/269/112 164/270/112
f 162/268/112 164/270/112 165/271/112
f 166/272/113 167/273/113 168/274/113
f 166/272/113 168/274/113 169/275/113
f 161/267/114 160/266/114 170/276/114
f 160/266/114 171/277/114 170/276/114
f 172/278/115 154/256/115 173/279/115
f 154/256/115 155/259/115 173/279/115
f 174/280/116 171/281/116 175/282/116
f 174/280/116 175/282/116 176/283/116
f 170/276/117 171/277/117 174/284/117
f 170/276/117 174/284/117 177/285/117
f 178/286/118 162/268/118 179/287/118
f 162/268/118 165/271/118 179/287/118
f 152/288/119 151/289/119 180/290/119
f 151/289/119 181/291/119 180/290/119
f 177/292/120 174/293/120 182/294/120
f 177/292/120 182/294/120 183/295/120
f 184/296/121 172/278/121 185/297/121
f 172/278/121 173/279/121 185/297/121
f 186/298/122 156/260/122 159/263/122
f 186/298/122 159/263/122 187/299/122
f 183/295/123 182/294/123 188/300/123
f 182/294/123 167/301/123 188/300/123
f 189/302/124 178/303/124 190/304/124
f 178/303/124 179/305/124 190/304/124
f 191/306/125 166/272/125 192/307/125
f 166/272/125 169/275/125 192/307/125
f 188/300/126 167/301/126 193/308/126
f 167/301/126 166/309/126 193/308/126
f 194/310/127 184/311/127 185/312/127
f 194/310/127 185/312/127 195/313/127
f 182/314/128 174/280/128 176/283/128
f 182/314/128 176/283/128 196/315/128
f 193/316/129 166/317/129 191/318/129
f 193/316/129 191/318/129 197/319/129
f 198/320/130 189/302/130 190/304/130
f 198/320/130 190/304/130 199/321/130
f 160/322/131 152/288/131 180/290/131
f 160/322/131 180/290/131 200/323/131
f 197/319/132 191/318/132 157/324/132
f 197/319/132 157/324/132 201/325/132
f 202/326/133 194/310/133 195/313/133
f 202/326/133 195/313/133 203/327/133
f 151/289/134 146/248/134 148/250/134
f 151/289/134 148/250/134 181/291/134
f 201/325/135 157/324/135 156/328/135
f 201/325/135 156/328/135 204/329/135
f 205/330/136 198/320/136 199/321/136
f 205/330/136 199/321/136 206/331/136
f 147/249/137 186/298/137 149/251/137
f 186/298/137 187/299/137 149/251/137
f 204/329/138 156/328/138 186/332/138
f 204/329/138 186/332/138 207/333/138
f 208/334/139 202/326/139 203/327/139
f 208/334/139 203/327/139 209/335/139
f 157/261/140 191/306/140 192/307/140
f 157/261/140 192/307/140 158/262/140
f 207/333/141 186/332/141 210/336/141
f 186/332/141 147/337/141 210/336/141
f 143/245/142 205/330/142 206/331/142
f 143/245/142 206/331/142 145/247/142
f 167/273/143 182/314/143 168/274/143
f 182/314/143 196/315/143 168/274/143
f 210/338/144 147/339/144 211/340/144
f 147/339/144 146/341/144 211/340/144
f 163/269/145 208/342/145 164/270/145
f 208/342/145 209/343/145 164/270/145
f 171/281/146 160/322/146 175/282/146
f 160/322/146 200/323/146 175/282/146
f 211/340/147 146/341/147 150/252/147
f 146/341/147 151/253/147 150/252/147
f 158/262/148 192/307/148 212/344/148
f 192/307/148 213/345/148 212/344/148
f 196/315/149 176/283/149 214/346/149
f 176/283/149 215/347/149 214/346/149
f 180/290/150 181/291/150 216/348/150
f 180/290/150 216/348/150 217/349/150
f 149/251/151 187/299/151 218/350/151
f 149/251/151 218/350/151 219/351/151
f 192/307/152 169/275/152 220/352/152
f 192/307/152 220/352/152 213/345/152
f 176/283/153 175/282/153 221/353/153
f 176/283/153 221/353/153 215/347/153
f 187/299/154 159/263/154 222/354/154
f 187/299/154 222/354/154 218/350/154
f 169/275/155 168/274/155 223/355/155
f 169/275/155 223/355/155 220/352/155
f 175/282/156 200/323/156 224/356/156
f 175/282/156 224/356/156 221/353/156
f 159/263/157 158/262/157 222/354/157
f 158/262/157 212/344/157 222/354/157
f 181/291/158 148/250/158 225/357/158
f 181/291/158 225/357/158 216/348/158
f 168/274/159 196/315/159 214/346/159
f 168/274/159 214/346/159 223/355/159
f 200/323/160 180/290/160 224/356/160
f 180/290/160 217/349/160 224/356/160
f 148/250/161 149/251/161 219/351/161
f 148/250/161 219/351/161 225/357/161
f 222/354/162 212/344/162 226/358/162
f 212/344/162 227/359/162 226/358/162
f 216/348/163 225/357/163 228/360/163
f 225/357/163 229/361/163 228/360/163
f 223/355/164 214/346/164 230/362/164
f 223/355/164 230/362/164 231/363/164
f 224/356/165 217/349/165 232/364/165
f 224/356/165 232/364/165 233/365/165
f 225/357/166 219/351/166 229/361/166
f 219/351/166 234/366/166 229/361/166
f 212/344/167 213/345/167 227/359/167
f 213/345/167 235/367/167 227/359/167
f 214/346/168 215/347/168 236/368/168
f 214/346/168 236/368/168 230/362/168
f 217/349/169 216/348/169 228/360/169
f 217/349/169 228/360/169 232/364/169
f 219/351/170 218/350/170 234/366/170
f 218/350/170 237/369/170 234/366/170
f 213/345/171 220/352/171 235/367/172
f 220/352/171 238/370/172 235/367/172
f 215/347/173 221/353/173 239/371/173
f 215/347/173 239/371/173 236/368/173
f 218/350/174 222/354/174 237/369/174
f 222/354/174 226/358/174 237/369/174
f 220/352/175 223/355/175 231/363/176
f 220/352/175 231/363/176 238/370/176
f 221/353/177 224/356/177 233/365/177
f 221/353/177 233/365/177 239/371/177
f 238/370/176 231/363/176 240/372/178
f 231/363/176 241/373/178 240/372/178
f 239/371/179 233/365/179 242/374/179
f 233/365/179 243/375/179 242/374/179
f 226/358/180 227/359/180 244/376/180
f 226/358/180 244/376/180 245/377/180
f 228/360/181 229/361/181 246/378/181
f 228/360/181 246/378/181 247/379/181
f 231/363/182 230/362/182 241/373/182
f 230/362/182 248/380/182 241/373/182
f 233/365/183 232/364/183 243/375/183
f 232/364/183 249/381/183 243/375/183
f 229/361/184 234/366/184 250/382/184
f 229/361/184 250/382/184 246/378/184
f 227/359/185 235/367/185 251/383/185
f 227/359/185 251/383/185 244/376/185
f 230/362/186 236/368/186 248/380/186
f 236/368/186 252/384/186 248/380/186
f 232/364/187 228/360/187 249/381/187
f 228/360/187 247/379/187 249/381/187
f 234/366/188 237/369/188 253/385/188
f 234/366/188 253/385/188 250/382/188
f 235/367/172 238/370/172 240/372/189
f 235/367/172 240/372/189 251/383/189
f 236/368/190 239/371/190 252/384/190
f 239/371/190 242/374/190 252/384/190
f 237/369/191 226/358/191 245/377/191
f 237/369/191 245/377/191 253/385/191
f 245/386/192 244/387/192 254/388/192
f 245/386/192 254/388/192 255/389/192
f 247/390/193 246/391/193 256/392/193
f 246/391/193 257/393/193 256/392/193
f 241/394/194 248/395/194 258/396/194
f 248/395/194 259/397/194 258/396/194
f 243/375/195 249/381/195 260/398/195
f 243/375/195 260/398/195 261/399/195
f 246/391/196 250/400/196 257/393/196
f 250/400/196 262/401/196 257/393/196
f 244/387/197 251/402/197 263/403/197
f 244/387/197 263/403/197 254/388/197
f 248/380/198 252/384/198 259/404/198
f 252/384/198 264/405/198 259/404/198
f 249/381/199 247/379/199 256/406/199
f 249/381/199 256/406/199 260/398/199
f 250/382/200 253/385/200 262/407/200
f 253/385/200 265/408/200 262/407/200
f 251/383/201 240/372/201 266/409/201
f 251/383/201 266/409/201 263/410/201
f 252/384/202 242/374/202 264/405/202
f 242/374/202 267/411/202 264/405/202
f 253/412/203 245/386/203 255/389/203
f 253/412/203 255/389/203 265/413/203
f 240/372/204 241/373/204 266/409/204
f 241/373/204 258/414/204 266/409/204
f 242/374/205 243/375/205 261/399/205
f 242/374/205 261/399/205 267/411/205
f 265/413/206 255/389/206 268/415/206
f 255/389/206 269/416/206 268/415/206
f 266/417/207 258/396/207 270/418/207
f 258/396/207 271/419/207 270/418/207
f 267/420/208 261/421/208 272/422/208
f 267/420/208 272/422/208 273/423/208
f 255/389/209 254/388/209 274/424/209
f 255/389/209 274/424/209 269/416/209
f 256/392/210 257/393/210 275/425/210
f 257/393/210 276/426/210 275/425/210
f 258/396/211 259/397/211 271/419/211
f 259/397/211 277/427/211 271/419/211
f 261/421/212 260/428/212 278/429/212
f 261/421/212 278/429/212 272/422/212
f 257/393/213 262/401/213 276/426/213
f 262/401/213 279/430/213 276/426/213
f 254/388/214 263/403/214 280/431/214
f 254/388/214 280/431/214 274/424/214
f 259/397/215 264/432/215 277/427/215
f 264/432/215 281/433/215 277/427/215
f 260/434/216 256/392/216 275/425/216
f 260/434/216 275/425/216 278/435/216
f 262/436/217 265/413/217 279/437/217
f 265/413/217 268/415/217 279/437/217
f 263/403/218 266/438/218 270/439/218
f 263/403/218 270/439/218 280/431/218
f 264/440/219 267/420/219 273/423/219
f 264/440/219 273/423/219 281/441/219
f 282/442/220 278/443/221 275/444/222
f 282/442/220 272/445/223 278/443/221
f 282/442/220 273/446/224 272/445/223
f 282/442/220 281/447/225 273/446/224
f 282/442/220 277/448/226 281/447/225
f 282/442/220 271/449/227 277/448/226
f 282/442/220 270/450/228 271/449/227
f 282/442/229 280/451/230 270/450/231
f 282/442/229 274/452/232 280/451/230
f 282/442/229 269/453/233 274/452/232
f 282/442/229 268/454/234 269/453/233
f 282/442/229 279/455/235 268/454/234
f 282/442/229 276/456/236 279/455/235
f 282/442/220 275/444/222 276/456/237
f 208/457/238 163/458/239 150/459/239
f 208/457/238 150/459/239 153/460/238
f 202/461/240 208/457/238 161/462/240
f 208/457/238 153/460/238 161/462/240
f 194/463/241 202/461/240 170/464/241
f 202/461/240 161/462/240 170/464/241
f 184/465/242 194/463/241 170/464/241
f 184/465/242 170/464/241 177/466/242
f 172/467/243 184/465/242 177/466/242
f 172/467/243 177/466/242 183/468/243
f 154/469/244 172/467/243 188/470/244
f 172/467/243 183/468/243 188/470/244
f 142/471/245 154/469/244 193/472/245
f 154/469/244 188/470/244 193/472/245
f 143/473/246 142/471/245 193/472/245
f 143/473/246 193/472/245 197/474/246
f 205/475/247 143/473/246 201/476/247
f 143/473/246 197/474/246 201/476/247
f 198/477/248 205/475/247 204/478/248
f 205/475/247 201/476/247 204/478/248
f 189/479/101 198/477/248 204/478/248
f 189/479/101 204/478/248 207/480/101
f 178/481/249 189/479/101 207/480/101
f 178/481/249 207/480/101 210/482/249
f 162/483/250 178/481/249 210/482/249
f 162/483/250 210/482/249 211/484/250
f 163/458/239 162/483/250 150/459/239
f 162/483/250 211/484/250 150/459/239
f 22/485/251 38/486/251 179/487/251
f 22/485/251 179/487/251 165/488/251
f 14/489/251 32/490/251 173/491/251
f 14/489/251 173/491/251 155/492/251
f 23/493/251 22/485/251 165/488/251
f 23/493/251 165/488/251 164/494/251
f 2/495/251 14/489/251 155/492/251
f 2/495/251 155/492/251 144/496/251
f 3/497/251 2/495/251 145/498/251
f 2/495/251 144/496/251 145/498/251
f 68/499/251 23/493/251 209/500/251
f 23/493/251 164/494/251 209/500/251
f 65/501/251 3/497/251 206/502/251
f 3/497/251 145/498/251 206/502/251
f 62/503/251 68/499/251 203/504/251
f 68/499/251 209/500/251 203/504/251
f 58/505/251 65/501/251 206/502/251
f 58/505/251 206/502/251 199/506/251
f 54/507/251 62/503/251 203/504/251
f 54/507/251 203/504/251 195/508/251
f 49/509/251 58/505/251 199/506/251
f 49/509/251 199/506/251 190/510/251
f 44/511/251 54/507/251 195/508/251
f 44/511/251 195/508/251 185/512/251
f 38/486/251 49/509/251 179/487/251
f 49/509/251 190/510/251 179/487/251
f 32/490/251 44/511/251 173/491/251
f 44/511/251 185/512/251 173/491/251
f 283/513/252 284/514/252 285/515/252
f 286/516/253 287/517/253 288/518/253
f 286/516/253 288/518/253 289/519/253
f 290/520/254 291/521/254 292/522/254
f 290/520/254 292/522/254 293/523/254
f 285/515/255 284/514/255 286/524/255
f 284/514/255 287/525/255 286/524/255
f 289/519/256 288/518/256 290/526/256
f 288/518/256 291/527/256 290/526/256
f 293/523/257 292/522/257 294/528/257
f 284/514/258 295/529/258 287/525/258
f 295/529/258 296/530/258 287/525/258
f 288/518/259 297/531/259 291/527/259
f 297/531/259 298/532/259 291/527/259
f 292/522/260 299/533/260 294/528/260
f 283/513/261 295/529/261 284/514/261
f 287/517/262 296/534/262 297/531/262
f 287/517/262 297/531/262 288/518/262
f 291/521/263 298/535/263 299/533/263
f 291/521/263 299/533/263 292/522/263
f 295/529/264 300/536/264 301/537/264
f 295/529/264 301/537/264 296/530/264
f 297/531/265 302/538/265 303/539/265
f 297/531/265 303/539/265 298/532/265
f 299/533/266 304/540/266 294/528/266
f 283/513/267 300/536/267 295/529/267
f 296/534/268 301/541/268 297/531/268
f 301/541/268 302/538/268 297/531/268
f 298/535/269 303/542/269 299/533/269
f 303/542/269 304/540/269 299/533/269
f 300/536/270 305/543/270 306/544/270
f 300/536/270 306/544/270 301/537/270
f 302/538/271 307/545/271 308/546/271
f 302/538/271 308/546/271 303/539/271
f 304/540/272 309/547/272 294/528/272
f 283/513/273 305/543/273 300/536/273
f 301/541/274 306/548/274 307/545/274
f 301/541/274 307/545/274 302/538/274
f 303/542/275 308/549/275 309/547/275
f 303/542/275 309/547/275 304/540/275
f 305/543/276 310/550/276 306/544/276
f 310/550/276 311/551/276 306/544/276
f 307/545/277 312/552/277 308/546/277
f 312/552/277 313/553/277 308/546/277
f 309/547/278 314/554/278 294/528/278
f 283/513/279 310/550/279 305/543/279
f 306/548/280 311/555/280 312/552/280
f 306/548/280 312/552/280 307/545/280
f 308/549/281 313/556/281 314/554/281
f 308/549/281 314/554/281 309/547/281
f 312/557/282 315/558/282 316/559/282
f 312/557/282 316/559/282 313/560/282
f 314/554/283 317/561/283 294/528/283
f 283/513/284 318/562/284 310/550/284
f 311/563/285 319/564/285 312/557/285
f 319/564/285 315/558/285 312/557/285
f 313/556/286 316/565/286 314/554/286
f 316/565/286 317/561/286 314/554/286
f 310/550/287 318/562/287 319/566/287
f 310/550/287 319/566/287 311/551/287
f 317/561/288 320/567/288 294/528/288
f 283/513/289 321/568/289 318/562/289
f 319/564/290 322/569/290 315/558/290
f 322/569/290 323/570/290 315/558/290
f 316/565/291 324/571/291 317/561/291
f 324/571/291 320/567/291 317/561/291
f 318/562/292 321/568/292 322/572/292
f 318/562/292 322/572/292 319/566/292
f 315/558/293 323/570/293 324/573/293
f 315/558/293 324/573/293 316/559/293
f 283/513/294 325/574/294 321/568/294
f 322/569/295 326/575/295 327/576/295
f 322/569/295 327/576/295 323/570/295
f 324/571/296 328/577/296 329/578/296
f 324/571/296 329/578/296 320/567/296
f 321/568/297 325/574/297 322/572/297
f 325/574/297 326/579/297 322/572/297
f 323/570/298 327/576/298 324/573/298
f 327/576/298 328/580/298 324/573/298
f 320/567/299 329/578/299 294/528/299
f 283/513/300 330/581/300 325/574/300
f 326/582/301 331/583/301 332/584/301
f 326/582/301 332/584/301 327/585/301
f 328/577/302 333/586/302 334/587/302
f 328/577/302 334/587/302 329/578/302
f 325/574/303 330/581/303 326/579/303
f 330/581/303 331/588/303 326/579/303
f 327/585/304 332/584/304 328/589/304
f 332/584/304 333/590/304 328/589/304
f 329/578/305 334/587/305 294/528/305
f 283/513/306 335/591/306 330/581/306
f 331/583/307 336/592/307 332/584/307
f 336/592/307 337/593/307 332/584/307
f 333/586/308 338/594/308 334/587/308
f 338/594/308 339/595/308 334/587/308
f 330/581/309 335/591/309 336/596/309
f 330/581/309 336/596/309 331/588/309
f 332/584/310 337/593/310 338/597/310
f 332/584/310 338/597/310 333/590/310
f 334/587/311 339/595/311 294/528/311
f 336/592/312 340/598/312 341/599/312
f 336/592/312 341/599/312 337/593/312
f 338/594/313 342/600/313 343/601/313
f 338/594/313 343/601/313 339/595/313
f 335/591/314 344/602/314 340/603/314
f 335/591/314 340/603/314 336/596/314
f 337/593/315 341/599/315 342/604/315
f 337/593/315 342/604/315 338/597/315
f 339/595/316 343/601/316 294/528/316
f 283/513/317 344/602/317 335/591/317
f 342/600/318 345/605/318 346/606/318
f 342/600/318 346/606/318 343/601/318
f 344/602/319 347/607/319 340/603/319
f 347/607/319 348/608/319 340/603/319
f 341/609/320 349/610/320 342/611/320
f 349/610/320 345/612/320 342/611/320
f 343/601/321 346/606/321 294/528/321
f 283/513/322 347/607/322 344/602/322
f 340/613/323 348/614/323 349/610/323
f 340/613/323 349/610/323 341/609/323
f 347/607/324 350/615/324 351/616/324
f 347/607/324 351/616/324 348/608/324
f 349/610/325 352/617/325 353/618/325
f 349/610/325 353/618/325 345/612/325
f 346/606/326 354/619/326 294/528/326
f 283/513/327 350/615/327 347/607/327
f 348/614/328 351/620/328 349/610/328
f 351/620/328 352/617/328 349/610/328
f 345/605/329 353/621/329 346/606/329
f 353/621/329 354/619/329 346/606/329
f 350/615/330 285/515/330 286/524/330
f 350/615/330 286/524/330 351/616/330
f 352/617/331 289/622/331 290/623/331
f 352/617/331 290/623/331 353/618/331
f 354/619/332 293/523/332 294/528/332
f 283/513/333 285/515/333 350/615/333
f 351/620/334 286/624/334 352/617/334
f 286/624/334 289/622/334 352/617/334
f 353/621/335 290/520/335 354/619/335
f 290/520/335 293/523/335 354/619/335
s off
g olla.001
v -1.2967 0.346983 0.270551
v -1.29624 0.346983 0.339004
v -1.15395 0.346983 0.338047
v -1.15441 0.346983 0.269594
v -1.29624 0.273507 0.339004
v -1.40404 0.346983 0.33973
v -1.40404 0.273507 0.33973
v -1.40739 0.273507 -0.157521
v -1.40739 0.346983 -0.157521
v -1.40784 0.346983 -0.223997
v -1.40784 0.273507 -0.223997
v -1.30003 0.346983 -0.224722
v -1.30003 0.273507 -0.224722
v -1.29958 0.273507 -0.158247
v -1.29958 0.346983 -0.158247
v -1.40451 0.346983 0.271277
v -1.2967 0.273507 0.270551
v -1.40451 0.273507 0.271277
v -1.14593 0.346983 -0.225759
v -1.14548 0.346983 -0.159283
v -1.14548 0.273507 -0.159283
v -1.14593 0.273507 -0.225759
v -0.951593 0.203138 -0.227067
v -0.951145 0.203138 -0.160591
v -0.951593 0.276614 -0.227067
v -0.951145 0.276614 -0.160591
v -1.15395 0.273507 0.338047
v -1.15441 0.273507 0.269594
v -0.983932 0.224513 0.336903
v -0.984392 0.224513 0.26845
v -0.984392 0.297989 0.26845
v -0.983932 0.297989 0.336903
v 0 -0.408592 0
v 0.433884 -0.408592 -0.900969
v 0 -0.408592 -1
v 0.433884 0.408593 -0.900969
v 0 0.408593 -1
v 0.781831 -0.408592 -0.62349
v 0.781831 0.408593 -0.62349
v 0.974928 -0.408592 -0.222521
v 0.974928 0.408593 -0.222521
v 0.974928 -0.408592 0.222521
v 0.974928 0.408593 0.222521
v 0.781831 -0.408592 0.62349
v 0.781831 0.408593 0.62349
v 0.433884 -0.408592 0.900969
v 0.433884 0.408593 0.900969
v 0 -0.408592 1
v 0 0.408593 1
v -0.433884 -0.408592 0.900969
v -0.433884 0.408593 0.900969
v -0.781831 -0.408592 0.62349
v -0.781831 0.408593 0.62349
v -0.974928 -0.408592 0.222521
v -0.974928 0.408593 0.222521
v -0.974928 -0.408592 -0.222521
v -0.974928 0.408593 -0.222521
v -0.781831 -0.408592 -0.62349
v -0.781831 0.408593 -0.62349
v -0.433884 -0.408592 -0.900969
v -0.433884 0.408593 -0.900969
v 0 -0.430021 0
v 0 -0.422741 -1.03939
v 0.450973 -0.422741 -0.936455
v 0 0.077224 -1.12018
v 0 0.408593 -1.05244
v 0.486027 0.077224 -1.00925
v 0.456638 0.408593 -0.948219
v 0.812625 -0.422741 -0.648047
v 0.822834 0.408593 -0.656188
v 0.87579 0.077224 -0.698419
v 1.01333 -0.422741 -0.231285
v 1.02606 0.408593 -0.234191
v 1.09209 0.077224 -0.249263
v 1.01333 -0.422741 0.231285
v 1.02606 0.408593 0.234191
v 1.09209 0.077224 0.249263
v 0.812625 -0.422741 0.648047
v 0.87579 0.077224 0.698419
v 0.822834 0.408593 0.656188
v 0.450973 -0.422741 0.936455
v 0.486027 0.077224 1.00925
v 0.456639 0.408593 0.948219
v 0 -0.422741 1.03939
v 0 0.408593 1.05244
v 0 0.077224 1.12018
v -0.450973 -0.422741 0.936455
v -0.486027 0.077224 1.00925
v -0.456638 0.408593 0.948219
v -0.812625 -0.422741 0.648047
v -0.822834 0.408593 0.656188
v -0.87579 0.077224 0.698419
v -1.01333 -0.422741 0.231285
v -1.02606 0.408593 0.234191
v -1.09209 0.077224 0.249263
v -1.01333 -0.422741 -0.231285
v -1.02606 0.408593 -0.234191
v -1.09209 0.077224 -0.249263
v -0.812625 -0.422741 -0.648047
v -0.87579 0.077224 -0.698419
v -0.822834 0.408593 -0.656188
v -0.450973 -0.422741 -0.936455
v -0.486027 0.077224 -1.00925
v -0.456638 0.408593 -0.948219
v -0.467546 -0.378955 -0.97087
v 0 -0.378955 -1.07758
v -0.842489 -0.378955 -0.671863
v -1.05057 -0.378955 -0.239785
v -1.05057 -0.378955 0.239785
v -0.842489 -0.378955 0.671863
v -0.467546 -0.378955 0.97087
v 0 -0.378955 1.07758
v 0.467546 -0.378955 0.97087
v 0.842489 -0.378955 0.671863
v 1.05057 -0.378955 0.239785
v 1.05057 -0.378955 -0.239785
v 0.842489 -0.378955 -0.671863
v 0.467547 -0.378955 -0.97087
v -0.494885 -0.180592 -1.02764
v 0 -0.180592 -1.14059
v -0.891752 -0.180592 -0.711149
v -1.112 -0.180592 -0.253806
v -1.112 -0.180592 0.253806
v -0.891752 -0.180592 0.711149
v -0.494885 -0.180592 1.02764
v 0 -0.180592 1.14059
v 0.494885 -0.180592 1.02764
v 0.891752 -0.180592 0.711149
v 1.112 -0.180592 0.253806
v 1.112 -0.180592 -0.253806
v 0.891752 -0.180592 -0.711149
v 0.494885 -0.180592 -1.02764
v 1.26254 0.346983 -0.251579
v 1.26078 0.346983 -0.320011
v 1.11854 0.346983 -0.316356
v 1.1203 0.346983 -0.247924
v 1.26078 0.273507 -0.320011
v 1.36855 0.346983 -0.32278
v 1.36855 0.273507 -0.32278
v 1.38133 0.273507 0.174318
v 1.38133 0.346983 0.174318
v 1.38303 0.346983 0.240774
v 1.38303 0.273507 0.240774
v 1.27526 0.346983 0.243543
v 1.27526 0.273507 0.243543
v 1.27355 0.273507 0.177087
v 1.27355 0.346983 0.177087
v 1.37031 0.346983 -0.254348
v 1.26254 0.273507 -0.251579
v 1.37031 0.273507 -0.254348
v 1.1195 0.346983 0.181045
v 1.12121 0.346983 0.247501
v 1.1195 0.273507 0.181045
v 1.12121 0.273507 0.247501
v 0.92693 0.203138 0.252492
v 0.925222 0.203138 0.186037
v 0.92693 0.276614 0.252492
v 0.925222 0.276614 0.186037
v 1.11854 0.273507 -0.316356
v 1.1203 0.273507 -0.247924
v 0.950329 0.224513 -0.243557
v 0.948571 0.224513 -0.311989
v 0.950329 0.297989 -0.243557
v 0.948571 0.297989 -0.311989
vn -0 1 -0
vn 0.0067 -0 1
vn -1 -0 0.0067
vn -1 -0 0.0068
vn -0.0067 -0 -1
vn -0 -1 -0
vn -1 -0 0.0069
vn 1 -0 -0.0067
vn -0.3405 -0.9403 0.0023
vn 0.3405 0.9403 -0.0023
vn -0.2769 -0.9609 0.0019
vn 0.2769 0.9609 -0.0019
vn -0.2225 -0 0.9749
vn -0.6235 -0 0.7818
vn -0.901 -0 0.4339
vn -1 -0 -0
vn -0.901 -0 -0.4339
vn -0.6235 -0 -0.7818
vn -0.2225 -0 -0.9749
vn 0.2225 -0 -0.9749
vn 0.6235 -0 -0.7818
vn 0.901 -0 -0.4339
vn 1 -0 -0
vn 0.901 -0 0.4339
vn 0.6235 -0 0.7818
vn 0.2225 -0 0.9749
vn 0.0046 -1 -0
vn 0.0016 -1 -0.007
vn 0.003 -1 -0.0063
vn 0.2182 0.1955 -0.9561
vn 0.0055 -1 -0.0044
vn 0.6115 0.1954 -0.7668
vn 0.6115 0.1954 -0.7667
vn 0.0068 -1 -0.0016
vn 0.8836 0.1954 -0.4255
vn 0.0068 -1 0.0016
vn 0.9807 0.1954 -0
vn 0.0055 -1 0.0044
vn 0.8836 0.1954 0.4255
vn 0.003 -1 0.0063
vn 0.6115 0.1954 0.7667
vn 0.6115 0.1954 0.7668
vn 0.0016 -1 0.007
vn 0.2182 0.1955 0.9561
vn -0.0046 -1 -0
vn -0.0016 -1 0.007
vn -0.003 -1 0.0063
vn -0.2182 0.1955 0.9561
vn -0.0055 -1 0.0044
vn -0.6115 0.1954 0.7668
vn -0.6115 0.1954 0.7667
vn -0.0068 -1 0.0016
vn -0.8836 0.1954 0.4255
vn -0.0068 -1 -0.0016
vn -0.9807 0.1954 -0
vn -0.0055 -1 -0.0044
vn -0.8836 0.1954 -0.4255
vn -0.003 -1 -0.0063
vn -0.6115 0.1954 -0.7667
vn -0.6115 0.1954 -0.7668
vn -0.0016 -1 -0.007
vn -0.2182 0.1955 -0.9561
vn -0.1695 -0.6479 -0.7427
vn -0.1695 -0.6478 -0.7427
vn -0.4749 -0.6479 -0.5956
vn -0.6863 -0.6479 -0.3305
vn -0.7618 -0.6479 -0
vn -0.6863 -0.6479 0.3305
vn -0.4749 -0.6479 0.5956
vn -0.1695 -0.6478 0.7427
vn -0.1695 -0.6479 0.7427
vn 0.1695 -0.6479 0.7427
vn 0.1695 -0.6478 0.7427
vn 0.4749 -0.6479 0.5956
vn 0.6863 -0.6479 0.3305
vn 0.7618 -0.6479 -0
vn 0.6863 -0.6479 -0.3305
vn 0.4749 -0.6479 -0.5956
vn 0.1695 -0.6478 -0.7427
vn 0.1695 -0.6479 -0.7427
vn 0.1695 -0.6479 -0.7426
vn -0.2219 0.077 -0.972
vn -0.6216 0.077 -0.7795
vn -0.8983 0.077 -0.4326
vn -0.997 0.077 -0
vn -0.8983 0.077 0.4326
vn -0.6216 0.077 0.7795
vn -0.2219 0.077 0.972
vn 0.2219 0.077 0.972
vn 0.6216 0.077 0.7795
vn 0.8983 0.077 0.4326
vn 0.997 0.077 -0
vn 0.8983 0.077 -0.4326
vn 0.6216 0.077 -0.7795
vn 0.2219 0.077 -0.972
vn 0.2126 -0.2958 -0.9313
vn 0.5956 -0.2958 -0.7468
vn 0.8606 -0.2958 -0.4145
vn 0.9552 -0.2958 -0
vn 0.8606 -0.2958 0.4145
vn 0.5956 -0.2958 0.7468
vn 0.2126 -0.2958 0.9313
vn -0.2126 -0.2958 0.9313
vn -0.5956 -0.2958 0.7468
vn -0.8606 -0.2958 0.4145
vn -0.9552 -0.2958 -0
vn -0.8606 -0.2958 -0.4145
vn -0.5956 -0.2958 -0.7468
vn -0.2126 -0.2958 -0.9313
vn -0.0257 -0 -0.9997
vn 0.9997 -0 -0.0256
vn 0.0257 -0 0.9997
vn 0.9997 -0 -0.0257
vn -0.9997 -0 0.0257
vn 0.3403 -0.9403 -0.0088
vn 0.3403 -0.9403 -0.0087
vn -0.3403 0.9403 0.0088
vn -0.3403 0.9403 0.0087
vn 0.2768 -0.9609 -0.0071
vn -0.2768 0.9609 0.0071
vt 0.612146 0.773867
vt 0.612146 0.766744
vt 0.626953 0.766744
vt 0.626953 0.773868
vt 0.936449 0.200013
vt 0.928855 0.199128
vt 0.930154 0.187985
vt 0.937749 0.188871
vt 0.640758 0.91442
vt 0.648403 0.91442
vt 0.648403 0.921337
vt 0.640758 0.921337
vt 0.756348 0.907768
vt 0.763904 0.906603
vt 0.765614 0.917691
vt 0.758058 0.918856
vt 0.187133 0.801056
vt 0.198352 0.801055
vt 0.187134 0.807973
vt 0.198353 0.807972
vt 0.600926 0.818488
vt 0.612144 0.818489
vt 0.612144 0.825406
vt 0.600925 0.825406
vt 0.600927 0.773867
vt 0.187131 0.756434
vt 0.19835 0.756433
vt 0.640758 0.869798
vt 0.648403 0.869798
vt 0.62818 0.825407
vt 0.62818 0.818489
vt 0.640758 0.862675
vt 0.648403 0.862675
vt 0.18713 0.749311
vt 0.198348 0.74931
vt 0.600928 0.766743
vt 0.324967 0.953791
vt 0.317322 0.953791
vt 0.317322 0.909169
vt 0.324967 0.909169
vt 0.171097 0.801057
vt 0.171098 0.807974
vt 0.150875 0.807971
vt 0.150874 0.801054
vt 0.768059 0.933539
vt 0.760502 0.934704
vt 0.410324 0.909169
vt 0.417819 0.910683
vt 0.414644 0.926401
vt 0.40715 0.924888
vt 0.978718 0.781312
vt 0.978718 0.788958
vt 0.9718 0.788958
vt 0.9718 0.781312
vt 0.417819 0.947674
vt 0.410324 0.94616
vt 0.763904 0.954642
vt 0.756348 0.955807
vt 0.648403 0.825405
vt 0.648403 0.818487
vt 0.172323 0.749312
vt 0.172324 0.756435
vt 0.154631 0.74931
vt 0.154631 0.756433
vt 0.018634 0.92182
vt 0.026188 0.920635
vt 0.028482 0.935263
vt 0.020929 0.936448
vt 0.934734 0.21472
vt 0.92714 0.213835
vt 0.767128 0.472196
vt 0.767128 0.479842
vt 0.760004 0.479842
vt 0.760004 0.472196
vt 0.644645 0.766743
vt 0.644645 0.773867
vt 0.026188 0.953531
vt 0.018634 0.954716
vt 0.937749 0.232884
vt 0.930154 0.231999
vt 0.617629 0.625416
vt 0.57248 0.71917
vt 0.536272 0.690296
vt 0.845144 0.353932
vt 0.845116 0.398985
vt 0.760081 0.398987
vt 0.760108 0.353934
vt 0.617629 0.729475
vt 0.84504 0.434925
vt 0.760005 0.434928
vt 0.662779 0.71917
vt 0.269528 0.871901
vt 0.269445 0.830062
vt 0.35448 0.83006
vt 0.354562 0.871899
vt 0.698986 0.690296
vt 0.269445 0.783752
vt 0.35448 0.78375
vt 0.719079 0.648571
vt 0.269528 0.742143
vt 0.354562 0.742141
vt 0.719079 0.60226
vt 0.756452 0.684065
vt 0.756375 0.647595
vt 0.841411 0.647593
vt 0.841487 0.684063
vt 0.698986 0.560536
vt 0.756348 0.602352
vt 0.841383 0.60235
vt 0.662779 0.531662
vt 0.756375 0.557299
vt 0.841411 0.557297
vt 0.617629 0.521356
vt 0.756452 0.521358
vt 0.841487 0.521356
vt 0.572479 0.531662
vt 0.476866 0.742141
vt 0.476949 0.78398
vt 0.391914 0.783982
vt 0.391831 0.742143
vt 0.536272 0.560536
vt 0.476949 0.83029
vt 0.391914 0.830292
vt 0.516179 0.602261
vt 0.476866 0.871899
vt 0.391831 0.871901
vt 0.516179 0.648571
vt 0.84504 0.272219
vt 0.845116 0.308689
vt 0.760081 0.308691
vt 0.760005 0.272221
vt 0.374891 0.126792
vt 0.374891 0.234951
vt 0.327963 0.224239
vt 0.070711 0.61964
vt 0.105174 0.619575
vt 0.07068 0.670108
vt 0.105145 0.666991
vt 0.29033 0.194228
vt 0.105065 0.704817
vt 0.070594 0.710368
vt 0.269445 0.15086
vt 0.795794 0.165321
vt 0.761335 0.160958
vt 0.761248 0.116926
vt 0.795701 0.118454
vt 0.269445 0.102725
vt 0.761248 0.068187
vt 0.795701 0.066579
vt 0.29033 0.059357
vt 0.795794 0.019969
vt 0.761335 0.024396
vt 0.327963 0.029345
vt 0.177022 0.710394
vt 0.142551 0.704924
vt 0.176936 0.66954
vt 0.142471 0.666541
vt 0.374891 0.018634
vt 0.142442 0.618926
vt 0.176905 0.618861
vt 0.421819 0.029345
vt 0.176936 0.568393
vt 0.142471 0.57151
vt 0.459452 0.059357
vt 0.142551 0.533685
vt 0.177022 0.528133
vt 0.480337 0.102725
vt 0.8084 0.722648
vt 0.842859 0.72701
vt 0.842947 0.771043
vt 0.808493 0.769515
vt 0.480337 0.15086
vt 0.842947 0.819782
vt 0.808493 0.82139
vt 0.459452 0.194228
vt 0.8084 0.868
vt 0.842859 0.863573
vt 0.421819 0.224239
vt 0.070594 0.528107
vt 0.105065 0.533577
vt 0.07068 0.568961
vt 0.105145 0.57196
vt 0.125405 0.024091
vt 0.080256 0.034396
vt 0.125405 0.018634
vt 0.077888 0.029479
vt 0.125405 0.23221
vt 0.170555 0.221905
vt 0.125405 0.237667
vt 0.172923 0.226821
vt 0.044048 0.06327
vt 0.023955 0.104995
vt 0.039782 0.059868
vt 0.018634 0.103781
vt 0.080256 0.221905
vt 0.077888 0.226821
vt 0.023955 0.151306
vt 0.044048 0.19303
vt 0.039782 0.196433
vt 0.018634 0.15252
vt 0.206762 0.19303
vt 0.226856 0.151306
vt 0.211029 0.196433
vt 0.232176 0.15252
vt 0.226856 0.104995
vt 0.206762 0.06327
vt 0.211029 0.059868
vt 0.232176 0.103781
vt 0.170555 0.034396
vt 0.172923 0.029479
vt 0.018634 0.57254
vt 0.0232 0.570849
vt 0.018663 0.619564
vt 0.023229 0.619601
vt 0.46256 0.196708
vt 0.423544 0.227823
vt 0.756434 0.819474
vt 0.761006 0.820381
vt 0.756348 0.862722
vt 0.760917 0.865218
vt 0.756434 0.77134
vt 0.761006 0.770478
vt 0.756348 0.727853
vt 0.760917 0.725393
vt 0.423544 0.025767
vt 0.46256 0.056881
vt 0.228954 0.618937
vt 0.224387 0.6189
vt 0.224416 0.570352
vt 0.228982 0.572109
vt 0.228982 0.665961
vt 0.224416 0.667653
vt 0.287222 0.056881
vt 0.326239 0.025767
vt 0.84776 0.068495
vt 0.843188 0.067588
vt 0.847847 0.025247
vt 0.843278 0.022751
vt 0.84776 0.116629
vt 0.843188 0.117491
vt 0.847847 0.160115
vt 0.843278 0.162576
vt 0.326238 0.227823
vt 0.287222 0.196708
vt 0.0232 0.66815
vt 0.018634 0.666392
vt 0.043857 0.568057
vt 0.043888 0.61966
vt 0.04377 0.526459
vt 0.781674 0.821876
vt 0.781579 0.869334
vt 0.781674 0.769055
vt 0.781579 0.721334
vt 0.203759 0.567453
vt 0.203846 0.526459
vt 0.203728 0.618841
vt 0.203759 0.670444
vt 0.203846 0.712042
vt 0.82252 0.066093
vt 0.822615 0.018634
vt 0.82252 0.118914
vt 0.822615 0.166635
vt 0.043857 0.671048
vt 0.04377 0.712042
vt 0.023117 0.706879
vt 0.224499 0.706953
vt 0.224499 0.531622
vt 0.023117 0.531548
vt 0.552439 0.818284
vt 0.552439 0.825408
vt 0.537632 0.825408
vt 0.537632 0.818284
vt 0.270744 0.942036
vt 0.278338 0.942922
vt 0.277039 0.954063
vt 0.269445 0.953177
vt 0.932107 0.909651
vt 0.924461 0.90965
vt 0.924461 0.902734
vt 0.932107 0.902735
vt 0.817038 0.954634
vt 0.809481 0.9558
vt 0.807771 0.944714
vt 0.815328 0.943549
vt 0.077347 0.756231
vt 0.066128 0.756231
vt 0.066129 0.749313
vt 0.077347 0.749313
vt 0.563657 0.773663
vt 0.552438 0.773663
vt 0.552438 0.766745
vt 0.563656 0.766745
vt 0.563657 0.818284
vt 0.077346 0.800853
vt 0.066128 0.800852
vt 0.932107 0.954264
vt 0.924461 0.954263
vt 0.536402 0.773663
vt 0.536402 0.766745
vt 0.932107 0.961385
vt 0.924461 0.961385
vt 0.077346 0.807976
vt 0.066128 0.807976
vt 0.563657 0.825407
vt 0.362236 0.909169
vt 0.369882 0.90917
vt 0.369882 0.953783
vt 0.362236 0.953782
vt 0.093383 0.756231
vt 0.093383 0.749314
vt 0.113606 0.74931
vt 0.113606 0.756228
vt 0.805327 0.928868
vt 0.812883 0.927703
vt 0.462581 0.94767
vt 0.455087 0.946156
vt 0.458261 0.93044
vt 0.465756 0.931954
vt 0.9718 0.833873
vt 0.9718 0.826227
vt 0.978716 0.826226
vt 0.978716 0.833872
vt 0.455087 0.909169
vt 0.462581 0.910684
vt 0.809481 0.907768
vt 0.817038 0.906603
vt 0.516179 0.766743
vt 0.516179 0.773661
vt 0.092153 0.807976
vt 0.092152 0.800853
vt 0.109845 0.80085
vt 0.109845 0.807973
vt 0.887193 0.961168
vt 0.87964 0.962353
vt 0.877345 0.947728
vt 0.884898 0.946543
vt 0.272459 0.927331
vt 0.280053 0.928218
vt 0.804396 0.479842
vt 0.804396 0.472196
vt 0.811518 0.472196
vt 0.811518 0.479842
vt 0.51994 0.825406
vt 0.519939 0.818283
vt 0.87964 0.929461
vt 0.887193 0.928276
vt 0.269445 0.909169
vt 0.277039 0.910056
usemtl olla.001
f 355/625/336 356/626/336 357/627/336
f 355/625/336 357/627/336 358/628/336
f 359/629/337 356/630/337 360/631/337
f 359/629/337 360/631/337 361/632/337
f 362/633/338 363/634/338 364/635/339
f 362/633/338 364/635/339 365/636/339
f 365/637/340 364/638/340 366/639/340
f 365/637/340 366/639/340 367/640/340
f 368/641/341 362/642/341 367/643/341
f 362/642/341 365/644/341 367/643/341
f 363/645/336 369/646/336 366/647/336
f 363/645/336 366/647/336 364/648/336
f 370/649/336 355/625/336 369/646/336
f 370/649/336 369/646/336 363/645/336
f 371/650/341 372/651/341 362/642/341
f 371/650/341 362/642/341 368/641/341
f 372/652/339 370/653/339 363/634/338
f 372/652/339 363/634/338 362/633/338
f 366/647/336 369/646/336 373/654/336
f 369/646/336 374/655/336 373/654/336
f 361/656/342 360/657/342 370/653/339
f 361/656/342 370/653/339 372/652/339
f 359/658/341 361/659/341 371/650/341
f 361/659/341 372/651/341 371/650/341
f 360/660/336 356/626/336 355/625/336
f 360/660/336 355/625/336 370/649/336
f 368/661/343 369/662/343 355/663/343
f 368/661/343 355/663/343 371/664/343
f 375/665/344 376/666/344 377/667/344
f 375/665/344 377/667/344 378/668/344
f 368/641/341 367/643/341 376/666/341
f 368/641/341 376/666/341 375/665/341
f 367/640/340 366/639/340 373/669/340
f 367/640/340 373/669/340 376/670/340
f 369/671/337 368/672/337 375/673/337
f 369/671/337 375/673/337 374/674/337
f 377/675/343 379/676/343 380/677/343
f 377/675/343 380/677/343 378/678/343
f 374/674/337 375/673/337 378/679/337
f 374/674/337 378/679/337 380/680/337
f 376/670/340 373/669/340 379/681/340
f 376/670/340 379/681/340 377/682/340
f 373/654/345 374/655/345 379/683/345
f 374/655/345 380/684/345 379/683/345
f 381/685/346 382/686/346 383/687/346
f 382/686/346 384/688/346 383/687/346
f 359/658/341 371/650/341 381/685/341
f 371/650/341 382/686/341 381/685/341
f 371/689/340 355/690/340 358/691/340
f 371/689/340 358/691/340 382/692/340
f 356/630/337 359/629/337 381/693/337
f 356/630/337 381/693/337 357/694/337
f 384/695/343 385/696/343 386/697/343
f 384/695/343 386/697/343 383/698/343
f 358/628/347 357/627/347 386/699/347
f 358/628/347 386/699/347 385/700/347
f 382/692/340 358/691/340 385/701/340
f 382/692/340 385/701/340 384/702/340
f 357/694/337 381/693/337 383/703/337
f 357/694/337 383/703/337 386/704/337
f 387/705/336 388/706/336 389/707/336
f 389/708/348 388/709/348 390/710/348
f 389/708/348 390/710/348 391/711/348
f 387/705/336 392/712/336 388/706/336
f 388/709/349 392/713/349 393/714/349
f 388/709/349 393/714/349 390/710/349
f 387/705/336 394/715/336 392/712/336
f 392/716/350 394/717/350 395/718/350
f 392/716/350 395/718/350 393/719/350
f 387/705/336 396/720/336 394/715/336
f 394/717/351 396/721/351 397/722/351
f 394/717/351 397/722/351 395/718/351
f 387/705/336 398/723/336 396/720/336
f 396/721/352 398/724/352 399/725/352
f 396/721/352 399/725/352 397/722/352
f 387/705/336 400/726/336 398/723/336
f 398/727/353 400/728/353 401/729/353
f 398/727/353 401/729/353 399/730/353
f 387/705/336 402/731/336 400/726/336
f 400/728/354 402/732/354 403/733/354
f 400/728/354 403/733/354 401/729/354
f 387/705/336 404/734/336 402/731/336
f 402/732/355 404/735/355 405/736/355
f 402/732/355 405/736/355 403/733/355
f 387/705/336 406/737/336 404/734/336
f 404/735/356 406/738/356 407/739/356
f 404/735/356 407/739/356 405/736/356
f 387/705/336 408/740/336 406/737/336
f 406/741/357 408/742/357 409/743/357
f 406/741/357 409/743/357 407/744/357
f 387/705/336 410/745/336 408/740/336
f 408/742/358 410/746/358 411/747/358
f 408/742/358 411/747/358 409/743/358
f 387/705/336 412/748/336 410/745/336
f 410/746/359 412/749/359 413/750/359
f 410/746/359 413/750/359 411/747/359
f 387/705/336 414/751/336 412/748/336
f 412/752/360 414/753/360 415/754/360
f 412/752/360 415/754/360 413/755/360
f 387/705/336 389/707/336 414/751/336
f 414/753/361 389/708/361 391/711/361
f 414/753/361 391/711/361 415/754/361
f 416/756/362 417/757/363 418/758/364
f 419/759/365 420/760/365 421/761/365
f 420/760/365 422/762/365 421/761/365
f 416/756/362 418/758/364 423/763/366
f 421/761/367 422/762/367 424/764/367
f 421/761/367 424/764/367 425/765/368
f 416/756/362 423/763/366 426/766/369
f 425/767/370 424/768/370 427/769/370
f 425/767/370 427/769/370 428/770/370
f 416/756/362 426/766/369 429/771/371
f 428/770/372 427/769/372 430/772/372
f 428/770/372 430/772/372 431/773/372
f 416/756/362 429/771/371 432/774/373
f 431/773/374 430/772/374 433/775/374
f 430/772/374 434/776/374 433/775/374
f 416/756/362 432/774/373 435/777/375
f 433/778/376 434/779/377 436/780/377
f 434/779/377 437/781/377 436/780/377
f 416/756/362 435/777/375 438/782/378
f 436/780/379 437/781/379 439/783/379
f 436/780/379 439/783/379 440/784/379
f 416/756/380 438/782/381 441/785/382
f 440/784/383 439/783/383 442/786/383
f 439/783/383 443/787/383 442/786/383
f 416/756/380 441/785/382 444/788/384
f 442/786/385 443/787/385 445/789/385
f 442/786/385 445/789/385 446/790/386
f 416/756/380 444/788/384 447/791/387
f 446/792/388 445/793/388 448/794/388
f 446/792/388 448/794/388 449/795/388
f 416/756/380 447/791/387 450/796/389
f 449/795/390 448/794/390 451/797/390
f 449/795/390 451/797/390 452/798/390
f 416/756/380 450/796/389 453/799/391
f 452/798/392 451/797/392 454/800/392
f 451/797/392 455/801/392 454/800/392
f 416/756/380 453/799/391 456/802/393
f 454/803/394 455/804/395 457/805/395
f 455/804/395 458/806/395 457/805/395
f 416/756/380 456/802/393 417/757/396
f 457/805/397 458/806/397 420/760/397
f 457/805/397 420/760/397 419/759/397
f 403/807/336 405/808/336 439/809/336
f 405/808/336 443/810/336 439/809/336
f 391/811/336 390/812/336 420/813/336
f 390/812/336 422/814/336 420/813/336
f 407/815/336 409/816/336 445/817/336
f 409/816/336 448/818/336 445/817/336
f 415/819/336 391/811/336 420/813/336
f 415/819/336 420/813/336 458/820/336
f 411/821/336 413/822/336 455/823/336
f 411/821/336 455/823/336 451/824/336
f 393/825/336 395/826/336 424/827/336
f 395/826/336 427/828/336 424/827/336
f 397/829/336 399/830/336 434/831/336
f 397/829/336 434/831/336 430/832/336
f 401/833/336 403/807/336 439/809/336
f 401/833/336 439/809/336 437/834/336
f 405/808/336 407/815/336 445/817/336
f 405/808/336 445/817/336 443/810/336
f 409/816/336 411/821/336 451/824/336
f 409/816/336 451/824/336 448/818/336
f 413/822/336 415/819/336 455/823/336
f 415/819/336 458/820/336 455/823/336
f 390/812/336 393/825/336 424/827/336
f 390/812/336 424/827/336 422/814/336
f 395/826/336 397/829/336 430/832/336
f 395/826/336 430/832/336 427/828/336
f 399/830/336 401/833/336 434/831/336
f 401/833/336 437/834/336 434/831/336
f 456/835/398 459/836/398 417/837/399
f 459/836/398 460/838/399 417/837/399
f 453/799/400 461/839/400 456/802/400
f 461/839/400 459/840/400 456/802/400
f 450/841/401 462/842/401 453/843/401
f 462/842/401 461/844/401 453/843/401
f 447/845/402 463/846/402 462/842/402
f 447/845/402 462/842/402 450/841/402
f 444/847/403 464/848/403 463/846/403
f 444/847/403 463/846/403 447/845/403
f 441/785/404 465/849/404 464/850/404
f 441/785/404 464/850/404 444/788/404
f 438/851/405 466/852/405 465/853/406
f 438/851/405 465/853/406 441/854/406
f 435/855/407 467/856/407 438/851/408
f 467/856/407 466/852/408 438/851/408
f 432/774/409 468/857/409 435/777/409
f 468/857/409 467/858/409 435/777/409
f 429/859/410 469/860/410 432/861/410
f 469/860/410 468/862/410 432/861/410
f 426/863/411 470/864/411 469/860/411
f 426/863/411 469/860/411 429/859/411
f 423/865/412 471/866/412 470/864/412
f 423/865/412 470/864/412 426/863/412
f 418/758/413 472/867/413 423/763/413
f 472/867/413 471/868/413 423/763/413
f 417/837/414 460/838/414 472/869/415
f 417/837/414 472/869/415 418/870/416
f 473/871/417 457/805/417 474/872/417
f 457/805/417 419/759/417 474/872/417
f 475/873/418 454/803/418 457/805/418
f 475/873/418 457/805/418 473/871/418
f 476/874/419 452/798/419 475/875/419
f 452/798/419 454/800/419 475/875/419
f 477/876/420 449/795/420 476/874/420
f 449/795/420 452/798/420 476/874/420
f 478/877/421 446/792/421 449/795/421
f 478/877/421 449/795/421 477/876/421
f 479/878/422 442/786/422 478/879/422
f 442/786/422 446/790/422 478/879/422
f 480/880/423 440/784/423 442/786/423
f 480/880/423 442/786/423 479/878/423
f 481/881/424 436/780/424 480/880/424
f 436/780/424 440/784/424 480/880/424
f 482/882/425 433/778/425 436/780/425
f 482/882/425 436/780/425 481/881/425
f 483/883/426 431/773/426 433/775/426
f 483/883/426 433/775/426 482/884/426
f 484/885/427 428/770/427 483/883/427
f 428/770/427 431/773/427 483/883/427
f 485/886/428 425/767/428 428/770/428
f 485/886/428 428/770/428 484/885/428
f 486/887/429 421/761/429 485/888/429
f 421/761/429 425/765/429 485/888/429
f 474/872/430 419/759/430 421/761/430
f 474/872/430 421/761/430 486/887/430
f 460/838/431 474/872/431 472/869/431
f 474/872/431 486/887/431 472/869/431
f 472/869/432 486/887/432 485/888/432
f 472/869/432 485/888/432 471/889/432
f 471/866/433 485/886/433 470/864/433
f 485/886/433 484/885/433 470/864/433
f 470/864/434 484/885/434 483/883/434
f 470/864/434 483/883/434 469/860/434
f 469/860/435 483/883/435 468/862/435
f 483/883/435 482/884/435 468/862/435
f 468/890/436 482/882/436 467/856/436
f 482/882/436 481/881/436 467/856/436
f 467/856/437 481/881/437 480/880/437
f 467/856/437 480/880/437 466/852/437
f 466/852/438 480/880/438 465/853/438
f 480/880/438 479/878/438 465/853/438
f 465/853/439 479/878/439 478/879/439
f 465/853/439 478/879/439 464/891/439
f 464/848/440 478/877/440 463/846/440
f 478/877/440 477/876/440 463/846/440
f 463/846/441 477/876/441 462/842/441
f 477/876/441 476/874/441 462/842/441
f 462/842/442 476/874/442 475/875/442
f 462/842/442 475/875/442 461/844/442
f 461/892/443 475/873/443 459/836/443
f 475/873/443 473/871/443 459/836/443
f 459/836/444 473/871/444 474/872/444
f 459/836/444 474/872/444 460/838/444
f 487/893/336 488/894/336 489/895/336
f 487/893/336 489/895/336 490/896/336
f 491/897/445 488/898/445 492/899/445
f 491/897/445 492/899/445 493/900/445
f 494/901/446 495/902/446 496/903/446
f 494/901/446 496/903/446 497/904/446
f 497/905/447 496/906/447 498/907/447
f 497/905/447 498/907/447 499/908/447
f 500/909/341 494/910/341 497/911/341
f 500/909/341 497/911/341 499/912/341
f 495/913/336 501/914/336 498/915/336
f 495/913/336 498/915/336 496/916/336
f 502/917/336 487/893/336 501/914/336
f 502/917/336 501/914/336 495/913/336
f 503/918/341 504/919/341 494/910/341
f 503/918/341 494/910/341 500/909/341
f 504/920/448 502/921/448 495/902/446
f 504/920/448 495/902/446 494/901/446
f 498/915/336 501/914/336 505/922/336
f 498/915/336 505/922/336 506/923/336
f 493/924/448 492/925/448 502/921/448
f 493/924/448 502/921/448 504/920/448
f 491/926/341 493/927/341 504/919/341
f 491/926/341 504/919/341 503/918/341
f 492/928/336 488/894/336 487/893/336
f 492/928/336 487/893/336 502/917/336
f 500/929/449 501/930/449 487/931/449
f 500/929/449 487/931/449 503/932/449
f 507/933/450 508/934/450 509/935/451
f 507/933/450 509/935/451 510/936/451
f 500/909/341 499/912/341 508/934/341
f 500/909/341 508/934/341 507/933/341
f 499/908/447 498/907/447 506/937/447
f 499/908/447 506/937/447 508/938/447
f 501/939/445 500/940/445 507/941/445
f 501/939/445 507/941/445 505/942/445
f 509/943/449 511/944/449 512/945/449
f 509/943/449 512/945/449 510/946/449
f 505/942/445 507/941/445 510/947/445
f 505/942/445 510/947/445 512/948/445
f 508/938/447 506/937/447 511/949/447
f 508/938/447 511/949/447 509/950/447
f 506/923/452 505/922/452 511/951/453
f 505/922/452 512/952/453 511/951/453
f 513/953/454 514/954/454 515/955/454
f 513/953/454 515/955/454 516/956/454
f 491/926/341 503/918/341 513/953/341
f 503/918/341 514/954/341 513/953/341
f 503/957/447 487/958/447 490/959/447
f 503/957/447 490/959/447 514/960/447
f 488/898/445 491/897/445 513/961/445
f 488/898/445 513/961/445 489/962/445
f 515/963/449 517/964/449 518/965/449
f 515/963/449 518/965/449 516/966/449
f 490/896/455 489/895/455 518/967/455
f 490/896/455 518/967/455 517/968/455
f 514/960/447 490/959/447 517/969/447
f 514/960/447 517/969/447 515/970/447
f 489/962/445 513/961/445 516/971/445
f 489/962/445 516/971/445 518/972/445
s off
