# Apple ModelIO OBJ File: cocoloco
mtllib cocoloco.mtl
g Sphere
v 0 1.16071 0.285903
v 0 1.53019 0.438947
v 0.426116 1.53019 0.553124
v 0.502638 1.16071 0.420584
v 0 0.76079 0.285903
v 0.502638 0.76079 0.420584
v 0 0.235988 0.566415
v 0 0.391309 0.438947
v 0.426116 0.391309 0.553124
v 0.362382 0.235988 0.663515
v 0 0.10852 0.721736
v 0.284722 0.10852 0.798027
v 0 1.81298 0.721736
v 0 1.96603 1.09122
v 0.284722 1.81298 0.798027
v 0.099981 1.96603 1.11801
v 0 0.013802 0.89894
v 0.19612 0.013802 0.95149
v 0 -0.044524 1.09122
v 0.099981 -0.044524 1.11801
v 0.173172 1.96603 1.1912
v 0.493152 1.81298 1.00646
v 0 1.98572 1.29118
v 0 -0.064219 1.29118
v -0.284722 1.81298 0.798027
v -0.426116 1.53019 0.553124
v 0.870595 0.76079 0.788541
v 0.738055 0.391309 0.865063
v 0.738055 1.53019 0.865063
v 0.870595 1.16071 0.788541
v 0.627664 0.235988 0.928797
v 0.493152 0.10852 1.00646
v 0.339689 0.013802 1.09506
v 0.173172 -0.044524 1.1912
v 0.852232 1.53019 1.29118
v 1.00528 1.16071 1.29118
v 1.00528 0.76079 1.29118
v 0.569443 0.10852 1.29118
v 0.392239 0.013802 1.29118
v 0.199962 -0.044524 1.29118
v 0.199962 1.96603 1.29118
v 0.569443 1.81298 1.29118
v 0.852232 0.391309 1.29118
v 0.738055 0.391309 1.7173
v 0.870595 0.76079 1.79382
v 0.724764 0.235988 1.29118
v 0.173172 1.96603 1.39116
v 0.493152 1.81298 1.5759
v 0.738055 1.53019 1.7173
v 0.870595 1.16071 1.79382
v 0.627664 0.235988 1.65356
v 0.493152 0.10852 1.5759
v 0.339689 0.013802 1.4873
v 0.173172 -0.044524 1.39116
v 0.426116 1.53019 2.02923
v 0.502638 1.16071 2.16177
v 0.284722 0.10852 1.78433
v 0.19612 0.013802 1.63087
v 0.502638 0.76079 2.16177
v 0.099981 -0.044524 1.46435
v 0.284722 1.81298 1.78433
v 0.099981 1.96603 1.46435
v 0.426116 0.391309 2.02923
v 0 0.76079 2.29646
v 0 0.391309 2.14341
v 0.362382 0.235988 1.91884
v 0 1.53019 2.14341
v 0 1.81298 1.86062
v 0 1.16071 2.29646
v 0 0.235988 2.01594
v 0 0.10852 1.86062
v 0 0.013802 1.68342
v 0 -0.044524 1.49114
v 0 1.96603 1.49114
v -0.502638 1.16071 2.16177
v -0.502638 0.76079 2.16177
v -0.099981 -0.044524 1.46435
v -0.19612 0.013802 1.63087
v -0.284722 1.81298 1.78433
v -0.099981 1.96603 1.46435
v -0.426116 0.391309 2.02923
v -0.426116 1.53019 2.02923
v -0.362382 0.235988 1.91884
v -0.284722 0.10852 1.78433
v -0.738055 1.53019 1.7173
v -0.493152 1.81298 1.5759
v -0.870595 1.16071 1.79382
v -0.738055 0.391309 1.7173
v -0.627664 0.235988 1.65356
v -0.493152 0.10852 1.5759
v -0.870595 0.76079 1.79382
v -0.339689 0.013802 1.4873
v -0.173172 -0.044524 1.39116
v -0.173172 1.96603 1.39116
v -1.00528 1.16071 1.29118
v -1.00528 0.76079 1.29118
v -0.199962 1.96603 1.29118
v -0.569443 1.81298 1.29118
v -0.199962 -0.044524 1.29118
v -0.852232 0.391309 1.29118
v -0.852232 1.53019 1.29118
v -0.724764 0.235988 1.29118
v -0.569443 0.10852 1.29118
v -0.493152 1.81298 1.00646
v -0.738055 1.53019 0.865063
v -0.392239 0.013802 1.29118
v -0.738055 0.391309 0.865063
v -0.627664 0.235988 0.928797
v -0.870595 1.16071 0.788541
v -0.493152 0.10852 1.00646
v -0.870595 0.76079 0.788541
v -0.339689 0.013802 1.09506
v -0.173172 -0.044524 1.1912
v -0.173172 1.96603 1.1912
v -0.502638 1.16071 0.420584
v -0.502638 0.76079 0.420584
v -0.099981 1.96603 1.11801
v -0.099981 -0.044524 1.11801
v -0.426116 0.391309 0.553124
v -0.362382 0.235988 0.663515
v -0.284722 0.10852 0.798027
v -0.19612 0.013802 0.95149
vn 0.2403 0.3715 -0.8968
vn 0.2588 -0 -0.9659
vn 0.2028 -0.6212 -0.7569
vn 0.1676 -0.7621 -0.6254
vn 0.102 0.9191 -0.3807
vn 0.1253 -0.875 -0.4677
vn 0.0775 -0.9541 -0.2894
vn 0.2787 0.9191 -0.2787
vn 0.0263 0.9948 -0.098
vn 0.0263 -0.9948 -0.098
vn -0.1862 0.6947 -0.6947
vn 0.6565 -0.3715 -0.6565
vn 0.5086 0.6947 -0.5086
vn 0.6565 0.3715 -0.6565
vn 0.5541 -0.6212 -0.5541
vn 0.4578 -0.7621 -0.4578
vn 0.7071 -0 -0.7071
vn 0.3424 -0.875 -0.3424
vn 0.2119 -0.9541 -0.2119
vn 0.8968 0.3715 -0.2403
vn 0.0717 0.9948 -0.0717
vn 0.0717 -0.9948 -0.0717
vn 0.9659 -0 -0.2588
vn 0.4677 -0.875 -0.1253
vn 0.2894 -0.9541 -0.0775
vn 0.3807 0.9191 -0.102
vn 0.098 0.9948 -0.0263
vn 0.098 -0.9948 -0.0263
vn 0.8968 -0.3715 -0.2403
vn 0.6947 0.6947 -0.1862
vn 0.8968 -0.3715 0.2403
vn 0.7569 -0.6212 -0.2028
vn 0.6254 -0.7621 -0.1676
vn 0.3807 0.9191 0.102
vn 0.6947 0.6947 0.1862
vn 0.8968 0.3715 0.2403
vn 0.7569 -0.6212 0.2028
vn 0.6254 -0.7621 0.1676
vn 0.9659 -0 0.2588
vn 0.4677 -0.875 0.1253
vn 0.2894 -0.9541 0.0775
vn 0.6565 0.3715 0.6565
vn 0.098 0.9948 0.0263
vn 0.098 -0.9948 0.0263
vn 0.3424 -0.875 0.3424
vn 0.7071 -0 0.7071
vn 0.2119 -0.9541 0.2119
vn 0.2787 0.9191 0.2787
vn 0.0717 0.9948 0.0717
vn 0.0717 -0.9948 0.0717
vn 0.6565 -0.3715 0.6565
vn 0.5086 0.6947 0.5086
vn 0.2403 -0.3715 0.8968
vn 0.5541 -0.6212 0.5541
vn 0.4578 -0.7621 0.4578
vn 0.1862 0.6947 0.6947
vn 0.2403 0.3715 0.8968
vn 0.2028 -0.6212 0.7569
vn 0.1676 -0.7621 0.6254
vn 0.2588 -0 0.9659
vn 0.1253 -0.875 0.4677
vn 0.0775 -0.9541 0.2894
vn 0.102 0.9191 0.3807
vn 0.0263 0.9948 0.098
vn 0.0263 -0.9948 0.098
vn -0.2588 -0 0.9659
vn -0.0775 -0.9541 0.2894
vn -0.102 0.9191 0.3807
vn -0.0263 0.9948 0.098
vn -0.0263 -0.9948 0.098
vn -0.2403 -0.3715 0.8968
vn -0.1862 0.6947 0.6947
vn -0.2403 0.3715 0.8968
vn -0.2028 -0.6212 0.7569
vn -0.1676 -0.7621 0.6254
vn -0.5086 0.6947 0.5086
vn -0.1253 -0.875 0.4677
vn -0.6565 0.3715 0.6565
vn -0.5541 -0.6212 0.5541
vn -0.4578 -0.7621 0.4578
vn -0.7071 -0 0.7071
vn -0.3424 -0.875 0.3424
vn -0.2119 -0.9541 0.2119
vn -0.2787 0.9191 0.2787
vn -0.0717 0.9948 0.0717
vn -0.0717 -0.9948 0.0717
vn -0.6565 -0.3715 0.6565
vn -0.9659 -0 0.2588
vn -0.3807 0.9191 0.102
vn -0.098 0.9948 0.0263
vn -0.098 -0.9948 0.0263
vn -0.8968 -0.3715 0.2403
vn -0.6947 0.6947 0.1862
vn -0.8968 0.3715 0.2403
vn -0.7569 -0.6212 0.2028
vn -0.6254 -0.7621 0.1676
vn -0.6947 0.6947 -0.1862
vn -0.4677 -0.875 0.1253
vn -0.2894 -0.9541 0.0775
vn -0.7569 -0.6212 -0.2028
vn -0.8968 0.3715 -0.2403
vn -0.6254 -0.7621 -0.1676
vn -0.9659 -0 -0.2588
vn -0.4677 -0.875 -0.1253
vn -0.2894 -0.9541 -0.0775
vn -0.3807 0.9191 -0.102
vn -0.098 0.9948 -0.0263
vn -0.098 -0.9948 -0.0263
vn -0.8968 -0.3715 -0.2403
vn -0.7071 -0 -0.7071
vn -0.0717 0.9948 -0.0717
vn -0.0717 -0.9948 -0.0717
vn -0.2787 0.9191 -0.2787
vn -0.6565 -0.3715 -0.6565
vn -0.5086 0.6947 -0.5086
vn -0.6565 0.3715 -0.6565
vn -0.5541 -0.6212 -0.5541
vn -0.4578 -0.7621 -0.4578
vn -0.2403 0.3715 -0.8968
vn -0.3424 -0.875 -0.3424
vn -0.2119 -0.9541 -0.2119
vn -0.2588 -0 -0.9659
vn -0.1676 -0.7621 -0.6254
vn -0.102 0.9191 -0.3807
vn -0.1253 -0.875 -0.4677
vn -0.0775 -0.9541 -0.2894
vn -0.0263 0.9948 -0.098
vn -0.0263 -0.9948 -0.098
vn -0.2403 -0.3715 -0.8968
vn 0.2403 -0.3715 -0.8968
vn -0.2028 -0.6212 -0.7569
vn 0.1862 0.6947 -0.6947
vt 0.703947 0.741349
vt 0.70829 0.70084
vt 0.756657 0.70084
vt 0.761 0.741349
vt 0.703947 0.785197
vt 0.761 0.785197
vt 0.711908 0.842736
vt 0.70829 0.825706
vt 0.756657 0.825706
vt 0.75304 0.842736
vt 0.524025 0.697651
vt 0.515572 0.681202
vt 0.554809 0.697651
vt 0.554752 0.681202
vt 0.490115 0.591574
vt 0.51876 0.56293
vt 0.518103 0.607733
vt 0.528588 0.568604
vt 0.531977 0.716418
vt 0.553181 0.716418
vt 0.539122 0.736781
vt 0.549931 0.736781
vt 0.539936 0.568604
vt 0.550421 0.607733
vt 0.534262 0.547427
vt 0.545184 0.757957
vt 0.473956 0.563586
vt 0.444008 0.571611
vt 0.468191 0.613498
vt 0.81041 0.785197
vt 0.798545 0.825706
vt 0.510079 0.637681
vt 0.558446 0.637681
vt 0.798545 0.70084
vt 0.81041 0.741349
vt 0.788662 0.842736
vt 0.588682 0.701769
vt 0.581468 0.71381
vt 0.571544 0.727548
vt 0.559293 0.742455
vt 0.015011 0.571729
vt 0.026876 0.53122
vt 0.068763 0.53122
vt 0.06442 0.571729
vt 0.015011 0.615577
vt 0.06442 0.615577
vt 0.596859 0.741798
vt 0.582146 0.746827
vt 0.564698 0.752283
vt 0.549765 0.56293
vt 0.578409 0.591574
vt 0.026876 0.656087
vt 0.068763 0.656087
vt 0.600333 0.613498
vt 0.11713 0.656087
vt 0.121473 0.615577
vt 0.036758 0.673116
vt 0.07238 0.673116
vt 0.0488 0.687091
vt 0.076788 0.687091
vt 0.555439 0.553101
vt 0.594568 0.563586
vt 0.076788 0.500215
vt 0.11713 0.53122
vt 0.109106 0.500215
vt 0.121473 0.571729
vt 0.113513 0.673116
vt 0.109106 0.687091
vt 0.582146 0.769088
vt 0.596859 0.774116
vt 0.564698 0.763632
vt 0.159017 0.53122
vt 0.170882 0.571729
vt 0.581468 0.802104
vt 0.571544 0.788366
vt 0.170882 0.615577
vt 0.559293 0.77346
vt 0.594568 0.531268
vt 0.555439 0.541753
vt 0.159017 0.656087
vt 0.624516 0.571611
vt 0.624516 0.523244
vt 0.229921 0.824286
vt 0.27933 0.824286
vt 0.241786 0.864796
vt 0.283673 0.864796
vt 0.149135 0.673116
vt 0.137094 0.687091
vt 0.600333 0.481357
vt 0.578409 0.50328
vt 0.229921 0.780439
vt 0.241786 0.739929
vt 0.27933 0.780439
vt 0.283673 0.739929
vt 0.251668 0.881825
vt 0.28729 0.881825
vt 0.588682 0.814146
vt 0.554752 0.834712
vt 0.554809 0.818263
vt 0.553181 0.799497
vt 0.549931 0.779134
vt 0.549765 0.531925
vt 0.336383 0.780439
vt 0.336383 0.824286
vt 0.539122 0.779134
vt 0.531977 0.799497
vt 0.550421 0.487121
vt 0.539936 0.526251
vt 0.33204 0.864796
vt 0.291698 0.708924
vt 0.324016 0.708924
vt 0.33204 0.739929
vt 0.328423 0.881825
vt 0.524025 0.818263
vt 0.515572 0.834712
vt 0.558446 0.457173
vt 0.510079 0.457173
vt 0.518103 0.487121
vt 0.373928 0.739929
vt 0.385792 0.780439
vt 0.506941 0.848212
vt 0.467043 0.824028
vt 0.481641 0.814146
vt 0.497366 0.802104
vt 0.385792 0.824286
vt 0.513614 0.788366
vt 0.52976 0.77346
vt 0.528588 0.526251
vt 0.373928 0.864796
vt 0.015011 0.832475
vt 0.015011 0.788627
vt 0.06442 0.788627
vt 0.06442 0.832475
vt 0.51876 0.531925
vt 0.490115 0.50328
vt 0.524355 0.763632
vt 0.026876 0.872984
vt 0.068763 0.872984
vt 0.468191 0.481357
vt 0.026876 0.748118
vt 0.068763 0.748118
vt 0.462051 0.778524
vt 0.444008 0.782141
vt 0.481975 0.774116
vt 0.076788 0.717113
vt 0.109106 0.717113
vt 0.11713 0.748118
vt 0.503012 0.769088
vt 0.444008 0.733774
vt 0.462052 0.737391
vt 0.121473 0.788627
vt 0.481975 0.741798
vt 0.121473 0.832475
vt 0.503012 0.746827
vt 0.524355 0.752283
vt 0.473956 0.531268
vt 0.513085 0.541753
vt 0.11713 0.872984
vt 0.170882 0.788627
vt 0.170882 0.832475
vt 0.513085 0.553101
vt 0.52976 0.742455
vt 0.159017 0.872984
vt 0.444008 0.523244
vt 0.159017 0.748118
vt 0.467043 0.691887
vt 0.481641 0.701769
vt 0.497366 0.71381
vt 0.654538 0.741349
vt 0.666403 0.70084
vt 0.513614 0.727548
vt 0.654538 0.785197
vt 0.666403 0.825706
vt 0.506941 0.667703
vt 0.716315 0.669835
vt 0.748633 0.669835
usemtl 
f 1/1/1 2/2/1 3/3/1
f 1/1/1 3/3/1 4/4/1
f 5/5/2 1/1/2 4/4/2
f 5/5/2 4/4/2 6/6/2
f 7/7/3 8/8/3 9/9/3
f 7/7/3 9/9/3 10/10/3
f 11/11/4 7/12/4 12/13/4
f 7/12/4 10/14/4 12/13/4
f 13/15/5 14/16/5 15/17/5
f 14/16/5 16/18/5 15/17/5
f 17/19/6 11/11/6 18/20/6
f 11/11/6 12/13/6 18/20/6
f 19/21/7 17/19/7 18/20/7
f 19/21/7 18/20/7 20/22/7
f 15/17/8 16/18/8 21/23/8
f 15/17/8 21/23/8 22/24/8
f 14/16/9 23/25/9 16/18/9
f 24/26/10 19/21/10 20/22/10
f 25/27/11 13/15/11 26/28/11
f 13/15/11 2/29/11 26/28/11
f 9/9/12 6/6/12 27/30/12
f 9/9/12 27/30/12 28/31/12
f 3/32/13 15/17/13 29/33/13
f 15/17/13 22/24/13 29/33/13
f 4/4/14 3/3/14 29/34/14
f 4/4/14 29/34/14 30/35/14
f 10/10/15 9/9/15 28/31/15
f 10/10/15 28/31/15 31/36/15
f 12/13/16 10/14/16 31/37/16
f 12/13/16 31/37/16 32/38/16
f 6/6/17 4/4/17 30/35/17
f 6/6/17 30/35/17 27/30/17
f 18/20/18 12/13/18 32/38/18
f 18/20/18 32/38/18 33/39/18
f 20/22/19 18/20/19 34/40/19
f 18/20/19 33/39/19 34/40/19
f 30/41/20 29/42/20 35/43/20
f 30/41/20 35/43/20 36/44/20
f 16/18/21 23/25/21 21/23/21
f 24/26/22 20/22/22 34/40/22
f 27/45/23 30/41/23 36/44/23
f 27/45/23 36/44/23 37/46/23
f 33/39/24 32/38/24 38/47/24
f 33/39/24 38/47/24 39/48/24
f 34/40/25 33/39/25 40/49/25
f 33/39/25 39/48/25 40/49/25
f 22/24/26 21/23/26 41/50/26
f 22/24/26 41/50/26 42/51/26
f 21/23/27 23/25/27 41/50/27
f 24/26/28 34/40/28 40/49/28
f 28/52/29 27/45/29 37/46/29
f 28/52/29 37/46/29 43/53/29
f 29/33/30 22/24/30 42/51/30
f 29/33/30 42/51/30 35/54/30
f 43/53/31 37/46/31 44/55/31
f 37/46/31 45/56/31 44/55/31
f 31/57/32 28/52/32 46/58/32
f 28/52/32 43/53/32 46/58/32
f 32/59/33 31/57/33 38/60/33
f 31/57/33 46/58/33 38/60/33
f 41/50/34 47/61/34 48/62/34
f 41/50/34 48/62/34 42/51/34
f 35/43/35 42/63/35 49/64/35
f 42/63/35 48/65/35 49/64/35
f 36/44/36 35/43/36 49/64/36
f 36/44/36 49/64/36 50/66/36
f 46/58/37 43/53/37 44/55/37
f 46/58/37 44/55/37 51/67/37
f 38/60/38 46/58/38 52/68/38
f 46/58/38 51/67/38 52/68/38
f 37/46/39 36/44/39 50/66/39
f 37/46/39 50/66/39 45/56/39
f 39/48/40 38/47/40 53/69/40
f 38/47/40 52/70/40 53/69/40
f 40/49/41 39/48/41 53/69/41
f 40/49/41 53/69/41 54/71/41
f 49/64/42 55/72/42 56/73/42
f 49/64/42 56/73/42 50/66/42
f 41/50/43 23/25/43 47/61/43
f 24/26/44 40/49/44 54/71/44
f 53/69/45 52/70/45 57/74/45
f 53/69/45 57/74/45 58/75/45
f 45/56/46 50/66/46 56/73/46
f 45/56/46 56/73/46 59/76/46
f 54/71/47 53/69/47 60/77/47
f 53/69/47 58/75/47 60/77/47
f 48/62/48 47/61/48 61/78/48
f 47/61/48 62/79/48 61/78/48
f 47/61/49 23/25/49 62/79/49
f 24/26/50 54/71/50 60/77/50
f 44/55/51 45/56/51 59/76/51
f 44/55/51 59/76/51 63/80/51
f 49/81/52 48/62/52 61/78/52
f 49/81/52 61/78/52 55/82/52
f 59/83/53 64/84/53 63/85/53
f 64/84/53 65/86/53 63/85/53
f 51/67/54 44/55/54 66/87/54
f 44/55/54 63/80/54 66/87/54
f 52/68/55 51/67/55 57/88/55
f 51/67/55 66/87/55 57/88/55
f 55/82/56 61/78/56 67/89/56
f 61/78/56 68/90/56 67/89/56
f 56/91/57 55/92/57 69/93/57
f 55/92/57 67/94/57 69/93/57
f 66/95/58 63/85/58 70/96/58
f 63/85/58 65/86/58 70/96/58
f 57/74/59 66/97/59 70/98/59
f 57/74/59 70/98/59 71/99/59
f 59/83/60 56/91/60 69/93/60
f 59/83/60 69/93/60 64/84/60
f 58/75/61 57/74/61 72/100/61
f 57/74/61 71/99/61 72/100/61
f 60/77/62 58/75/62 72/100/62
f 60/77/62 72/100/62 73/101/62
f 61/78/63 62/79/63 74/102/63
f 61/78/63 74/102/63 68/90/63
f 62/79/64 23/25/64 74/102/64
f 24/26/65 60/77/65 73/101/65
f 64/84/66 69/93/66 75/103/66
f 64/84/66 75/103/66 76/104/66
f 73/101/67 72/100/67 77/105/67
f 72/100/67 78/106/67 77/105/67
f 68/90/68 74/102/68 79/107/68
f 74/102/68 80/108/68 79/107/68
f 74/102/69 23/25/69 80/108/69
f 24/26/70 73/101/70 77/105/70
f 65/86/71 64/84/71 81/109/71
f 64/84/71 76/104/71 81/109/71
f 67/94/72 68/110/72 79/111/72
f 67/94/72 79/111/72 82/112/72
f 69/93/73 67/94/73 82/112/73
f 69/93/73 82/112/73 75/103/73
f 70/96/74 65/86/74 81/109/74
f 70/96/74 81/109/74 83/113/74
f 71/99/75 70/98/75 84/114/75
f 70/98/75 83/115/75 84/114/75
f 82/116/76 79/107/76 85/117/76
f 79/107/76 86/118/76 85/117/76
f 72/100/77 71/99/77 84/114/77
f 72/100/77 84/114/77 78/106/77
f 75/103/78 82/112/78 85/119/78
f 75/103/78 85/119/78 87/120/78
f 83/115/79 81/121/79 88/122/79
f 83/115/79 88/122/79 89/123/79
f 84/114/80 83/115/80 89/123/80
f 84/114/80 89/123/80 90/124/80
f 76/104/81 75/103/81 87/120/81
f 76/104/81 87/120/81 91/125/81
f 78/106/82 84/114/82 92/126/82
f 84/114/82 90/124/82 92/126/82
f 77/105/83 78/106/83 92/126/83
f 77/105/83 92/126/83 93/127/83
f 79/107/84 80/108/84 94/128/84
f 79/107/84 94/128/84 86/118/84
f 80/108/85 23/25/85 94/128/85
f 24/26/86 77/105/86 93/127/86
f 81/109/87 76/104/87 91/125/87
f 81/109/87 91/125/87 88/129/87
f 91/130/88 87/131/88 95/132/88
f 91/130/88 95/132/88 96/133/88
f 86/118/89 94/128/89 97/134/89
f 86/118/89 97/134/89 98/135/89
f 94/128/90 23/25/90 97/134/90
f 24/26/91 93/127/91 99/136/91
f 88/137/92 91/130/92 96/133/92
f 88/137/92 96/133/92 100/138/92
f 85/117/93 86/118/93 98/135/93
f 85/117/93 98/135/93 101/139/93
f 87/131/94 85/140/94 95/132/94
f 85/140/94 101/141/94 95/132/94
f 89/123/95 88/122/95 102/142/95
f 88/122/95 100/143/95 102/142/95
f 90/124/96 89/123/96 102/142/96
f 90/124/96 102/142/96 103/144/96
f 98/145/97 104/146/97 105/147/97
f 98/145/97 105/147/97 101/141/97
f 92/126/98 90/124/98 103/144/98
f 92/126/98 103/144/98 106/148/98
f 93/127/99 92/126/99 99/136/99
f 92/126/99 106/148/99 99/136/99
f 102/142/100 100/143/100 107/149/100
f 102/142/100 107/149/100 108/150/100
f 95/132/101 101/141/101 105/147/101
f 95/132/101 105/147/101 109/151/101
f 103/144/102 102/142/102 110/152/102
f 102/142/102 108/150/102 110/152/102
f 96/133/103 95/132/103 109/151/103
f 96/133/103 109/151/103 111/153/103
f 106/148/104 103/144/104 110/152/104
f 106/148/104 110/152/104 112/154/104
f 99/136/105 106/148/105 112/154/105
f 99/136/105 112/154/105 113/155/105
f 98/135/106 97/134/106 104/156/106
f 97/134/106 114/157/106 104/156/106
f 97/134/107 23/25/107 114/157/107
f 24/26/108 99/136/108 113/155/108
f 100/138/109 96/133/109 107/158/109
f 96/133/109 111/153/109 107/158/109
f 109/151/110 115/159/110 116/160/110
f 109/151/110 116/160/110 111/153/110
f 114/157/111 23/25/111 117/161/111
f 24/26/112 113/155/112 118/162/112
f 104/156/113 114/157/113 117/161/113
f 104/156/113 117/161/113 25/27/113
f 107/158/114 111/153/114 116/160/114
f 107/158/114 116/160/114 119/163/114
f 105/164/115 104/156/115 25/27/115
f 105/164/115 25/27/115 26/28/115
f 109/151/116 105/147/116 115/159/116
f 105/147/116 26/165/116 115/159/116
f 108/150/117 107/149/117 119/166/117
f 108/150/117 119/166/117 120/167/117
f 110/152/118 108/150/118 120/167/118
f 110/152/118 120/167/118 121/168/118
f 115/169/119 26/170/119 1/1/119
f 26/170/119 2/2/119 1/1/119
f 112/154/120 110/152/120 122/171/120
f 110/152/120 121/168/120 122/171/120
f 113/155/121 112/154/121 122/171/121
f 113/155/121 122/171/121 118/162/121
f 116/172/122 115/169/122 1/1/122
f 116/172/122 1/1/122 5/5/122
f 121/168/123 120/167/123 7/12/123
f 121/168/123 7/12/123 11/11/123
f 25/27/124 117/161/124 14/16/124
f 25/27/124 14/16/124 13/15/124
f 122/171/125 121/168/125 11/11/125
f 122/171/125 11/11/125 17/19/125
f 118/162/126 122/171/126 19/21/126
f 122/171/126 17/19/126 19/21/126
f 117/161/127 23/25/127 14/16/127
f 24/26/128 118/162/128 19/21/128
f 119/173/129 116/172/129 5/5/129
f 119/173/129 5/5/129 8/8/129
f 5/5/130 6/6/130 9/9/130
f 5/5/130 9/9/130 8/8/130
f 120/167/131 119/166/131 7/12/131
f 119/166/131 8/174/131 7/12/131
f 2/2/132 13/175/132 3/3/132
f 13/175/132 15/176/132 3/3/132
s off
g Sphere.001
v -0.46461 1.60722 -1.54128
v 0.029922 1.68055 -1.62966
v -0.401633 1.82924 -1.22667
v 0.017612 1.89141 -1.30159
v -0.456855 1.28678 -1.76376
v 0.037677 1.36011 -1.85214
v -0.072152 0.251992 -1.63787
v 0.026217 0.266579 -1.65545
v -0.244458 0.553336 -1.81604
v 0.035672 0.594875 -1.8661
v 0.019876 0.139491 -1.50633
v 0.039696 0.978873 -1.93517
v 0.451263 0.913927 -1.82729
v 0.523153 1.2835 -1.72488
v 0.515398 1.60394 -1.5024
v 0.429179 1.82646 -1.19371
v 0.122784 0.25134 -1.63014
v 0.310672 0.55148 -1.79402
v 0.191675 0.21036 -1.56872
v 0.506856 0.434779 -1.61909
v 0.861735 1.39792 -1.1936
v 0.722789 1.65181 -0.931918
v 0.86949 1.07748 -1.41608
v 0.744873 0.739272 -1.5655
v 0.841853 0.501705 -1.21995
v 0.983886 0.797255 -1.00848
v 0.571656 0.276042 -1.38821
v 0.976131 1.11769 -0.786001
v 0.819769 1.41424 -0.586373
v 0.21443 0.154619 -1.48764
v 0.184951 0.099053 -1.40864
v 0.48771 0.117802 -1.16322
v 0.827935 0.838344 -0.388821
v 0.694134 1.17742 -0.24966
v 0.716219 0.264883 -0.883239
v 0.83569 0.517904 -0.611305
v 0.401633 0.092262 -0.64558
v 0.46461 0.314283 -0.330967
v 0.27751 0.00246 -1.00443
v 0.456855 0.634723 -0.108483
v 0.379548 1.0048 -0.012001
v 0.111139 0.05855 -1.35287
v -0.00262 -0.039078 -0.954363
v 0.01277 0.043964 -1.33529
v -0.029922 0.240952 -0.242587
v -0.037677 0.561393 -0.020104
v -0.017612 0.030095 -0.570655
v -0.039696 0.942632 0.062924
v -0.27762 0.004317 -1.02645
v -0.429179 0.09504 -0.678541
v -0.523153 0.638001 -0.147364
v -0.451263 1.00758 -0.044962
v -0.083797 0.059202 -1.36061
v -0.515398 0.31756 -0.369847
v -0.473804 0.121018 -1.20137
v -0.722789 0.269696 -0.94033
v -0.861735 0.523581 -0.678648
v -0.86949 0.844021 -0.456164
v -0.152687 0.100182 -1.42203
v -0.744873 1.18223 -0.306751
v -0.538604 0.279755 -1.43226
v -0.819769 0.507262 -1.28587
v -0.175442 0.155923 -1.50311
v -0.983886 1.12425 -0.863762
v -0.841853 1.4198 -0.652295
v -0.976131 0.80381 -1.08625
v -0.454658 0.437994 -1.65724
v -0.694134 0.744084 -1.62259
v -0.83569 1.4036 -1.26094
v -0.827935 1.08316 -1.48343
v -0.145964 0.211489 -1.58211
v -0.716219 1.65662 -0.989008
v -0.379548 0.916706 -1.86025
v 0.617758 1.34279 -1.86692
v 0.608644 1.71938 -1.60546
v 1.02674 1.0995 -1.50227
v 1.01763 1.47609 -1.2408
v 0.023466 -0.008883 -1.60935
v 0.031333 0.150925 -1.79416
v 0.151661 0.131938 -1.76261
v 0.510626 1.97702 -1.25149
v 0.859738 1.76935 -0.940213
v 0.368814 0.481665 -1.95017
v 0.60182 0.34306 -1.74242
v 0.237502 0.080875 -1.68608
v 0.044471 1.43325 -2.0172
v 0.035357 1.80984 -1.75574
v 0.042198 0.533205 -2.03579
v 0.021258 2.05424 -1.37977
v 0.046875 0.985259 -2.11558
v 0.533643 0.908447 -1.98798
v -0.09124 0.13275 -1.77225
v -0.290511 0.48387 -1.97633
v -0.539512 1.34666 -1.91284
v -0.548626 1.72325 -1.65137
v -0.477239 1.98032 -1.29068
v 0.975052 1.48688 -0.529348
v 1.15271 1.14517 -0.759477
v 0.880901 0.701878 -1.67836
v 0.995602 0.420904 -1.26968
v 0.678783 0.154529 -1.4682
v 1.16183 0.768588 -1.02094
v 0.006507 1.98154 -1.01409
v -0.319525 1.9332 -0.955825
v 0.326568 1.93104 -0.930193
v 0.554898 1.79521 -0.726609
v 0.630317 1.61047 -0.457891
v 0.532615 1.4263 -0.196041
v 0.287972 1.29206 -0.011222
v -0.03806 1.24371 0.047044
v -0.358121 1.29422 -0.036855
v -0.586451 1.43004 -0.240438
v -0.661869 1.61479 -0.509156
v -0.564167 1.79896 -0.771006
v 0.265856 0.011418 -1.58505
v 0.57908 -0.033411 -1.20099
v 0.229124 -0.05782 -1.48661
v 0.825668 1.20528 -0.128984
v 0.977712 0.815296 -0.290456
v 0.847011 0.14081 -0.871441
v 0.986826 0.438709 -0.551923
v 0.548626 0.198258 -0.220878
v 0.474944 -0.063353 -0.590357
v 0.329427 -0.170402 -1.01238
v 0.539512 0.574845 0.040589
v 0.451613 1.00003 0.153601
v 0.13715 -0.108289 -1.41712
v -0.003282 -0.219737 -0.952923
v 0.014578 -0.126464 -1.39522
v -0.035357 0.111663 -0.116512
v -0.044471 0.488251 0.144954
v -0.020904 -0.136878 -0.501742
v -0.046884 0.926113 0.242689
v -0.507672 -0.060066 -0.629341
v -0.329897 -0.168197 -1.03854
v -0.536251 1.00333 0.114409
v -0.617758 0.578716 -0.005324
v -0.10575 -0.107476 -1.42676
v -0.608644 0.202128 -0.266791
v -0.562904 -0.029592 -1.24629
v -0.85493 0.146502 -0.938963
v -1.02674 0.822 -0.36998
v -1.01763 0.445413 -0.631447
v -0.191591 -0.056413 -1.5033
v -0.885364 1.21101 -0.196867
v -0.639867 0.158939 -1.52051
v -0.969631 0.427476 -1.34765
v -0.219945 0.013043 -1.60432
v -1.00068 1.49348 -0.607732
v -1.16183 1.15292 -0.851303
v -1.15271 0.776329 -1.11277
v -0.82104 0.70757 -1.74588
v -0.540164 0.346879 -1.78773
v -0.986826 1.4828 -1.32032
v -0.977712 1.10621 -1.58179
v -0.183214 0.082282 -1.70277
v -0.851293 1.77507 -1.0081
v -0.448973 0.911733 -2.02697
v -0.38877 2.09493 -0.996909
v 0.009224 2.15394 -1.06804
v 0.39993 2.09229 -0.965618
v 0.678657 1.92649 -0.717099
v 0.770722 1.70096 -0.389069
v 0.651456 1.47615 -0.069423
v 0.352815 1.31227 0.15619
v -0.04518 1.25326 0.227317
v -0.435885 1.31491 0.124899
v -0.714613 1.48071 -0.12362
v -0.806678 1.70624 -0.45165
v -0.687411 1.93106 -0.771296
vn 0.2166 -0.8175 0.5336
vn 0.2253 -0.552 0.8028
vn 0.0705 0.5372 0.8405
vn 0.0031 0.761 0.6487
vn -0.2784 -0.2058 0.9382
vn -0.2636 -0.8159 0.5145
vn -0.1333 0.5379 0.8324
vn -0.2919 -0.5502 0.7823
vn -0.3063 0.5967 0.7417
vn -0.6712 -0.6774 0.3009
vn -0.0494 0.7612 0.6466
vn -0.7309 -0.4011 0.5522
vn -0.5395 0.2821 0.7933
vn -0.0939 0.7763 0.6233
vn -0.686 -0.0673 0.7245
vn -0.9118 0.171 0.3734
vn -0.7144 0.4667 0.5214
vn -0.897 -0.4392 -0.0502
vn -0.4022 0.6979 0.5927
vn -0.9741 -0.1444 0.1741
vn -0.3951 0.8143 0.4253
vn -0.8804 -0.165 -0.4445
vn -0.1186 0.8024 0.5849
vn -0.7016 0.6791 0.2159
vn -0.9562 0.1509 -0.2507
vn -0.1168 0.8323 0.5418
vn -0.8952 0.4452 -0.0209
vn -0.6407 0.6818 -0.3529
vn -0.5045 0.8624 -0.0413
vn -0.626 0.0717 -0.7765
vn -0.2871 0.9147 0.2843
vn -0.6822 0.4058 -0.6082
vn -0.1071 0.9723 0.2076
vn -0.089 0.8582 0.5056
vn -0.2253 0.552 -0.8028
vn -0.1759 0.9676 -0.1813
vn -0.0426 0.873 0.4858
vn -0.2166 0.8175 -0.5336
vn -0.2018 0.2074 -0.9572
vn 0.1961 0.9663 -0.1665
vn 0.2784 0.2058 -0.9382
vn 0.0968 0.9716 0.2157
vn 0.2919 0.5502 -0.7823
vn 0.5119 0.859 -0.001
vn 0.0098 0.8728 0.4879
vn 0.2636 0.8159 -0.5145
vn 0.7309 0.4011 -0.5522
vn 0.0544 0.8577 0.5113
vn 0.6712 0.6774 -0.3009
vn 0.686 0.0673 -0.7245
vn 0.2698 0.9129 0.3064
vn 0.6868 0.6745 0.2709
vn 0.3656 0.8117 0.4554
vn 0.9118 -0.171 -0.3734
vn 0.9741 0.1444 -0.1741
vn 0.674 0.462 0.5764
vn 0.079 0.8317 0.5496
vn 0.897 0.4392 0.0502
vn 0.9562 -0.1509 0.2507
vn 0.0772 0.8017 0.5927
vn 0.8804 0.165 0.4445
vn 0.8952 -0.4452 0.0209
vn 0.3586 0.6953 0.6228
vn 0.6407 -0.6818 0.3529
vn 0.4769 0.2787 0.8336
vn 0.6822 -0.4058 0.6082
vn 0.2506 0.5949 0.7638
vn 0.1483 0.1736 0.9736
vn 0.0494 0.7759 0.629
vn 0.626 -0.0717 0.7765
vn 0.2018 -0.2074 0.9572
vn 0.0515 -0.7565 -0.652
vn 0.6727 0.6743 -0.3046
vn 0.3109 -0.5919 -0.7436
vn 0.1351 -0.5321 -0.8358
vn 0.2643 0.8131 -0.5187
vn 0.2785 0.2074 -0.9378
vn -0.0048 -0.7563 -0.6542
vn -0.072 -0.5315 -0.844
vn -0.2169 0.8147 -0.5378
vn 0.8989 0.4356 0.0472
vn 0.7166 -0.4644 -0.5204
vn 0.9123 -0.1696 -0.3727
vn 0.6864 0.0688 -0.7239
vn 0.0993 -0.7727 -0.6269
vn 0.5411 -0.2793 -0.7932
vn 0.1922 -0.9343 0.3003
vn -0.2216 -0.9329 0.2839
vn -0.5729 -0.8135 0.0998
vn -0.7674 -0.6082 -0.2028
vn -0.7532 -0.3719 -0.5426
vn -0.5339 -0.168 -0.8287
vn -0.1684 -0.051 -0.9844
vn 0.2455 -0.0524 -0.968
vn 0.5967 -0.1717 -0.7838
vn 0.7913 -0.3771 -0.4813
vn 0.777 -0.6134 -0.1415
vn 0.5577 -0.8173 0.1446
vn -0.2238 0.1748 0.9588
vn 0.4083 -0.6947 -0.5922
vn 0.4012 -0.813 -0.4221
vn 0.8823 0.1608 0.4423
vn 0.1258 -0.8007 -0.5858
vn 0.7037 -0.6775 -0.214
vn 0.1238 -0.8328 -0.5395
vn 0.8958 -0.444 0.022
vn 0.6411 -0.6808 0.3542
vn 0.506 -0.8614 0.044
vn 0.6273 -0.0763 0.775
vn 0.2914 -0.915 -0.2789
vn 0.1085 -0.9736 -0.2009
vn 0.094 -0.8605 -0.5006
vn 0.1763 -0.9669 0.1845
vn 0.0443 -0.8765 -0.4794
vn 0.2167 -0.8166 0.535
vn 0.2023 -0.2123 0.956
vn -0.1968 -0.9656 0.1696
vn -0.2788 -0.2107 0.9369
vn -0.0987 -0.9729 -0.2092
vn -0.5136 -0.858 0.0036
vn -0.012 -0.8763 -0.4817
vn -0.2638 -0.815 0.5159
vn -0.0598 -0.86 -0.5067
vn -0.6717 -0.6764 0.3021
vn -0.6873 -0.0719 0.7228
vn -0.2745 -0.9131 -0.3013
vn -0.6891 -0.6729 -0.2692
vn -0.3719 -0.8104 -0.4528
vn -0.9135 0.1668 0.3711
vn -0.6762 -0.4598 -0.5757
vn -0.0863 -0.8321 -0.5479
vn -0.8976 -0.438 -0.0492
vn -0.0843 -0.8 -0.5941
vn -0.8811 -0.1636 -0.4438
vn -0.8969 0.4416 -0.0241
vn -0.3648 -0.6921 -0.6229
vn -0.6419 0.6787 -0.3567
vn -0.4784 -0.2759 -0.8337
vn -0.255 -0.59 -0.7661
vn -0.1488 -0.1704 -0.9741
vn -0.0545 -0.7722 -0.633
vn -0.6264 0.0732 -0.776
vn -0.202 0.209 -0.9568
vn -0.1929 0.9324 -0.3057
vn 0.2227 0.931 -0.2892
vn 0.5755 0.8112 -0.1042
vn 0.7709 0.6049 0.1996
vn 0.7565 0.3676 0.5409
vn 0.5363 0.1628 0.8282
vn 0.1692 0.0454 0.9845
vn -0.2464 0.0468 0.968
vn -0.5991 0.1666 0.7831
vn -0.7945 0.3728 0.4793
vn -0.7802 0.6101 0.138
vn -0.56 0.815 -0.1493
vn 0.2244 -0.1716 -0.9593
vn 0.5946 0.7307 0.3354
vn 0.1673 0.9848 -0.0455
vn 0.1256 0.2944 0.9474
vn -0.4428 0.8944 0.0635
vn 0.5835 0.5457 0.6015
vn -0.6256 0.5497 0.5535
vn 0.4423 0.8914 0.0986
vn -0.1983 0.2955 0.9345
vn -0.1566 0.9859 -0.0584
vn -0.6145 0.7347 0.2875
vn -0.4733 0.389 0.7904
vn 0.4118 0.386 0.8255
vt 0.703947 0.524467
vt 0.654538 0.524457
vt 0.70829 0.483952
vt 0.666403 0.483944
vt 0.703947 0.568314
vt 0.654538 0.568305
vt 0.313212 0.567472
vt 0.303387 0.573146
vt 0.303173 0.528342
vt 0.275195 0.544501
vt 0.318827 0.588648
vt 0.789395 0.38509
vt 0.747508 0.385099
vt 0.751851 0.344595
vt 0.80126 0.344585
vt 0.80126 0.300738
vt 0.751851 0.300747
vt 0.789395 0.260224
vt 0.747508 0.260232
vt 0.297715 0.582974
vt 0.259041 0.572489
vt 0.297715 0.594323
vt 0.259041 0.604807
vt 0.694798 0.300747
vt 0.699141 0.260232
vt 0.694798 0.344595
vt 0.739483 0.416093
vt 0.707166 0.416093
vt 0.699141 0.385099
vt 0.657254 0.38509
vt 0.645389 0.344585
vt 0.275195 0.632795
vt 0.254096 0.654719
vt 0.229921 0.612832
vt 0.645389 0.300738
vt 0.657254 0.260224
vt 0.303387 0.604151
vt 0.313212 0.609825
vt 0.303173 0.648954
vt 0.802101 0.041782
vt 0.813966 0.082295
vt 0.764557 0.082305
vt 0.760214 0.04179
vt 0.295969 0.678903
vt 0.813966 0.126143
vt 0.764557 0.126152
vt 0.802101 0.166648
vt 0.760214 0.166656
vt 0.711847 0.166656
vt 0.707504 0.126152
vt 0.752189 0.197651
vt 0.719872 0.197651
vt 0.707504 0.082305
vt 0.711847 0.04179
vt 0.324556 0.609825
vt 0.33548 0.648954
vt 0.363458 0.632795
vt 0.334381 0.604151
vt 0.658095 0.126143
vt 0.658095 0.082295
vt 0.386192 0.654719
vt 0.344319 0.678903
vt 0.66996 0.166648
vt 0.66996 0.041782
vt 0.379611 0.604807
vt 0.410367 0.612832
vt 0.903454 0.233453
vt 0.915639 0.282862
vt 0.872088 0.287205
vt 0.861758 0.245318
vt 0.340053 0.594323
vt 0.943099 0.233453
vt 0.955285 0.282862
vt 0.379611 0.572489
vt 0.410367 0.564465
vt 0.974659 0.245318
vt 0.984989 0.287205
vt 0.955285 0.339915
vt 0.915639 0.339915
vt 0.340053 0.582974
vt 0.984989 0.335572
vt 0.872088 0.335572
vt 0.363458 0.544501
vt 0.386192 0.522578
vt 0.334381 0.573146
vt 0.903454 0.389325
vt 0.861758 0.377459
vt 0.943099 0.389325
vt 0.33548 0.528342
vt 0.344319 0.498394
vt 0.974659 0.377459
vt 0.81041 0.524457
vt 0.81041 0.568305
vt 0.761 0.524467
vt 0.761 0.568314
vt 0.324556 0.567472
vt 0.798545 0.60881
vt 0.756657 0.608819
vt 0.798545 0.483944
vt 0.756657 0.483952
vt 0.748633 0.639813
vt 0.70829 0.608819
vt 0.716315 0.639813
vt 0.295969 0.498394
vt 0.254096 0.522578
vt 0.666403 0.60881
vt 0.502354 0.095947
vt 0.502354 0.049355
vt 0.569727 0.095947
vt 0.569727 0.049355
vt 0.093154 0.121756
vt 0.073837 0.141073
vt 0.066767 0.128827
vt 0.507285 0.015011
vt 0.564796 0.015011
vt 0.021529 0.140948
vt 0.021529 0.102564
vt 0.066767 0.114686
vt 0.444008 0.110337
vt 0.444008 0.063745
vt 0.040721 0.174189
vt 0.45748 0.027294
vt 0.457897 0.159359
vt 0.507438 0.147141
vt 0.086084 0.148143
vt 0.073962 0.193381
vt 0.35564 0.14241
vt 0.35564 0.09088
vt 0.413986 0.142421
vt 0.413986 0.090891
vt 0.350709 0.044207
vt 0.400514 0.044217
vt 0.614601 0.027294
vt 0.628073 0.063745
vt 0.555232 0.195233
vt 0.564643 0.147141
vt 0.614184 0.159359
vt 0.588474 0.203431
vt 0.628073 0.110337
vt 0.516849 0.195233
vt 0.681093 0.457173
vt 0.713667 0.457179
vt 0.742131 0.233459
vt 0.774705 0.233453
vt 0.704518 0.233459
vt 0.671944 0.233453
vt 0.787411 0.015011
vt 0.754837 0.015017
vt 0.717224 0.015017
vt 0.68465 0.015011
vt 0.831282 0.260008
vt 0.839316 0.292582
vt 0.839316 0.330196
vt 0.831282 0.36277
vt 0.783855 0.457173
vt 0.751281 0.457179
vt 0.229921 0.564465
vt 0.040721 0.069323
vt 0.073837 0.10244
vt 0.073962 0.050131
vt 0.086084 0.095369
vt 0.243393 0.285909
vt 0.293199 0.285899
vt 0.229921 0.332583
vt 0.288267 0.332571
vt 0.015011 0.043613
vt 0.064552 0.015011
vt 0.229921 0.384113
vt 0.288267 0.384101
vt 0.243811 0.431773
vt 0.293351 0.431763
vt 0.35564 0.384101
vt 0.350556 0.431763
vt 0.302762 0.468372
vt 0.341146 0.468372
vt 0.35564 0.332571
vt 0.350709 0.285899
vt 0.112346 0.050131
vt 0.100224 0.095369
vt 0.145587 0.069323
vt 0.112471 0.102439
vt 0.413986 0.384113
vt 0.413986 0.332583
vt 0.121756 0.015011
vt 0.171297 0.043613
vt 0.400097 0.431773
vt 0.400514 0.285909
vt 0.199899 0.093154
vt 0.164779 0.102564
vt 0.015011 0.334404
vt 0.028483 0.28773
vt 0.078288 0.28772
vt 0.073357 0.334392
vt 0.119541 0.114686
vt 0.015011 0.385934
vt 0.073357 0.385922
vt 0.087852 0.470193
vt 0.078441 0.433584
vt 0.126235 0.470193
vt 0.135646 0.433584
vt 0.0289 0.433594
vt 0.14073 0.334392
vt 0.14073 0.385922
vt 0.119541 0.128827
vt 0.135799 0.28772
vt 0.164779 0.140948
vt 0.199899 0.150359
vt 0.145587 0.174189
vt 0.171297 0.199899
vt 0.112471 0.141073
vt 0.185604 0.28773
vt 0.199076 0.334404
vt 0.199076 0.385934
vt 0.121756 0.228502
vt 0.112346 0.193381
vt 0.185186 0.433594
vt 0.229921 0.090891
vt 0.288267 0.09088
vt 0.288267 0.14241
vt 0.229921 0.142421
vt 0.100224 0.148143
vt 0.243811 0.190081
vt 0.293351 0.190072
vt 0.243393 0.044217
vt 0.293199 0.044207
vt 0.350556 0.190072
vt 0.302762 0.226681
vt 0.341146 0.226681
vt 0.064552 0.228502
vt 0.015011 0.199899
vt 0.400097 0.190081
vt 0.344911 0.015011
vt 0.384675 0.015019
vt 0.451127 0.398406
vt 0.466966 0.381803
vt 0.500932 0.427151
vt 0.50673 0.404753
vt 0.552645 0.404753
vt 0.558443 0.427151
vt 0.592409 0.381803
vt 0.608248 0.398406
vt 0.259232 0.25671
vt 0.298996 0.256702
vt 0.344911 0.256702
vt 0.384675 0.25671
vt 0.044322 0.258531
vt 0.084086 0.258523
vt 0.130001 0.258523
vt 0.169765 0.258531
vt 0.259232 0.015019
vt 0.298996 0.015011
vt 0.483607 0.203431
vt 0.510881 0.249268
vt 0.478307 0.268068
vt 0.466966 0.256403
vt 0.50673 0.233453
vt 0.581068 0.268068
vt 0.548494 0.249268
vt 0.592409 0.256403
vt 0.552645 0.233453
vt 0.4595 0.338231
vt 0.478307 0.370794
vt 0.444008 0.342053
vt 0.599875 0.338231
vt 0.599875 0.300631
vt 0.615367 0.296153
vt 0.615367 0.342053
vt 0.4595 0.300631
vt 0.444008 0.296153
vt 0.548494 0.389594
vt 0.581068 0.370794
vt 0.510881 0.389594
usemtl 
f 123/177/133 124/178/133 125/179/133
f 124/178/133 126/180/133 125/179/133
f 127/181/134 128/182/134 123/177/134
f 128/182/134 124/178/134 123/177/134
f 129/183/135 130/184/135 131/185/135
f 130/184/135 132/186/135 131/185/135
f 133/187/136 130/184/136 129/183/136
f 134/188/137 135/189/137 136/190/137
f 134/188/137 136/190/137 128/191/137
f 124/192/138 137/193/138 126/194/138
f 137/193/138 138/195/138 126/194/138
f 130/184/139 139/196/139 140/197/139
f 130/184/139 140/197/139 132/186/139
f 128/191/140 136/190/140 137/193/140
f 128/191/140 137/193/140 124/192/140
f 139/196/141 141/198/141 140/197/141
f 141/198/141 142/199/141 140/197/141
f 137/193/142 143/200/142 144/201/142
f 137/193/142 144/201/142 138/195/142
f 133/187/143 139/196/143 130/184/143
f 136/190/144 145/202/144 143/200/144
f 136/190/144 143/200/144 137/193/144
f 140/203/145 142/204/145 146/205/145
f 140/203/145 146/205/145 135/189/145
f 133/187/146 141/198/146 139/196/146
f 135/189/147 146/205/147 136/190/147
f 146/205/147 145/202/147 136/190/147
f 146/205/148 147/206/148 148/207/148
f 146/205/148 148/207/148 145/202/148
f 142/199/149 149/208/149 147/209/149
f 142/199/149 147/209/149 146/210/149
f 143/200/150 150/211/150 151/212/150
f 143/200/150 151/212/150 144/201/150
f 141/198/151 152/213/151 142/199/151
f 152/213/151 149/208/151 142/199/151
f 145/202/152 148/207/152 143/200/152
f 148/207/152 150/211/152 143/200/152
f 152/213/153 153/214/153 154/215/153
f 152/213/153 154/215/153 149/208/153
f 151/216/154 150/217/154 155/218/154
f 151/216/154 155/218/154 156/219/154
f 133/187/155 152/213/155 141/198/155
f 149/208/156 154/215/156 157/220/156
f 149/208/156 157/220/156 147/209/156
f 148/221/157 158/222/157 155/218/157
f 148/221/157 155/218/157 150/217/157
f 133/187/158 153/214/158 152/213/158
f 147/223/159 157/224/159 148/221/159
f 157/224/159 158/222/159 148/221/159
f 158/222/160 157/224/160 159/225/160
f 158/222/160 159/225/160 160/226/160
f 154/227/161 161/228/161 159/225/161
f 154/227/161 159/225/161 157/224/161
f 155/218/162 162/229/162 156/219/162
f 162/229/162 163/230/162 156/219/162
f 153/214/163 164/231/163 161/232/163
f 153/214/163 161/232/163 154/215/163
f 158/222/164 160/226/164 162/229/164
f 158/222/164 162/229/164 155/218/164
f 161/232/165 164/231/165 165/233/165
f 164/231/165 166/234/165 165/233/165
f 133/187/166 164/231/166 153/214/166
f 160/226/167 167/235/167 162/229/167
f 167/235/167 168/236/167 162/229/167
f 161/232/168 165/233/168 169/237/168
f 161/232/168 169/237/168 159/238/168
f 133/187/169 166/234/169 164/231/169
f 159/225/170 169/239/170 167/235/170
f 159/225/170 167/235/170 160/226/170
f 162/229/171 168/236/171 170/240/171
f 162/229/171 170/240/171 163/230/171
f 165/233/172 171/241/172 169/237/172
f 171/241/172 172/242/172 169/237/172
f 168/243/173 173/244/173 174/245/173
f 168/243/173 174/245/173 170/246/173
f 166/234/174 175/247/174 171/241/174
f 166/234/174 171/241/174 165/233/174
f 167/248/175 176/249/175 173/244/175
f 167/248/175 173/244/175 168/243/175
f 171/241/176 177/250/176 172/242/176
f 177/250/176 178/251/176 172/242/176
f 133/187/177 175/247/177 166/234/177
f 169/252/178 172/253/178 176/249/178
f 169/252/178 176/249/178 167/248/178
f 176/249/179 179/254/179 180/255/179
f 176/249/179 180/255/179 173/244/179
f 133/187/180 181/256/180 175/247/180
f 172/253/181 178/257/181 179/254/181
f 172/253/181 179/254/181 176/249/181
f 173/244/182 180/255/182 182/258/182
f 173/244/182 182/258/182 174/245/182
f 175/247/183 181/256/183 177/250/183
f 175/247/183 177/250/183 171/241/183
f 177/250/184 183/259/184 184/260/184
f 177/250/184 184/260/184 178/251/184
f 181/256/185 185/261/185 177/250/185
f 185/261/185 183/259/185 177/250/185
f 180/255/186 186/262/186 182/258/186
f 186/262/186 187/263/186 182/258/186
f 179/254/187 188/264/187 186/262/187
f 179/254/187 186/262/187 180/255/187
f 183/259/188 189/265/188 184/260/188
f 189/265/188 190/266/188 184/260/188
f 133/187/189 185/261/189 181/256/189
f 178/257/190 184/267/190 179/254/190
f 184/267/190 188/264/190 179/254/190
f 186/268/191 188/269/191 191/270/191
f 188/269/191 192/271/191 191/270/191
f 133/187/192 193/272/192 185/261/192
f 184/273/193 190/274/193 188/269/193
f 190/274/193 192/271/193 188/269/193
f 186/268/194 191/270/194 187/275/194
f 191/270/194 194/276/194 187/275/194
f 185/261/195 193/272/195 189/265/195
f 185/261/195 189/265/195 183/259/195
f 191/270/196 123/177/196 125/179/196
f 191/270/196 125/179/196 194/276/196
f 190/274/197 189/277/197 195/278/197
f 189/277/197 131/279/197 195/278/197
f 192/271/198 127/181/198 123/177/198
f 192/271/198 123/177/198 191/270/198
f 193/272/199 129/183/199 189/265/199
f 129/183/199 131/185/199 189/265/199
f 131/185/200 132/186/200 195/280/200
f 132/186/200 134/281/200 195/280/200
f 133/187/201 129/183/201 193/272/201
f 190/274/202 195/278/202 192/271/202
f 195/278/202 127/181/202 192/271/202
f 127/181/203 195/278/203 128/182/203
f 195/278/203 134/282/203 128/182/203
f 196/283/179 197/284/179 198/285/179
f 197/284/179 199/286/179 198/285/179
f 200/287/204 201/288/204 202/289/204
f 197/284/205 203/290/205 199/286/205
f 203/290/205 204/291/205 199/286/205
f 202/289/206 205/292/206 206/293/206
f 202/289/206 206/293/206 207/294/206
f 208/295/175 209/296/175 197/284/175
f 208/295/175 197/284/175 196/283/175
f 201/288/207 210/297/207 202/289/207
f 210/297/207 205/292/207 202/289/207
f 209/296/208 211/298/208 203/290/208
f 209/296/208 203/290/208 197/284/208
f 212/299/209 208/295/209 213/300/209
f 208/295/209 196/283/209 213/300/209
f 200/287/210 214/301/210 201/288/210
f 214/301/211 215/302/211 210/297/211
f 214/301/211 210/297/211 201/288/211
f 216/303/167 217/304/167 208/305/167
f 217/304/167 209/306/167 208/305/167
f 217/304/212 218/307/212 209/306/212
f 218/307/212 211/308/212 209/306/212
f 199/286/213 204/291/213 219/309/213
f 199/286/213 219/309/213 220/310/213
f 206/311/214 221/312/214 222/313/214
f 206/311/214 222/313/214 223/314/214
f 221/312/215 198/285/215 222/313/215
f 198/285/215 224/315/215 222/313/215
f 213/300/216 196/283/216 198/285/216
f 213/300/216 198/285/216 221/312/216
f 200/287/217 202/289/217 207/294/217
f 205/316/218 213/300/218 206/311/218
f 213/300/218 221/312/218 206/311/218
f 125/179/219 126/180/219 225/317/219
f 125/179/219 225/317/219 226/318/219
f 126/194/220 138/195/220 227/319/220
f 126/194/220 227/319/220 225/320/220
f 138/195/221 144/201/221 227/319/221
f 144/201/221 228/321/221 227/319/221
f 144/201/222 151/212/222 229/322/222
f 144/201/222 229/322/222 228/321/222
f 151/216/223 156/219/223 229/323/223
f 156/219/223 230/324/223 229/323/223
f 156/219/224 163/230/224 231/325/224
f 156/219/224 231/325/224 230/324/224
f 163/230/225 170/240/225 231/325/225
f 170/240/225 232/326/225 231/325/225
f 170/246/226 174/245/226 232/327/226
f 174/245/226 233/328/226 232/327/226
f 174/245/227 182/258/227 233/328/227
f 182/258/227 234/329/227 233/328/227
f 234/329/228 182/258/228 235/330/228
f 182/258/228 187/263/228 235/330/228
f 187/275/229 194/276/229 235/331/229
f 194/276/229 236/332/229 235/331/229
f 236/332/230 194/276/230 226/318/230
f 194/276/230 125/179/230 226/318/230
f 132/186/231 140/197/231 134/281/231
f 140/197/231 135/333/231 134/281/231
f 207/294/232 206/293/232 223/334/232
f 207/294/232 223/334/232 237/335/232
f 198/285/187 199/286/187 224/315/187
f 199/286/187 220/310/187 224/315/187
f 237/335/233 223/334/233 238/336/233
f 237/335/233 238/336/233 239/337/233
f 219/338/234 240/339/234 220/340/234
f 240/339/234 241/341/234 220/340/234
f 200/287/235 207/294/235 237/335/235
f 223/334/236 222/342/236 238/336/236
f 222/342/236 242/343/236 238/336/236
f 224/344/191 220/340/191 241/341/191
f 224/344/191 241/341/191 243/345/191
f 200/287/237 237/335/237 239/337/237
f 222/346/238 224/344/238 243/345/238
f 222/346/238 243/345/238 242/347/238
f 243/345/239 244/348/239 242/347/239
f 244/348/239 245/349/239 242/347/239
f 238/350/240 242/347/240 245/349/240
f 238/350/240 245/349/240 246/351/240
f 241/341/241 240/339/241 247/352/241
f 240/339/241 248/353/241 247/352/241
f 239/337/242 238/336/242 246/354/242
f 239/337/242 246/354/242 249/355/242
f 243/345/198 241/341/198 247/352/198
f 243/345/198 247/352/198 244/348/198
f 246/354/243 250/356/243 249/355/243
f 250/356/243 251/357/243 249/355/243
f 200/287/244 239/337/244 249/355/244
f 244/348/134 247/352/134 252/358/134
f 247/352/134 253/359/134 252/358/134
f 246/354/245 245/360/245 250/356/245
f 245/360/245 254/361/245 250/356/245
f 200/287/246 249/355/246 251/357/246
f 245/349/247 244/348/247 254/362/247
f 244/348/247 252/358/247 254/362/247
f 247/352/248 248/353/248 255/363/248
f 247/352/248 255/363/248 253/359/248
f 250/356/249 254/361/249 256/364/249
f 250/356/249 256/364/249 257/365/249
f 253/366/250 255/367/250 258/368/250
f 253/366/250 258/368/250 259/369/250
f 251/357/251 250/356/251 260/370/251
f 250/356/251 257/365/251 260/370/251
f 252/371/140 253/366/140 261/372/140
f 253/366/140 259/369/140 261/372/140
f 257/373/252 256/374/252 262/375/252
f 256/374/252 263/376/252 262/375/252
f 200/287/253 251/357/253 260/370/253
f 254/377/254 252/371/254 256/374/254
f 252/371/254 261/372/254 256/374/254
f 261/372/144 259/369/144 264/378/144
f 261/372/144 264/378/144 265/379/144
f 200/287/255 260/370/255 266/380/255
f 256/374/256 261/372/256 265/379/256
f 256/374/256 265/379/256 263/376/256
f 259/369/257 258/368/257 264/378/257
f 258/368/257 267/381/257 264/378/257
f 260/370/258 257/365/258 262/382/258
f 260/370/258 262/382/258 266/380/258
f 262/382/259 263/383/259 268/384/259
f 263/383/259 269/385/259 268/384/259
f 266/380/260 262/382/260 270/386/260
f 262/382/260 268/384/260 270/386/260
f 264/378/261 267/381/261 271/387/261
f 264/378/261 271/387/261 272/388/261
f 265/379/152 264/378/152 272/388/152
f 265/379/152 272/388/152 273/389/152
f 268/384/262 269/385/262 274/390/262
f 268/384/262 274/390/262 275/391/262
f 200/287/263 266/380/263 270/386/263
f 263/376/264 265/379/264 273/389/264
f 263/376/264 273/389/264 269/392/264
f 272/393/157 276/394/157 277/395/157
f 272/393/157 277/395/157 273/396/157
f 200/287/265 270/386/265 278/397/265
f 269/398/266 273/396/266 274/399/266
f 273/396/266 277/395/266 274/399/266
f 272/393/267 271/400/267 279/401/267
f 272/393/267 279/401/267 276/394/267
f 270/386/268 268/384/268 278/397/268
f 268/384/268 275/391/268 278/397/268
f 276/394/269 279/401/269 218/307/269
f 276/394/269 218/307/269 217/304/269
f 274/399/270 280/402/270 275/403/270
f 280/402/270 215/404/270 275/403/270
f 277/395/164 276/394/164 217/304/164
f 277/395/164 217/304/164 216/303/164
f 278/397/271 275/391/271 215/302/271
f 278/397/271 215/302/271 214/301/271
f 215/302/272 280/405/272 212/406/272
f 215/302/272 212/406/272 210/297/272
f 200/287/273 278/397/273 214/301/273
f 274/399/274 277/395/274 280/402/274
f 277/395/274 216/303/274 280/402/274
f 216/303/275 208/305/275 280/402/275
f 208/305/275 212/407/275 280/402/275
f 218/307/276 281/408/276 282/409/276
f 218/307/276 282/409/276 211/308/276
f 211/410/277 282/411/277 203/412/277
f 282/411/277 283/413/277 203/412/277
f 203/412/278 283/413/278 284/414/278
f 203/412/278 284/414/278 204/415/278
f 204/415/279 284/414/279 285/416/279
f 204/415/279 285/416/279 219/417/279
f 219/338/280 285/418/280 240/339/280
f 285/418/280 286/419/280 240/339/280
f 240/339/281 286/419/281 287/420/281
f 240/339/281 287/420/281 248/353/281
f 248/353/282 287/420/282 255/363/282
f 287/420/282 288/421/282 255/363/282
f 255/367/283 288/422/283 289/423/283
f 255/367/283 289/423/283 258/368/283
f 258/368/284 289/423/284 290/424/284
f 258/368/284 290/424/284 267/381/284
f 290/424/285 291/425/285 267/381/285
f 291/425/285 271/387/285 267/381/285
f 271/400/286 291/426/286 279/401/286
f 291/426/286 292/427/286 279/401/286
f 292/427/287 281/408/287 218/307/287
f 292/427/287 218/307/287 279/401/287
f 210/428/288 212/299/288 213/300/288
f 210/428/288 213/300/288 205/316/288
f 234/429/289 235/430/289 291/431/289
f 234/429/289 291/431/289 290/432/289
f 232/433/290 233/434/290 288/435/290
f 233/434/290 289/436/290 288/435/290
f 226/437/291 225/438/291 282/411/291
f 226/437/291 282/411/291 281/439/291
f 230/440/292 231/441/292 287/442/292
f 230/440/292 287/442/292 286/443/292
f 235/430/293 236/444/293 291/431/293
f 236/444/293 292/445/293 291/431/293
f 228/446/294 229/447/294 284/414/294
f 229/447/294 285/416/294 284/414/294
f 233/434/295 234/429/295 289/436/295
f 234/429/295 290/432/295 289/436/295
f 225/438/296 227/448/296 282/411/296
f 227/448/296 283/413/296 282/411/296
f 231/441/297 232/433/297 288/435/297
f 231/441/297 288/435/297 287/442/297
f 229/447/298 230/440/298 286/443/298
f 229/447/298 286/443/298 285/416/298
f 227/448/299 228/446/299 283/413/299
f 228/446/299 284/414/299 283/413/299
f 236/444/300 226/437/300 281/439/300
f 236/444/300 281/439/300 292/445/300
s off
