# Apple ModelIO OBJ File: palmera_
mtllib palmera_.mtl
g Cylinder
v -0.736257 -0.145229 0.055509
v -0.736257 -0.145229 -3.27155
v -0.085577 -0.145229 -3.20762
v -0.736257 0.086807 -2.18288
v -1.17402 0.086807 -2.13987
v -1.06012 0.049129 -1.56864
v -0.736257 0.049129 -1.60046
v -0.29849 0.086807 -2.13987
v 0.540097 -0.145229 -3.01829
v 0.122455 0.086807 -2.0125
v -0.412395 0.049129 -1.56864
v -0.100979 0.049129 -1.47441
v 1.11672 -0.145229 -2.71084
v 1.33686 0.086807 0.912106
v 1.46455 0.086807 0.492198
v 0.891906 0.049129 0.378573
v 0.797439 0.049129 0.689222
v 0.510399 0.086807 -1.80565
v 1.62214 -0.145229 -2.29708
v -1.59497 0.086807 2.12352
v -1.17402 0.086807 2.25089
v -1.06012 0.049129 1.67966
v -1.37153 0.049129 1.58543
v 0.850435 0.086807 -1.52727
v 2.03692 -0.145229 -1.79291
v -2.80937 0.086807 -0.801087
v -2.93706 0.086807 -0.38118
v -2.26995 0.049129 -0.578204
v -2.36442 0.049129 -0.267555
v 1.1295 0.086807 -1.18808
v 2.34513 -0.145229 -1.2177
v 1.46455 0.086807 -0.38118
v 1.33686 0.086807 -0.801087
v 0.797439 0.049129 -0.578204
v 0.891906 0.049129 -0.267555
v 2.53493 -0.145229 -0.593568
v -0.29849 0.086807 2.25089
v 0.122455 0.086807 2.12352
v -0.412395 0.049129 1.67966
v -0.100979 0.049129 1.58543
v 2.59902 -0.145229 0.055509
v -2.93706 0.086807 0.492198
v -2.80937 0.086807 0.912106
v -2.36442 0.049129 0.378573
v -2.26995 0.049129 0.689222
v 1.50766 0.086807 0.055509
v 2.53493 -0.145229 0.704586
v -1.59497 0.086807 -2.0125
v -1.37153 0.049129 -1.47441
v 2.34513 -0.145229 1.32872
v 0.437583 0.049129 -1.11544
v 0.186023 0.049129 -1.32138
v 2.03692 -0.145229 1.90392
v 0.850435 0.086807 1.63829
v 1.1295 0.086807 1.2991
v 0.644033 0.049129 0.975518
v 0.437583 0.049129 1.22646
v 1.62214 -0.145229 2.4081
v -2.32295 0.086807 1.63829
v -1.98291 0.086807 1.91667
v -1.9101 0.049129 1.22646
v -1.65854 0.049129 1.4324
v 1.11672 -0.145229 2.82186
v -2.32295 0.086807 -1.52727
v -2.60201 0.086807 -1.18808
v -1.9101 0.049129 -1.11544
v -2.11655 0.049129 -0.864499
v 0.510399 0.086807 1.91667
v 0.540097 -0.145229 3.12931
v 0.923804 0.049129 0.055509
v -0.085577 -0.145229 3.31864
v -0.736257 0.086807 2.2939
v -0.736257 0.049129 1.71148
v -0.736257 -0.145229 3.38257
v -2.98018 0.086807 0.055509
v -2.39632 0.049129 0.055509
v -1.38694 -0.145229 3.31864
v -2.01261 -0.145229 3.12931
v 0.644033 0.049129 -0.864499
v -2.58924 -0.145229 2.82186
v 0.186023 0.049129 1.4324
v -3.09465 -0.145229 2.4081
v -2.60201 0.086807 1.2991
v -2.11655 0.049129 0.975518
v -3.50944 -0.145229 1.90392
v -1.98291 0.086807 -1.80565
v -1.65854 0.049129 -1.32138
v -3.81765 -0.145229 1.32872
v -4.00744 -0.145229 0.704586
v -4.07153 -0.145229 0.055509
v -4.00744 -0.145229 -0.593568
v -3.81765 -0.145229 -1.2177
v -3.50944 -0.145229 -1.79291
v -3.09465 -0.145229 -2.29708
v -2.58924 -0.145229 -2.71084
v -2.01261 -0.145229 -3.01829
v -1.38694 -0.145229 -3.20762
v -0.736257 0.049129 0.055509
vn -0 -1 -0
vn 0.0063 0.9979 0.0646
vn 0.0205 0.9778 -0.2084
vn -0.0188 0.9979 0.0621
vn 0.0606 0.9778 -0.2004
vn -0.0619 0.9979 -0.0188
vn 0.0985 0.9778 -0.1847
vn 0.0188 0.9979 -0.0621
vn 0.1325 0.9779 -0.1619
vn 0.0619 0.9979 0.0188
vn 0.1615 0.9779 -0.1329
vn -0.0619 0.9979 0.0188
vn 0.1843 0.9779 -0.0987
vn -0.0188 0.9979 -0.0621
vn 0.1999 0.9779 -0.0608
vn 0.0619 0.9979 -0.0188
vn 0.2079 0.9779 -0.0205
vn 0.0188 0.9979 0.0621
vn 0.2079 0.9779 0.0205
vn -0.0411 0.9979 0.0501
vn 0.1999 0.9779 0.0608
vn -0.05 0.9979 -0.0412
vn 0.1843 0.9779 0.0987
vn 0.0411 0.9979 -0.0501
vn 0.1615 0.9779 0.1329
vn 0.05 0.9979 0.0412
vn 0.1325 0.9779 0.1619
vn -0.0644 0.9979 -0.0064
vn 0.0985 0.9778 0.1847
vn 0.0063 0.9979 -0.0646
vn 0.0606 0.9778 0.2004
vn 0.0644 0.9979 0.0064
vn 0.0205 0.9778 0.2084
vn -0.0063 0.9979 0.0646
vn -0.0205 0.9778 0.2084
vn -0.0571 0.9979 0.0306
vn -0.0606 0.9778 0.2004
vn -0.0305 0.9979 -0.0572
vn -0.0985 0.9778 0.1847
vn 0.0571 0.9979 -0.0306
vn -0.1325 0.9779 0.1619
vn 0.0305 0.9979 0.0572
vn -0.1615 0.9779 0.1329
vn -0.0305 0.9979 0.0572
vn -0.1843 0.9779 0.0987
vn -0.0571 0.9979 -0.0306
vn -0.1999 0.9779 0.0608
vn 0.0305 0.9979 -0.0572
vn -0.2079 0.9779 0.0205
vn 0.0571 0.9979 0.0306
vn -0.2079 0.9779 -0.0205
vn -0.0644 0.9979 0.0064
vn -0.1999 0.9779 -0.0608
vn -0.0063 0.9979 -0.0646
vn -0.1843 0.9779 -0.0987
vn 0.0644 0.9979 -0.0064
vn -0.1615 0.9779 -0.1329
vn -0.05 0.9979 0.0412
vn -0.1325 0.9779 -0.1619
vn -0.0411 0.9979 -0.0501
vn -0.0985 0.9778 -0.1847
vn 0.05 0.9979 -0.0412
vn -0.0606 0.9778 -0.2004
vn 0.0411 0.9979 0.0501
vn -0.0205 0.9778 -0.2084
vn -0 1 -0
vt 0.091316 0.125749
vt 0.020479 0.130443
vt 0.020479 0.109816
vt 0.226289 0.128907
vt 0.226289 0.115029
vt 0.23869 0.117818
vt 0.23869 0.128085
vt 0.20311 0.130443
vt 0.228121 0.142664
vt 0.205832 0.15089
vt 0.023201 0.089801
vt 0.231713 0.15577
vt 0.240044 0.138262
vt 0.242702 0.147958
vt 0.211172 0.170371
vt 0.028541 0.071167
vt 0.296522 0.189973
vt 0.287848 0.194595
vt 0.284231 0.176682
vt 0.290648 0.173262
vt 0.218924 0.188137
vt 0.236929 0.167722
vt 0.036293 0.054631
vt 0.316181 0.095727
vt 0.319774 0.108834
vt 0.30785 0.113235
vt 0.305192 0.103539
vt 0.228791 0.203505
vt 0.243567 0.178062
vt 0.04616 0.040828
vt 0.251373 0.061525
vt 0.260046 0.056902
vt 0.257246 0.078235
vt 0.263663 0.074815
vt 0.251373 0.186391
vt 0.240393 0.215886
vt 0.057762 0.030289
vt 0.269253 0.195828
vt 0.260046 0.19239
vt 0.263663 0.17505
vt 0.270474 0.177593
vt 0.253285 0.224802
vt 0.070653 0.023417
vt 0.321605 0.136468
vt 0.319774 0.149934
vt 0.309205 0.133679
vt 0.30785 0.143641
vt 0.26697 0.229912
vt 0.084339 0.020479
vt 0.278641 0.055669
vt 0.287848 0.059107
vt 0.27742 0.073904
vt 0.284231 0.076447
vt 0.280924 0.231018
vt 0.278641 0.196572
vt 0.098293 0.021586
vt 0.228121 0.101564
vt 0.240044 0.107856
vt 0.294609 0.22808
vt 0.111978 0.026695
vt 0.251472 0.16445
vt 0.246561 0.156801
vt 0.307501 0.221209
vt 0.12487 0.035612
vt 0.310965 0.173595
vt 0.304327 0.182882
vt 0.296422 0.168016
vt 0.301333 0.161146
vt 0.319103 0.210669
vt 0.136472 0.047992
vt 0.304327 0.073435
vt 0.310965 0.083775
vt 0.296422 0.087047
vt 0.301333 0.094696
vt 0.32897 0.196866
vt 0.146338 0.06336
vt 0.236929 0.077902
vt 0.243567 0.068615
vt 0.246561 0.090351
vt 0.251472 0.083481
vt 0.316181 0.16247
vt 0.336722 0.18033
vt 0.154091 0.081126
vt 0.27742 0.178144
vt 0.342062 0.161696
vt 0.15943 0.100607
vt 0.321605 0.12259
vt 0.309205 0.123412
vt 0.344784 0.141681
vt 0.162153 0.121054
vt 0.269253 0.054925
vt 0.270474 0.073353
vt 0.344784 0.121054
vt 0.162153 0.141681
vt 0.342062 0.100607
vt 0.15943 0.161696
vt 0.257246 0.170612
vt 0.336722 0.081126
vt 0.154091 0.18033
vt 0.305192 0.152915
vt 0.32897 0.06336
vt 0.146338 0.196866
vt 0.296522 0.065106
vt 0.290648 0.080885
vt 0.319103 0.047992
vt 0.136472 0.210669
vt 0.231713 0.089027
vt 0.242702 0.098582
vt 0.307501 0.035612
vt 0.12487 0.221209
vt 0.294609 0.026695
vt 0.111978 0.22808
vt 0.280924 0.021586
vt 0.098293 0.231018
vt 0.26697 0.020479
vt 0.084339 0.229912
vt 0.253285 0.023417
vt 0.070653 0.224802
vt 0.240393 0.030289
vt 0.057762 0.215886
vt 0.228791 0.040828
vt 0.04616 0.203505
vt 0.218924 0.054631
vt 0.036293 0.188137
vt 0.211172 0.071167
vt 0.028541 0.170371
vt 0.205832 0.089801
vt 0.023201 0.15089
vt 0.20311 0.109816
vt 0.273947 0.125749
usemtl 
f 1/1/1 2/2/1 3/3/1
f 4/4/2 5/5/2 6/6/2
f 4/4/2 6/6/2 7/7/2
f 2/8/3 4/4/3 8/9/3
f 2/8/3 8/9/3 3/10/3
f 1/1/1 3/3/1 9/11/1
f 10/12/4 8/9/4 11/13/4
f 10/12/4 11/13/4 12/14/4
f 3/10/5 8/9/5 10/12/5
f 3/10/5 10/12/5 9/15/5
f 1/1/1 9/11/1 13/16/1
f 14/17/6 15/18/6 16/19/6
f 14/17/6 16/19/6 17/20/6
f 9/15/7 10/12/7 13/21/7
f 10/12/7 18/22/7 13/21/7
f 1/1/1 13/16/1 19/23/1
f 20/24/8 21/25/8 22/26/8
f 20/24/8 22/26/8 23/27/8
f 13/21/9 18/22/9 19/28/9
f 18/22/9 24/29/9 19/28/9
f 1/1/1 19/23/1 25/30/1
f 26/31/10 27/32/10 28/33/10
f 27/32/10 29/34/10 28/33/10
f 19/28/11 24/29/11 30/35/11
f 19/28/11 30/35/11 25/36/11
f 1/1/1 25/30/1 31/37/1
f 32/38/12 33/39/12 34/40/12
f 32/38/12 34/40/12 35/41/12
f 25/36/13 30/35/13 33/39/13
f 25/36/13 33/39/13 31/42/13
f 1/1/1 31/37/1 36/43/1
f 37/44/14 38/45/14 39/46/14
f 38/45/14 40/47/14 39/46/14
f 31/42/15 33/39/15 32/38/15
f 31/42/15 32/38/15 36/48/15
f 1/1/1 36/43/1 41/49/1
f 42/50/16 43/51/16 44/52/16
f 43/51/16 45/53/16 44/52/16
f 36/48/17 32/38/17 41/54/17
f 32/38/17 46/55/17 41/54/17
f 1/1/1 41/49/1 47/56/1
f 5/5/18 48/57/18 6/6/18
f 48/57/18 49/58/18 6/6/18
f 41/54/19 46/55/19 15/18/19
f 41/54/19 15/18/19 47/59/19
f 1/1/1 47/56/1 50/60/1
f 24/29/20 18/22/20 51/61/20
f 18/22/20 52/62/20 51/61/20
f 47/59/21 15/18/21 50/63/21
f 15/18/21 14/17/21 50/63/21
f 1/1/1 50/60/1 53/64/1
f 54/65/22 55/66/22 56/67/22
f 54/65/22 56/67/22 57/68/22
f 50/63/23 14/17/23 53/69/23
f 14/17/23 55/66/23 53/69/23
f 1/1/1 53/64/1 58/70/1
f 59/71/24 60/72/24 61/73/24
f 60/72/24 62/74/24 61/73/24
f 53/69/25 55/66/25 58/75/25
f 55/66/25 54/65/25 58/75/25
f 1/1/1 58/70/1 63/76/1
f 64/77/26 65/78/26 66/79/26
f 65/78/26 67/80/26 66/79/26
f 58/75/27 54/65/27 68/81/27
f 58/75/27 68/81/27 63/82/27
f 1/1/1 63/76/1 69/83/1
f 15/18/28 46/55/28 70/84/28
f 15/18/28 70/84/28 16/19/28
f 63/82/29 68/81/29 38/45/29
f 63/82/29 38/45/29 69/85/29
f 1/1/1 69/83/1 71/86/1
f 21/25/30 72/87/30 22/26/30
f 72/87/30 73/88/30 22/26/30
f 69/85/31 38/45/31 71/89/31
f 38/45/31 37/44/31 71/89/31
f 1/1/1 71/86/1 74/90/1
f 27/32/32 75/91/32 29/34/32
f 75/91/32 76/92/32 29/34/32
f 71/89/33 37/44/33 72/87/33
f 71/89/33 72/87/33 74/93/33
f 1/1/1 74/90/1 77/94/1
f 8/9/34 4/4/34 11/13/34
f 4/4/34 7/7/34 11/13/34
f 74/93/35 72/87/35 77/95/35
f 72/87/35 21/25/35 77/95/35
f 1/1/1 77/94/1 78/96/1
f 33/39/36 30/35/36 34/40/36
f 30/35/36 79/97/36 34/40/36
f 77/95/37 21/25/37 20/24/37
f 77/95/37 20/24/37 78/98/37
f 1/1/1 78/96/1 80/99/1
f 38/45/38 68/81/38 81/100/38
f 38/45/38 81/100/38 40/47/38
f 78/98/39 20/24/39 60/72/39
f 78/98/39 60/72/39 80/101/39
f 1/1/1 80/99/1 82/102/1
f 43/51/40 83/103/40 45/53/40
f 83/103/40 84/104/40 45/53/40
f 80/101/41 60/72/41 82/105/41
f 60/72/41 59/71/41 82/105/41
f 1/1/1 82/102/1 85/106/1
f 48/57/42 86/107/42 87/108/42
f 48/57/42 87/108/42 49/58/42
f 82/105/43 59/71/43 83/103/43
f 82/105/43 83/103/43 85/109/43
f 1/1/1 85/106/1 88/110/1
f 18/22/44 10/12/44 52/62/44
f 10/12/44 12/14/44 52/62/44
f 85/109/45 83/103/45 88/111/45
f 83/103/45 43/51/45 88/111/45
f 1/1/1 88/110/1 89/112/1
f 55/66/46 14/17/46 56/67/46
f 14/17/46 17/20/46 56/67/46
f 88/111/47 43/51/47 42/50/47
f 88/111/47 42/50/47 89/113/47
f 1/1/1 89/112/1 90/114/1
f 60/72/48 20/24/48 62/74/48
f 20/24/48 23/27/48 62/74/48
f 89/113/49 42/50/49 75/91/49
f 89/113/49 75/91/49 90/115/49
f 1/1/1 90/114/1 91/116/1
f 65/78/50 26/31/50 28/33/50
f 65/78/50 28/33/50 67/80/50
f 90/115/51 75/91/51 91/117/51
f 75/91/51 27/32/51 91/117/51
f 1/1/1 91/116/1 92/118/1
f 46/55/52 32/38/52 70/84/52
f 32/38/52 35/41/52 70/84/52
f 91/117/53 27/32/53 92/119/53
f 27/32/53 26/31/53 92/119/53
f 1/1/1 92/118/1 93/120/1
f 72/87/54 37/44/54 39/46/54
f 72/87/54 39/46/54 73/88/54
f 92/119/55 26/31/55 65/78/55
f 92/119/55 65/78/55 93/121/55
f 1/1/1 93/120/1 94/122/1
f 75/91/56 42/50/56 44/52/56
f 75/91/56 44/52/56 76/92/56
f 93/121/57 65/78/57 94/123/57
f 65/78/57 64/77/57 94/123/57
f 1/1/1 94/122/1 95/124/1
f 30/35/58 24/29/58 51/61/58
f 30/35/58 51/61/58 79/97/58
f 94/123/59 64/77/59 86/107/59
f 94/123/59 86/107/59 95/125/59
f 1/1/1 95/124/1 96/126/1
f 68/81/60 54/65/60 81/100/60
f 54/65/60 57/68/60 81/100/60
f 95/125/61 86/107/61 48/57/61
f 95/125/61 48/57/61 96/127/61
f 1/1/1 96/126/1 97/128/1
f 83/103/62 59/71/62 61/73/62
f 83/103/62 61/73/62 84/104/62
f 96/127/63 48/57/63 5/5/63
f 96/127/63 5/5/63 97/129/63
f 1/1/1 97/128/1 2/2/1
f 86/107/64 64/77/64 66/79/64
f 86/107/64 66/79/64 87/108/64
f 97/129/65 5/5/65 2/8/65
f 5/5/65 4/4/65 2/8/65
f 98/130/66 11/13/66 7/7/66
f 98/130/66 12/14/66 11/13/66
f 98/130/66 52/62/66 12/14/66
f 98/130/66 51/61/66 52/62/66
f 98/130/66 79/97/66 51/61/66
f 98/130/66 34/40/66 79/97/66
f 98/130/66 35/41/66 34/40/66
f 98/130/66 70/84/66 35/41/66
f 98/130/66 16/19/66 70/84/66
f 98/130/66 17/20/66 16/19/66
f 98/130/66 56/67/66 17/20/66
f 98/130/66 57/68/66 56/67/66
f 98/130/66 81/100/66 57/68/66
f 98/130/66 40/47/66 81/100/66
f 98/130/66 39/46/66 40/47/66
f 98/130/66 73/88/66 39/46/66
f 98/130/66 22/26/66 73/88/66
f 98/130/66 23/27/66 22/26/66
f 98/130/66 62/74/66 23/27/66
f 98/130/66 61/73/66 62/74/66
f 98/130/66 84/104/66 61/73/66
f 98/130/66 45/53/66 84/104/66
f 98/130/66 44/52/66 45/53/66
f 98/130/66 76/92/66 44/52/66
f 98/130/66 29/34/66 76/92/66
f 98/130/66 28/33/66 29/34/66
f 98/130/66 67/80/66 28/33/66
f 98/130/66 66/79/66 67/80/66
f 98/130/66 87/108/66 66/79/66
f 98/130/66 49/58/66 87/108/66
f 98/130/66 6/6/66 49/58/66
f 98/130/66 7/7/66 6/6/66
s off
g Cylinder.001
v -0.744861 0.063669 0.001869
v -0.737074 0.106377 -0.848674
v -0.137174 0.092085 -0.594132
v -0.410706 6.89762 0.415016
v -0.452348 6.97639 0.182689
v -0.599556 8.5084 0.888076
v -0.616649 8.5743 0.73056
v -0.655259 7.02242 0.04622
v 0.106751 0.061146 0.009539
v -1.00296 6.86459 0.50997
v -0.800046 6.81856 0.646439
v -0.759376 8.44226 1.04498
v -0.84267 8.48076 0.952453
v -0.148187 0.031686 0.608718
v -0.900578 7.00874 0.085551
v -0.800644 8.60136 0.664702
v -0.699943 8.61281 0.638036
v -0.554728 6.83224 0.607108
v -0.752648 0.020961 0.852412
v -0.658675 8.4537 1.01831
v -1.35255 0.035253 0.59787
v -1.0446 6.94336 0.277642
v -0.859763 8.54667 0.794938
v -1.59647 0.066191 -0.005801
v -1.34153 0.095652 -0.604979
v -0.809593 8.93283 0.978134
v -0.799236 8.8929 1.07357
v -0.773773 8.96597 0.899224
v -0.712758 8.97291 0.883067
v -0.66229 8.94957 0.939128
v -0.651933 8.90964 1.03457
v -0.687754 8.8765 1.11348
v -0.748769 8.86957 1.12963
v -0.730763 8.92124 1.00635
vn -0.0025 -0.9987 -0.0502
vn 0.9855 0.1393 -0.0968
vn 0.4419 0.1152 -0.8896
vn -0.6447 -0.1544 0.7487
vn 0.9463 0.0843 -0.3122
vn -0.2 0.3413 -0.9184
vn 0.8897 0.0468 0.4542
vn 0.1985 -0.2336 0.9518
vn 0.3152 0.025 0.9487
vn -0.8595 0.2327 -0.455
vn -0.4359 0.0291 0.8995
vn 0.8548 -0.0635 0.5151
vn -0.9424 0.0573 0.3294
vn 0.6486 0.2935 -0.7023
vn -0.8934 0.0953 -0.439
vn -0.9841 0.0552 0.1688
vn -0.3168 0.1198 -0.9409
vn -0.9888 0.0647 0.1344
vn -0.9152 0.2635 -0.3048
vn 0.76 0.3839 -0.5244
vn 0.9882 0.1459 -0.0462
vn -0.2726 0.5346 -0.7999
vn 0.9146 -0.0279 0.4034
vn 0.2716 -0.1935 0.9427
vn -0.7608 -0.1079 0.64
vn -0.0026 0.9224 0.3862
vt 0.16825 0.388414
vt 0.149875 0.410108
vt 0.124998 0.390475
vt 0.532928 0.053372
vt 0.519646 0.051933
vt 0.554196 0.027637
vt 0.545159 0.026756
vt 0.056856 0.627124
vt 0.040726 0.526893
vt 0.048765 0.523555
vt 0.083427 0.617753
vt 0.125458 0.369635
vt 0.206703 0.31432
vt 0.199271 0.306762
vt 0.209184 0.279576
vt 0.211502 0.283443
vt 0.498079 0.148052
vt 0.532143 0.152671
vt 0.150985 0.359796
vt 0.027112 0.529015
vt 0.020479 0.500021
vt 0.026267 0.49922
vt 0.543782 0.050515
vt 0.565589 0.145956
vt 0.186625 0.366721
vt 0.186092 0.3023
vt 0.203563 0.277963
vt 0.211502 0.386354
vt 0.308038 0.29506
vt 0.299316 0.299182
vt 0.271542 0.278183
vt 0.277966 0.275765
vt 0.252459 0.393954
vt 0.275902 0.300065
vt 0.274015 0.400138
vt 0.286005 0.301255
vt 0.211042 0.407194
vt 0.561615 0.026706
vt 0.310043 0.398961
vt 0.185515 0.417033
vt 0.511714 0.047039
vt 0.539798 0.024577
vt 0.339436 0.391113
vt 0.262638 0.279909
vt 0.020479 0.630059
vt 0.261591 0.273441
vt 0.256196 0.274487
vt 0.265483 0.271976
vt 0.44487 0.872082
vt 0.44969 0.866912
vt 0.450018 0.879435
vt 0.447098 0.882568
vt 0.561094 0.021043
vt 0.555618 0.020509
vt 0.455291 0.868602
vt 0.453412 0.880459
vt 0.565589 0.020479
vt 0.207962 0.271976
vt 0.211368 0.272953
vt 0.256471 0.279934
vt 0.252459 0.274502
vt 0.450826 0.88653
vt 0.446361 0.888021
vt 0.44824 0.892602
vt 0.451634 0.893626
vt 0.454554 0.890493
vt 0.455291 0.88504
usemtl 
f 99/131/67 100/132/67 101/133/67
f 102/134/68 103/135/68 104/136/68
f 103/135/68 105/137/68 104/136/68
f 100/138/69 106/139/69 103/140/69
f 100/138/69 103/140/69 101/141/69
f 99/131/67 101/133/67 107/142/67
f 108/143/70 109/144/70 110/145/70
f 108/143/70 110/145/70 111/146/70
f 101/147/71 103/135/71 102/134/71
f 101/147/71 102/134/71 107/148/71
f 99/131/67 107/142/67 112/149/67
f 106/139/72 113/150/72 114/151/72
f 106/139/72 114/151/72 115/152/72
f 107/148/73 102/134/73 116/153/73
f 107/148/73 116/153/73 112/154/73
f 99/131/67 112/149/67 117/155/67
f 109/144/74 116/156/74 110/145/74
f 116/156/74 118/157/74 110/145/74
f 112/149/75 116/156/75 109/144/75
f 112/149/75 109/144/75 117/155/75
f 99/131/67 117/155/67 119/158/67
f 113/159/76 120/160/76 121/161/76
f 113/159/76 121/161/76 114/162/76
f 117/163/77 109/164/77 119/165/77
f 109/164/77 108/166/77 119/165/77
f 99/131/67 119/158/67 122/167/67
f 116/153/78 102/134/78 118/168/78
f 102/134/78 104/136/78 118/168/78
f 119/165/79 108/166/79 122/169/79
f 108/166/79 120/160/79 122/169/79
f 99/131/67 122/167/67 123/170/67
f 103/135/80 106/171/80 105/137/80
f 106/171/80 115/172/80 105/137/80
f 122/169/81 120/160/81 123/173/81
f 120/160/81 113/159/81 123/173/81
f 99/131/67 123/170/67 100/132/67
f 120/160/82 108/166/82 111/174/82
f 120/160/82 111/174/82 121/161/82
f 123/175/83 113/150/83 100/138/83
f 113/150/83 106/139/83 100/138/83
f 121/161/84 111/174/84 124/176/84
f 111/174/84 125/177/84 124/176/84
f 114/162/85 121/161/85 124/176/85
f 114/162/85 124/176/85 126/178/85
f 105/179/86 115/180/86 127/181/86
f 105/179/86 127/181/86 128/182/86
f 104/136/87 105/137/87 129/183/87
f 105/137/87 128/184/87 129/183/87
f 115/180/88 114/185/88 127/181/88
f 114/185/88 126/186/88 127/181/88
f 118/168/89 104/136/89 130/187/89
f 104/136/89 129/183/89 130/187/89
f 110/145/90 118/157/90 130/188/90
f 110/145/90 130/188/90 131/189/90
f 111/174/91 110/190/91 131/191/91
f 111/174/91 131/191/91 125/177/91
f 132/192/92 128/182/92 127/181/92
f 132/192/92 129/193/92 128/182/92
f 132/192/92 130/194/92 129/193/92
f 132/192/92 131/195/92 130/194/92
f 132/192/92 125/196/92 131/195/92
f 132/192/92 124/197/92 125/196/92
f 132/192/92 126/186/92 124/197/92
f 132/192/92 127/181/92 126/186/92
s off
g Plane.007
v -1.65809 8.84104 1.29645
v -1.68762 8.75101 1.6165
v -0.679349 8.86667 1.25723
v -0.499012 8.92584 1.19691
v -2.57217 8.66813 1.21063
v -2.62897 8.56178 1.59118
v -4.28429 7.82156 0.566372
v -4.16347 7.85107 0.665461
v -3.40478 8.35072 0.984858
v -3.43295 8.2618 1.29525
v -4.2634 7.8387 0.417757
v -4.38999 7.79645 0.469916
v -3.30512 8.20434 0.65737
v -3.31861 8.42143 0.37188
v -2.75879 8.67006 0.403414
v -2.46219 8.53021 0.809723
v -1.55707 8.69578 0.959298
v -1.56927 8.91393 0.664622
v -2.74812 8.61917 0.393955
v -2.64341 8.46015 0.776969
v -0.486003 8.93651 1.10438
v -0.409484 8.95544 1.16391
v -2.59034 8.67759 1.21133
v -1.50998 8.89678 0.352854
v -0.641693 8.89757 0.989353
v -2.78571 8.63232 0.014527
v -4.12169 7.88535 0.36823
v -3.26061 8.40322 0.069296
v -2.93483 8.56938 0.018113
v -2.78744 8.50432 1.53012
v -0.793246 9.05055 -0.264335
v -1.08693 8.93361 -0.371513
v -0.967021 8.97971 0.69739
v -0.953876 9.02569 0.890716
v -0.494845 8.98098 -1.1469
v -0.839494 8.84484 -1.29536
v 0.5939 8.3797 -2.73316
v 0.46857 8.38704 -2.63556
v -0.061263 8.7735 -1.93043
v -0.345997 8.65845 -2.03404
v 0.731608 8.40885 -2.67835
v 0.712938 8.37493 -2.8163
v 0.252171 8.64991 -1.77202
v 0.506726 8.89372 -1.70437
v 0.327761 9.07967 -1.14794
v -0.113384 8.87179 -0.961413
v -0.470861 8.92886 -0.102363
v -0.207795 9.17446 -0.031327
v 0.340582 9.0291 -1.13947
v -0.034793 8.82409 -1.13568
v -0.868132 9.04383 0.924842
v -0.944407 9.04902 0.987391
v -0.492751 8.99213 -1.16397
v 0.08397 9.18144 0.094504
v -0.718807 9.03225 0.796178
v 0.715125 9.08249 -1.09029
v 0.743986 8.44534 -2.52595
v 0.78998 8.8989 -1.58193
v 0.750788 9.03506 -1.24092
v -0.739766 8.81002 -1.44022
v -0.751449 10.4141 3.61455
v -1.04169 10.2839 3.7156
v -0.379725 10.6088 4.50002
v -0.271473 10.7041 4.63734
v -0.96047 10.1007 2.75962
v -1.31322 9.94291 2.85968
v -0.817588 9.05821 1.04038
v -0.872023 9.09596 1.18493
v -0.987674 9.67589 1.94493
v -1.26872 9.54809 2.04355
v -0.676153 9.09575 1.00292
v -0.761077 9.027 0.910226
v -0.626236 9.5874 1.93308
v -0.404309 9.83075 1.79044
v -0.281043 10.1648 2.28984
v -0.529163 10.0308 2.72926
v -0.380817 10.3281 3.60025
v -0.150148 10.5738 3.4553
v -0.260007 10.1179 2.30206
v -0.550033 9.93548 2.55809
v -0.183407 10.7275 4.61402
v -0.214947 10.752 4.70436
v -0.969032 10.1069 2.74202
v 0.160913 10.6031 3.3971
v -0.124791 10.6764 4.43251
v 0.074693 10.1685 2.12607
v -0.589151 9.17105 1.11002
v -0.101988 9.85781 1.73456
v 0.030249 10.0813 1.99708
v -1.30221 9.86705 2.69762
v 0.309021 8.88088 0.972563
v 0.378606 8.804 0.655292
v -0.666864 8.91014 0.889354
v -0.853353 8.96774 0.928917
v 1.20499 8.69963 1.16542
v 1.30925 8.6088 0.790942
v 2.82222 7.8179 1.9841
v 2.71484 7.85213 1.87191
v 2.00249 8.36866 1.48072
v 2.06951 8.29251 1.1729
v 2.78278 7.82899 2.12949
v 2.91492 7.78825 2.09196
v 1.86236 8.2094 1.78667
v 1.83982 8.41441 2.0804
v 1.28846 8.66716 1.98907
v 1.04537 8.54584 1.5432
v 0.166326 8.72233 1.28796
v 0.141348 8.92804 1.59068
v 1.27668 8.61598 1.99498
v 1.22101 8.47351 1.59554
v -0.87791 8.97465 1.01944
v -0.946319 8.99643 0.9516
v 1.22311 8.70901 1.16741
v 0.043262 8.89833 1.89152
v -0.737952 8.93013 1.15142
v 1.26619 8.61322 2.37634
v 2.63597 7.87432 2.16269
v 1.74417 8.38402 2.37225
v 1.41456 8.54967 2.38893
v 1.45876 8.54802 0.869007
v 1.7616 10.3409 1.62747
v 1.79832 10.2107 1.93259
v 2.70604 10.5356 1.45347
v 2.86331 10.6309 1.37706
v 0.881757 10.0275 1.64904
v 0.904151 9.86971 2.01502
v -0.767285 8.985 1.1422
v -0.63769 9.02275 1.22626
v 0.080063 9.60268 1.50159
v 0.11637 9.47488 1.79721
v -0.773665 9.02254 0.996026
v -0.882358 8.9538 1.05919
v 0.145688 9.51419 1.14596
v 0.053747 9.75754 0.898683
v 0.567956 10.0916 0.884943
v 0.94423 9.9576 1.2212
v 1.8268 10.2549 1.26234
v 1.73447 10.5006 1.00603
v 0.584383 10.0447 0.867002
v 0.772552 9.86227 1.20502
v 2.85934 10.6543 1.28604
v 2.94086 10.6788 1.33615
v 0.862736 10.0337 1.65365
v 1.74407 10.5299 0.689716
v 2.69454 10.6032 1.19
v 0.483957 10.0953 0.502434
v -0.65045 9.09785 0.933911
v 0.063738 9.7846 0.591404
v 0.348453 10.0081 0.518298
v 0.748183 9.79384 1.96965
v -0.254862 9.08433 0.318869
v -0.423748 8.97717 0.05165
v -0.929547 8.86809 0.99575
v -1.03198 8.88535 1.16567
v 0.492451 9.1532 -0.23753
v 0.306868 9.03187 -0.569486
v 2.33908 8.81993 -0.97374
v 2.18065 8.80966 -0.964875
v 1.30966 9.07449 -0.650979
v 1.14593 8.96889 -0.909992
v 2.4184 8.84412 -0.847485
v 2.48398 8.83046 -0.974148
v 1.49116 8.93677 -0.356529
v 1.63682 9.17423 -0.130226
v 1.15835 9.27153 0.241009
v 0.713133 9.02743 0.11929
v -0.068208 8.94819 0.621527
v 0.082357 9.18714 0.855632
v 1.16941 9.2206 0.249803
v 0.880399 9.00794 0.016994
v -0.982586 8.90041 1.24428
v -1.08085 8.89441 1.25232
v 0.502581 9.1668 -0.249052
v 0.250691 9.18279 1.12518
v -0.786576 8.91167 1.22332
v 1.44387 9.27551 0.509045
v 2.33928 8.85802 -0.712363
v 1.80025 9.16838 0.131515
v 1.56259 9.25173 0.401573
v 0.473651 9.02131 -0.634391
v -3.15672 10.3409 0.085341
v -3.12841 10.2107 -0.22068
v -4.11663 10.5356 0.056686
v -4.28646 10.6309 0.098297
v -2.29204 10.0275 0.249407
v -2.23692 9.86971 -0.113094
v -0.786591 8.985 1.09193
v -0.895594 9.02275 0.982479
v -1.53933 9.60268 0.562269
v -1.51261 9.47488 0.265624
v -0.811114 9.02254 1.23617
v -0.691563 8.9538 1.19729
v -1.67833 9.51419 0.896123
v -1.64048 9.75754 1.15721
v -2.14607 10.0916 1.06243
v -2.44315 9.9576 0.654516
v -3.29731 10.2549 0.428571
v -3.26098 10.5006 0.698571
v -2.1659 10.0447 1.07651
v -2.27872 9.86227 0.706459
v -4.30173 10.6543 0.188109
v -4.37088 10.6788 0.121967
v -2.27248 10.0337 0.248908
v -3.33693 10.5299 1.00578
v -4.16083 10.6032 0.316677
v -2.14445 10.0953 1.45405
v -0.944641 9.09785 1.27096
v -1.71492 9.7846 1.4555
v -2.00864 10.0081 1.46706
v -2.09399 9.79384 -0.035912
v -1.91199 9.2443 -1.49577
v -1.63659 9.13713 -1.65096
v -2.55396 9.02805 -2.20375
v -2.71849 9.04532 -2.31462
v -1.394 9.31316 -0.721339
v -1.0531 9.19183 -0.889937
v -0.751902 8.9799 1.16008
v -0.752762 8.96962 1.00141
v -1.02231 9.23445 0.115687
v -0.755368 9.12886 -0.034766
v -0.881999 9.00408 1.23293
v -0.758806 8.99042 1.30482
v -1.32554 9.09674 0.282098
v -1.55891 9.33419 0.416157
v -1.90553 9.4315 -0.080434
v -1.7615 9.1874 -0.518941
v -2.22368 9.10816 -1.32463
v -2.46508 9.34711 -1.18607
v -1.91487 9.38057 -0.069832
v -1.66778 9.16791 -0.346727
v -2.7995 9.06038 -2.26926
v -2.80258 9.05437 -2.36781
v -1.38301 9.32677 -0.71064
v -2.74277 9.34275 -1.03155
v -2.78846 9.07164 -2.07244
v -2.18763 9.43548 0.1912
v -1.01296 9.01799 1.1471
v -1.82856 9.32834 0.566174
v -2.08629 9.41169 0.315195
v -0.996698 9.18127 -0.72009
v 0.041149 9.17766 2.01261
v 0.316548 9.07049 1.85742
v -0.600829 8.96141 1.30463
v -0.765361 8.97868 1.19376
v 0.559133 9.24652 2.78704
v 0.90003 9.12519 2.61844
v 1.20123 8.91326 4.66847
v 1.20037 8.90298 4.50979
v 0.930823 9.16781 3.62407
v 1.19777 9.06222 3.47362
v 1.07114 8.93744 4.74132
v 1.19433 8.92378 4.8132
v 0.62759 9.0301 3.79048
v 0.394226 9.26755 3.92454
v 0.047605 9.36485 3.42795
v 0.191633 9.12076 2.98944
v -0.270541 9.04152 2.18375
v -0.511946 9.28047 2.32232
v 0.038264 9.31393 3.43855
v 0.285359 9.10126 3.16165
v -0.846366 8.99374 1.23912
v -0.849441 8.98773 1.14057
v 0.570129 9.26013 2.79774
v -0.789639 9.27611 2.47684
v -0.835324 9.005 1.43594
v -0.234496 9.36884 3.69958
v 0.940178 8.95134 4.65548
v 0.124572 9.2617 4.07455
v -0.133151 9.34505 3.82358
v 0.956437 9.11463 2.78829
v -0.785164 8.58916 2.29818
v -0.465431 8.49441 2.28384
v -0.864727 8.92152 1.37985
v -0.931674 9.03444 1.23009
v -0.835243 8.13734 3.11436
v -0.454162 8.01852 3.1181
v -1.4193 6.79493 4.49998
v -1.32493 6.86097 4.39035
v -1.03052 7.57402 3.814
v -0.72048 7.48075 3.79914
v -1.56841 6.81778 4.49208
v -1.51161 6.73784 4.59654
v -1.36386 7.46644 3.68783
v -1.64552 7.66825 3.7814
v -1.63389 8.08045 3.32733
v -1.24224 8.04105 2.98429
v -1.1282 8.48307 2.1715
v -1.41907 8.68629 2.26458
v -1.64448 8.0355 3.30164
v -1.26839 7.91752 3.13554
v -1.02452 9.04867 1.22517
v -0.967964 9.09072 1.15595
v -0.833652 8.1406 3.13454
v -1.73324 8.68868 2.21663
v -1.13348 8.9627 1.3656
v -2.0218 8.03615 3.35805
v -1.62314 6.90666 4.37454
v -1.95048 7.66922 3.73394
v -2.01288 7.92947 3.47951
v -0.509363 7.91411 3.25299
v -1.68553 8.40597 1.7965
v -1.53718 8.31122 2.08009
v -0.887233 8.73833 1.33564
v -0.779901 8.85125 1.21159
v -2.44616 7.95415 2.09666
v -2.28822 7.83533 2.44349
v -3.94875 6.61174 2.15412
v -3.80947 6.67778 2.19321
v -3.16268 7.39082 2.21593
v -3.01797 7.29756 2.49053
v -4.00471 6.63459 2.01569
v -4.07531 6.55465 2.11137
v -3.1895 7.28325 1.86052
v -3.39351 7.48506 1.64496
v -2.97721 7.89725 1.46327
v -2.50062 7.85786 1.67286
v -1.71598 8.29988 1.43209
v -1.92345 8.5031 1.20797
v -2.95842 7.8523 1.4428
v -2.64872 7.73432 1.71321
v -0.814746 8.86548 1.12539
v -0.728094 8.90753 1.14732
v -2.46377 7.95741 2.10664
v -2.01302 8.50549 0.903045
v -0.988105 8.77951 1.08612
v -3.16927 7.85296 1.12484
v -3.9214 6.72347 1.91634
v -3.47962 7.48603 1.34859
v -3.27552 7.74628 1.18434
v -2.43379 7.73092 2.45058
vn -0.01 0.9328 0.3604
vn -0.1998 0.9496 0.2416
vn -0.6033 0.7585 0.2465
vn -0.4147 0.7835 0.4629
vn -0.2615 0.8081 0.5279
vn -0.5742 0.6252 0.5286
vn -0.2537 0.8145 0.5217
vn -0.3121 0.8822 -0.3524
vn -0.1203 0.9149 -0.3854
vn -0.2085 0.8948 -0.3949
vn -0.1224 0.9276 -0.3529
vn 0.0682 0.9871 -0.1451
vn -0.1813 0.9797 -0.0851
vn -0.5382 0.8079 -0.24
vn -0.3767 0.9261 -0.0214
vn -0.2424 0.8696 -0.4301
vn -0.3486 0.7892 0.5056
vn -0.414 0.8833 0.2199
vn -0.456 0.8898 -0.0168
vn -0.3021 0.9373 -0.1735
vn -0.1987 0.7888 -0.5816
vn -0.4516 0.7735 -0.4446
vn -0.5503 0.776 -0.3084
vn -0.463 0.6267 -0.6267
vn -0.5467 0.7822 -0.299
vn 0.3058 0.9393 -0.1553
vn 0.2931 0.9552 0.0409
vn 0.3234 0.9452 -0.0441
vn 0.2605 0.9649 0.0326
vn 0.0114 0.9843 0.1762
vn 0.0073 0.9968 -0.0802
vn 0.2537 0.878 -0.4059
vn -0.0066 0.9575 -0.2885
vn 0.3678 0.9272 -0.0713
vn -0.5079 0.7683 -0.3896
vn -0.2277 0.8957 -0.3819
vn -0.4936 0.8695 0.0161
vn -0.4528 0.8678 -0.2047
vn -0.5652 0.6121 -0.5531
vn -0.7035 0.6433 -0.3023
vn -0.7144 0.6856 -0.1398
vn -0.7928 0.4538 -0.4069
vn -0.7071 0.694 -0.1357
vn 0.0675 0.8518 -0.5194
vn 0.159 0.9199 -0.3584
vn 0.1405 0.8865 -0.4409
vn 0.1261 0.9283 -0.3498
vn -0.0094 0.9945 -0.1043
vn -0.1502 0.9383 -0.3115
vn -0.1022 0.7279 -0.678
vn -0.2678 0.8455 -0.4621
vn 0.1654 0.8602 -0.4823
vn -0.7209 0.655 -0.2262
vn -0.496 0.7693 -0.4027
vn 0.0554 0.9468 -0.317
vn 0.2288 0.9577 -0.1747
vn 0.6296 0.7647 -0.1368
vn 0.4698 0.7997 -0.3739
vn 0.326 0.8278 -0.4566
vn 0.6363 0.6434 -0.4257
vn 0.3175 0.834 -0.4512
vn 0.2654 0.8652 0.4254
vn 0.071 0.8975 0.4353
vn 0.1572 0.8765 0.4549
vn 0.0772 0.9115 0.4039
vn -0.0858 0.9806 0.1765
vn 0.1693 0.9744 0.1481
vn 0.5038 0.7944 0.3393
vn 0.3711 0.9224 0.1072
vn 0.1865 0.8498 0.4931
vn 0.4096 0.8075 -0.4244
vn 0.4385 0.8894 -0.129
vn -0.0897 0.8695 0.4857
vn -0.2967 0.8678 0.3986
vn -0.661 0.6121 0.434
vn -0.4455 0.6433 0.6227
vn -0.2892 0.6856 0.668
vn -0.5669 0.4538 0.6875
vn -0.2836 0.694 0.6618
vn -0.493 0.8518 -0.1769
vn -0.3162 0.9199 -0.2319
vn -0.4007 0.8865 -0.2314
vn -0.3148 0.9283 -0.1979
vn -0.1039 0.9945 -0.0131
vn -0.3364 0.9383 0.0802
vn -0.6842 0.7279 -0.045
vn -0.5086 0.8455 0.1629
vn -0.4358 0.8602 -0.2647
vn -0.375 0.655 0.656
vn -0.4993 0.7693 0.3985
vn -0.458 0.8709 -0.1783
vn -0.2488 0.9448 -0.2131
vn 0.0806 0.8608 -0.5026
vn -0.2024 0.8191 -0.5368
vn -0.3601 0.7989 -0.4817
vn -0.0943 0.7005 -0.7074
vn -0.363 0.8038 -0.4714
vn 0.2402 0.9593 0.1484
vn 0.118 0.9457 0.3027
vn 0.1916 0.9492 0.2496
vn 0.0949 0.9558 0.2784
vn -0.1923 0.9475 0.2555
vn -0.0531 0.9975 0.0456
vn 0.3443 0.9343 -0.0921
vn 0.0563 0.9891 -0.1363
vn 0.2452 0.9365 0.2508
vn -0.2789 0.8044 -0.5246
vn -0.0664 0.9363 -0.345
vn 0.1899 0.8695 -0.4559
vn 0.374 0.8678 -0.3273
vn 0.7376 0.6121 -0.2852
vn 0.5666 0.6433 -0.5149
vn 0.4233 0.6856 -0.5922
vn 0.6989 0.4538 -0.5528
vn 0.4165 0.694 -0.5873
vn 0.4448 0.8518 0.2767
vn 0.2603 0.9199 0.2932
vn 0.343 0.8865 0.3106
vn 0.2661 0.9283 0.2597
vn 0.0988 0.9945 0.0347
vn 0.3457 0.9383 -0.0076
vn 0.6594 0.7279 0.188
vn 0.5315 0.8455 -0.0522
vn 0.3704 0.8602 0.3504
vn 0.5047 0.655 -0.5624
vn 0.572 0.7693 -0.2845
vn 0.2012 0.8709 -0.4484
vn 0.2254 0.9448 -0.2377
vn 0.4978 0.8608 0.1059
vn 0.5463 0.8191 -0.175
vn 0.4993 0.7989 -0.3353
vn 0.7112 0.7005 -0.0584
vn 0.4891 0.8038 -0.3388
vn -0.1603 0.9593 0.2324
vn -0.3083 0.9457 0.1026
vn -0.259 0.9492 0.1788
vn -0.2829 0.9558 0.0807
vn -0.2455 0.9475 -0.2049
vn -0.0428 0.9975 -0.0554
vn 0.0746 0.9343 0.3485
vn 0.1333 0.9891 0.0631
vn -0.2629 0.9365 0.2322
vn 0.538 0.8044 -0.2521
vn 0.3479 0.9363 -0.0489
vn -0.2454 0.9475 -0.2049
vn 0.3733 0.8822 0.2869
vn 0.2627 0.8384 0.4775
vn 0.2819 0.53 0.7998
vn 0.4905 0.6131 0.6193
vn 0.5494 0.6847 0.4789
vn 0.5607 0.4127 0.7179
vn 0.543 0.6933 0.4738
vn -0.3269 0.7392 0.5888
vn -0.3674 0.8305 0.4187
vn -0.3735 0.7837 0.4963
vn -0.3347 0.8419 0.4233
vn -0.1342 0.9584 0.252
vn -0.064 0.8729 0.4837
vn -0.2062 0.5975 0.7749
vn 0.0071 0.7605 0.6493
vn -0.4076 0.7491 0.5222
vn 0.5306 0.6393 0.5566
vn 0.2491 0.7081 0.6607
vn -0.1019 0.8822 0.4597
vn -0.3213 0.8384 0.4402
vn -0.6052 0.53 0.5939
vn -0.3534 0.6131 0.7065
vn -0.2013 0.6847 0.7005
vn -0.413 0.4127 0.8119
vn -0.1994 0.6933 0.6925
vn -0.6719 0.7392 -0.0469
vn -0.5349 0.8305 -0.1556
vn -0.6078 0.7837 -0.1282
vn -0.5251 0.8419 -0.124
vn -0.2852 0.9584 -0.0149
vn -0.4653 0.8729 0.1468
vn -0.7894 0.5975 0.1412
vn -0.5853 0.7605 0.2813
vn -0.6456 0.7491 -0.1482
vn -0.2796 0.6393 0.7163
vn -0.4931 0.7081 0.5054
vt 0.411648 0.075761
vt 0.396055 0.074308
vt 0.424436 0.032449
vt 0.429546 0.024427
vt 0.404518 0.119591
vt 0.385742 0.118818
vt 0.410536 0.214201
vt 0.407469 0.207253
vt 0.403936 0.163339
vt 0.388809 0.161929
vt 0.417718 0.214869
vt 0.413674 0.220389
vt 0.419323 0.16476
vt 0.433558 0.166093
vt 0.439694 0.1377
vt 0.423454 0.121342
vt 0.427503 0.077226
vt 0.442181 0.0786
vt 0.439963 0.137986
vt 0.422566 0.130677
vt 0.434017 0.024843
vt 0.432225 0.020479
vt 0.404338 0.12027
vt 0.457121 0.079987
vt 0.437381 0.033653
vt 0.457121 0.144116
vt 0.421832 0.208589
vt 0.448054 0.167439
vt 0.454952 0.151492
vt 0.386482 0.127328
vt 0.790985 0.70841
vt 0.806742 0.706569
vt 0.790248 0.755186
vt 0.787162 0.763868
vt 0.787162 0.664928
vt 0.805862 0.661703
vt 0.020479 0.789357
vt 0.023128 0.796104
vt 0.023591 0.833689
vt 0.038698 0.83666
vt 0.640395 0.026128
vt 0.643905 0.020479
vt 0.64307 0.072371
vt 0.628031 0.069824
vt 0.624241 0.096183
vt 0.64266 0.112716
vt 0.643081 0.156225
vt 0.627597 0.153686
vt 0.624157 0.09671
vt 0.642748 0.104042
vt 0.641721 0.207469
vt 0.643905 0.211402
vt 0.746177 0.444037
vt 0.743132 0.439563
vt 0.744279 0.391588
vt 0.726532 0.392049
vt 0.742341 0.350596
vt 0.721658 0.351895
vt 0.726636 0.312429
vt 0.744769 0.311857
vt 0.742758 0.359409
vt 0.721185 0.352314
vt 0.74428 0.265691
vt 0.746177 0.261347
vt 0.612839 0.154783
vt 0.637565 0.199502
vt 0.606546 0.092791
vt 0.827536 0.211952
vt 0.826447 0.219322
vt 0.815148 0.167697
vt 0.827536 0.161908
vt 0.613717 0.070912
vt 0.608088 0.085832
vt 0.020479 0.873102
vt 0.038865 0.86866
vt 0.401497 0.780543
vt 0.385741 0.78222
vt 0.402238 0.734113
vt 0.405324 0.725701
vt 0.405324 0.822927
vt 0.386624 0.825954
vt 0.8477 0.794282
vt 0.8503 0.800847
vt 0.850944 0.835858
vt 0.865938 0.839271
vt 0.389255 0.679296
vt 0.385742 0.684743
vt 0.386509 0.635118
vt 0.401412 0.638498
vt 0.405144 0.613448
vt 0.386859 0.59658
vt 0.386511 0.554167
vt 0.401859 0.557539
vt 0.405269 0.612689
vt 0.386784 0.604865
vt 0.387928 0.504408
vt 0.385742 0.500614
vt 0.680228 0.461727
vt 0.67796 0.455684
vt 0.677274 0.406106
vt 0.6607 0.405703
vt 0.674476 0.362723
vt 0.655715 0.362143
vt 0.661074 0.317906
vt 0.677937 0.318333
vt 0.675078 0.37205
vt 0.655111 0.362855
vt 0.678815 0.265404
vt 0.680228 0.261347
vt 0.416673 0.556222
vt 0.392088 0.512093
vt 0.422897 0.616461
vt 0.914884 0.908129
vt 0.91309 0.914687
vt 0.906933 0.866085
vt 0.917929 0.866085
vt 0.415781 0.637189
vt 0.421367 0.623092
vt 0.8477 0.873427
vt 0.865975 0.869889
vt 0.860273 0.401945
vt 0.874391 0.396659
vt 0.874331 0.444173
vt 0.874391 0.452091
vt 0.403912 0.910021
vt 0.385742 0.910201
vt 0.403912 0.867506
vt 0.388602 0.866912
vt 0.862657 0.598326
vt 0.859713 0.591333
vt 0.861492 0.545873
vt 0.846683 0.544244
vt 0.255624 0.632818
vt 0.252459 0.638296
vt 0.254806 0.582713
vt 0.271843 0.582359
vt 0.276662 0.553698
vt 0.256578 0.539263
vt 0.254488 0.4965
vt 0.271926 0.496183
vt 0.275787 0.554397
vt 0.256197 0.548604
vt 0.254429 0.445379
vt 0.252459 0.441095
vt 0.148941 0.745666
vt 0.145884 0.741106
vt 0.147673 0.693089
vt 0.1299 0.693165
vt 0.146232 0.651988
vt 0.125461 0.652829
vt 0.130774 0.613377
vt 0.148941 0.613199
vt 0.146542 0.660824
vt 0.124998 0.653242
vt 0.847196 0.413723
vt 0.874283 0.456069
vt 0.787135 0.318886
vt 0.802147 0.321036
vt 0.80309 0.366641
vt 0.806239 0.374749
vt 0.788885 0.261347
vt 0.806239 0.268211
vt 0.343399 0.590362
vt 0.342341 0.597731
vt 0.330879 0.546125
vt 0.343399 0.540315
vt 0.283746 0.583994
vt 0.289921 0.567726
vt 0.862657 0.502684
vt 0.844958 0.509528
vt 0.410787 0.317478
vt 0.396049 0.315538
vt 0.425113 0.273141
vt 0.429995 0.265235
vt 0.403548 0.36145
vt 0.385742 0.360128
vt 0.414006 0.453474
vt 0.410916 0.446537
vt 0.404287 0.404455
vt 0.390005 0.402564
vt 0.42103 0.454223
vt 0.417155 0.459657
vt 0.421105 0.404973
vt 0.433255 0.407545
vt 0.438148 0.379854
vt 0.423836 0.362338
vt 0.428062 0.318045
vt 0.440646 0.320662
vt 0.438899 0.379847
vt 0.423249 0.371504
vt 0.434368 0.265702
vt 0.432558 0.261347
vt 0.403248 0.362203
vt 0.455766 0.321907
vt 0.437773 0.274491
vt 0.455766 0.386125
vt 0.424963 0.448035
vt 0.447942 0.408743
vt 0.453902 0.39333
vt 0.386701 0.368514
vt 0.184683 0.512671
vt 0.200253 0.511442
vt 0.18214 0.559395
vt 0.178957 0.567981
vt 0.18173 0.468932
vt 0.200253 0.466434
vt 0.307353 0.891465
vt 0.30678 0.885493
vt 0.32088 0.845794
vt 0.30678 0.840595
vt 0.025244 0.677557
vt 0.026128 0.671016
vt 0.047502 0.718921
vt 0.033542 0.722239
vt 0.143381 0.459523
vt 0.163031 0.473913
vt 0.169053 0.517262
vt 0.154284 0.516537
vt 0.452118 0.725701
vt 0.453994 0.742613
vt 0.446281 0.742613
vt 0.450351 0.726283
vt 0.174505 0.568547
vt 0.177231 0.572242
vt 0.031842 0.674656
vt 0.060758 0.710271
vt 0.161817 0.465225
vt 0.181742 0.468066
vt 0.139454 0.519174
vt 0.169251 0.561034
vt 0.124998 0.457991
vt 0.265822 0.88765
vt 0.265092 0.894054
vt 0.252459 0.846806
vt 0.265822 0.840595
vt 0.020479 0.728797
vt 0.041328 0.7484
vt 0.02183 0.744622
vt 0.802851 0.460206
vt 0.787135 0.458808
vt 0.787135 0.415706
vt 0.804889 0.425919
vt 0.060758 0.74808
vt 0.720852 0.874988
vt 0.735824 0.877307
vt 0.720852 0.91515
vt 0.738439 0.909785
vt 0.736651 0.787299
vt 0.720852 0.789065
vt 0.736784 0.7439
vt 0.739998 0.735107
vt 0.739998 0.830989
vt 0.721268 0.834031
vt 0.673618 0.838885
vt 0.670738 0.831867
vt 0.671474 0.787298
vt 0.656124 0.785615
vt 0.500139 0.455742
vt 0.496724 0.461531
vt 0.498289 0.405477
vt 0.514559 0.405068
vt 0.518907 0.376101
vt 0.499349 0.361717
vt 0.498132 0.317879
vt 0.514835 0.317478
vt 0.51854 0.376552
vt 0.499121 0.371125
vt 0.498849 0.265554
vt 0.496724 0.261347
vt 0.746204 0.69415
vt 0.743506 0.689311
vt 0.743763 0.639785
vt 0.726382 0.640913
vt 0.741377 0.597341
vt 0.721395 0.599202
vt 0.726621 0.557338
vt 0.744344 0.556114
vt 0.74189 0.606466
vt 0.720852 0.599732
vt 0.744523 0.507143
vt 0.746204 0.502684
vt 0.330879 0.441095
vt 0.343684 0.448642
vt 0.330879 0.490837
vt 0.331673 0.499357
vt 0.535646 0.381391
vt 0.528718 0.317949
vt 0.880219 0.211149
vt 0.879006 0.218552
vt 0.868494 0.16657
vt 0.880219 0.161908
vt 0.528009 0.405531
vt 0.534004 0.388945
vt 0.673618 0.744099
vt 0.655111 0.750869
vt 0.830701 0.074267
vt 0.815939 0.075284
vt 0.829293 0.029216
vt 0.832601 0.020479
vt 0.832601 0.118753
vt 0.815148 0.120951
vt 0.124998 0.786623
vt 0.12793 0.793244
vt 0.125753 0.835695
vt 0.140149 0.835871
vt 0.676893 0.508648
vt 0.679895 0.502684
vt 0.677218 0.558332
vt 0.660078 0.558316
vt 0.655111 0.587043
vt 0.675142 0.601712
vt 0.677607 0.64615
vt 0.660086 0.646147
vt 0.65621 0.586906
vt 0.675589 0.592386
vt 0.678027 0.699032
vt 0.679895 0.703142
vt 0.684863 0.020479
vt 0.688209 0.02649
vt 0.68612 0.075593
vt 0.703812 0.075395
vt 0.687521 0.118554
vt 0.708439 0.118527
vt 0.703858 0.16286
vt 0.685741 0.163035
vt 0.68722 0.109318
vt 0.708823 0.117775
vt 0.686948 0.215943
vt 0.684863 0.219986
vt 0.311118 0.743538
vt 0.325706 0.744971
vt 0.325638 0.790797
vt 0.328819 0.799638
vt 0.311903 0.679254
vt 0.328819 0.685743
vt 0.800714 0.811546
vt 0.803211 0.804825
vt 0.803417 0.852894
vt 0.789202 0.853955
vt 0.803417 0.881147
vt 0.787162 0.870117
vt 0.124998 0.878245
vt 0.142138 0.869851
vt 0.592156 0.796944
vt 0.577394 0.797962
vt 0.590748 0.751893
vt 0.594056 0.743156
vt 0.594056 0.841431
vt 0.576603 0.843628
vt 0.8477 0.661703
vt 0.850632 0.668323
vt 0.848455 0.710775
vt 0.86285 0.710951
vt 0.518505 0.508452
vt 0.521507 0.502489
vt 0.518831 0.558137
vt 0.50169 0.558121
vt 0.496724 0.586847
vt 0.516755 0.601517
vt 0.51922 0.645955
vt 0.501698 0.645951
vt 0.497822 0.586711
vt 0.517201 0.592191
vt 0.519639 0.698837
vt 0.521507 0.702946
vt 0.576603 0.502691
vt 0.57995 0.508702
vt 0.577861 0.557805
vt 0.595553 0.557607
vt 0.579262 0.600766
vt 0.60018 0.600739
vt 0.595599 0.645072
vt 0.577482 0.645247
vt 0.57896 0.59153
vt 0.600563 0.599987
vt 0.578688 0.698156
vt 0.576603 0.702199
vt 0.252459 0.743538
vt 0.267047 0.744971
vt 0.266979 0.790797
vt 0.27016 0.799638
vt 0.253244 0.679254
vt 0.27016 0.685743
vt 0.88711 0.027199
vt 0.889608 0.020479
vt 0.889814 0.068548
vt 0.875599 0.069608
vt 0.889814 0.096801
vt 0.873558 0.085771
vt 0.8477 0.753325
vt 0.86484 0.744931
vt 0.512404 0.795902
vt 0.496977 0.796883
vt 0.511677 0.752529
vt 0.514986 0.743904
vt 0.514986 0.83972
vt 0.496724 0.841831
vt 0.865133 0.355701
vt 0.862191 0.348782
vt 0.863759 0.304526
vt 0.848779 0.303319
vt 0.579824 0.455961
vt 0.576603 0.461734
vt 0.578817 0.405701
vt 0.595771 0.405547
vt 0.60052 0.376639
vt 0.580466 0.361962
vt 0.578527 0.318
vt 0.595889 0.317857
vt 0.599734 0.377048
vt 0.580111 0.371366
vt 0.578607 0.265572
vt 0.576603 0.261347
vt 0.774191 0.198772
vt 0.770943 0.192745
vt 0.772696 0.150934
vt 0.754929 0.151269
vt 0.771095 0.113727
vt 0.750198 0.113278
vt 0.754938 0.072774
vt 0.773116 0.072542
vt 0.771439 0.121726
vt 0.74978 0.114147
vt 0.772168 0.023683
vt 0.774191 0.020479
vt 0.804001 0.560822
vt 0.789762 0.557774
vt 0.790328 0.51131
vt 0.787162 0.502684
vt 0.803699 0.620745
vt 0.787162 0.612667
vt 0.583045 0.449428
vt 0.607991 0.406058
vt 0.614154 0.389542
vt 0.865133 0.261347
vt 0.847196 0.268668
vt 0.053616 0.323265
vt 0.039676 0.318048
vt 0.074984 0.281754
vt 0.080949 0.275178
vt 0.039625 0.364539
vt 0.022608 0.359273
vt 0.036671 0.451731
vt 0.034715 0.444492
vt 0.033981 0.405151
vt 0.020479 0.400071
vt 0.043405 0.453846
vt 0.038799 0.458262
vt 0.05077 0.407515
vt 0.061756 0.413875
vt 0.208833 0.865953
vt 0.191022 0.857983
vt 0.189899 0.820924
vt 0.206574 0.818421
vt 0.207091 0.864987
vt 0.189899 0.86511
vt 0.19119 0.776883
vt 0.189981 0.774504
vt 0.059741 0.367947
vt 0.070843 0.325766
vt 0.057812 0.376454
vt 0.039182 0.365309
vt 0.084041 0.271976
vt 0.209246 0.670726
vt 0.194193 0.668871
vt 0.193029 0.621941
vt 0.189899 0.613199
vt 0.207288 0.733546
vt 0.189899 0.726653
vt 0.048183 0.448722
vt 0.076029 0.417519
vt 0.07142 0.388745
vt 0.084041 0.404459
vt 0.022298 0.36737
usemtl 
f 133/198/93 134/199/93 135/200/93
f 133/198/93 135/200/93 136/201/93
f 137/202/94 138/203/94 133/198/94
f 138/203/94 134/199/94 133/198/94
f 139/204/95 140/205/95 141/206/95
f 140/205/95 142/207/95 141/206/95
f 143/208/96 144/209/96 145/210/96
f 143/208/96 145/210/96 146/211/96
f 147/212/97 148/213/97 149/214/97
f 147/212/97 149/214/97 150/215/97
f 151/216/98 152/217/98 148/213/98
f 151/216/98 148/213/98 147/212/98
f 150/215/99 149/214/99 153/218/99
f 149/214/99 154/219/99 153/218/99
f 144/209/100 139/204/100 145/210/100
f 139/204/100 141/206/100 145/210/100
f 148/213/101 137/202/101 133/198/101
f 148/213/101 133/198/101 149/214/101
f 152/217/102 155/220/102 137/202/102
f 152/217/102 137/202/102 148/213/102
f 149/214/103 133/198/103 136/201/103
f 149/214/103 136/201/103 154/219/103
f 156/221/104 150/215/104 157/222/104
f 150/215/104 153/218/104 157/222/104
f 158/223/105 147/212/105 150/215/105
f 158/223/105 150/215/105 156/221/105
f 159/224/106 143/208/106 146/211/106
f 159/224/106 146/211/106 160/225/106
f 160/225/107 146/211/107 151/216/107
f 160/225/107 151/216/107 161/226/107
f 145/210/108 141/206/108 155/220/108
f 145/210/108 155/220/108 152/217/108
f 146/211/109 145/210/109 152/217/109
f 146/211/109 152/217/109 151/216/109
f 141/206/110 142/207/110 155/220/110
f 142/207/110 162/227/110 155/220/110
f 163/228/111 164/229/111 165/230/111
f 163/228/111 165/230/111 166/231/111
f 167/232/112 168/233/112 163/228/112
f 168/233/112 164/229/112 163/228/112
f 169/234/113 170/235/113 171/236/113
f 170/235/113 172/237/113 171/236/113
f 173/238/114 174/239/114 175/240/114
f 173/238/114 175/240/114 176/241/114
f 177/242/115 178/243/115 179/244/115
f 177/242/115 179/244/115 180/245/115
f 181/246/116 182/247/116 178/243/116
f 181/246/116 178/243/116 177/242/116
f 180/245/117 179/244/117 183/248/117
f 179/244/117 184/249/117 183/248/117
f 174/250/118 169/251/118 175/252/118
f 169/251/118 171/253/118 175/252/118
f 178/254/119 167/255/119 163/256/119
f 178/254/119 163/256/119 179/257/119
f 182/258/120 185/259/120 167/255/120
f 182/258/120 167/255/120 178/254/120
f 179/257/121 163/256/121 166/260/121
f 179/257/121 166/260/121 184/261/121
f 186/262/122 180/245/122 187/263/122
f 180/245/122 183/248/122 187/263/122
f 188/264/123 177/242/123 180/245/123
f 188/264/123 180/245/123 186/262/123
f 189/265/124 173/266/124 176/267/124
f 189/265/124 176/267/124 190/268/124
f 190/269/125 176/241/125 181/246/125
f 190/269/125 181/246/125 191/270/125
f 175/252/126 171/253/126 185/259/126
f 175/252/126 185/259/126 182/258/126
f 176/241/127 175/240/127 182/247/127
f 176/241/127 182/247/127 181/246/127
f 171/236/128 172/237/128 185/271/128
f 172/237/128 192/272/128 185/271/128
f 193/273/129 194/274/129 195/275/129
f 193/273/129 195/275/129 196/276/129
f 197/277/130 198/278/130 193/273/130
f 198/278/130 194/274/130 193/273/130
f 199/279/131 200/280/131 201/281/131
f 200/280/131 202/282/131 201/281/131
f 203/283/132 204/284/132 205/285/132
f 203/283/132 205/285/132 206/286/132
f 207/287/133 208/288/133 209/289/133
f 207/287/133 209/289/133 210/290/133
f 211/291/134 212/292/134 208/288/134
f 211/291/134 208/288/134 207/287/134
f 210/290/135 209/289/135 213/293/135
f 209/289/135 214/294/135 213/293/135
f 204/295/136 199/296/136 205/297/136
f 199/296/136 201/298/136 205/297/136
f 208/299/137 197/300/137 193/301/137
f 208/299/137 193/301/137 209/302/137
f 212/303/138 215/304/138 197/300/138
f 212/303/138 197/300/138 208/299/138
f 209/302/139 193/301/139 196/305/139
f 209/302/139 196/305/139 214/306/139
f 216/307/140 210/290/140 217/308/140
f 210/290/140 213/293/140 217/308/140
f 218/309/141 207/287/141 210/290/141
f 218/309/141 210/290/141 216/307/141
f 219/310/142 203/311/142 206/312/142
f 219/310/142 206/312/142 220/313/142
f 220/314/143 206/286/143 211/291/143
f 220/314/143 211/291/143 221/315/143
f 205/297/144 201/298/144 215/304/144
f 205/297/144 215/304/144 212/303/144
f 206/286/145 205/285/145 212/292/145
f 206/286/145 212/292/145 211/291/145
f 201/281/146 202/282/146 215/316/146
f 202/282/146 222/317/146 215/316/146
f 223/318/147 224/319/147 225/320/147
f 223/318/147 225/320/147 226/321/147
f 227/322/148 228/323/148 223/324/148
f 228/323/148 224/325/148 223/324/148
f 229/326/149 230/327/149 231/328/149
f 230/327/149 232/329/149 231/328/149
f 233/330/150 234/331/150 235/332/150
f 233/330/150 235/332/150 236/333/150
f 237/334/151 238/335/151 239/336/151
f 237/334/151 239/336/151 240/337/151
f 241/338/152 242/339/152 238/335/152
f 241/338/152 238/335/152 237/334/152
f 240/337/153 239/336/153 243/340/153
f 239/336/153 244/341/153 243/340/153
f 234/342/154 229/343/154 235/344/154
f 229/343/154 231/345/154 235/344/154
f 238/346/155 227/347/155 223/348/155
f 238/346/155 223/348/155 239/349/155
f 242/350/156 245/351/156 227/347/156
f 242/350/156 227/347/156 238/346/156
f 239/352/157 223/318/157 226/321/157
f 239/352/157 226/321/157 244/353/157
f 246/354/158 240/355/158 247/356/158
f 240/355/158 243/357/158 247/356/158
f 248/358/159 237/359/159 240/355/159
f 248/358/159 240/355/159 246/354/159
f 249/360/160 233/361/160 236/362/160
f 249/360/160 236/362/160 250/363/160
f 250/364/161 236/333/161 241/338/161
f 250/364/161 241/338/161 251/365/161
f 235/344/162 231/345/162 245/351/162
f 235/344/162 245/351/162 242/350/162
f 236/333/163 235/332/163 242/339/163
f 236/333/163 242/339/163 241/338/163
f 231/328/164 232/329/164 245/366/164
f 232/329/164 252/367/164 245/366/164
f 253/368/165 254/369/165 255/370/165
f 253/368/165 255/370/165 256/371/165
f 257/372/166 258/373/166 253/368/166
f 258/373/166 254/369/166 253/368/166
f 259/374/167 260/375/167 261/376/167
f 260/375/167 262/377/167 261/376/167
f 263/378/168 264/379/168 265/380/168
f 263/378/168 265/380/168 266/381/168
f 267/382/169 268/383/169 269/384/169
f 267/382/169 269/384/169 270/385/169
f 271/386/170 272/387/170 268/383/170
f 271/386/170 268/383/170 267/382/170
f 270/385/171 269/384/171 273/388/171
f 269/384/171 274/389/171 273/388/171
f 264/379/172 259/374/172 265/380/172
f 259/374/172 261/376/172 265/380/172
f 268/383/173 257/372/173 253/368/173
f 268/383/173 253/368/173 269/384/173
f 272/387/174 275/390/174 257/372/174
f 272/387/174 257/372/174 268/383/174
f 269/384/175 253/368/175 256/371/175
f 269/384/175 256/371/175 274/389/175
f 276/391/176 270/385/176 277/392/176
f 270/385/176 273/388/176 277/392/176
f 278/393/177 267/382/177 270/385/177
f 278/393/177 270/385/177 276/391/177
f 279/394/178 263/378/178 266/381/178
f 279/394/178 266/381/178 280/395/178
f 280/395/179 266/381/179 271/386/179
f 280/395/179 271/386/179 281/396/179
f 265/380/180 261/376/180 275/390/180
f 265/380/180 275/390/180 272/387/180
f 266/381/181 265/380/181 272/387/181
f 266/381/181 272/387/181 271/386/181
f 261/376/182 262/377/182 275/390/182
f 262/377/182 282/397/182 275/390/182
f 283/398/183 284/399/183 285/400/183
f 283/398/183 285/400/183 286/401/183
f 287/402/184 288/403/184 283/398/184
f 288/403/184 284/399/184 283/398/184
f 289/404/185 290/405/185 291/406/185
f 290/405/185 292/407/185 291/406/185
f 293/408/186 294/409/186 295/410/186
f 293/408/186 295/410/186 296/411/186
f 297/412/187 298/413/187 299/414/187
f 297/412/187 299/414/187 300/415/187
f 301/416/188 302/417/188 298/418/188
f 301/416/188 298/418/188 297/419/188
f 300/415/189 299/414/189 303/420/189
f 299/414/189 304/421/189 303/420/189
f 294/409/190 289/422/190 295/410/190
f 289/422/190 291/423/190 295/410/190
f 298/413/191 287/402/191 283/398/191
f 298/413/191 283/398/191 299/414/191
f 302/424/192 305/425/192 287/402/192
f 302/424/192 287/402/192 298/413/192
f 299/414/193 283/398/193 286/401/193
f 299/414/193 286/401/193 304/421/193
f 306/426/194 300/415/194 307/427/194
f 300/415/194 303/420/194 307/427/194
f 308/428/195 297/412/195 300/415/195
f 308/428/195 300/415/195 306/426/195
f 309/429/196 293/430/196 296/431/196
f 309/429/196 296/431/196 310/432/196
f 310/433/197 296/411/197 301/434/197
f 310/433/197 301/434/197 311/435/197
f 295/436/198 291/437/198 305/438/198
f 295/436/198 305/438/198 302/439/198
f 296/411/199 295/410/199 302/440/199
f 296/411/199 302/440/199 301/434/199
f 291/441/200 292/442/200 305/443/200
f 292/442/200 312/444/200 305/443/200
f 313/445/201 314/446/201 315/447/201
f 313/445/201 315/447/201 316/448/201
f 317/449/202 318/450/202 313/445/202
f 318/450/202 314/446/202 313/445/202
f 319/451/203 320/452/203 321/453/203
f 320/452/203 322/454/203 321/453/203
f 323/455/204 324/456/204 325/457/204
f 323/455/204 325/457/204 326/458/204
f 327/459/205 328/460/205 329/461/205
f 327/459/205 329/461/205 330/462/205
f 331/463/206 332/464/206 328/460/206
f 331/463/206 328/460/206 327/459/206
f 330/462/207 329/461/207 333/465/207
f 329/461/207 334/466/207 333/465/207
f 324/467/208 319/468/208 325/469/208
f 319/468/208 321/470/208 325/469/208
f 328/471/209 317/472/209 313/473/209
f 328/471/209 313/473/209 329/474/209
f 332/475/210 335/476/210 317/472/210
f 332/475/210 317/472/210 328/471/210
f 329/474/211 313/473/211 316/477/211
f 329/474/211 316/477/211 334/478/211
f 336/479/212 330/480/212 337/481/212
f 330/480/212 333/482/212 337/481/212
f 338/483/213 327/459/213 330/462/213
f 338/483/213 330/462/213 336/484/213
f 339/485/214 323/486/214 326/487/214
f 339/485/214 326/487/214 340/488/214
f 340/489/215 326/458/215 331/463/215
f 340/489/215 331/463/215 341/490/215
f 325/469/216 321/470/216 335/476/216
f 325/469/216 335/476/216 332/475/216
f 326/458/217 325/457/217 332/464/217
f 326/458/217 332/464/217 331/463/217
f 321/453/218 322/454/218 335/491/218
f 322/454/218 342/492/218 335/491/218
f 343/493/219 344/494/219 345/495/219
f 343/493/219 345/495/219 346/496/219
f 347/497/220 348/498/220 343/493/220
f 348/498/220 344/494/220 343/493/220
f 349/499/221 350/500/221 351/501/221
f 350/500/221 352/502/221 351/501/221
f 353/503/222 354/504/222 355/505/222
f 353/503/222 355/505/222 356/506/222
f 357/507/223 358/508/223 359/509/223
f 357/507/223 359/509/223 360/510/223
f 361/511/224 362/512/224 358/508/224
f 361/511/224 358/508/224 357/507/224
f 360/510/225 359/509/225 363/513/225
f 359/509/225 364/514/225 363/513/225
f 354/515/226 349/516/226 355/517/226
f 349/516/226 351/518/226 355/517/226
f 358/519/227 347/520/227 343/521/227
f 358/519/227 343/521/227 359/522/227
f 362/523/228 365/524/228 347/520/228
f 362/523/228 347/520/228 358/519/228
f 359/522/229 343/521/229 346/525/229
f 359/522/229 346/525/229 364/526/229
f 366/527/230 360/528/230 367/529/230
f 360/528/230 363/530/230 367/529/230
f 368/531/231 357/532/231 360/528/231
f 368/531/231 360/528/231 366/527/231
f 369/533/232 353/534/232 356/535/232
f 369/533/232 356/535/232 370/536/232
f 370/536/233 356/535/233 361/537/233
f 370/536/233 361/537/233 371/538/233
f 355/517/234 351/518/234 365/524/234
f 355/517/234 365/524/234 362/523/234
f 356/506/235 355/505/235 362/512/235
f 356/506/235 362/512/235 361/511/235
f 351/501/236 352/502/236 365/539/236
f 352/502/236 372/540/236 365/539/236
f 373/541/219 374/542/219 375/543/219
f 373/541/219 375/543/219 376/544/219
f 377/545/220 378/546/220 373/541/220
f 378/546/220 374/542/220 373/541/220
f 379/547/221 380/548/221 381/549/221
f 380/548/221 382/550/221 381/549/221
f 383/551/222 384/552/222 385/553/222
f 383/551/222 385/553/222 386/554/222
f 387/555/223 388/556/223 389/557/223
f 387/555/223 389/557/223 390/558/223
f 391/559/224 392/560/224 388/556/224
f 391/559/224 388/556/224 387/555/224
f 390/558/225 389/557/225 393/561/225
f 389/557/225 394/562/225 393/561/225
f 384/563/226 379/564/226 385/565/226
f 379/564/226 381/566/226 385/565/226
f 388/567/227 377/568/227 373/569/227
f 388/567/227 373/569/227 389/570/227
f 392/571/228 395/572/228 377/568/228
f 392/571/228 377/568/228 388/567/228
f 389/570/229 373/569/229 376/573/229
f 389/570/229 376/573/229 394/574/229
f 396/575/237 390/576/237 397/577/237
f 390/576/237 393/578/237 397/577/237
f 398/579/231 387/580/231 390/576/231
f 398/579/231 390/576/231 396/575/231
f 399/581/232 383/582/232 386/583/232
f 399/581/232 386/583/232 400/584/232
f 400/584/233 386/583/233 391/585/233
f 400/584/233 391/585/233 401/586/233
f 385/565/234 381/566/234 395/572/234
f 385/565/234 395/572/234 392/571/234
f 386/554/235 385/553/235 392/560/235
f 386/554/235 392/560/235 391/559/235
f 381/549/236 382/550/236 395/587/236
f 382/550/236 402/588/236 395/587/236
f 403/589/238 404/590/238 405/591/238
f 403/589/238 405/591/238 406/592/238
f 407/593/239 408/594/239 403/589/239
f 408/594/239 404/590/239 403/589/239
f 409/595/240 410/596/240 411/597/240
f 410/596/240 412/598/240 411/597/240
f 413/599/241 414/600/241 415/601/241
f 413/599/241 415/601/241 416/602/241
f 417/603/242 418/604/242 419/605/242
f 417/603/242 419/605/242 420/606/242
f 421/607/243 422/608/243 418/604/243
f 421/607/243 418/604/243 417/603/243
f 420/606/244 419/605/244 423/609/244
f 419/605/244 424/610/244 423/609/244
f 414/611/245 409/612/245 415/613/245
f 409/612/245 411/614/245 415/613/245
f 418/615/246 407/616/246 403/617/246
f 418/615/246 403/617/246 419/618/246
f 422/619/247 425/620/247 407/616/247
f 422/619/247 407/616/247 418/615/247
f 419/618/248 403/617/248 406/621/248
f 419/618/248 406/621/248 424/622/248
f 426/623/249 420/624/249 427/625/249
f 420/624/249 423/626/249 427/625/249
f 428/627/250 417/628/250 420/624/250
f 428/627/250 420/624/250 426/623/250
f 429/629/251 413/599/251 416/602/251
f 429/629/251 416/602/251 430/630/251
f 430/630/252 416/602/252 421/607/252
f 430/630/252 421/607/252 431/631/252
f 415/613/253 411/614/253 425/620/253
f 415/613/253 425/620/253 422/619/253
f 416/602/254 415/601/254 422/608/254
f 416/602/254 422/608/254 421/607/254
f 411/597/255 412/598/255 425/632/255
f 412/598/255 432/633/255 425/632/255
f 433/634/256 434/635/256 435/636/256
f 433/634/256 435/636/256 436/637/256
f 437/638/257 438/639/257 433/634/257
f 438/639/257 434/635/257 433/634/257
f 439/640/258 440/641/258 441/642/258
f 440/641/258 442/643/258 441/642/258
f 443/644/259 444/645/259 445/646/259
f 443/644/259 445/646/259 446/647/259
f 447/648/260 448/649/260 449/650/260
f 447/648/260 449/650/260 450/651/260
f 451/652/261 452/653/261 448/649/261
f 451/652/261 448/649/261 447/648/261
f 450/651/262 449/650/262 453/654/262
f 449/650/262 454/655/262 453/654/262
f 444/645/263 439/640/263 445/646/263
f 439/640/263 441/642/263 445/646/263
f 448/656/264 437/638/264 433/634/264
f 448/656/264 433/634/264 449/657/264
f 452/658/265 455/659/265 437/638/265
f 452/658/265 437/638/265 448/656/265
f 449/657/266 433/634/266 436/637/266
f 449/657/266 436/637/266 454/660/266
f 456/661/267 450/662/267 457/663/267
f 450/662/267 453/664/267 457/663/267
f 458/665/268 447/666/268 450/662/268
f 458/665/268 450/662/268 456/661/268
f 459/667/269 443/644/269 446/647/269
f 459/667/269 446/647/269 460/668/269
f 460/668/270 446/647/270 451/669/270
f 460/668/270 451/669/270 461/670/270
f 445/646/271 441/642/271 455/659/271
f 445/646/271 455/659/271 452/658/271
f 446/647/272 445/646/272 452/658/272
f 446/647/272 452/658/272 451/669/272
f 441/642/273 442/643/273 455/659/273
f 442/643/273 462/671/273 455/659/273
s off
g Sphere.001
v -1.00639 8.1806 1.0397
v -1.02367 8.42483 0.93195
v -0.771436 8.43859 1.01995
v -0.82804 8.19033 1.10193
v -1.02943 8.67421 1.02855
v -1.0203 8.78266 1.2729
v -0.851074 8.68394 1.09078
v -0.987727 8.08459 1.28867
v -0.746022 8.198 1.27219
v -0.655446 8.44944 1.26075
v -0.769057 8.69161 1.26104
v -0.743643 8.45103 1.51329
v -0.808387 8.19913 1.45076
v -0.831421 8.69273 1.43961
v -0.978601 8.19304 1.53303
v -0.984362 8.44242 1.62962
v -1.00163 8.68665 1.52188
v -1.23659 8.42866 1.54162
v -1.17999 8.67692 1.45965
v -1.15696 8.18331 1.4708
v -1.23897 8.17564 1.30053
v -1.26201 8.66925 1.28938
v -1.35258 8.41781 1.30082
v -1.17661 8.17452 1.12196
v -1.19964 8.66812 1.11081
v -1.26439 8.41622 1.04829
vn 0.3246 -0.3625 -0.8736
vn 0.0924 0.9088 -0.4068
vn 0.1774 -0.9137 -0.3656
vn 0.2913 0.3514 -0.8898
vn 0.8571 -0.3269 -0.3981
vn 0.3256 0.9244 -0.1985
vn 0.4107 -0.8981 -0.1573
vn 0.8238 0.387 -0.4143
vn 0.8973 -0.3089 0.3153
vn 0.3432 0.9323 0.114
vn 0.4283 -0.8902 0.1552
vn 0.864 0.405 0.2992
vn 0.4216 -0.319 0.8488
vn 0.1349 0.9279 0.3477
vn 0.2199 -0.8947 0.3889
vn 0.3883 0.3948 0.8327
vn -0.3246 0.3625 0.8736
vn -0.2913 -0.3514 0.8898
vn -0.1774 0.9137 0.3656
vn -0.0924 -0.9088 0.4068
vn -0.3256 -0.9244 0.1985
vn -0.8571 0.3269 0.3981
vn -0.8238 -0.387 0.4143
vn -0.4107 0.8981 0.1573
vn -0.3432 -0.9323 -0.114
vn -0.8973 0.3089 -0.3153
vn -0.864 -0.405 -0.2992
vn -0.4283 0.8902 -0.1552
vn -0.1349 -0.9279 -0.3477
vn -0.4216 0.319 -0.8488
vn -0.3883 -0.3948 -0.8327
vn -0.2199 0.8947 -0.3889
vt 0.664521 0.973456
vt 0.664521 0.960679
vt 0.67716 0.96255
vt 0.673458 0.974779
vt 0.921177 0.177795
vt 0.930535 0.171626
vt 0.927366 0.183617
vt 0.791642 0.941337
vt 0.803417 0.945232
vt 0.797227 0.951055
vt 0.66775 0.951645
vt 0.676687 0.952968
vt 0.655111 0.88436
vt 0.666804 0.879843
vt 0.657395 0.890748
vt 0.670033 0.888877
vt 0.93612 0.183081
vt 0.788473 0.950519
vt 0.928471 0.190858
vt 0.940851 0.1901
vt 0.670033 0.901653
vt 0.657395 0.899782
vt 0.94231 0.176501
vt 0.782283 0.943938
vt 0.679443 0.890748
vt 0.679443 0.899782
vt 0.655111 0.90617
vt 0.666804 0.910688
vt 0.94231 0.167731
vt 0.782283 0.935168
vt 0.496724 0.966819
vt 0.49948 0.954591
vt 0.506134 0.96869
vt 0.506134 0.955914
vt 0.518772 0.966819
vt 0.51507 0.954591
vt 0.509363 0.977724
vt 0.518299 0.976401
vt 0.93612 0.161908
vt 0.788473 0.929346
vt 0.797227 0.929882
vt 0.508417 0.913633
vt 0.496724 0.909116
vt 0.499007 0.902728
vt 0.511646 0.904599
vt 0.789578 0.922105
vt 0.801958 0.922863
vt 0.927367 0.162444
vt 0.803417 0.936462
vt 0.499007 0.893694
vt 0.511646 0.891823
vt 0.521055 0.902728
vt 0.521055 0.893694
vt 0.921177 0.169024
vt 0.496724 0.887306
vt 0.508417 0.882789
vt 0.657868 0.974779
vt 0.655112 0.96255
usemtl 
f 463/672/274 464/673/274 465/674/274
f 463/672/274 465/674/274 466/675/274
f 467/676/275 468/677/275 469/678/275
f 470/679/276 463/680/276 466/681/276
f 464/673/277 467/682/277 465/674/277
f 467/682/277 469/683/277 465/674/277
f 466/684/278 465/685/278 471/686/278
f 465/685/278 472/687/278 471/686/278
f 469/678/279 468/677/279 473/688/279
f 470/679/280 466/681/280 471/689/280
f 465/690/281 469/678/281 473/688/281
f 465/690/281 473/688/281 472/691/281
f 471/686/282 472/687/282 474/692/282
f 471/686/282 474/692/282 475/693/282
f 473/688/283 468/677/283 476/694/283
f 470/679/284 471/689/284 475/695/284
f 472/687/285 473/696/285 476/697/285
f 472/687/285 476/697/285 474/692/285
f 475/693/286 474/692/286 477/698/286
f 474/692/286 478/699/286 477/698/286
f 476/694/287 468/677/287 479/700/287
f 470/679/288 475/695/288 477/701/288
f 474/702/289 476/703/289 478/704/289
f 476/703/289 479/705/289 478/704/289
f 478/704/290 479/705/290 480/706/290
f 479/705/290 481/707/290 480/706/290
f 477/708/291 478/704/291 480/706/291
f 477/708/291 480/706/291 482/709/291
f 479/700/292 468/677/292 481/710/292
f 470/679/293 477/701/293 482/711/293
f 470/679/294 482/711/294 483/712/294
f 480/713/295 481/714/295 484/715/295
f 480/713/295 484/715/295 485/716/295
f 482/711/296 480/717/296 483/712/296
f 480/717/296 485/718/296 483/712/296
f 481/710/297 468/677/297 484/719/297
f 470/679/298 483/712/298 486/720/298
f 485/716/299 484/715/299 487/721/299
f 485/716/299 487/721/299 488/722/299
f 483/723/300 485/716/300 488/722/300
f 483/723/300 488/722/300 486/724/300
f 484/719/301 468/677/301 487/725/301
f 470/679/302 486/720/302 463/680/302
f 488/722/303 487/721/303 467/726/303
f 488/722/303 467/726/303 464/727/303
f 486/728/304 488/729/304 464/673/304
f 486/728/304 464/673/304 463/672/304
f 487/725/305 468/677/305 467/676/305
s off
g Sphere
v -1.03747 8.23634 0.543065
v -1.05474 8.48057 0.435318
v -0.802511 8.49433 0.523322
v -0.859116 8.24607 0.605294
v -1.0605 8.72995 0.531915
v -1.05138 8.8384 0.776271
v -0.88215 8.73968 0.594143
v -1.0188 8.14033 0.792041
v -0.686522 8.50518 0.76412
v -0.777098 8.25374 0.775563
v -0.800132 8.74735 0.764413
v -0.839463 8.25487 0.954132
v -0.774719 8.50677 1.01665
v -0.862497 8.74848 0.942981
v -1.01544 8.49816 1.13299
v -1.00968 8.24878 1.0364
v -1.03271 8.74239 1.02525
v -1.21107 8.73266 0.963017
v -1.26767 8.48441 1.04499
v -1.18803 8.23905 0.974168
v -1.27005 8.23138 0.803899
v -1.38366 8.47355 0.804192
v -1.29308 8.72499 0.792748
v -1.20768 8.23026 0.62533
v -1.29546 8.47196 0.551658
v -1.23072 8.72386 0.61418
vn 0.3246 -0.3625 -0.8736
vn 0.0924 0.9088 -0.4068
vn 0.1774 -0.9137 -0.3656
vn 0.2913 0.3514 -0.8898
vn 0.8571 -0.3269 -0.3981
vn 0.3256 0.9244 -0.1985
vn 0.4107 -0.8981 -0.1573
vn 0.8238 0.387 -0.4143
vn 0.8973 -0.3089 0.3153
vn 0.3432 0.9323 0.114
vn 0.4283 -0.8902 0.1552
vn 0.864 0.405 0.2992
vn 0.4216 -0.319 0.8488
vn 0.1349 0.9279 0.3477
vn 0.2199 -0.8947 0.3889
vn 0.3883 0.3948 0.8327
vn -0.3246 0.3625 0.8736
vn -0.2913 -0.3514 0.8898
vn -0.1774 0.9137 0.3656
vn -0.0924 -0.9088 0.4068
vn -0.3256 -0.9244 0.1985
vn -0.8571 0.3269 0.3981
vn -0.8238 -0.387 0.4143
vn -0.4107 0.8981 0.1573
vn -0.3432 -0.9323 -0.114
vn -0.8973 0.3089 -0.3153
vn -0.864 -0.405 -0.2992
vn -0.4283 0.8902 -0.1552
vn -0.1349 -0.9279 -0.3477
vn -0.4216 0.319 -0.8488
vn -0.3883 -0.3948 -0.8327
vn -0.2199 0.8947 -0.3889
vt 0.510717 0.215439
vt 0.510717 0.202662
vt 0.520127 0.204533
vt 0.517371 0.216762
vt 0.211033 0.922798
vt 0.201674 0.916629
vt 0.211033 0.914027
vt 0.032254 0.933292
vt 0.020479 0.937187
vt 0.020479 0.928417
vt 0.917783 0.292191
vt 0.90609 0.287674
vt 0.908374 0.281286
vt 0.921012 0.283157
vt 0.930422 0.281286
vt 0.921012 0.270381
vt 0.930422 0.272252
vt 0.204843 0.907447
vt 0.026669 0.921837
vt 0.908374 0.272252
vt 0.021938 0.914818
vt 0.035423 0.921301
vt 0.034318 0.91406
vt 0.196089 0.906911
vt 0.917783 0.261347
vt 0.90609 0.265864
vt 0.931244 0.112197
vt 0.930771 0.102615
vt 0.94341 0.104486
vt 0.940181 0.11352
vt 0.189899 0.912733
vt 0.041612 0.927123
vt 0.934473 0.090386
vt 0.94341 0.091709
vt 0.950063 0.090386
vt 0.952819 0.102615
vt 0.600935 0.910913
vt 0.589242 0.91543
vt 0.586013 0.906396
vt 0.598652 0.904525
vt 0.189899 0.921504
vt 0.041612 0.935893
vt 0.035423 0.942474
vt 0.576603 0.904525
vt 0.586013 0.89362
vt 0.576603 0.895491
vt 0.598652 0.895491
vt 0.196089 0.928084
vt 0.026669 0.94301
vt 0.191358 0.935103
vt 0.203738 0.935861
vt 0.204843 0.92862
vt 0.600935 0.889102
vt 0.589242 0.884585
vt 0.498079 0.204533
vt 0.498552 0.194951
vt 0.507488 0.193628
vt 0.501781 0.216762
usemtl 
f 489/730/306 490/731/306 491/732/306
f 489/730/306 491/732/306 492/733/306
f 493/734/307 494/735/307 495/736/307
f 496/737/308 489/738/308 492/739/308
f 490/740/309 493/741/309 495/742/309
f 490/740/309 495/742/309 491/743/309
f 492/744/310 491/743/310 497/745/310
f 492/744/310 497/745/310 498/746/310
f 495/736/311 494/735/311 499/747/311
f 496/737/312 492/739/312 498/748/312
f 491/743/313 495/742/313 499/749/313
f 491/743/313 499/749/313 497/745/313
f 498/748/314 497/750/314 500/751/314
f 497/750/314 501/752/314 500/751/314
f 499/747/315 494/735/315 502/753/315
f 496/737/316 498/748/316 500/751/316
f 497/745/317 499/749/317 501/754/317
f 499/749/317 502/755/317 501/754/317
f 500/756/318 501/757/318 503/758/318
f 500/756/318 503/758/318 504/759/318
f 502/753/319 494/735/319 505/760/319
f 496/737/320 500/751/320 504/761/320
f 501/757/321 502/762/321 505/763/321
f 501/757/321 505/763/321 503/758/321
f 503/758/322 505/763/322 506/764/322
f 503/758/322 506/764/322 507/765/322
f 504/766/323 503/767/323 507/768/323
f 504/766/323 507/768/323 508/769/323
f 505/760/324 494/735/324 506/770/324
f 496/737/325 504/761/325 508/771/325
f 496/737/326 508/771/326 509/772/326
f 507/768/327 506/773/327 510/774/327
f 506/773/327 511/775/327 510/774/327
f 508/769/328 507/768/328 509/776/328
f 507/768/328 510/774/328 509/776/328
f 506/770/329 494/735/329 511/777/329
f 496/737/330 509/772/330 512/778/330
f 510/779/331 511/777/331 513/780/331
f 511/777/331 514/781/331 513/780/331
f 509/776/332 510/774/332 512/782/332
f 510/774/332 513/783/332 512/782/332
f 511/777/333 494/735/333 514/781/333
f 496/737/334 512/778/334 489/738/334
f 513/784/335 514/785/335 490/731/335
f 514/785/335 493/786/335 490/731/335
f 512/787/336 513/784/336 489/730/336
f 513/784/336 490/731/336 489/730/336
f 514/781/337 494/735/337 493/734/337
s off
g Sphere.002
v -0.321301 8.1806 1.0397
v -0.338574 8.42483 0.93195
v -0.086343 8.43859 1.01995
v -0.142947 8.19033 1.10193
v -0.344336 8.67421 1.02855
v -0.33521 8.78266 1.2729
v -0.165981 8.68394 1.09078
v -0.302634 8.08459 1.28867
v -0.06093 8.198 1.27219
v 0.029646 8.44944 1.26075
v -0.083964 8.69161 1.26104
v -0.05855 8.45103 1.51329
v -0.123295 8.19913 1.45076
v -0.146329 8.69273 1.43961
v -0.293509 8.19304 1.53303
v -0.29927 8.44242 1.62962
v -0.316543 8.68665 1.52188
v -0.494898 8.67692 1.45965
v -0.551501 8.42866 1.54162
v -0.471863 8.18331 1.4708
v -0.55388 8.17564 1.30053
v -0.576915 8.66925 1.28938
v -0.66749 8.41781 1.30082
v -0.491516 8.17451 1.12196
v -0.579294 8.41622 1.04829
v -0.51455 8.66812 1.11081
vn 0.3246 -0.3625 -0.8736
vn 0.0924 0.9088 -0.4068
vn 0.1774 -0.9137 -0.3656
vn 0.2913 0.3514 -0.8898
vn 0.8571 -0.3269 -0.3981
vn 0.3256 0.9244 -0.1985
vn 0.4107 -0.8981 -0.1573
vn 0.8238 0.387 -0.4143
vn 0.8973 -0.3089 0.3153
vn 0.3432 0.9323 0.114
vn 0.4283 -0.8902 0.1552
vn 0.864 0.405 0.2992
vn 0.4216 -0.319 0.8488
vn 0.1349 0.9279 0.3477
vn 0.2199 -0.8947 0.3889
vn 0.3883 0.3948 0.8327
vn -0.3246 0.3625 0.8736
vn -0.2913 -0.3514 0.8898
vn -0.1774 0.9137 0.3656
vn -0.0924 -0.9088 0.4068
vn -0.3256 -0.9244 0.1985
vn -0.8571 0.3269 0.3981
vn -0.8238 -0.387 0.4143
vn -0.4107 0.8981 0.1573
vn -0.3432 -0.9323 -0.114
vn -0.8973 0.3089 -0.3153
vn -0.864 -0.405 -0.2992
vn -0.4283 0.8902 -0.1552
vn -0.1349 -0.9279 -0.3477
vn -0.4216 0.319 -0.8488
vn -0.3883 -0.3948 -0.8327
vn -0.2199 0.8947 -0.3889
vt 0.916342 0.977455
vt 0.916342 0.964678
vt 0.928981 0.966549
vt 0.925279 0.978778
vt 0.844841 0.930271
vt 0.854199 0.924102
vt 0.851031 0.936094
vt 0.940129 0.039711
vt 0.951905 0.043606
vt 0.945715 0.049429
vt 0.919571 0.955644
vt 0.928508 0.956967
vt 0.903615 0.507201
vt 0.915308 0.502684
vt 0.905898 0.513589
vt 0.918536 0.511718
vt 0.859785 0.935558
vt 0.936961 0.048893
vt 0.852136 0.943335
vt 0.864516 0.942577
vt 0.918536 0.524495
vt 0.905898 0.522624
vt 0.865975 0.928977
vt 0.930771 0.042312
vt 0.927946 0.513589
vt 0.927946 0.522624
vt 0.903615 0.529012
vt 0.915308 0.533529
vt 0.865975 0.920207
vt 0.930771 0.033542
vt 0.576603 0.968616
vt 0.579359 0.956388
vt 0.586013 0.970487
vt 0.586013 0.957711
vt 0.59495 0.956388
vt 0.598652 0.968616
vt 0.589242 0.979521
vt 0.598179 0.978198
vt 0.859785 0.914385
vt 0.936961 0.02772
vt 0.945715 0.028256
vt 0.915308 0.605331
vt 0.903615 0.600814
vt 0.905898 0.594426
vt 0.918536 0.596297
vt 0.938066 0.020479
vt 0.950446 0.021237
vt 0.851031 0.91492
vt 0.951905 0.034836
vt 0.918536 0.583521
vt 0.905898 0.585392
vt 0.927946 0.594426
vt 0.927946 0.585392
vt 0.844841 0.921501
vt 0.915308 0.574486
vt 0.903615 0.579004
vt 0.909689 0.978778
vt 0.906932 0.966549
usemtl 
f 515/788/338 516/789/338 517/790/338
f 515/788/338 517/790/338 518/791/338
f 519/792/339 520/793/339 521/794/339
f 522/795/340 515/796/340 518/797/340
f 516/789/341 519/798/341 521/799/341
f 516/789/341 521/799/341 517/790/341
f 518/800/342 517/801/342 523/802/342
f 517/801/342 524/803/342 523/802/342
f 521/794/343 520/793/343 525/804/343
f 522/795/344 518/797/344 523/805/344
f 517/806/345 521/794/345 524/807/345
f 521/794/345 525/804/345 524/807/345
f 523/802/346 524/803/346 526/808/346
f 523/802/346 526/808/346 527/809/346
f 525/804/347 520/793/347 528/810/347
f 522/795/348 523/805/348 527/811/348
f 524/803/349 525/812/349 528/813/349
f 524/803/349 528/813/349 526/808/349
f 527/809/350 526/808/350 529/814/350
f 526/808/350 530/815/350 529/814/350
f 528/810/351 520/793/351 531/816/351
f 522/795/352 527/811/352 529/817/352
f 526/818/353 528/819/353 530/820/353
f 528/819/353 531/821/353 530/820/353
f 530/820/354 531/821/354 532/822/354
f 530/820/354 532/822/354 533/823/354
f 529/824/355 530/820/355 533/823/355
f 529/824/355 533/823/355 534/825/355
f 531/816/356 520/793/356 532/826/356
f 522/795/357 529/817/357 534/827/357
f 522/795/358 534/827/358 535/828/358
f 533/829/359 532/830/359 536/831/359
f 533/829/359 536/831/359 537/832/359
f 534/827/360 533/833/360 537/834/360
f 534/827/360 537/834/360 535/828/360
f 532/826/361 520/793/361 536/835/361
f 522/795/362 535/828/362 538/836/362
f 537/832/363 536/831/363 539/837/363
f 536/831/363 540/838/363 539/837/363
f 535/839/364 537/832/364 539/837/364
f 535/839/364 539/837/364 538/840/364
f 536/835/365 520/793/365 540/841/365
f 522/795/366 538/836/366 515/796/366
f 539/837/367 540/838/367 516/842/367
f 540/838/367 519/843/367 516/842/367
f 538/844/368 539/845/368 515/788/368
f 539/845/368 516/789/368 515/788/368
f 540/841/369 520/793/369 519/792/369
s off
g Sphere.003
v -0.473669 8.32668 0.305553
v -0.473605 8.63642 0.16716
v -0.26287 8.33902 0.41938
v -0.175491 8.65387 0.328135
v -0.500266 8.95269 0.286954
v -0.538033 9.09023 0.594761
v -0.289468 8.96503 0.40078
v -0.500419 8.20492 0.621065
v -0.194452 8.34875 0.649094
v -0.078733 8.66763 0.653
v -0.221049 8.97476 0.630494
v -0.308491 8.35018 0.860133
v -0.240009 8.66964 0.951453
v -0.335089 8.97618 0.841533
v -0.564847 8.65873 1.04867
v -0.538187 8.34246 0.928872
v -0.564784 8.96847 0.910273
v -0.86296 8.64128 0.887691
v -0.775582 8.95613 0.796446
v -0.748984 8.33012 0.815046
v -0.817402 8.32039 0.585332
v -0.959719 8.62752 0.562826
v -0.844 8.9464 0.566732
v -0.703363 8.31896 0.374293
v -0.729961 8.94497 0.355693
v -0.798442 8.6255 0.264373
vn 0.4592 -0.3625 -0.811
vn 0.1558 0.9088 -0.387
vn 0.2332 -0.9137 -0.3328
vn 0.4288 0.3514 -0.8322
vn 0.9094 -0.3269 -0.257
vn 0.353 0.9244 -0.1443
vn 0.4304 -0.8981 -0.0902
vn 0.8791 0.387 -0.2782
vn 0.8359 -0.3089 0.4538
vn 0.3208 0.9323 0.167
vn 0.3982 -0.8902 0.2212
vn 0.8055 0.405 0.4326
vn 0.2815 -0.319 0.905
vn 0.078 0.9279 0.3647
vn 0.1554 -0.8947 0.4188
vn 0.2512 0.3948 0.8837
vn -0.4592 0.3625 0.811
vn -0.4288 -0.3514 0.8322
vn -0.2332 0.9137 0.3328
vn -0.1558 -0.9088 0.387
vn -0.353 -0.9244 0.1443
vn -0.9094 0.3269 0.257
vn -0.8791 -0.387 0.2782
vn -0.4304 0.8981 0.0902
vn -0.3208 -0.9323 -0.167
vn -0.8359 0.3089 -0.4538
vn -0.8055 -0.405 -0.4326
vn -0.3982 0.8902 -0.2212
vn -0.078 -0.9279 -0.3647
vn -0.2815 0.319 -0.905
vn -0.2512 -0.3948 -0.8837
vn -0.1554 0.8947 -0.4188
vt 0.319418 0.954233
vt 0.319418 0.941456
vt 0.326072 0.955556
vt 0.328828 0.943327
vt 0.936483 0.412545
vt 0.927124 0.406376
vt 0.936483 0.403775
vt 0.136774 0.938435
vt 0.124998 0.94233
vt 0.124998 0.93356
vt 0.918625 0.825127
vt 0.906933 0.82061
vt 0.921854 0.816093
vt 0.909216 0.814222
vt 0.931264 0.814222
vt 0.931264 0.805188
vt 0.921854 0.803317
vt 0.930293 0.397195
vt 0.131188 0.92698
vt 0.909216 0.805188
vt 0.126457 0.919961
vt 0.139942 0.926444
vt 0.138837 0.919203
vt 0.921539 0.396659
vt 0.906933 0.798799
vt 0.918625 0.794282
vt 0.386214 0.972969
vt 0.385742 0.963387
vt 0.39838 0.965258
vt 0.395151 0.974292
vt 0.915349 0.402481
vt 0.146132 0.932266
vt 0.389443 0.951159
vt 0.39838 0.952482
vt 0.40779 0.963387
vt 0.405034 0.951159
vt 0.930129 0.688031
vt 0.918436 0.692548
vt 0.927845 0.681642
vt 0.915207 0.683514
vt 0.915349 0.411251
vt 0.146132 0.941036
vt 0.139942 0.947617
vt 0.905797 0.681642
vt 0.915207 0.670737
vt 0.905797 0.672608
vt 0.927845 0.672608
vt 0.921539 0.417832
vt 0.131188 0.948153
vt 0.916808 0.424851
vt 0.930293 0.418368
vt 0.929188 0.425609
vt 0.930129 0.66622
vt 0.918436 0.661703
vt 0.30678 0.943327
vt 0.307253 0.933745
vt 0.316189 0.932422
vt 0.310481 0.955556
usemtl 
f 541/846/370 542/847/370 543/848/370
f 542/847/370 544/849/370 543/848/370
f 545/850/371 546/851/371 547/852/371
f 548/853/372 541/854/372 543/855/372
f 542/856/373 545/857/373 544/858/373
f 545/857/373 547/859/373 544/858/373
f 543/860/374 544/858/374 549/861/374
f 544/858/374 550/862/374 549/861/374
f 547/852/375 546/851/375 551/863/375
f 548/853/376 543/855/376 549/864/376
f 544/858/377 547/859/377 551/865/377
f 544/858/377 551/865/377 550/862/377
f 549/864/378 550/866/378 552/867/378
f 550/866/378 553/868/378 552/867/378
f 551/863/379 546/851/379 554/869/379
f 548/853/380 549/864/380 552/867/380
f 550/862/381 551/865/381 554/870/381
f 550/862/381 554/870/381 553/871/381
f 552/872/382 553/873/382 555/874/382
f 552/872/382 555/874/382 556/875/382
f 554/869/383 546/851/383 557/876/383
f 548/853/384 552/867/384 556/877/384
f 553/873/385 554/878/385 557/879/385
f 553/873/385 557/879/385 555/874/385
f 555/874/386 557/879/386 558/880/386
f 557/879/386 559/881/386 558/880/386
f 556/882/387 555/883/387 560/884/387
f 555/883/387 558/885/387 560/884/387
f 557/876/388 546/851/388 559/886/388
f 548/853/389 556/877/389 560/887/389
f 548/853/390 560/887/390 561/888/390
f 558/885/391 559/889/391 562/890/391
f 559/889/391 563/891/391 562/890/391
f 560/884/392 558/885/392 562/890/392
f 560/884/392 562/890/392 561/892/392
f 559/886/393 546/851/393 563/893/393
f 548/853/394 561/888/394 564/894/394
f 562/895/395 563/893/395 565/896/395
f 562/895/395 565/896/395 566/897/395
f 561/892/396 562/890/396 564/898/396
f 562/890/396 566/899/396 564/898/396
f 563/893/397 546/851/397 565/896/397
f 548/853/398 564/894/398 541/854/398
f 566/900/399 565/901/399 545/902/399
f 566/900/399 545/902/399 542/847/399
f 564/903/400 566/900/400 542/847/400
f 564/903/400 542/847/400 541/846/400
f 565/896/401 546/851/401 545/850/401
s off
