# Apple ModelIO OBJ File: balde
mtllib balde.mtl
g Cylinder
v 1.62171 -0.048435 6.7e-05
v 1.72716 -0.048435 -0.248315
v 1.62171 -0.048435 -0.26878
v 1.62171 0.511604 -0.339119
v 1.75185 0.511604 -0.3133
v 1.62171 0.595288 -0.349656
v 1.75554 0.595288 -0.323035
v 1.81656 -0.048435 -0.190037
v 1.86217 0.511604 -0.239774
v 1.869 0.595288 -0.247225
v 1.87629 -0.048435 -0.102816
v 1.93588 0.511604 -0.129734
v 1.94481 0.595288 -0.133766
v 1.89727 -0.048435 6.7e-05
v 1.96177 0.511604 6.7e-05
v 1.97143 0.595288 6.7e-05
v 1.87629 -0.048435 0.10295
v 1.93588 0.511604 0.129868
v 1.94481 0.595288 0.1339
v 1.81656 -0.048435 0.19017
v 1.86217 0.511604 0.239908
v 1.869 0.595288 0.247358
v 1.72716 -0.048435 0.248449
v 1.75185 0.511604 0.313434
v 1.75554 0.595288 0.323169
v 1.62171 -0.048435 0.268914
v 1.62171 0.511604 0.339253
v 1.62171 0.595288 0.34979
v 1.51626 -0.048435 0.248449
v 1.49158 0.511604 0.313434
v 1.48788 0.595288 0.323169
v 1.42686 -0.048435 0.19017
v 1.38125 0.511604 0.239908
v 1.37442 0.595288 0.247358
v 1.36713 -0.048435 0.10295
v 1.30754 0.511604 0.129868
v 1.29861 0.595288 0.1339
v 1.34615 -0.048435 6.7e-05
v 1.28165 0.511604 6.7e-05
v 1.27199 0.595288 6.7e-05
v 1.36713 -0.048435 -0.102816
v 1.30754 0.511604 -0.129734
v 1.29861 0.595288 -0.133766
v 1.42686 -0.048435 -0.190037
v 1.38125 0.511604 -0.239774
v 1.37442 0.595288 -0.247225
v 1.51626 -0.048435 -0.248315
v 1.49158 0.511604 -0.3133
v 1.48788 0.595288 -0.323035
v 1.62171 -0.062946 6.7e-05
v 1.62171 -0.058763 -0.278974
v 1.73103 -0.058752 -0.257758
v 1.62171 0.509799 -0.353518
v 1.75733 0.509819 -0.326617
v 1.48609 0.509819 0.326751
v 1.62171 0.509799 0.353652
v 1.62171 0.508107 0.367139
v 1.48093 0.508145 0.339214
v 1.82376 -0.058725 -0.19731
v 1.87233 0.509867 -0.249993
v 1.62171 0.593481 0.364188
v 1.48238 0.593501 0.336478
v 1.47722 0.591827 0.348945
v 1.62171 0.591788 0.377676
v 1.88576 -0.058697 -0.106778
v 1.94919 0.509915 -0.135279
v 1.37109 0.509867 0.250126
v 1.36155 0.508238 0.259669
v 1.90754 -0.058685 6.7e-05
v 1.97619 0.509935 6.7e-05
v 1.62171 0.593481 -0.364055
v 1.76104 0.593501 -0.336344
v 1.7662 0.591827 -0.348812
v 1.62171 0.591788 -0.377542
v 1.88576 -0.058697 0.106911
v 1.94919 0.509915 0.135412
v 1.29423 0.509915 0.135412
v 1.28176 0.508332 0.140579
v 1.82376 -0.058725 0.197443
v 1.87233 0.509867 0.250126
v 1.95812 0.593598 0.139427
v 1.87918 0.593549 0.257558
v 1.97059 0.592014 0.144603
v 1.88871 0.59192 0.267111
v 1.73103 -0.058752 0.257891
v 1.75733 0.509819 0.326751
v 1.2853 0.593598 -0.139293
v 1.36424 0.593549 -0.257424
v 1.27283 0.592014 -0.14447
v 1.35471 0.59192 -0.266978
v 1.62171 -0.058763 0.279107
v 1.26723 0.509935 6.7e-05
v 1.25373 0.508371 6.7e-05
v 1.51239 -0.058752 0.257891
v 1.87918 0.593549 -0.257424
v 1.95812 0.593598 -0.139293
v 1.97059 0.592014 -0.14447
v 1.88871 0.59192 -0.266978
v 1.41966 -0.058725 0.197443
v 1.29423 0.509915 -0.135279
v 1.28176 0.508332 -0.140446
v 1.35766 -0.058697 0.106911
v 1.36424 0.593549 0.257558
v 1.2853 0.593598 0.139427
v 1.27283 0.592014 0.144603
v 1.35471 0.59192 0.267111
v 1.33588 -0.058685 6.7e-05
v 1.37109 0.509867 -0.249993
v 1.36155 0.508238 -0.259536
v 1.35766 -0.058697 -0.106778
v 1.62171 0.508107 -0.367006
v 1.76249 0.508145 -0.33908
v 1.41966 -0.058725 -0.19731
v 1.76104 0.593501 0.336478
v 1.7662 0.591827 0.348945
v 1.51239 -0.058752 -0.257758
v 1.48609 0.509819 -0.326617
v 1.48093 0.508145 -0.33908
v 1.88187 0.508238 -0.259536
v 1.98585 0.593618 6.7e-05
v 1.48238 0.593501 -0.336344
v 1.25757 0.593618 6.7e-05
v 1.96166 0.508332 -0.140446
v 1.98969 0.508371 6.7e-05
v 1.99935 0.592053 6.7e-05
v 1.96166 0.508332 0.140579
v 1.88187 0.508238 0.259669
v 1.76249 0.508145 0.339214
v 1.24407 0.592053 6.7e-05
v 1.47722 0.591827 -0.348812
vn -0 1 -0
vn -0.1913 0.1219 0.9739
vn -0.1934 0.1222 0.9735
vn -0.5469 0.1192 0.8287
vn -0.5511 0.1195 0.8258
vn -0.8227 0.1154 0.5566
vn -0.8256 0.1156 0.5523
vn -0.9741 0.1126 0.1962
vn -0.9745 0.1129 0.1941
vn -0.9741 0.1126 -0.1962
vn -0.9745 0.1129 -0.1941
vn -0.8227 0.1154 -0.5566
vn -0.8256 0.1156 -0.5523
vn -0.5469 0.1192 -0.8287
vn -0.5511 0.1195 -0.8258
vn -0.1913 0.1219 -0.9739
vn -0.1934 0.1222 -0.9735
vn 0.1913 0.1219 -0.9739
vn 0.1934 0.1222 -0.9735
vn 0.5469 0.1192 -0.8287
vn 0.5511 0.1195 -0.8258
vn 0.8227 0.1154 -0.5566
vn 0.8256 0.1156 -0.5523
vn 0.9741 0.1126 -0.1962
vn 0.9745 0.1129 -0.1941
vn 0.9741 0.1126 0.1962
vn 0.9745 0.1129 0.1941
vn 0.8227 0.1154 0.5566
vn 0.8256 0.1156 0.5523
vn 0.5469 0.1192 0.8287
vn 0.5511 0.1195 0.8258
vn 0.1913 0.1219 0.9739
vn 0.1934 0.1222 0.9735
vn 0.003 -0.9999 -0.015
vn 0.1912 -0.1272 -0.9733
vn 0.0244 -0.992 -0.1238
vn 0.0085 -0.9999 -0.0126
vn 0.5465 -0.1245 -0.8281
vn -0.0244 0.992 0.1238
vn 0.0127 -0.9999 -0.0084
vn 0.8222 -0.1207 -0.5562
vn 0.0682 -0.9923 -0.1033
vn 0.0149 -0.9999 -0.0029
vn 0.9735 -0.118 -0.1961
vn 0.0244 0.992 -0.1238
vn 0.0149 -0.9999 0.0029
vn 0.9735 -0.118 0.1961
vn 0.0998 -0.9927 -0.0675
vn 0.0127 -0.9999 0.0084
vn 0.8222 -0.1207 0.5562
vn 0.0999 0.9927 0.0673
vn 0.0085 -0.9999 0.0126
vn 0.5465 -0.1245 0.8281
vn -0.0999 0.9927 -0.0673
vn 0.003 -0.9999 0.015
vn 0.1912 -0.1272 0.9733
vn 0.1157 -0.993 -0.0233
vn -0.003 -0.9999 0.015
vn -0.1912 -0.1272 0.9733
vn 0.0999 0.9927 -0.0673
vn -0.0085 -0.9999 0.0126
vn -0.5465 -0.1245 0.8281
vn 0.1157 -0.993 0.0233
vn -0.0127 -0.9999 0.0084
vn -0.8222 -0.1207 0.5562
vn -0.0999 0.9927 0.0673
vn -0.0149 -0.9999 0.0029
vn -0.9735 -0.118 0.1961
vn 0.0998 -0.9927 0.0675
vn -0.0149 -0.9999 -0.0029
vn -0.9735 -0.118 -0.1961
vn -0.0244 -0.992 0.1238
vn -0.0127 -0.9999 -0.0084
vn -0.8222 -0.1207 -0.5562
vn 0.0244 0.992 0.1238
vn -0.0085 -0.9999 -0.0126
vn -0.5465 -0.1245 -0.8281
vn 0.0682 -0.9923 0.1033
vn -0.003 -0.9999 -0.015
vn -0.1912 -0.1272 -0.9733
vn -0.0682 -0.9923 0.1033
vn 0.1158 0.993 0.0231
vn 0.0246 0.992 0.1238
vn -0.1 0.9927 0.0671
vn -0.1 0.9927 -0.0671
vn -0.0246 0.992 -0.1238
vn 0.0246 0.992 -0.1238
vn 0.1158 0.993 -0.0231
vn 0.0687 0.9923 0.1031
vn -0.0687 0.9923 0.1031
vn -0.1158 0.993 -0.0231
vn 0.1 0.9927 -0.0671
vn 0.1 0.9927 0.0671
vn -0.0246 0.992 0.1238
vn -0.1158 0.993 0.0231
vn -0.0687 0.9923 -0.1031
vn 0.0687 0.9923 -0.1031
vn 0.1934 -0.1222 -0.9735
vn 0.5511 -0.1195 -0.8259
vn 0.8255 -0.1156 -0.5524
vn 0.9745 -0.1129 -0.1941
vn 0.9745 -0.1129 0.1941
vn 0.8255 -0.1156 0.5524
vn 0.5511 -0.1195 0.8259
vn 0.1934 -0.1222 0.9735
vn -0.1934 -0.1222 0.9735
vn -0.5511 -0.1195 0.8259
vn -0.8255 -0.1156 0.5524
vn -0.9745 -0.1129 0.1941
vn -0.9745 -0.1129 -0.1941
vn -0.8255 -0.1156 -0.5524
vn -0.5511 -0.1195 -0.8259
vn -0.1934 -0.1222 -0.9735
vn -0.1157 0.993 0.0232
vn -0.0244 -0.992 -0.1238
vn 0.1157 0.993 -0.0232
vn -0.0682 -0.9923 -0.1033
vn -0.0684 0.9923 -0.1032
vn 0.0684 0.9923 0.1032
vn -0.0998 -0.9927 -0.0675
vn -0.1157 -0.993 -0.0233
vn -0.0684 0.9923 0.1032
vn 0.0684 0.9923 -0.1032
vn -0.1157 -0.993 0.0233
vn -0.0244 0.992 -0.1238
vn -0.1157 0.993 -0.0232
vn -0.0998 -0.9927 0.0675
vn 0.1157 0.993 0.0232
vn 0.0244 -0.992 0.1238
vt 0.400525 0.852773
vt 0.385611 0.862827
vt 0.382933 0.856187
vt 0.173211 0.838541
vt 0.166051 0.838541
vt 0.174121 0.801217
vt 0.165278 0.801217
vt 0.174258 0.79564
vt 0.165162 0.79564
vt 0.39056 0.867937
vt 0.159452 0.838537
vt 0.157113 0.801212
vt 0.156762 0.795635
vt 0.397026 0.870738
vt 0.154417 0.83853
vt 0.150869 0.801204
vt 0.150337 0.795626
vt 0.404025 0.870804
vt 0.858681 0.428032
vt 0.85223 0.428036
vt 0.861219 0.390707
vt 0.853074 0.390712
vt 0.8616 0.38513
vt 0.8532 0.385135
vt 0.41049 0.868125
vt 0.845232 0.428036
vt 0.844251 0.390712
vt 0.844104 0.385135
vt 0.415439 0.863109
vt 0.83875 0.428032
vt 0.836095 0.390707
vt 0.835698 0.38513
vt 0.418117 0.856519
vt 0.114253 0.838536
vt 0.109162 0.838543
vt 0.111616 0.801218
vt 0.117879 0.801209
vt 0.111984 0.795641
vt 0.118422 0.795632
vt 0.418117 0.849359
vt 0.102531 0.838546
vt 0.103441 0.801223
vt 0.103577 0.795646
vt 0.415439 0.842718
vt 0.095371 0.838546
vt 0.094598 0.801223
vt 0.094482 0.795646
vt 0.41049 0.837608
vt 0.088771 0.838543
vt 0.086432 0.801218
vt 0.086082 0.795641
vt 0.404025 0.834807
vt 0.083737 0.838536
vt 0.080189 0.801209
vt 0.079657 0.795632
vt 0.397026 0.834741
vt 0.858681 0.848454
vt 0.852231 0.848458
vt 0.86122 0.811129
vt 0.853074 0.811133
vt 0.8616 0.805551
vt 0.8532 0.805556
vt 0.39056 0.83742
vt 0.845232 0.848458
vt 0.844252 0.811133
vt 0.844105 0.805556
vt 0.385611 0.842437
vt 0.83875 0.848454
vt 0.836096 0.811129
vt 0.835698 0.805551
vt 0.382933 0.849027
vt 0.184934 0.83853
vt 0.179842 0.838537
vt 0.182297 0.801212
vt 0.188559 0.801204
vt 0.182664 0.795635
vt 0.189103 0.795626
vt 0.471875 0.853442
vt 0.453616 0.856985
vt 0.453616 0.849562
vt 0.046939 0.822296
vt 0.009034 0.823258
vt 0.046939 0.814873
vt 0.009033 0.814042
vt 0.338823 0.821063
vt 0.338823 0.811847
vt 0.339705 0.811673
vt 0.339705 0.821239
vt 0.456394 0.842727
vt 0.046941 0.808028
vt 0.009035 0.805531
vt 0.292587 0.744883
vt 0.292587 0.754353
vt 0.291705 0.754527
vt 0.291706 0.744708
vt 0.46153 0.83752
vt 0.046947 0.802802
vt 0.009041 0.799021
vt 0.335304 0.829576
vt 0.336052 0.830076
vt 0.468245 0.834738
vt 0.526938 0.872742
vt 0.524243 0.834835
vt 0.533637 0.872736
vt 0.532736 0.834828
vt 0.340196 0.754356
vt 0.340197 0.744887
vt 0.341079 0.744712
vt 0.341078 0.754532
vt 0.475513 0.834807
vt 0.541936 0.834828
vt 0.540906 0.872736
vt 0.328801 0.836089
vt 0.329301 0.836838
vt 0.482225 0.837714
vt 0.550439 0.834836
vt 0.547633 0.872742
vt 0.311657 0.725814
vt 0.302908 0.729439
vt 0.311481 0.724932
vt 0.302407 0.728691
vt 0.487357 0.843014
vt 0.702836 0.861919
vt 0.664932 0.865774
vt 0.664927 0.859245
vt 0.702831 0.856638
vt 0.321126 0.773426
vt 0.329876 0.769801
vt 0.321303 0.774308
vt 0.330377 0.770549
vt 0.490134 0.849898
vt 0.664923 0.850726
vt 0.702829 0.849764
vt 0.320302 0.83961
vt 0.320477 0.840493
vt 0.490134 0.857321
vt 0.702828 0.842341
vt 0.664923 0.84151
vt 0.336574 0.736137
vt 0.329879 0.72944
vt 0.330379 0.728692
vt 0.337323 0.735639
vt 0.487356 0.864156
vt 0.702831 0.835495
vt 0.664925 0.832999
vt 0.311103 0.8396
vt 0.310927 0.840482
vt 0.482219 0.869363
vt 0.702836 0.83027
vt 0.664931 0.826489
vt 0.296209 0.763102
vt 0.302905 0.7698
vt 0.302405 0.770548
vt 0.295461 0.763601
vt 0.475505 0.872145
vt 0.597405 0.872796
vt 0.59471 0.834889
vt 0.604104 0.87279
vt 0.603204 0.834882
vt 0.302605 0.836062
vt 0.302105 0.83681
vt 0.468237 0.872077
vt 0.612403 0.834882
vt 0.611373 0.87279
vt 0.292586 0.811803
vt 0.292586 0.821019
vt 0.291705 0.821194
vt 0.291705 0.811627
vt 0.461525 0.869169
vt 0.620906 0.83489
vt 0.6181 0.872796
vt 0.296211 0.736135
vt 0.295463 0.735636
vt 0.456392 0.86387
vt 0.046947 0.834451
vt 0.009042 0.838306
vt 0.009037 0.831778
vt 0.046942 0.82917
vt 0.296104 0.829537
vt 0.295356 0.830036
vt 0.296105 0.80329
vt 0.295357 0.80279
vt 0.320941 0.726757
vt 0.311845 0.726756
vt 0.321129 0.725814
vt 0.29701 0.736668
vt 0.293529 0.745071
vt 0.297008 0.76257
vt 0.30344 0.769002
vt 0.320938 0.772483
vt 0.329342 0.769003
vt 0.335774 0.762572
vt 0.339255 0.754169
vt 0.336572 0.763105
vt 0.339256 0.745073
vt 0.329344 0.730238
vt 0.303442 0.730236
vt 0.293528 0.754166
vt 0.311843 0.772483
vt 0.311655 0.773425
vt 0.335775 0.73667
vt 0.364725 0.750624
vt 0.359146 0.75076
vt 0.364724 0.741058
vt 0.359145 0.740941
vt 0.364724 0.732223
vt 0.359145 0.731871
vt 0.364728 0.725464
vt 0.35915 0.724932
vt 0.568504 0.835209
vt 0.574083 0.834828
vt 0.568514 0.844027
vt 0.574093 0.843899
vt 0.574093 0.853722
vt 0.568514 0.853577
vt 0.574083 0.8628
vt 0.568504 0.862404
vt 0.364728 0.826168
vt 0.35915 0.826711
vt 0.359147 0.819758
vt 0.364726 0.819391
vt 0.359146 0.810682
vt 0.364725 0.810547
vt 0.364724 0.80098
vt 0.359145 0.800863
vt 0.364724 0.792145
vt 0.359145 0.791793
vt 0.364728 0.785387
vt 0.35915 0.784854
vt 0.720902 0.82687
vt 0.726481 0.826489
vt 0.720912 0.835688
vt 0.726491 0.83556
vt 0.726491 0.845383
vt 0.720912 0.845238
vt 0.726481 0.854461
vt 0.720902 0.854065
vt 0.364728 0.766245
vt 0.35915 0.766788
vt 0.359147 0.759836
vt 0.364726 0.759469
vt 0.31148 0.774308
vt 0.335305 0.803329
vt 0.336053 0.80283
vt 0.321304 0.724932
vt 0.328804 0.796804
vt 0.329304 0.796057
vt 0.33732 0.763604
vt 0.320307 0.793266
vt 0.320483 0.792384
vt 0.311107 0.793257
vt 0.310932 0.792374
vt 0.302608 0.796777
vt 0.302109 0.796029
usemtl 
f 1/1/1 2/2/1 3/3/1
f 3/4/2 2/5/2 4/6/2
f 2/5/2 5/7/2 4/6/2
f 4/6/3 5/7/3 6/8/3
f 5/7/3 7/9/3 6/8/3
f 1/1/1 8/10/1 2/2/1
f 2/5/4 8/11/4 5/7/4
f 8/11/4 9/12/4 5/7/4
f 5/7/5 9/12/5 7/9/5
f 9/12/5 10/13/5 7/9/5
f 1/1/1 11/14/1 8/10/1
f 8/11/6 11/15/6 9/12/6
f 11/15/6 12/16/6 9/12/6
f 9/12/7 12/16/7 10/13/7
f 12/16/7 13/17/7 10/13/7
f 1/1/1 14/18/1 11/14/1
f 11/19/8 14/20/8 12/21/8
f 14/20/8 15/22/8 12/21/8
f 12/21/9 15/22/9 13/23/9
f 15/22/9 16/24/9 13/23/9
f 1/1/1 17/25/1 14/18/1
f 14/20/10 17/26/10 18/27/10
f 14/20/10 18/27/10 15/22/10
f 15/22/11 18/27/11 19/28/11
f 15/22/11 19/28/11 16/24/11
f 1/1/1 20/29/1 17/25/1
f 17/26/12 20/30/12 21/31/12
f 17/26/12 21/31/12 18/27/12
f 18/27/13 21/31/13 22/32/13
f 18/27/13 22/32/13 19/28/13
f 1/1/1 23/33/1 20/29/1
f 20/34/14 23/35/14 24/36/14
f 20/34/14 24/36/14 21/37/14
f 21/37/15 24/36/15 25/38/15
f 21/37/15 25/38/15 22/39/15
f 1/1/1 26/40/1 23/33/1
f 23/35/16 26/41/16 27/42/16
f 23/35/16 27/42/16 24/36/16
f 24/36/17 27/42/17 28/43/17
f 24/36/17 28/43/17 25/38/17
f 1/1/1 29/44/1 26/40/1
f 26/41/18 29/45/18 27/42/18
f 29/45/18 30/46/18 27/42/18
f 27/42/19 30/46/19 28/43/19
f 30/46/19 31/47/19 28/43/19
f 1/1/1 32/48/1 29/44/1
f 29/45/20 32/49/20 30/46/20
f 32/49/20 33/50/20 30/46/20
f 30/46/21 33/50/21 31/47/21
f 33/50/21 34/51/21 31/47/21
f 1/1/1 35/52/1 32/48/1
f 32/49/22 35/53/22 33/50/22
f 35/53/22 36/54/22 33/50/22
f 33/50/23 36/54/23 34/51/23
f 36/54/23 37/55/23 34/51/23
f 1/1/1 38/56/1 35/52/1
f 35/57/24 38/58/24 36/59/24
f 38/58/24 39/60/24 36/59/24
f 36/59/25 39/60/25 37/61/25
f 39/60/25 40/62/25 37/61/25
f 1/1/1 41/63/1 38/56/1
f 38/58/26 41/64/26 42/65/26
f 38/58/26 42/65/26 39/60/26
f 39/60/27 42/65/27 43/66/27
f 39/60/27 43/66/27 40/62/27
f 1/1/1 44/67/1 41/63/1
f 41/64/28 44/68/28 45/69/28
f 41/64/28 45/69/28 42/65/28
f 42/65/29 45/69/29 46/70/29
f 42/65/29 46/70/29 43/66/29
f 1/1/1 47/71/1 44/67/1
f 44/72/30 47/73/30 48/74/30
f 44/72/30 48/74/30 45/75/30
f 45/75/31 48/74/31 49/76/31
f 45/75/31 49/76/31 46/77/31
f 1/1/1 3/3/1 47/71/1
f 47/73/32 3/4/32 4/6/32
f 47/73/32 4/6/32 48/74/32
f 48/74/33 4/6/33 6/8/33
f 48/74/33 6/8/33 49/76/33
f 50/78/34 51/79/34 52/80/34
f 51/81/35 53/82/35 52/83/35
f 53/82/35 54/84/35 52/83/35
f 55/85/36 56/86/36 57/87/36
f 55/85/36 57/87/36 58/88/36
f 50/78/37 52/80/37 59/89/37
f 52/83/38 54/84/38 59/90/38
f 54/84/38 60/91/38 59/90/38
f 61/92/39 62/93/39 63/94/39
f 61/92/39 63/94/39 64/95/39
f 50/78/40 59/89/40 65/96/40
f 59/90/41 60/91/41 65/97/41
f 60/91/41 66/98/41 65/97/41
f 67/99/42 55/85/42 58/88/42
f 67/99/42 58/88/42 68/100/42
f 50/78/43 65/96/43 69/101/43
f 65/102/44 66/103/44 69/104/44
f 66/103/44 70/105/44 69/104/44
f 71/106/45 72/107/45 73/108/45
f 71/106/45 73/108/45 74/109/45
f 50/78/46 69/101/46 75/110/46
f 69/104/47 70/105/47 76/111/47
f 69/104/47 76/111/47 75/112/47
f 77/113/48 67/99/48 68/100/48
f 77/113/48 68/100/48 78/114/48
f 50/78/49 75/110/49 79/115/49
f 75/112/50 76/111/50 80/116/50
f 75/112/50 80/116/50 79/117/50
f 81/118/51 82/119/51 83/120/51
f 82/119/51 84/121/51 83/120/51
f 50/78/52 79/115/52 85/122/52
f 79/123/53 80/124/53 86/125/53
f 79/123/53 86/125/53 85/126/53
f 87/127/54 88/128/54 89/129/54
f 88/128/54 90/130/54 89/129/54
f 50/78/55 85/122/55 91/131/55
f 85/126/56 86/125/56 56/132/56
f 85/126/56 56/132/56 91/133/56
f 92/134/57 77/113/57 78/114/57
f 92/134/57 78/114/57 93/135/57
f 50/78/58 91/131/58 94/136/58
f 91/133/59 56/132/59 94/137/59
f 56/132/59 55/138/59 94/137/59
f 95/139/60 96/140/60 97/141/60
f 95/139/60 97/141/60 98/142/60
f 50/78/61 94/136/61 99/143/61
f 94/137/62 55/138/62 99/144/62
f 55/138/62 67/145/62 99/144/62
f 100/146/63 92/134/63 101/147/63
f 92/134/63 93/135/63 101/147/63
f 50/78/64 99/143/64 102/148/64
f 99/144/65 67/145/65 102/149/65
f 67/145/65 77/150/65 102/149/65
f 103/151/66 104/152/66 105/153/66
f 103/151/66 105/153/66 106/154/66
f 50/78/67 102/148/67 107/155/67
f 102/156/68 77/157/68 107/158/68
f 77/157/68 92/159/68 107/158/68
f 108/160/69 100/146/69 109/161/69
f 100/146/69 101/147/69 109/161/69
f 50/78/70 107/155/70 110/162/70
f 107/158/71 92/159/71 100/163/71
f 107/158/71 100/163/71 110/164/71
f 54/165/72 53/166/72 111/167/72
f 54/165/72 111/167/72 112/168/72
f 50/78/73 110/162/73 113/169/73
f 110/164/74 100/163/74 108/170/74
f 110/164/74 108/170/74 113/171/74
f 114/172/75 61/92/75 115/173/75
f 61/92/75 64/95/75 115/173/75
f 50/78/76 113/169/76 116/174/76
f 113/175/77 108/176/77 117/177/77
f 113/175/77 117/177/77 116/178/77
f 117/179/78 108/160/78 118/180/78
f 108/160/78 109/161/78 118/180/78
f 50/78/79 116/174/79 51/79/79
f 116/178/80 117/177/80 53/82/80
f 116/178/80 53/82/80 51/81/80
f 60/181/81 54/165/81 112/168/81
f 60/181/81 112/168/81 119/182/81
f 16/183/82 19/184/82 120/185/82
f 19/184/82 81/118/82 120/185/82
f 25/186/83 28/187/83 114/172/83
f 28/187/83 61/92/83 114/172/83
f 34/188/84 37/189/84 104/152/84
f 34/188/84 104/152/84 103/151/84
f 43/190/85 46/191/85 87/127/85
f 46/191/85 88/128/85 87/127/85
f 49/192/86 6/193/86 121/194/86
f 6/193/86 71/106/86 121/194/86
f 6/193/87 7/195/87 72/107/87
f 6/193/87 72/107/87 71/106/87
f 13/196/88 16/183/88 120/185/88
f 13/196/88 120/185/88 96/140/88
f 22/197/89 25/186/89 82/119/89
f 25/186/89 114/172/89 82/119/89
f 31/198/90 34/188/90 103/151/90
f 31/198/90 103/151/90 62/93/90
f 40/199/91 43/190/91 122/200/91
f 43/190/91 87/127/91 122/200/91
f 10/201/92 13/196/92 96/140/92
f 10/201/92 96/140/92 95/139/92
f 19/184/93 22/197/93 81/118/93
f 22/197/93 82/119/93 81/118/93
f 28/187/94 31/198/94 62/93/94
f 28/187/94 62/93/94 61/92/94
f 37/189/95 40/199/95 122/200/95
f 37/189/95 122/200/95 104/152/95
f 46/191/96 49/192/96 88/128/96
f 49/192/96 121/194/96 88/128/96
f 7/195/97 10/201/97 95/139/97
f 7/195/97 95/139/97 72/107/97
f 111/202/98 74/203/98 112/204/98
f 74/203/98 73/205/98 112/204/98
f 112/204/99 73/205/99 119/206/99
f 73/205/99 98/207/99 119/206/99
f 119/206/100 98/207/100 123/208/100
f 98/207/100 97/209/100 123/208/100
f 123/210/101 97/211/101 124/212/101
f 97/211/101 125/213/101 124/212/101
f 124/212/102 125/213/102 83/214/102
f 124/212/102 83/214/102 126/215/102
f 126/215/103 83/214/103 84/216/103
f 126/215/103 84/216/103 127/217/103
f 127/218/104 84/219/104 115/220/104
f 127/218/104 115/220/104 128/221/104
f 128/221/105 115/220/105 64/222/105
f 128/221/105 64/222/105 57/223/105
f 57/223/106 64/222/106 58/224/106
f 64/222/106 63/225/106 58/224/106
f 58/224/107 63/225/107 68/226/107
f 63/225/107 106/227/107 68/226/107
f 68/226/108 106/227/108 78/228/108
f 106/227/108 105/229/108 78/228/108
f 78/230/109 105/231/109 93/232/109
f 105/231/109 129/233/109 93/232/109
f 93/232/110 129/233/110 89/234/110
f 93/232/110 89/234/110 101/235/110
f 101/235/111 89/234/111 90/236/111
f 101/235/111 90/236/111 109/237/111
f 109/238/112 90/239/112 130/240/112
f 109/238/112 130/240/112 118/241/112
f 118/241/113 130/240/113 74/203/113
f 118/241/113 74/203/113 111/202/113
f 104/152/114 122/200/114 129/242/114
f 104/152/114 129/242/114 105/153/114
f 56/86/115 86/243/115 57/87/115
f 86/243/115 128/244/115 57/87/115
f 96/140/116 120/185/116 125/245/116
f 96/140/116 125/245/116 97/141/116
f 86/243/117 80/246/117 128/244/117
f 80/246/117 127/247/117 128/244/117
f 88/128/118 121/194/118 90/130/118
f 121/194/118 130/248/118 90/130/118
f 82/119/119 114/172/119 84/121/119
f 114/172/119 115/173/119 84/121/119
f 80/246/120 76/249/120 127/247/120
f 76/249/120 126/250/120 127/247/120
f 76/249/121 70/251/121 126/250/121
f 70/251/121 124/252/121 126/250/121
f 62/93/122 103/151/122 106/154/122
f 62/93/122 106/154/122 63/94/122
f 72/107/123 95/139/123 98/142/123
f 72/107/123 98/142/123 73/108/123
f 70/251/124 66/253/124 123/254/124
f 70/251/124 123/254/124 124/252/124
f 121/194/125 71/106/125 130/248/125
f 71/106/125 74/109/125 130/248/125
f 122/200/126 87/127/126 129/242/126
f 87/127/126 89/129/126 129/242/126
f 66/253/127 60/181/127 119/182/127
f 66/253/127 119/182/127 123/254/127
f 120/185/128 81/118/128 125/245/128
f 81/118/128 83/120/128 125/245/128
f 53/166/129 117/179/129 111/167/129
f 117/179/129 118/180/129 111/167/129
s off
g Cube
v 1.22868 0.549085 0.040477
v 1.22868 0.61803 0.040477
v 1.17627 0.61803 0.040477
v 1.17627 0.549085 0.040477
v 1.22868 0.549085 -0.028468
v 1.22868 0.61803 -0.028468
v 1.29762 0.61803 -0.028468
v 1.29762 0.549085 -0.028468
v 1.29762 0.61803 0.040477
v 1.29762 0.549085 0.040477
v 1.95199 0.548024 0.038672
v 1.95199 0.616968 0.038672
v 1.95199 0.616968 -0.030273
v 1.95199 0.548024 -0.030273
v 2.02465 0.617537 -0.034286
v 2.02093 0.549726 -0.019575
v 2.02093 0.616968 0.038672
v 2.02093 0.548024 0.038672
v 2.06252 0.548024 0.038672
v 2.06252 0.616968 0.038672
v 2.06252 0.549726 -0.019575
v 2.06318 0.617162 -0.034784
v 2.02474 0.486834 -0.206846
v 2.06468 0.486834 -0.218444
v 2.01877 0.552375 -0.227394
v 2.05872 0.552375 -0.238992
v 1.91365 0.499375 -0.408053
v 1.89024 0.499375 -0.373675
v 1.93134 0.433835 -0.39601
v 1.90793 0.433835 -0.361632
v 1.62137 0.410386 -0.443794
v 1.63009 0.41391 -0.403278
v 1.62061 0.48209 -0.407171
v 1.6119 0.478566 -0.447687
v 1.36628 0.489804 -0.358494
v 1.34047 0.486279 -0.390919
v 1.37649 0.421624 -0.359215
v 1.21849 0.526351 -0.169231
v 1.21864 0.459043 -0.17359
v 1.35069 0.4181 -0.391641
v 1.1662 0.525871 -0.170146
v 1.17609 0.618122 -0.028556
v 1.22876 0.618392 -0.028651
v 1.16538 0.458563 -0.174521
v 1.22879 0.548852 -0.028769
v 1.17583 0.548039 -0.028953
v 1.17627 0.61803 -0.028468
v 1.17627 0.549085 -0.028468
vn -0 -0 1
vn -0 -0 -1
vn 1 -0 -0
vn -0 -1 -0
vn -0 1 -0
vn -1 -0 -0
vn 0.0486 -0.1081 -0.9929
vn 0.0134 -0.9998 -0.0134
vn -0.0039 1 0.0039
vn 1 -0.0043 0.0049
vn -0 -0.9996 -0.0292
vn 0.0047 1 0.0054
vn 0.0441 -0.9497 0.31
vn -0.1451 0.969 -0.1999
vn 0.9992 0.0353 -0.0169
vn -0.0432 0.9499 -0.3096
vn -0.9998 -0.0142 0.0102
vn 0.0644 -0.9961 0.0595
vn 0.7817 -0.014 -0.6235
vn 0.1451 -0.969 0.1999
vn -0.7778 0.0159 0.6283
vn 0.0091 0.9949 -0.1004
vn -0.1414 0.0888 0.986
vn -0.059 0.9965 -0.0585
vn 0.1471 -0.0875 -0.9852
vn 0.778 0.036 0.6272
vn -0.1981 -0.0514 -0.9788
vn -0.0107 -0.9948 0.1012
vn 0.1808 0.049 0.9823
vn -0.0017 0.8373 -0.5467
vn 0.0207 0.9858 -0.1668
vn -0.7752 -0.03 -0.631
vn -0.0224 -0.985 0.1714
vn -0.0008 -0.0037 1
vn -0.9977 0.0054 0.0672
vn 0.0048 -0.851 0.5251
vn 0.9973 0.0037 -0.0737
vt 0.43555 0.76405
vt 0.382933 0.764044
vt 0.382933 0.724044
vt 0.43555 0.72405
vt 0.453616 0.764046
vt 0.506177 0.764045
vt 0.506177 0.816671
vt 0.453616 0.816672
vt 0.079657 0.777566
vt 0.079657 0.724941
vt 0.132272 0.724932
vt 0.132272 0.777556
vt 0.43555 0.816675
vt 0.382933 0.81667
vt 0.59471 0.776655
vt 0.59471 0.724044
vt 0.646857 0.724216
vt 0.646857 0.776827
vt 0.576644 0.724044
vt 0.576644 0.776655
vt 0.524243 0.776773
vt 0.524243 0.724162
vt 0.150337 0.777558
vt 0.150337 0.724932
vt 0.202954 0.724934
vt 0.202954 0.77756
vt 0.061591 0.780955
vt 0.009033 0.780401
vt 0.009033 0.724932
vt 0.061256 0.728326
vt 0.664923 0.77667
vt 0.71754 0.776675
vt 0.71754 0.808423
vt 0.664923 0.808417
vt 0.664923 0.724044
vt 0.71754 0.72405
vt 0.312899 0.097386
vt 0.316607 0.044254
vt 0.36034 0.040654
vt 0.364867 0.09307
vt 0.442912 0.04245
vt 0.435151 0.097453
vt 0.382933 0.093071
vt 0.387451 0.040654
vt 0.888428 0.064921
vt 0.835697 0.06326
vt 0.84986 0.009033
vt 0.900808 0.02221
vt 0.313875 0.012633
vt 0.357608 0.009033
vt 0.390176 0.009033
vt 0.445839 0.013197
vt 0.168856 0.05479
vt 0.157491 0.02515
vt 0.593262 0.060782
vt 0.604663 0.031152
vt 0.726845 0.153478
vt 0.699273 0.169091
vt 0.844533 0.226588
vt 0.896952 0.223847
vt 0.929502 0.482919
vt 0.982119 0.47702
vt 0.929502 0.633637
vt 0.981956 0.632643
vt 0.027059 0.139081
vt 0.05451 0.154726
vt 0.009033 0.378362
vt 0.039356 0.369105
vt 0.900808 0.367064
vt 0.84989 0.363686
vt 0.92952 0.760074
vt 0.97998 0.753086
vt 0.708164 0.376634
vt 0.738522 0.38592
vt 0.654102 0.566716
vt 0.677212 0.588484
vt 0.767192 0.47702
vt 0.817632 0.489527
vt 0.756588 0.689156
vt 0.808804 0.695395
vt 0.756588 0.0213
vt 0.807324 0.009033
vt 0.817632 0.245936
vt 0.765345 0.251899
vt 0.96716 0.297061
vt 0.918874 0.277465
vt 0.944448 0.134811
vt 0.990967 0.15687
vt 0.808713 0.452419
vt 0.756588 0.458954
vt 0.090001 0.558933
vt 0.066899 0.580679
vt 0.765472 0.882778
vt 0.817632 0.889605
vt 0.498563 0.666151
vt 0.495863 0.705978
vt 0.382933 0.687209
vt 0.386438 0.647162
vt 0.911437 0.769124
vt 0.862721 0.787486
vt 0.882752 0.602885
vt 0.835698 0.62378
vt 0.246806 0.706866
vt 0.244059 0.666304
vt 0.22102 0.848693
vt 0.22102 0.795624
vt 0.261438 0.849292
vt 0.261226 0.795812
vt 0.861342 0.495791
vt 0.911437 0.47702
vt 0.361611 0.647089
vt 0.364867 0.68738
vt 0.96817 0.028713
vt 0.918874 0.009033
vt 0.221022 0.777558
vt 0.22102 0.724932
vt 0.273636 0.724932
vt 0.273639 0.777558
vt 0.576644 0.816644
vt 0.524243 0.816762
vt 0.646857 0.816816
vt 0.59471 0.816644
vt 0.453616 0.724045
vt 0.506177 0.724044
usemtl 
f 131/255/130 132/256/130 133/257/130
f 131/255/130 133/257/130 134/258/130
f 135/259/131 136/260/131 137/261/131
f 135/259/131 137/261/131 138/262/131
f 138/263/132 137/264/132 139/265/132
f 138/263/132 139/265/132 140/266/132
f 140/267/130 139/268/130 132/256/130
f 140/267/130 132/256/130 131/255/130
f 135/269/133 138/270/133 140/271/133
f 135/269/133 140/271/133 131/272/133
f 137/273/134 136/274/134 132/275/134
f 137/273/134 132/275/134 139/276/134
f 141/277/135 142/278/135 143/279/135
f 141/277/135 143/279/135 144/280/135
f 144/281/136 143/282/136 145/283/136
f 144/281/136 145/283/136 146/284/136
f 147/285/130 148/286/130 149/287/130
f 147/285/130 149/287/130 150/288/130
f 148/286/130 147/285/130 142/289/130
f 148/286/130 142/289/130 141/290/130
f 144/291/137 146/292/137 148/293/137
f 144/291/137 148/293/137 141/294/137
f 145/295/138 143/296/138 142/297/138
f 145/295/138 142/297/138 147/298/138
f 151/299/139 152/300/139 150/301/139
f 151/299/139 150/301/139 149/302/139
f 148/293/140 146/292/140 151/303/140
f 148/293/140 151/303/140 149/304/140
f 145/295/141 147/298/141 150/305/141
f 145/295/141 150/305/141 152/306/141
f 151/303/142 146/292/142 153/307/142
f 151/303/142 153/307/142 154/308/142
f 155/309/143 156/310/143 157/311/143
f 155/309/143 157/311/143 158/312/143
f 152/300/144 151/299/144 156/313/144
f 151/299/144 154/314/144 156/313/144
f 145/295/145 152/306/145 156/310/145
f 145/295/145 156/310/145 155/309/145
f 146/315/146 145/316/146 153/317/146
f 145/316/146 155/318/146 153/317/146
f 159/319/147 160/320/147 161/321/147
f 160/320/147 162/322/147 161/321/147
f 156/313/148 154/314/148 159/323/148
f 156/313/148 159/323/148 157/324/148
f 154/308/149 153/307/149 159/319/149
f 153/307/149 160/320/149 159/319/149
f 153/317/150 155/318/150 160/325/150
f 155/318/150 158/326/150 160/325/150
f 163/327/151 164/328/151 165/329/151
f 164/328/151 166/330/151 165/329/151
f 160/331/152 158/332/152 162/333/152
f 158/332/152 163/334/152 162/333/152
f 158/312/153 157/311/153 164/328/153
f 158/312/153 164/328/153 163/327/153
f 157/335/154 159/336/154 161/337/154
f 157/335/154 161/337/154 164/338/154
f 167/339/155 165/340/155 168/341/155
f 167/339/155 168/341/155 169/342/155
f 164/338/156 161/337/156 170/343/156
f 164/338/156 170/343/156 166/344/156
f 161/321/157 162/322/157 167/345/157
f 161/321/157 167/345/157 170/346/157
f 162/333/158 163/334/158 167/347/158
f 163/334/158 165/348/158 167/347/158
f 168/349/159 171/350/159 172/351/159
f 168/349/159 172/351/159 173/352/159
f 165/329/160 166/330/160 171/350/160
f 165/329/160 171/350/160 168/349/160
f 166/353/161 170/354/161 171/355/161
f 170/354/161 174/356/161 171/355/161
f 170/346/162 167/345/162 174/357/162
f 167/345/162 169/358/162 174/357/162
f 175/359/163 173/360/163 176/361/163
f 173/360/163 172/362/163 176/361/163
f 171/355/164 174/356/164 176/363/164
f 171/355/164 176/363/164 172/364/164
f 174/357/165 169/358/165 175/365/165
f 174/357/165 175/365/165 176/366/165
f 169/342/166 168/341/166 175/367/166
f 168/341/166 173/368/166 175/367/166
f 134/369/135 133/370/135 177/371/135
f 134/369/135 177/371/135 178/372/135
f 132/275/134 136/274/134 177/373/134
f 132/275/134 177/373/134 133/374/134
f 135/269/133 131/272/133 134/375/133
f 135/269/133 134/375/133 178/376/133
f 136/260/131 135/259/131 178/377/131
f 136/260/131 178/377/131 177/378/131
s off
