# Apple ModelIO OBJ File: silla__madera_para_texturizar
mtllib silla__madera_para_texturizar.mtl
g Cube.001
v -0.4079 0.00036 1.41486
v -0.4079 0.054328 1.41486
v -0.4079 0.054328 1.33279
v -0.4079 0.00036 1.33279
v 0.317427 0.00036 1.30239
v 0.317427 0.054328 1.30239
v 0.4121 0.054328 1.29843
v 0.4121 0.00036 1.29843
v 0.4121 0.00036 2.01312
v 0.4121 0.054328 2.01312
v 0.4121 0.054328 2.09342
v 0.4121 0.00036 2.09342
v -0.325081 0.00036 2.06253
v -0.325081 0.054328 2.06253
v -0.4079 0.054328 2.05906
v -0.4079 0.00036 2.05906
v 0.370735 0.00036 1.9797
v 0.370735 0.00036 2.05155
v 0.370735 -0.035629 2.05155
v 0.370735 -0.035629 1.9797
v -0.325081 0.054328 1.98847
v -0.325081 0.892475 1.98847
v -0.325081 0.892475 2.06253
v -0.366536 0.00036 1.95505
v -0.366536 0.00036 2.02065
v -0.4079 0.00036 1.9857
v -0.292072 0.00036 1.36808
v -0.366536 0.00036 1.3712
v -0.325081 0.00036 1.32932
v 0.370735 0.00036 1.42067
v 0.370735 0.00036 1.3403
v 0.4121 0.00036 1.38826
v 0.285614 0.00036 2.04798
v 0.317427 0.00036 2.08945
v 0.285614 -0.035629 1.97686
v 0.285614 -0.035629 2.04798
v -0.366536 0.00036 1.44459
v -0.366536 -0.035629 1.3712
v -0.366536 -0.035629 1.44459
v -0.292072 0.00036 2.02377
v -0.366536 -0.035629 2.02065
v -0.292072 -0.035629 2.02377
v 0.285614 0.00036 1.34387
v 0.370735 -0.035629 1.3403
v 0.285614 -0.035629 1.34387
v -0.366536 -0.035629 1.95505
v 0.285614 -0.035629 1.42343
v 0.370735 -0.035629 1.42067
v -0.325081 0.054328 1.41217
v -0.4079 0.054328 1.9857
v 0.4121 0.054328 1.38826
v -0.325081 0.762174 1.32932
v -0.4079 0.762174 1.33279
v -0.4079 0.892475 1.33279
v -0.325081 0.892475 1.32932
v -0.292072 -0.035629 1.36808
v -0.292072 -0.035629 1.44217
v -0.325081 0.054328 1.32932
v 0.317427 0.054328 1.39133
v 0.317427 0.054328 2.00995
v -0.292072 -0.035629 1.95754
v 0.317427 0.054328 2.08945
v -0.4079 0.892475 1.9857
v -0.4079 0.892475 2.05906
v -0.390012 0.956511 2.04389
v -0.390012 0.956511 2.00222
v -0.342969 0.956511 2.00379
v -0.4079 0.762174 1.41486
v -0.325081 0.762174 1.41217
v -0.325081 0.892475 1.41217
v -0.4079 0.892475 1.41486
v -0.342969 0.956511 2.04586
v -0.342196 0.956511 1.34708
v -0.390786 0.956511 1.34911
v -0.390786 0.956511 1.39726
v -0.342196 0.956511 1.39569
v -0.325081 0.676311 1.41217
v -0.325081 0.676311 1.32932
v -0.4079 0.676311 1.33279
v -0.4079 0.676311 1.41486
v -0.4079 0.190204 1.41486
v -0.325081 0.190204 1.41217
v -0.323869 0.190204 1.99902
v -0.405588 0.190204 2.00171
v -0.325081 0.535244 1.32932
v -0.4079 0.535244 1.33279
v -0.4079 0.535244 1.41486
v -0.325081 0.535244 1.41217
v -0.325081 0.44739 1.41217
v -0.325081 0.44739 1.32932
v -0.4079 0.44739 1.33279
v -0.4079 0.44739 1.41486
v -0.325081 0.283737 1.41217
v -0.4079 0.283737 1.41486
v -0.323869 0.283737 1.99902
v -0.405588 0.283737 2.00171
v -0.325081 0.283737 1.32932
v -0.4079 0.283737 1.33279
v -0.325081 0.190204 1.32932
v -0.4079 0.190204 1.33279
v -0.405588 0.676311 2.00171
v -0.323869 0.676311 1.99902
v -0.323869 0.762174 1.99902
v -0.405588 0.762174 2.00171
v -0.405588 0.44739 2.00171
v -0.323869 0.44739 1.99902
v -0.323869 0.535244 1.99902
v -0.405588 0.535244 2.00171
v -0.325374 0.023407 1.33276
v -0.325374 -0.574572 1.33276
v -0.325374 -0.574572 1.41238
v -0.325374 0.023407 1.41238
v -0.406319 -0.574572 1.41238
v -0.406319 0.023407 1.41238
v -0.406319 -0.574572 1.33276
v -0.406319 0.023407 1.33276
v 0.407806 0.023407 1.30029
v 0.407806 -0.574572 1.30029
v 0.407806 -0.574572 1.37991
v 0.407806 0.023407 1.37991
v 0.32686 -0.574572 1.37991
v 0.32686 0.023407 1.37991
v 0.32686 -0.574572 1.30029
v 0.32686 0.023407 1.30029
v 0.407806 0.023407 2.01142
v 0.407806 -0.574572 2.01142
v 0.407806 -0.574572 2.09104
v 0.407806 0.023407 2.09104
v 0.32686 -0.574572 2.09104
v 0.32686 0.023407 2.09104
v 0.32686 -0.574572 2.01142
v 0.32686 0.023407 2.01142
v -0.325374 0.023407 1.97867
v -0.325374 -0.574572 1.97867
v -0.325374 -0.574572 2.05829
v -0.325374 0.023407 2.05829
v -0.406319 -0.574572 2.05829
v -0.406319 0.023407 2.05829
v -0.406319 -0.574572 1.97867
v -0.406319 0.023407 1.97867
vn -1 -0 -0
vn -0.0419 -0 -0.9991
vn 1 -0 -0
vn -0.0419 -0 0.9991
vn -0 -1 -0
vn -0 1 -0
vn -0.9631 0.269 -0
vn 0.0324 0.2412 -0.9699
vn 0.0324 -0 0.9995
vn 0.0334 -0 -0.9994
vn -0.9661 0.2582 -0
vn 0.9631 0.269 -0
vn 0.0313 0.257 0.9659
vn -0.0405 0.257 -0.9656
vn -0.0406 0.2411 0.9697
vn 0.9661 0.2582 -0
vn -1 -0 0.0039
vn 0.0329 -0 0.9995
vn 1 -0 -0.0021
vn -0 -0 -1
vn -0 -0 1
vt 0.259842 0.902669
vt 0.259842 0.852526
vt 0.26676 0.852526
vt 0.26676 0.902669
vt 0.073615 0.902671
vt 0.073615 0.852528
vt 0.081359 0.852528
vt 0.081359 0.902671
vt 0.691839 0.694053
vt 0.641696 0.694053
vt 0.641696 0.687284
vt 0.691839 0.687284
vt 0.170192 0.902669
vt 0.170192 0.852526
vt 0.176962 0.852525
vt 0.176962 0.902668
vt 0.574532 0.700102
vt 0.574532 0.694045
vt 0.607969 0.694045
vt 0.607969 0.700102
vt 0.421939 0.852526
vt 0.415696 0.852526
vt 0.415696 0.073786
vt 0.421939 0.073786
vt 0.51415 0.610118
vt 0.51415 0.604588
vt 0.517531 0.60135
vt 0.517531 0.607535
vt 0.508064 0.659601
vt 0.51415 0.659338
vt 0.510762 0.662868
vt 0.517531 0.662576
vt 0.453892 0.655167
vt 0.453892 0.661943
vt 0.450512 0.665473
vt 0.450512 0.657899
vt 0.46085 0.602284
vt 0.453892 0.601983
vt 0.458249 0.598788
vt 0.450512 0.598453
vt 0.695359 0.60541
vt 0.695599 0.598453
vt 0.701354 0.60541
vt 0.701655 0.598453
vt 0.574532 0.788764
vt 0.574532 0.782577
vt 0.607969 0.782577
vt 0.607969 0.788764
vt 0.512522 0.700132
vt 0.512522 0.694045
vt 0.545959 0.694048
vt 0.545959 0.700135
vt 0.483949 0.747389
vt 0.483949 0.754351
vt 0.450512 0.754353
vt 0.450512 0.74739
vt 0.574532 0.837327
vt 0.574532 0.831797
vt 0.607969 0.831797
vt 0.607969 0.837327
vt 0.648704 0.60541
vt 0.648471 0.598453
vt 0.453892 0.60804
vt 0.450512 0.605223
vt 0.51415 0.653151
vt 0.517531 0.655657
vt 0.552873 0.655884
vt 0.546104 0.655657
vt 0.546104 0.607535
vt 0.552873 0.607301
vt 0.574532 0.747229
vt 0.607969 0.747229
vt 0.691839 0.74673
vt 0.641696 0.74673
vt 0.205535 0.902669
vt 0.205535 0.852526
vt 0.211719 0.852526
vt 0.211719 0.902669
vt 0.691839 0.754303
vt 0.641696 0.754303
vt 0.574532 0.754005
vt 0.607969 0.754005
vt 0.021061 0.194851
vt 0.014286 0.194851
vt 0.014286 0.073787
vt 0.021061 0.073787
vt 0.641997 0.60541
vt 0.641696 0.598453
vt 0.6443 0.658711
vt 0.644037 0.652625
vt 0.650284 0.652625
vt 0.650487 0.658711
vt 0.605386 0.665138
vt 0.552873 0.662868
vt 0.605386 0.657641
vt 0.605386 0.60549
vt 0.69373 0.652625
vt 0.69352 0.658711
vt 0.483949 0.694045
vt 0.483949 0.700136
vt 0.450512 0.700137
vt 0.450512 0.694047
vt 0.512522 0.747355
vt 0.545959 0.747358
vt 0.699314 0.652625
vt 0.69905 0.658711
vt 0.508064 0.604325
vt 0.510762 0.601058
vt 0.46085 0.661642
vt 0.458249 0.665138
vt 0.552873 0.601058
vt 0.605386 0.598788
vt 0.117671 0.902674
vt 0.117671 0.852531
vt 0.014286 0.902669
vt 0.014286 0.852525
vt 0.021061 0.852526
vt 0.021061 0.902669
vt 0.211719 0.073787
vt 0.205535 0.073787
vt 0.206813 0.014286
vt 0.210326 0.014286
vt 0.387123 0.073786
vt 0.380363 0.073787
vt 0.385627 0.014286
vt 0.381787 0.014287
vt 0.739557 0.779019
vt 0.732789 0.779018
vt 0.732789 0.657954
vt 0.739557 0.657954
vt 0.26676 0.194851
vt 0.259842 0.194851
vt 0.259842 0.073786
vt 0.26676 0.073786
vt 0.170192 0.073787
vt 0.176962 0.073786
vt 0.302318 0.194851
vt 0.295333 0.194851
vt 0.295333 0.073786
vt 0.302318 0.073786
vt 0.387123 0.852525
vt 0.380363 0.852526
vt 0.877606 0.726263
vt 0.877606 0.730111
vt 0.874095 0.729989
vt 0.874061 0.726141
vt 0.87797 0.877803
vt 0.873999 0.877631
vt 0.873999 0.873572
vt 0.87797 0.873705
vt 0.261324 0.014286
vt 0.265384 0.014286
vt 0.416987 0.014286
vt 0.420533 0.014286
vt 0.738164 0.598454
vt 0.734193 0.598453
vt 0.015648 0.014286
vt 0.019622 0.014286
vt 0.171659 0.014287
vt 0.175505 0.014286
vt 0.29683 0.014286
vt 0.300928 0.014286
vt 0.302318 0.274628
vt 0.295333 0.274628
vt 0.26676 0.274629
vt 0.259842 0.274629
vt 0.648466 0.832349
vt 0.641696 0.832549
vt 0.641786 0.783077
vt 0.648466 0.782876
vt 0.021061 0.274629
vt 0.014286 0.274629
vt 0.021061 0.405697
vt 0.014286 0.405697
vt 0.810238 0.729522
vt 0.80347 0.729522
vt 0.80347 0.598453
vt 0.810238 0.598454
vt 0.26676 0.405697
vt 0.259842 0.405697
vt 0.302318 0.405697
vt 0.295333 0.405697
vt 0.302318 0.487324
vt 0.295333 0.487324
vt 0.26676 0.487324
vt 0.259842 0.487324
vt 0.683808 0.832549
vt 0.677038 0.832349
vt 0.683718 0.783077
vt 0.677038 0.782876
vt 0.021061 0.487324
vt 0.014286 0.487324
vt 0.021061 0.639377
vt 0.014286 0.639377
vt 0.774898 0.750507
vt 0.76813 0.750506
vt 0.76813 0.598453
vt 0.774898 0.598454
vt 0.26676 0.639377
vt 0.259842 0.639377
vt 0.302318 0.639377
vt 0.295333 0.639377
vt 0.302318 0.726281
vt 0.295333 0.726281
vt 0.26676 0.726281
vt 0.259842 0.726281
vt 0.210369 0.726281
vt 0.210369 0.639377
vt 0.021061 0.726281
vt 0.014286 0.726281
vt 0.810238 0.88434
vt 0.80347 0.88434
vt 0.80347 0.758095
vt 0.810238 0.758095
vt 0.302318 0.852526
vt 0.295333 0.852526
vt 0.774808 0.858858
vt 0.768129 0.858857
vt 0.768129 0.77908
vt 0.774808 0.77908
vt 0.845489 0.729522
vt 0.838811 0.729522
vt 0.838811 0.647895
vt 0.845489 0.647896
vt 0.845489 0.844999
vt 0.838811 0.844999
vt 0.838811 0.758095
vt 0.845489 0.758096
vt 0.35179 0.639377
vt 0.35179 0.726281
vt 0.210369 0.487324
vt 0.210369 0.405697
vt 0.519291 0.832562
vt 0.512522 0.832361
vt 0.519201 0.783089
vt 0.512522 0.782888
vt 0.457281 0.832398
vt 0.450512 0.832599
vt 0.450602 0.783126
vt 0.457281 0.782925
vt 0.35179 0.194851
vt 0.35179 0.274629
vt 0.35179 0.405697
vt 0.35179 0.487324
vt 0.210369 0.274628
vt 0.210369 0.194851
vt 0.739557 0.857265
vt 0.732787 0.857064
vt 0.739467 0.807792
vt 0.732787 0.807591
vt 0.880831 0.697368
vt 0.874061 0.697568
vt 0.874151 0.648096
vt 0.880831 0.647895
vt 0.109932 0.902675
vt 0.109932 0.852531
vt 0.613123 0.605223
vt 0.613123 0.598453
vt 0.512522 0.754313
vt 0.545959 0.754316
vt 0.613123 0.657899
vt 0.613123 0.665473
vt 0.527793 0.014286
vt 0.527793 0.569881
vt 0.521081 0.569881
vt 0.521081 0.014286
vt 0.880156 0.014286
vt 0.880156 0.56988
vt 0.873542 0.569881
vt 0.873542 0.014287
vt 0.457224 0.014286
vt 0.457224 0.569881
vt 0.450512 0.569881
vt 0.450512 0.014286
vt 0.774593 0.014286
vt 0.774593 0.56988
vt 0.767977 0.56988
vt 0.767977 0.014286
vt 0.838811 0.61261
vt 0.845426 0.61261
vt 0.845426 0.619322
vt 0.838811 0.619322
vt 0.641696 0.861122
vt 0.648312 0.861122
vt 0.648312 0.867834
vt 0.641696 0.867834
vt 0.563078 0.014286
vt 0.563078 0.569881
vt 0.556366 0.569881
vt 0.556366 0.014286
vt 0.985714 0.014286
vt 0.985714 0.56988
vt 0.9791 0.569881
vt 0.9791 0.014287
vt 0.598362 0.014286
vt 0.598362 0.569881
vt 0.59165 0.569881
vt 0.59165 0.014286
vt 0.809781 0.014286
vt 0.809781 0.56988
vt 0.803166 0.56988
vt 0.803166 0.014286
vt 0.677038 0.861122
vt 0.683654 0.861122
vt 0.683654 0.867834
vt 0.677038 0.867834
vt 0.512522 0.861135
vt 0.519138 0.861135
vt 0.519138 0.867847
vt 0.512522 0.867847
vt 0.633647 0.014286
vt 0.633647 0.569881
vt 0.626935 0.569881
vt 0.626935 0.014286
vt 0.950528 0.014286
vt 0.950528 0.56988
vt 0.943914 0.569881
vt 0.943914 0.014287
vt 0.492508 0.014286
vt 0.492508 0.569881
vt 0.485796 0.569881
vt 0.485796 0.014286
vt 0.739405 0.014286
vt 0.739405 0.56988
vt 0.732789 0.56988
vt 0.732789 0.014286
vt 0.450512 0.861171
vt 0.457127 0.861171
vt 0.457127 0.867883
vt 0.450512 0.867883
vt 0.574532 0.8659
vt 0.581147 0.8659
vt 0.581147 0.872612
vt 0.574532 0.872612
vt 0.668932 0.014286
vt 0.668932 0.569881
vt 0.66222 0.569881
vt 0.66222 0.014286
vt 0.915342 0.014286
vt 0.915342 0.56988
vt 0.908728 0.569881
vt 0.908728 0.014287
vt 0.704216 0.014286
vt 0.704216 0.569881
vt 0.697504 0.569881
vt 0.697504 0.014286
vt 0.84497 0.014286
vt 0.84497 0.56988
vt 0.838354 0.56988
vt 0.838354 0.014286
vt 0.838811 0.873572
vt 0.845426 0.873572
vt 0.845426 0.880284
vt 0.838811 0.880284
vt 0.873999 0.61261
vt 0.880615 0.61261
vt 0.880615 0.619322
vt 0.873999 0.619322
usemtl 
f 1/1/1 2/2/1 3/3/1
f 1/1/1 3/3/1 4/4/1
f 5/5/2 6/6/2 7/7/2
f 5/5/2 7/7/2 8/8/2
f 9/9/3 10/10/3 11/11/3
f 9/9/3 11/11/3 12/12/3
f 13/13/4 14/14/4 15/15/4
f 13/13/4 15/15/4 16/16/4
f 17/17/3 18/18/3 19/19/3
f 17/17/3 19/19/3 20/20/3
f 14/21/3 21/22/3 22/23/3
f 14/21/3 22/23/3 23/24/3
f 24/25/5 25/26/5 16/27/5
f 24/25/5 16/27/5 26/28/5
f 27/29/5 28/30/5 29/31/5
f 28/30/5 4/32/5 29/31/5
f 30/33/5 31/34/5 8/35/5
f 30/33/5 8/35/5 32/36/5
f 33/37/5 18/38/5 34/39/5
f 18/38/5 12/40/5 34/39/5
f 35/41/5 20/42/5 36/43/5
f 20/42/5 19/44/5 36/43/5
f 37/45/1 28/46/1 38/47/1
f 37/45/1 38/47/1 39/48/1
f 40/49/4 25/50/4 41/51/4
f 40/49/4 41/51/4 42/52/4
f 43/53/2 31/54/2 44/55/2
f 43/53/2 44/55/2 45/56/2
f 25/57/1 24/58/1 46/59/1
f 25/57/1 46/59/1 41/60/1
f 47/61/5 48/62/5 20/42/5
f 47/61/5 20/42/5 35/41/5
f 18/38/5 17/63/5 9/64/5
f 18/38/5 9/64/5 12/40/5
f 37/65/5 24/25/5 26/28/5
f 37/65/5 26/28/5 1/66/5
f 49/67/6 2/68/6 50/69/6
f 49/67/6 50/69/6 21/70/6
f 30/71/3 17/17/3 20/20/3
f 30/71/3 20/20/3 48/72/3
f 32/73/3 51/74/3 10/10/3
f 32/73/3 10/10/3 9/9/3
f 16/75/1 15/76/1 50/77/1
f 16/75/1 50/77/1 26/78/1
f 8/79/3 7/80/3 51/74/3
f 8/79/3 51/74/3 32/73/3
f 31/81/3 30/71/3 48/72/3
f 31/81/3 48/72/3 44/82/3
f 52/83/2 53/84/2 54/85/2
f 52/83/2 54/85/2 55/86/2
f 28/30/5 37/65/5 1/66/5
f 28/30/5 1/66/5 4/32/5
f 45/87/5 44/88/5 47/61/5
f 44/88/5 48/62/5 47/61/5
f 24/58/1 37/45/1 39/48/1
f 24/58/1 39/48/1 46/59/1
f 17/63/5 30/33/5 32/36/5
f 17/63/5 32/36/5 9/64/5
f 26/78/1 50/77/1 2/2/1
f 26/78/1 2/2/1 1/1/1
f 38/89/5 56/90/5 57/91/5
f 38/89/5 57/91/5 39/92/5
f 6/93/6 58/94/6 49/67/6
f 6/93/6 49/67/6 59/95/6
f 59/95/6 49/67/6 60/96/6
f 49/67/6 21/70/6 60/96/6
f 39/92/5 57/91/5 61/97/5
f 39/92/5 61/97/5 46/98/5
f 28/99/2 27/100/2 56/101/2
f 28/99/2 56/101/2 38/102/2
f 33/103/4 40/49/4 42/52/4
f 33/103/4 42/52/4 36/104/4
f 46/98/5 61/97/5 42/105/5
f 46/98/5 42/105/5 41/106/5
f 25/26/5 40/107/5 16/27/5
f 40/107/5 13/108/5 16/27/5
f 43/109/5 27/29/5 29/31/5
f 43/109/5 29/31/5 5/110/5
f 60/96/6 21/70/6 14/111/6
f 60/96/6 14/111/6 62/112/6
f 34/113/4 62/114/4 14/14/4
f 34/113/4 14/14/4 13/13/4
f 4/115/2 3/116/2 58/117/2
f 4/115/2 58/117/2 29/118/2
f 63/119/7 64/120/7 65/121/7
f 63/119/7 65/121/7 66/122/7
f 22/123/8 63/124/8 67/125/8
f 63/124/8 66/126/8 67/125/8
f 68/127/9 69/128/9 70/129/9
f 68/127/9 70/129/9 71/130/9
f 53/131/1 68/132/1 71/133/1
f 53/131/1 71/133/1 54/134/1
f 15/15/4 14/14/4 23/135/4
f 15/15/4 23/135/4 64/136/4
f 69/137/3 52/138/3 55/139/3
f 69/137/3 55/139/3 70/140/3
f 50/77/1 15/76/1 64/120/1
f 50/77/1 64/120/1 63/119/1
f 21/141/10 50/142/10 63/124/10
f 21/141/10 63/124/10 22/123/10
f 67/143/6 66/144/6 65/145/6
f 67/143/6 65/145/6 72/146/6
f 73/147/6 74/148/6 75/149/6
f 73/147/6 75/149/6 76/150/6
f 54/134/11 71/133/11 75/151/11
f 54/134/11 75/151/11 74/152/11
f 23/24/12 22/23/12 67/153/12
f 23/24/12 67/153/12 72/154/12
f 71/130/13 70/129/13 75/155/13
f 70/129/13 76/156/13 75/155/13
f 55/86/14 54/85/14 74/157/14
f 55/86/14 74/157/14 73/158/14
f 64/136/15 23/135/15 72/159/15
f 64/136/15 72/159/15 65/160/15
f 70/140/16 55/139/16 73/161/16
f 70/140/16 73/161/16 76/162/16
f 77/163/3 78/164/3 52/138/3
f 77/163/3 52/138/3 69/137/3
f 79/165/1 80/166/1 68/132/1
f 79/165/1 68/132/1 53/131/1
f 81/167/5 82/168/5 83/169/5
f 81/167/5 83/169/5 84/170/5
f 78/171/2 79/172/2 53/84/2
f 78/171/2 53/84/2 52/83/2
f 85/173/2 86/174/2 79/172/2
f 85/173/2 79/172/2 78/171/2
f 87/175/9 88/176/9 77/177/9
f 87/175/9 77/177/9 80/178/9
f 86/179/1 87/180/1 80/166/1
f 86/179/1 80/166/1 79/165/1
f 88/181/3 85/182/3 78/164/3
f 88/181/3 78/164/3 77/163/3
f 89/183/3 90/184/3 85/182/3
f 89/183/3 85/182/3 88/181/3
f 91/185/1 92/186/1 87/180/1
f 91/185/1 87/180/1 86/179/1
f 93/187/6 94/188/6 95/189/6
f 94/188/6 96/190/6 95/189/6
f 90/191/2 91/192/2 86/174/2
f 90/191/2 86/174/2 85/173/2
f 97/193/2 98/194/2 91/192/2
f 97/193/2 91/192/2 90/191/2
f 94/195/9 93/196/9 89/197/9
f 94/195/9 89/197/9 92/198/9
f 98/199/1 94/200/1 92/186/1
f 98/199/1 92/186/1 91/185/1
f 93/201/3 97/202/3 90/184/3
f 93/201/3 90/184/3 89/183/3
f 82/203/3 99/204/3 97/202/3
f 82/203/3 97/202/3 93/201/3
f 100/205/1 81/206/1 94/200/1
f 100/205/1 94/200/1 98/199/1
f 94/200/17 81/206/17 84/207/17
f 94/200/17 84/207/17 96/208/17
f 99/209/2 100/210/2 98/194/2
f 99/209/2 98/194/2 97/193/2
f 58/117/2 3/116/2 100/210/2
f 58/117/2 100/210/2 99/209/2
f 2/211/9 49/212/9 82/213/9
f 2/211/9 82/213/9 81/214/9
f 3/3/1 2/2/1 81/206/1
f 3/3/1 81/206/1 100/205/1
f 49/215/3 58/216/3 99/204/3
f 49/215/3 99/204/3 82/203/3
f 101/217/18 102/218/18 103/219/18
f 101/217/18 103/219/18 104/220/18
f 105/221/18 106/222/18 107/223/18
f 105/221/18 107/223/18 108/224/18
f 84/225/18 83/226/18 95/227/18
f 84/225/18 95/227/18 96/228/18
f 82/203/19 93/201/19 95/229/19
f 82/203/19 95/229/19 83/230/19
f 87/180/17 92/186/17 105/231/17
f 87/180/17 105/231/17 108/232/17
f 88/233/6 87/234/6 107/235/6
f 87/234/6 108/236/6 107/235/6
f 92/237/5 89/238/5 106/239/5
f 92/237/5 106/239/5 105/240/5
f 77/163/19 69/137/19 103/241/19
f 77/163/19 103/241/19 102/242/19
f 89/183/19 88/181/19 107/243/19
f 89/183/19 107/243/19 106/244/19
f 68/132/17 80/166/17 101/245/17
f 68/132/17 101/245/17 104/246/17
f 69/247/6 68/248/6 103/249/6
f 68/248/6 104/250/6 103/249/6
f 80/251/5 77/252/5 102/253/5
f 80/251/5 102/253/5 101/254/5
f 12/255/4 11/256/4 62/114/4
f 12/255/4 62/114/4 34/113/4
f 10/257/6 60/96/6 62/112/6
f 10/257/6 62/112/6 11/258/6
f 31/34/5 43/109/5 8/35/5
f 43/109/5 5/110/5 8/35/5
f 18/259/4 33/103/4 36/104/4
f 18/259/4 36/104/4 19/260/4
f 51/261/6 59/95/6 60/96/6
f 51/261/6 60/96/6 10/257/6
f 7/262/6 6/93/6 59/95/6
f 7/262/6 59/95/6 51/261/6
f 56/90/5 45/87/5 47/61/5
f 56/90/5 47/61/5 57/91/5
f 57/91/5 47/61/5 35/41/5
f 57/91/5 35/41/5 61/97/5
f 27/100/2 43/53/2 45/56/2
f 27/100/2 45/56/2 56/101/2
f 61/97/5 35/41/5 36/43/5
f 61/97/5 36/43/5 42/105/5
f 40/107/5 33/37/5 34/39/5
f 40/107/5 34/39/5 13/108/5
f 29/118/2 58/117/2 6/6/2
f 29/118/2 6/6/2 5/5/2
f 109/263/1 110/264/1 111/265/1
f 109/263/1 111/265/1 112/266/1
f 112/267/20 111/268/20 113/269/20
f 112/267/20 113/269/20 114/270/20
f 114/271/3 113/272/3 115/273/3
f 114/271/3 115/273/3 116/274/3
f 116/275/21 115/276/21 110/277/21
f 116/275/21 110/277/21 109/278/21
f 112/279/5 114/280/5 116/281/5
f 112/279/5 116/281/5 109/282/5
f 113/283/6 111/284/6 110/285/6
f 113/283/6 110/285/6 115/286/6
f 117/287/1 118/288/1 119/289/1
f 117/287/1 119/289/1 120/290/1
f 120/291/20 119/292/20 121/293/20
f 120/291/20 121/293/20 122/294/20
f 122/295/3 121/296/3 123/297/3
f 122/295/3 123/297/3 124/298/3
f 124/299/21 123/300/21 118/301/21
f 124/299/21 118/301/21 117/302/21
f 120/303/5 122/304/5 124/305/5
f 120/303/5 124/305/5 117/306/5
f 121/307/6 119/308/6 118/309/6
f 121/307/6 118/309/6 123/310/6
f 125/311/1 126/312/1 127/313/1
f 125/311/1 127/313/1 128/314/1
f 128/315/20 127/316/20 129/317/20
f 128/315/20 129/317/20 130/318/20
f 130/319/3 129/320/3 131/321/3
f 130/319/3 131/321/3 132/322/3
f 132/323/21 131/324/21 126/325/21
f 132/323/21 126/325/21 125/326/21
f 128/327/5 130/328/5 132/329/5
f 128/327/5 132/329/5 125/330/5
f 129/331/6 127/332/6 126/333/6
f 129/331/6 126/333/6 131/334/6
f 133/335/1 134/336/1 135/337/1
f 133/335/1 135/337/1 136/338/1
f 136/339/20 135/340/20 137/341/20
f 136/339/20 137/341/20 138/342/20
f 138/343/3 137/344/3 139/345/3
f 138/343/3 139/345/3 140/346/3
f 140/347/21 139/348/21 134/349/21
f 140/347/21 134/349/21 133/350/21
f 136/351/5 138/352/5 140/353/5
f 136/351/5 140/353/5 133/354/5
f 137/355/6 135/356/6 134/357/6
f 137/355/6 134/357/6 139/358/6
s off
