# Apple ModelIO OBJ File: silla_rimax._ensato_3_obj
mtllib silla_rimax._ensato_3_obj.mtl
g Cube_Material
v -0.383076 0.05 0.367236
v -0.5 0.05 0.361173
v -0.417719 0.05 0.386928
v -0.383076 0.05 0.44056
v -0.383076 -0.05 0.44056
v -0.415423 -0.05 0.388488
v 0.5 -0.05 0.413028
v 0.407435 -0.05 0.478918
v 0.407435 -0.734041 0.478918
v 0.5 -0.734041 0.413028
v -0.383076 -0.05 0.367236
v 0.001077 -0.05 0.423701
v 0.001077 -0.05 0.508405
v -0.383076 -0.828055 0.44056
v -0.383076 -0.828055 0.367236
v 0.001077 0.05 0.508405
v 0.001077 0.05 0.423701
v 0.001121 0.05 0
v -0.422602 0.05 0
v -0.551569 -0.05 0
v -0.422602 -0.05 0
v -0.5 -0.05 0.361173
v 0.551436 -0.05 0
v 0.551436 0.05 0
v 0.5 0.05 0.413028
v 0.424844 -0.05 0
v 0.38523 -0.05 0.458034
v -0.551569 0.05 0
v 0.391093 -0.05 0
v 0.35463 -0.05 0.455299
v 0.424844 0.05 0
v 0.38523 0.05 0.458034
v 0.408393 0.05 0.477778
v 0.38523 0.05 0.549634
v 0.001121 -0.05 0
v 0.38523 -0.05 0.549634
v 0.35463 -0.05 0.54635
v 0.349506 0.05 0
v 0.316927 0.05 0.451929
v 0.316927 0.05 0.542304
v 0.316927 -0.05 0.542304
v 0.35463 0.05 0.54635
v 0.35463 0.05 0.455299
v 0.391093 0.05 0
v 0.316927 -0.05 0.451929
v 0.349506 -0.05 0
v 0.38523 -0.734041 0.458034
v 0.38523 -0.734041 0.549634
v 0.38523 0.489423 0.458034
v 0.38523 0.489423 0.549634
v 0.305838 0.528686 0.493711
v 0.305838 0.528686 0.585312
v 0.35463 0.489423 0.54635
v 0.35463 0.489423 0.455299
v -0.5 -0.828055 0.361173
v -0.415423 -0.828055 0.388488
v 0.290006 0.502501 0.490976
v 0.290006 0.502501 0.582027
v 0.021538 0.535318 0.599295
v 0.021538 0.535318 0.508244
v 0.03737 0.561503 0.602579
v 0.03737 0.561503 0.510979
v -0.266847 0.617008 0.510979
v -0.266847 0.617008 0.602579
v -0.282678 0.590823 0.508244
v -0.282678 0.590823 0.599295
v -0.50044 0.722482 0.497968
v -0.50044 0.722482 0.323984
v -0.484608 0.748668 0.504243
v -0.56191 0.763993 0.370622
v -0.546079 0.790178 0.382789
v -0.484608 0.748668 0.32921
v -0.546079 0.790178 0
v -0.661937 0.860227 -0.153487
v -0.661937 0.860227 0.185988
v -0.56191 0.763993 0
v -0.677769 0.834042 -0.163622
v -0.677769 0.834042 0.173818
v -0.383076 0.05 -0.367236
v -0.383076 0.05 -0.44056
v -0.417719 0.05 -0.386928
v -0.5 0.05 -0.361173
v -0.383076 -0.05 -0.44056
v -0.415423 -0.05 -0.388488
v 0.5 -0.05 -0.413028
v 0.5 -0.734041 -0.413028
v 0.407435 -0.734041 -0.478918
v 0.407435 -0.05 -0.478918
v -0.383076 -0.05 -0.367236
v 0.001077 -0.05 -0.508405
v 0.001077 -0.05 -0.423701
v -0.383076 -0.828055 -0.367236
v -0.383076 -0.828055 -0.44056
v 0.001077 0.05 -0.508405
v 0.001077 0.05 -0.423701
v -0.5 -0.05 -0.361173
v 0.5 0.05 -0.413028
v 0.38523 -0.05 -0.458034
v 0.35463 -0.05 -0.455299
v 0.38523 0.05 -0.458034
v 0.408393 0.05 -0.477778
v 0.38523 0.05 -0.549634
v 0.35463 -0.05 -0.54635
v 0.38523 -0.05 -0.549634
v 0.316927 0.05 -0.451929
v 0.316927 0.05 -0.542304
v 0.316927 -0.05 -0.542304
v 0.35463 0.05 -0.54635
v 0.35463 0.05 -0.455299
v 0.316927 -0.05 -0.451929
v 0.38523 -0.734041 -0.458034
v 0.38523 -0.734041 -0.549634
v 0.38523 0.489423 -0.549634
v 0.38523 0.489423 -0.458034
v 0.305838 0.528686 -0.585312
v 0.305838 0.528686 -0.493711
v 0.35463 0.489423 -0.54635
v 0.35463 0.489423 -0.455299
v -0.5 -0.828055 -0.361173
v -0.415423 -0.828055 -0.388488
v 0.290006 0.502501 -0.490976
v 0.021538 0.535318 -0.508244
v 0.021538 0.535318 -0.599295
v 0.290006 0.502501 -0.582027
v 0.03737 0.561503 -0.602579
v -0.266847 0.617008 -0.602579
v -0.266847 0.617008 -0.510979
v 0.03737 0.561503 -0.510979
v -0.282678 0.590823 -0.508244
v -0.50044 0.722482 -0.323984
v -0.50044 0.722482 -0.497968
v -0.282678 0.590823 -0.599295
v -0.56191 0.763993 -0.370622
v -0.484608 0.748668 -0.504243
v -0.546079 0.790178 -0.382789
v -0.484608 0.748668 -0.32921
v -0.661937 0.860227 -0.185988
v -0.661937 0.860227 0.153487
v -0.677769 0.834042 -0.173818
v -0.677769 0.834042 0.163622
vn -0 1 -0
vn -0.8446 -0.0055 0.5353
vn 0.5799 -0 0.8147
vn -0 -1 -0
vn 1 -0 -0
vn -0.1739 -0 0.9848
vn 0.9923 -0 0.1236
vn 0.5786 0.0019 0.8156
vn -0.1067 -0 0.9943
vn -0.99 -0 0.1413
vn 0.9529 -0.0028 0.3032
vn -1 -0 -0
vn 0.9541 -0 0.2996
vn -0.3651 -0 -0.931
vn 0.4433 0.8964 -0
vn 0.089 -0 -0.996
vn -0.3031 0.0039 0.953
vn -0.3073 -0 0.9516
vn -0.8495 -0 0.5277
vn 0.0518 -0 -0.9987
vn -0.1213 -0.9926 -0
vn -0.2082 0.5395 -0.8159
vn -0.1983 -0.9801 -0
vn 0.1986 -0.5548 0.8079
vn 0.1795 0.9838 -0
vn 0.045 -0.1511 0.9875
vn 0.1213 0.9926 -0
vn -0.0475 0.1321 -0.9901
vn -0.5174 -0.8557 -0
vn 0.0171 0.0936 -0.9955
vn -0.1795 -0.9838 -0
vn -0.0205 -0.1122 0.9935
vn -0.8068 0.3109 0.5024
vn -0.3837 0.0639 0.9212
vn 0.5174 0.8557 -0
vn 0.5512 -0.2106 -0.8074
vn 0.5596 0.8287 -0
vn 0.8442 -0.4884 -0.221
vn -0.5596 -0.8287 -0
vn -0.8557 0.5174 -0
vn 0.7024 -0.2997 -0.6456
vn -0.8015 0.2277 0.5529
vn -0.8446 -0.0055 -0.5353
vn 0.5799 -0 -0.8147
vn -0.1739 -0 -0.9848
vn 0.9923 -0 -0.1236
vn 0.5786 0.0019 -0.8156
vn -0.1067 -0 -0.9943
vn -0.99 -0 -0.1413
vn 0.9529 -0.0028 -0.3032
vn 0.9541 -0 -0.2996
vn -0.3651 -0 0.931
vn 0.089 -0 0.996
vn -0.3031 0.0039 -0.953
vn -0.3073 -0 -0.9516
vn -0.8495 -0 -0.5277
vn 0.0518 -0 0.9987
vn -0.2082 0.5395 0.8159
vn 0.1986 -0.5548 -0.8079
vn 0.045 -0.1511 -0.9875
vn -0.0475 0.1321 0.9901
vn 0.0171 0.0936 0.9955
vn -0.0205 -0.1122 -0.9935
vn -0.8068 0.3109 -0.5024
vn -0.3837 0.0639 -0.9212
vn 0.5512 -0.2106 0.8074
vn 0.8442 -0.4884 0.221
vn 0.7024 -0.2997 0.6456
vn -0.8015 0.2277 -0.5529
vt 0.023695 0.614113
vt 0.02414 0.621759
vt 0.022205 0.616376
vt 0.018162 0.614104
vt 0.855925 0.01017
vt 0.860293 0.010009
vt 0.855941 0.075216
vt 0.860168 0.075069
vt 0.905733 0.07545
vt 0.911027 0.075397
vt 0.911027 0.522685
vt 0.905733 0.522738
vt 0.497434 0.692239
vt 0.501656 0.667112
vt 0.508048 0.667103
vt 0.502967 0.692231
vt 0.777008 0.402714
vt 0.782541 0.402709
vt 0.782541 0.909317
vt 0.777008 0.909323
vt 0.040194 0.532673
vt 0.03929 0.467291
vt 0.064878 0.466951
vt 0.065783 0.532333
vt 0.019473 0.588986
vt 0.013081 0.588976
vt 0.050571 0.589031
vt 0.050611 0.616739
vt 0.470518 0.703299
vt 0.470518 0.694866
vt 0.496989 0.699886
vt 0.010009 0.710643
vt 0.010009 0.645531
vt 0.040248 0.64519
vt 0.040248 0.710302
vt 0.470573 0.63945
vt 0.470518 0.631172
vt 0.5008 0.634488
vt 0.504208 0.641988
vt 0.050611 0.625173
vt 0.470572 0.641657
vt 0.504005 0.643989
vt 0.050611 0.553045
vt 0.050555 0.561323
vt 0.020329 0.556362
vt 0.016921 0.563861
vt 0.015433 0.562344
vt 0.010009 0.563851
vt 0.470558 0.667158
vt 0.51112 0.641977
vt 0.510875 0.643979
vt 0.905733 0.010061
vt 0.910977 0.010009
vt 0.050558 0.566249
vt 0.017375 0.568328
vt 0.010555 0.568318
vt 0.019388 0.532965
vt 0.018483 0.467582
vt 0.169566 0.631585
vt 0.169566 0.566539
vt 0.196234 0.566651
vt 0.196234 0.631698
vt 0.016904 0.532999
vt 0.015999 0.467617
vt 0.017124 0.565863
vt 0.010253 0.565852
vt 0.050557 0.56353
vt 0.503754 0.646455
vt 0.510574 0.646445
vt 0.470571 0.644376
vt 0.637022 0.623465
vt 0.632954 0.630628
vt 0.634921 0.623045
vt 0.632954 0.617877
vt 0.880396 0.07526
vt 0.88031 0.010154
vt 0.885716 0.075121
vt 0.885716 0.010009
vt 0.931044 0.010009
vt 0.937859 0.010127
vt 0.937859 0.455073
vt 0.931044 0.454955
vt 0.885716 0.520515
vt 0.880396 0.520655
vt 0.749194 0.402709
vt 0.756991 0.402754
vt 0.756991 0.849997
vt 0.749194 0.849952
vt 0.014888 0.533028
vt 0.013984 0.467645
vt 0.158006 0.546521
vt 0.151123 0.545894
vt 0.177393 0.260984
vt 0.184276 0.261612
vt 0.182409 0.235289
vt 0.189292 0.235917
vt 0.010009 0.180338
vt 0.012024 0.18031
vt 0.663484 0.469941
vt 0.661527 0.469704
vt 0.697016 0.184599
vt 0.698974 0.184836
vt 0.802558 0.075397
vt 0.802723 0.010009
vt 0.808324 0.010019
vt 0.808324 0.075408
vt 0.064621 0.654903
vt 0.060265 0.648602
vt 0.062832 0.649278
vt 0.064621 0.64519
vt 0.808324 0.584171
vt 0.802558 0.584159
vt 0.860293 0.581167
vt 0.856066 0.581315
vt 0.828341 0.010029
vt 0.835907 0.010009
vt 0.835907 0.51872
vt 0.828341 0.51874
vt 0.131105 0.54594
vt 0.12436 0.546571
vt 0.092804 0.262488
vt 0.09955 0.261857
vt 0.096621 0.253147
vt 0.089875 0.253778
vt 0.088956 0.230593
vt 0.095702 0.229962
vt 0.696764 0.158654
vt 0.693646 0.175524
vt 0.014414 0.15457
vt 0.015711 0.171677
vt 0.192512 0.213125
vt 0.185628 0.212497
vt 0.188901 0.17466
vt 0.195785 0.175288
vt 0.031313 0.132841
vt 0.03261 0.149947
vt 0.678831 0.152064
vt 0.681949 0.135194
vt 0.094795 0.191712
vt 0.088049 0.192343
vt 0.088305 0.10483
vt 0.101196 0.103624
vt 0.663661 0.113638
vt 0.666779 0.096768
vt 0.051801 0.113359
vt 0.050504 0.096252
vt 0.0858 0.088068
vt 0.095382 0.076633
vt 0.092439 0.059912
vt 0.065783 0.027117
vt 0.064454 0.010009
vt 0.183081 0.086726
vt 0.196234 0.087926
vt 0.661527 0.026884
vt 0.664628 0.010009
vt 0.18958 0.059806
vt 0.164077 0.05748
vt 0.153452 0.010009
vt 0.178962 0.012335
vt 0.181121 0.103572
vt 0.161748 0.074292
vt 0.120375 0.074295
vt 0.128314 0.010009
vt 0.131105 0.026744
vt 0.103162 0.012361
vt 0.106105 0.029082
vt 0.151123 0.026821
usemtl Material
f 1/1/1 2/2/1 3/3/1
f 1/1/1 3/3/1 4/4/1
f 4/5/2 3/6/2 5/7/2
f 3/6/2 6/8/2 5/7/2
f 7/9/3 8/10/3 9/11/3
f 7/9/3 9/11/3 10/12/3
f 11/13/4 12/14/4 13/15/4
f 11/13/4 13/15/4 5/16/4
f 11/17/5 5/18/5 14/19/5
f 11/17/5 14/19/5 15/20/5
f 13/21/6 16/22/6 4/23/6
f 13/21/6 4/23/6 5/24/6
f 17/25/1 1/1/1 4/4/1
f 17/25/1 4/4/1 16/26/1
f 18/27/1 19/28/1 1/1/1
f 18/27/1 1/1/1 17/25/1
f 20/29/4 21/30/4 22/31/4
f 21/30/4 11/13/4 22/31/4
f 23/32/7 24/33/7 25/34/7
f 23/32/7 25/34/7 7/35/7
f 26/36/4 23/37/4 7/38/4
f 26/36/4 7/38/4 27/39/4
f 19/28/1 28/40/1 2/2/1
f 19/28/1 2/2/1 1/1/1
f 29/41/4 26/36/4 30/42/4
f 26/36/4 27/39/4 30/42/4
f 24/43/1 31/44/1 25/45/1
f 31/44/1 32/46/1 25/45/1
f 25/45/1 32/46/1 33/47/1
f 32/46/1 34/48/1 33/47/1
f 21/30/4 35/49/4 11/13/4
f 35/49/4 12/14/4 11/13/4
f 30/42/4 27/39/4 36/50/4
f 30/42/4 36/50/4 37/51/4
f 25/52/8 33/53/8 8/10/8
f 25/52/8 8/10/8 7/9/8
f 38/54/1 18/27/1 17/25/1
f 38/54/1 17/25/1 39/55/1
f 39/55/1 17/25/1 16/26/1
f 39/55/1 16/26/1 40/56/1
f 41/57/9 40/58/9 16/22/9
f 41/57/9 16/22/9 13/21/9
f 22/59/10 2/60/10 28/61/10
f 22/59/10 28/61/10 20/62/10
f 37/63/9 42/64/9 40/58/9
f 37/63/9 40/58/9 41/57/9
f 43/65/1 39/55/1 40/56/1
f 43/65/1 40/56/1 42/66/1
f 44/67/1 38/54/1 39/55/1
f 44/67/1 39/55/1 43/65/1
f 12/14/4 45/68/4 41/69/4
f 12/14/4 41/69/4 13/15/4
f 35/49/4 46/70/4 12/14/4
f 46/70/4 45/68/4 12/14/4
f 47/71/4 10/72/4 9/73/4
f 47/71/4 9/73/4 48/74/4
f 8/75/11 33/76/11 36/77/11
f 33/76/11 34/78/11 36/77/11
f 36/79/12 27/80/12 47/81/12
f 36/79/12 47/81/12 48/82/12
f 8/75/13 36/77/13 48/83/13
f 8/75/13 48/83/13 9/84/13
f 27/85/14 7/86/14 10/87/14
f 27/85/14 10/87/14 47/88/14
f 31/44/1 44/67/1 43/65/1
f 31/44/1 43/65/1 32/46/1
f 36/89/9 34/90/9 42/64/9
f 36/89/9 42/64/9 37/63/9
f 45/68/4 30/42/4 37/51/4
f 45/68/4 37/51/4 41/69/4
f 46/70/4 29/41/4 45/68/4
f 29/41/4 30/42/4 45/68/4
f 34/91/5 32/92/5 49/93/5
f 34/91/5 49/93/5 50/94/5
f 50/94/15 49/93/15 51/95/15
f 50/94/15 51/95/15 52/96/15
f 42/64/9 34/90/9 50/97/9
f 42/64/9 50/97/9 53/98/9
f 32/99/16 43/100/16 54/101/16
f 32/99/16 54/101/16 49/102/16
f 6/103/17 3/104/17 2/105/17
f 6/103/17 2/105/17 22/106/17
f 55/107/4 15/108/4 56/109/4
f 15/108/4 14/110/4 56/109/4
f 6/103/18 22/106/18 55/111/18
f 6/103/18 55/111/18 56/112/18
f 5/7/19 6/8/19 56/113/19
f 5/7/19 56/113/19 14/114/19
f 22/115/20 11/116/20 15/117/20
f 22/115/20 15/117/20 55/118/20
f 43/119/12 42/120/12 53/121/12
f 43/119/12 53/121/12 54/122/12
f 57/123/21 58/124/21 59/125/21
f 57/123/21 59/125/21 60/126/21
f 49/102/22 54/101/22 51/127/22
f 54/101/22 57/128/22 51/127/22
f 54/122/23 53/121/23 58/124/23
f 54/122/23 58/124/23 57/123/23
f 53/98/24 50/97/24 52/129/24
f 53/98/24 52/129/24 58/130/24
f 61/131/25 62/132/25 63/133/25
f 61/131/25 63/133/25 64/134/25
f 58/130/26 52/129/26 61/135/26
f 58/130/26 61/135/26 59/136/26
f 52/96/27 51/95/27 62/132/27
f 52/96/27 62/132/27 61/131/27
f 51/127/28 57/128/28 60/137/28
f 51/127/28 60/137/28 62/138/28
f 65/139/29 66/140/29 67/141/29
f 65/139/29 67/141/29 68/142/29
f 62/138/30 60/137/30 65/143/30
f 62/138/30 65/143/30 63/144/30
f 60/126/31 59/125/31 66/140/31
f 60/126/31 66/140/31 65/139/31
f 59/136/32 61/135/32 66/145/32
f 61/135/32 64/146/32 66/145/32
f 67/141/33 69/147/33 70/148/33
f 69/147/33 71/149/33 70/148/33
f 66/145/34 64/146/34 67/150/34
f 64/146/34 69/151/34 67/150/34
f 64/134/35 63/133/35 72/152/35
f 64/134/35 72/152/35 69/153/35
f 63/144/36 65/143/36 68/154/36
f 63/144/36 68/154/36 72/155/36
f 71/156/35 73/157/35 74/158/35
f 71/156/35 74/158/35 75/159/35
f 69/153/37 72/152/37 73/157/37
f 69/153/37 73/157/37 71/156/37
f 72/152/38 68/160/38 76/161/38
f 72/152/38 76/161/38 73/157/38
f 68/142/39 67/141/39 70/148/39
f 68/142/39 70/148/39 76/162/39
f 74/163/40 77/164/40 75/165/40
f 77/164/40 78/166/40 75/165/40
f 73/157/41 76/161/41 77/167/41
f 73/157/41 77/167/41 74/158/41
f 76/162/29 70/148/29 78/166/29
f 76/162/29 78/166/29 77/164/29
f 70/148/42 71/149/42 78/166/42
f 71/149/42 75/165/42 78/166/42
f 79/1/1 80/4/1 81/3/1
f 79/1/1 81/3/1 82/2/1
f 80/5/43 83/7/43 81/6/43
f 83/7/43 84/8/43 81/6/43
f 85/9/44 86/12/44 87/11/44
f 85/9/44 87/11/44 88/10/44
f 89/13/4 83/16/4 90/15/4
f 89/13/4 90/15/4 91/14/4
f 89/17/5 92/20/5 93/19/5
f 89/17/5 93/19/5 83/18/5
f 90/21/45 83/24/45 80/23/45
f 90/21/45 80/23/45 94/22/45
f 95/25/1 94/26/1 80/4/1
f 95/25/1 80/4/1 79/1/1
f 18/27/1 95/25/1 79/1/1
f 18/27/1 79/1/1 19/28/1
f 20/29/4 96/31/4 21/30/4
f 96/31/4 89/13/4 21/30/4
f 23/32/46 85/35/46 97/34/46
f 23/32/46 97/34/46 24/33/46
f 26/36/4 98/39/4 85/38/4
f 26/36/4 85/38/4 23/37/4
f 19/28/1 79/1/1 82/2/1
f 19/28/1 82/2/1 28/40/1
f 29/41/4 99/42/4 26/36/4
f 99/42/4 98/39/4 26/36/4
f 24/43/1 97/45/1 31/44/1
f 97/45/1 100/46/1 31/44/1
f 97/45/1 101/47/1 100/46/1
f 101/47/1 102/48/1 100/46/1
f 21/30/4 89/13/4 35/49/4
f 89/13/4 91/14/4 35/49/4
f 99/42/4 103/51/4 104/50/4
f 99/42/4 104/50/4 98/39/4
f 97/52/47 85/9/47 88/10/47
f 97/52/47 88/10/47 101/53/47
f 38/54/1 105/55/1 95/25/1
f 38/54/1 95/25/1 18/27/1
f 105/55/1 106/56/1 94/26/1
f 105/55/1 94/26/1 95/25/1
f 107/57/48 90/21/48 94/22/48
f 107/57/48 94/22/48 106/58/48
f 96/59/49 20/62/49 28/61/49
f 96/59/49 28/61/49 82/60/49
f 103/63/48 107/57/48 106/58/48
f 103/63/48 106/58/48 108/64/48
f 109/65/1 108/66/1 106/56/1
f 109/65/1 106/56/1 105/55/1
f 44/67/1 109/65/1 105/55/1
f 44/67/1 105/55/1 38/54/1
f 91/14/4 90/15/4 107/69/4
f 91/14/4 107/69/4 110/68/4
f 35/49/4 91/14/4 46/70/4
f 91/14/4 110/68/4 46/70/4
f 111/71/4 112/74/4 87/73/4
f 111/71/4 87/73/4 86/72/4
f 88/75/50 104/77/50 101/76/50
f 104/77/50 102/78/50 101/76/50
f 104/79/12 112/82/12 111/81/12
f 104/79/12 111/81/12 98/80/12
f 88/75/51 87/84/51 112/83/51
f 88/75/51 112/83/51 104/77/51
f 98/85/52 111/88/52 86/87/52
f 98/85/52 86/87/52 85/86/52
f 31/44/1 100/46/1 109/65/1
f 31/44/1 109/65/1 44/67/1
f 104/89/48 103/63/48 108/64/48
f 104/89/48 108/64/48 102/90/48
f 110/68/4 107/69/4 103/51/4
f 110/68/4 103/51/4 99/42/4
f 46/70/4 110/68/4 29/41/4
f 110/68/4 99/42/4 29/41/4
f 102/91/5 113/94/5 114/93/5
f 102/91/5 114/93/5 100/92/5
f 113/94/15 115/96/15 114/93/15
f 115/96/15 116/95/15 114/93/15
f 108/64/48 117/98/48 113/97/48
f 108/64/48 113/97/48 102/90/48
f 100/99/53 114/102/53 118/101/53
f 100/99/53 118/101/53 109/100/53
f 84/103/54 96/106/54 82/105/54
f 84/103/54 82/105/54 81/104/54
f 119/107/4 120/109/4 92/108/4
f 120/109/4 93/110/4 92/108/4
f 84/103/55 120/112/55 119/111/55
f 84/103/55 119/111/55 96/106/55
f 83/7/56 93/114/56 120/113/56
f 83/7/56 120/113/56 84/8/56
f 96/115/57 119/118/57 92/117/57
f 96/115/57 92/117/57 89/116/57
f 109/119/12 118/122/12 117/121/12
f 109/119/12 117/121/12 108/120/12
f 121/123/21 122/126/21 123/125/21
f 121/123/21 123/125/21 124/124/21
f 114/102/58 116/127/58 118/101/58
f 116/127/58 121/128/58 118/101/58
f 118/122/23 121/123/23 124/124/23
f 118/122/23 124/124/23 117/121/23
f 117/98/59 124/130/59 115/129/59
f 117/98/59 115/129/59 113/97/59
f 125/131/25 126/134/25 127/133/25
f 125/131/25 127/133/25 128/132/25
f 124/130/60 123/136/60 125/135/60
f 124/130/60 125/135/60 115/129/60
f 115/96/27 125/131/27 128/132/27
f 115/96/27 128/132/27 116/95/27
f 116/127/61 128/138/61 122/137/61
f 116/127/61 122/137/61 121/128/61
f 129/139/29 130/142/29 131/141/29
f 129/139/29 131/141/29 132/140/29
f 128/138/62 127/144/62 129/143/62
f 128/138/62 129/143/62 122/137/62
f 122/126/31 129/139/31 132/140/31
f 122/126/31 132/140/31 123/125/31
f 123/136/63 132/145/63 125/135/63
f 132/145/63 126/146/63 125/135/63
f 131/141/64 133/148/64 134/147/64
f 133/148/64 135/149/64 134/147/64
f 132/145/65 131/150/65 126/146/65
f 131/150/65 134/151/65 126/146/65
f 126/134/35 134/153/35 127/133/35
f 134/153/35 136/152/35 127/133/35
f 127/144/66 136/155/66 130/154/66
f 127/144/66 130/154/66 129/143/66
f 135/156/35 137/159/35 138/158/35
f 135/156/35 138/158/35 73/157/35
f 134/153/37 135/156/37 136/152/37
f 135/156/37 73/157/37 136/152/37
f 136/152/67 73/157/67 76/161/67
f 136/152/67 76/161/67 130/160/67
f 130/142/39 76/162/39 133/148/39
f 130/142/39 133/148/39 131/141/39
f 138/163/40 137/165/40 139/166/40
f 138/163/40 139/166/40 140/164/40
f 73/157/68 138/158/68 140/167/68
f 73/157/68 140/167/68 76/161/68
f 76/162/29 140/164/29 133/148/29
f 140/164/29 139/166/29 133/148/29
f 133/148/69 139/166/69 135/149/69
f 139/166/69 137/165/69 135/149/69
s off
g Cube.002
v -0.457296 0.024763 0.158581
v -0.466715 0.289103 0.158581
v -0.466715 0.289103 0.255424
v -0.457296 0.024763 0.255424
v -0.496824 0.28803 0.255424
v -0.487405 0.02369 0.255424
v -0.496824 0.28803 0.158581
v -0.487405 0.02369 0.158581
v -0.573441 0.548626 0.311592
v -0.573441 0.548626 0.214748
v -0.543332 0.549699 0.214748
v -0.581932 0.786914 0.250552
v -0.551823 0.787987 0.250552
v -0.543332 0.549699 0.311592
v -0.581932 0.786914 0.347395
v -0.551823 0.787987 0.347395
vn 0.9994 0.0356 -0
vn -0 -0 1
vn -0.9994 -0.0356 -0
vn -0 -0 -1
vn 0.0356 -0.9994 -0
vn -0.9594 -0.2821 -0
vn -0.0053 0.1484 -0.9889
vn 0.9594 0.2821 -0
vn -0.0074 0.2086 -0.978
vn 0.0074 -0.2086 0.978
vn -0.0356 0.9994 -0
vn 0.0053 -0.1484 0.9889
vt 0.444174 0.875891
vt 0.378782 0.875891
vt 0.378782 0.810499
vt 0.444174 0.810499
vt 0.262749 0.300573
vt 0.217096 0.25812
vt 0.261626 0.210233
vt 0.307279 0.252686
vt 0.614779 0.879618
vt 0.549387 0.879618
vt 0.549387 0.814227
vt 0.614779 0.814227
vt 0.216251 0.563268
vt 0.261904 0.520814
vt 0.306434 0.568701
vt 0.260781 0.611154
vt 0.528153 0.875891
vt 0.464191 0.875891
vt 0.464191 0.810499
vt 0.528153 0.810499
vt 0.725076 0.666291
vt 0.661527 0.650879
vt 0.661527 0.489958
vt 0.725076 0.50537
vt 0.260781 0.411716
vt 0.216251 0.363829
vt 0.262749 0.32059
vt 0.307279 0.368477
vt 0.14935 0.727509
vt 0.0858 0.742921
vt 0.0858 0.582
vt 0.14935 0.566588
vt 0.262749 0.101134
vt 0.307279 0.053247
vt 0.802558 0.908767
vt 0.86652 0.908767
vt 0.86652 0.974158
vt 0.802558 0.974158
vt 0.216251 0.057895
vt 0.260781 0.010009
vt 0.861505 0.713773
vt 0.861505 0.779164
vt 0.802558 0.80334
vt 0.802558 0.737948
vt 0.720474 0.710484
vt 0.720474 0.775876
vt 0.661527 0.7517
vt 0.661527 0.686308
usemtl Material
f 141/168/70 142/169/70 143/170/70
f 141/168/70 143/170/70 144/171/70
f 144/172/71 143/173/71 145/174/71
f 144/172/71 145/174/71 146/175/71
f 146/176/72 145/177/72 147/178/72
f 146/176/72 147/178/72 148/179/72
f 148/180/73 147/181/73 142/182/73
f 148/180/73 142/182/73 141/183/73
f 144/184/74 146/185/74 148/186/74
f 144/184/74 148/186/74 141/187/74
f 147/188/75 145/189/75 149/190/75
f 147/188/75 149/190/75 150/191/75
f 151/192/76 150/193/76 152/194/76
f 151/192/76 152/194/76 153/195/76
f 143/196/77 142/197/77 151/198/77
f 143/196/77 151/198/77 154/199/77
f 142/182/78 147/181/78 150/193/78
f 142/182/78 150/193/78 151/192/78
f 145/174/79 143/173/79 154/200/79
f 145/174/79 154/200/79 149/201/79
f 155/202/80 156/203/80 153/204/80
f 155/202/80 153/204/80 152/205/80
f 149/201/81 154/200/81 156/206/81
f 149/201/81 156/206/81 155/207/81
f 150/208/72 149/209/72 155/210/72
f 150/208/72 155/210/72 152/211/72
f 154/212/70 151/213/70 153/214/70
f 154/212/70 153/214/70 156/215/70
s off
g Cube.001
v -0.457296 0.024763 -0.160633
v -0.457296 0.024763 -0.257476
v -0.466715 0.289103 -0.257476
v -0.466715 0.289103 -0.160633
v -0.487405 0.02369 -0.257476
v -0.496824 0.28803 -0.257476
v -0.487405 0.02369 -0.160633
v -0.496824 0.28803 -0.160633
v -0.573441 0.548626 -0.216801
v -0.573441 0.548626 -0.313644
v -0.543332 0.549699 -0.216801
v -0.551823 0.787987 -0.252605
v -0.581932 0.786914 -0.252605
v -0.543332 0.549699 -0.313644
v -0.581932 0.786914 -0.349448
v -0.551823 0.787987 -0.349448
vn 0.9994 0.0356 -0
vn -0 -0 -1
vn -0.9994 -0.0356 -0
vn -0 -0 1
vn 0.0356 -0.9994 -0
vn -0.9594 -0.2821 -0
vn -0.0053 0.1484 0.9889
vn 0.9594 0.2821 -0
vn -0.0074 0.2086 0.978
vn 0.0074 -0.2086 -0.978
vn -0.0356 0.9994 -0
vn 0.0053 -0.1484 -0.9889
vt 0.86795 0.888749
vt 0.86795 0.823358
vt 0.802558 0.823358
vt 0.802558 0.888749
vt 0.373794 0.300573
vt 0.418324 0.252686
vt 0.328141 0.25812
vt 0.372671 0.210233
vt 0.279801 0.892914
vt 0.279801 0.827522
vt 0.214409 0.827522
vt 0.214409 0.892914
vt 0.327296 0.563268
vt 0.371827 0.611154
vt 0.372949 0.520814
vt 0.41748 0.568701
vt 0.442744 0.9613
vt 0.442744 0.895908
vt 0.378782 0.895908
vt 0.378782 0.9613
vt 0.782541 0.186341
vt 0.782541 0.02542
vt 0.718991 0.010009
vt 0.718991 0.17093
vt 0.371827 0.411716
vt 0.418324 0.368477
vt 0.373794 0.32059
vt 0.327296 0.363829
vt 0.782541 0.36728
vt 0.782541 0.206359
vt 0.718991 0.221771
vt 0.718991 0.382692
vt 0.418324 0.053247
vt 0.373794 0.101134
vt 0.886537 0.908767
vt 0.886537 0.974158
vt 0.950499 0.974158
vt 0.950499 0.908767
vt 0.371827 0.010009
vt 0.327296 0.057895
vt 0.720474 0.795893
vt 0.661527 0.820069
vt 0.720474 0.861285
vt 0.661527 0.88546
vt 0.144747 0.787114
vt 0.0858 0.762938
vt 0.0858 0.82833
vt 0.144747 0.852506
usemtl Material
f 157/216/82 158/217/82 159/218/82
f 157/216/82 159/218/82 160/219/82
f 158/220/83 161/221/83 159/222/83
f 161/221/83 162/223/83 159/222/83
f 161/224/84 163/225/84 164/226/84
f 161/224/84 164/226/84 162/227/84
f 163/228/85 157/229/85 164/230/85
f 157/229/85 160/231/85 164/230/85
f 158/232/86 157/233/86 163/234/86
f 158/232/86 163/234/86 161/235/86
f 164/236/87 165/237/87 166/238/87
f 164/236/87 166/238/87 162/239/87
f 167/240/88 168/241/88 169/242/88
f 167/240/88 169/242/88 165/243/88
f 159/244/89 170/245/89 167/246/89
f 159/244/89 167/246/89 160/247/89
f 160/231/90 167/240/90 165/243/90
f 160/231/90 165/243/90 164/230/90
f 162/223/91 166/248/91 159/222/91
f 166/248/91 170/249/91 159/222/91
f 171/250/92 169/251/92 168/252/92
f 171/250/92 168/252/92 172/253/92
f 166/248/93 171/254/93 170/249/93
f 171/254/93 172/255/93 170/249/93
f 165/256/84 169/257/84 166/258/84
f 169/257/84 171/259/84 166/258/84
f 170/260/82 172/261/82 168/262/82
f 170/260/82 168/262/82 167/263/82
s off
g Cube.003
v -0.457296 0.024763 -0.062512
v -0.466715 0.289103 -0.062512
v -0.466715 0.289103 0.034331
v -0.457296 0.024763 0.034331
v -0.496824 0.28803 0.034331
v -0.487405 0.02369 0.034331
v -0.496824 0.28803 -0.062512
v -0.487405 0.02369 -0.062512
v -0.573441 0.548626 0.044189
v -0.573441 0.548626 -0.052654
v -0.543332 0.549699 -0.052654
v -0.581932 0.786914 -0.048946
v -0.551823 0.787987 -0.048946
v -0.543332 0.549699 0.044189
v -0.581932 0.786914 0.047897
v -0.551823 0.787987 0.047897
vn 0.9994 0.0356 -0
vn -0 -0 1
vn -0.9994 -0.0356 -0
vn -0 -0 -1
vn 0.0356 -0.9994 -0
vn -0.9594 -0.2821 -0
vn -0.0006 0.0155 -0.9999
vn 0.9594 0.2821 -0
vn -0.0013 0.0374 -0.9993
vn 0.0013 -0.0374 0.9993
vn -0.0356 0.9994 -0
vn 0.0006 -0.0155 0.9999
vt 0.151192 0.937915
vt 0.0858 0.937915
vt 0.0858 0.872523
vt 0.151192 0.872523
vt 0.599127 0.293925
vt 0.549387 0.251592
vt 0.59177 0.201794
vt 0.641509 0.244128
vt 0.946914 0.66958
vt 0.881523 0.66958
vt 0.881523 0.604188
vt 0.946914 0.604188
vt 0.549387 0.548062
vt 0.599127 0.505728
vt 0.641509 0.555526
vt 0.59177 0.597859
vt 0.528153 0.9613
vt 0.464191 0.9613
vt 0.464191 0.895908
vt 0.528153 0.895908
vt 0.4505 0.790482
vt 0.385168 0.787701
vt 0.385168 0.631172
vt 0.4505 0.633952
vt 0.59658 0.40198
vt 0.554197 0.352182
vt 0.599127 0.313943
vt 0.641509 0.36374
vt 0.365151 0.787701
vt 0.299818 0.790482
vt 0.299818 0.633953
vt 0.365151 0.631172
vt 0.594316 0.098046
vt 0.636699 0.048248
vt 0.661527 0.905478
vt 0.725488 0.905478
vt 0.725488 0.97087
vt 0.661527 0.97087
vt 0.549387 0.059806
vt 0.59177 0.010009
vt 0.989991 0.47509
vt 0.989991 0.540482
vt 0.931044 0.542986
vt 0.931044 0.477594
vt 0.358765 0.922588
vt 0.358765 0.987979
vt 0.299818 0.985476
vt 0.299818 0.920084
usemtl Material
f 173/264/94 174/265/94 175/266/94
f 173/264/94 175/266/94 176/267/94
f 176/268/95 175/269/95 177/270/95
f 176/268/95 177/270/95 178/271/95
f 178/272/96 177/273/96 179/274/96
f 178/272/96 179/274/96 180/275/96
f 180/276/97 179/277/97 174/278/97
f 180/276/97 174/278/97 173/279/97
f 176/280/98 178/281/98 180/282/98
f 176/280/98 180/282/98 173/283/98
f 179/284/99 177/285/99 181/286/99
f 179/284/99 181/286/99 182/287/99
f 183/288/100 182/289/100 184/290/100
f 183/288/100 184/290/100 185/291/100
f 175/292/101 174/293/101 183/294/101
f 175/292/101 183/294/101 186/295/101
f 174/278/102 179/277/102 182/289/102
f 174/278/102 182/289/102 183/288/102
f 177/270/103 175/269/103 186/296/103
f 177/270/103 186/296/103 181/297/103
f 187/298/104 188/299/104 185/300/104
f 187/298/104 185/300/104 184/301/104
f 181/297/105 186/296/105 188/302/105
f 181/297/105 188/302/105 187/303/105
f 182/304/96 181/305/96 187/306/96
f 182/304/96 187/306/96 184/307/96
f 186/308/94 183/309/94 185/310/94
f 186/308/94 185/310/94 188/311/94
s off
g Cube.004
v -0.457296 0.024763 -0.160633
v -0.457296 0.024763 -0.257476
v -0.466715 0.289103 -0.257476
v -0.466715 0.289103 -0.160633
v -0.487405 0.02369 -0.257476
v -0.496824 0.28803 -0.257476
v -0.487405 0.02369 -0.160633
v -0.496824 0.28803 -0.160633
v -0.573441 0.548626 -0.216801
v -0.573441 0.548626 -0.313644
v -0.543332 0.549699 -0.216801
v -0.551823 0.787987 -0.252605
v -0.581932 0.786914 -0.252605
v -0.543332 0.549699 -0.313644
v -0.581932 0.786914 -0.349448
v -0.551823 0.787987 -0.349448
vn 0.9994 0.0356 -0
vn -0 -0 -1
vn -0.9994 -0.0356 -0
vn -0 -0 1
vn 0.0356 -0.9994 -0
vn -0.9594 -0.2821 -0
vn -0.0053 0.1484 0.9889
vn 0.9594 0.2821 -0
vn -0.0074 0.2086 0.978
vn 0.0074 -0.2086 -0.978
vn -0.0356 0.9994 -0
vn 0.0053 -0.1484 -0.9889
vt 0.946914 0.754989
vt 0.946914 0.689597
vt 0.881523 0.689597
vt 0.881523 0.754989
vt 0.484839 0.300573
vt 0.52937 0.252686
vt 0.439186 0.25812
vt 0.483717 0.210233
vt 0.953359 0.888749
vt 0.953359 0.823358
vt 0.887967 0.823358
vt 0.887967 0.888749
vt 0.438342 0.563268
vt 0.482872 0.611154
vt 0.483995 0.520814
vt 0.528525 0.568701
vt 0.613348 0.965027
vt 0.613348 0.899636
vt 0.549387 0.899636
vt 0.549387 0.965027
vt 0.612937 0.794209
vt 0.612937 0.633288
vt 0.549387 0.617877
vt 0.549387 0.778798
vt 0.482872 0.411716
vt 0.52937 0.368477
vt 0.484839 0.32059
vt 0.438342 0.363829
vt 0.279801 0.792093
vt 0.279801 0.631172
vt 0.216251 0.646583
vt 0.216251 0.807505
vt 0.52937 0.053247
vt 0.484839 0.101134
vt 0.214409 0.912931
vt 0.214409 0.978323
vt 0.27837 0.978323
vt 0.27837 0.912931
vt 0.482872 0.010009
vt 0.438342 0.057895
vt 0.358765 0.810499
vt 0.299818 0.834675
vt 0.358765 0.875891
vt 0.299818 0.900067
vt 0.861505 0.628364
vt 0.802558 0.604188
vt 0.802558 0.66958
vt 0.861505 0.693755
usemtl Material
f 189/312/106 190/313/106 191/314/106
f 189/312/106 191/314/106 192/315/106
f 190/316/107 193/317/107 191/318/107
f 193/317/107 194/319/107 191/318/107
f 193/320/108 195/321/108 196/322/108
f 193/320/108 196/322/108 194/323/108
f 195/324/109 189/325/109 196/326/109
f 189/325/109 192/327/109 196/326/109
f 190/328/110 189/329/110 195/330/110
f 190/328/110 195/330/110 193/331/110
f 196/332/111 197/333/111 198/334/111
f 196/332/111 198/334/111 194/335/111
f 199/336/112 200/337/112 201/338/112
f 199/336/112 201/338/112 197/339/112
f 191/340/113 202/341/113 199/342/113
f 191/340/113 199/342/113 192/343/113
f 192/327/114 199/336/114 197/339/114
f 192/327/114 197/339/114 196/326/114
f 194/319/115 198/344/115 191/318/115
f 198/344/115 202/345/115 191/318/115
f 203/346/116 201/347/116 200/348/116
f 203/346/116 200/348/116 204/349/116
f 198/344/117 203/350/117 202/345/117
f 203/350/117 204/351/117 202/345/117
f 197/352/108 201/353/108 198/354/108
f 201/353/108 203/355/108 198/354/108
f 202/356/106 204/357/106 200/358/106
f 202/356/106 200/358/106 199/359/106
s off
