# Apple ModelIO OBJ File: canoa__para_texturizar_
mtllib canoa__para_texturizar_.mtl
g canoa_
v -12.8995 1.63326 0
v -12.3652 1.63326 -1.08108
v -12.3652 2.06472 -1.08108
v -12.8995 2.06472 0
v -5.78443 1.10118 -1.16493
v -4.84433 1.63326 -1.08108
v -4.84433 2.06472 -1.08108
v -5.78443 2.06472 -1.16493
v -4.16668 1.63326 0
v -4.84433 1.63326 1.08108
v -4.84433 2.06472 1.08108
v -4.16668 2.06472 0
v -11.4251 1.10118 1.14332
v -12.3652 1.63326 1.08108
v -11.4251 2.06472 1.14332
v -12.3652 2.06472 1.08108
v -5.44561 0.972461 0
v -5.78443 1.10118 1.16493
v -10.485 0.311662 0
v -10.485 0.569102 1.20556
v -8.60475 0.569102 1.37715
v -8.60475 0.311662 0
v -6.72454 0.569102 1.24879
v -8.60475 2.06472 1.37715
v -6.72454 2.06472 1.24879
v -10.485 0.569102 -1.20556
v -8.60475 0.569102 -1.37715
v -8.60475 2.06472 -1.37715
v -10.485 2.06472 -1.20556
v -5.78443 2.06472 1.16493
v -6.72454 0.311662 0
v -6.72454 0.569102 -1.24879
v -6.72454 2.06472 -1.24879
v -11.4251 1.10118 -1.14332
v -11.4251 2.06472 -1.14332
v -11.6922 0.972461 0
v -10.485 2.06472 1.20556
v -13.1148 1.52409 0
v -13.1409 2.06472 0
v -12.5026 1.53905 -1.25577
v -12.4993 2.06472 -1.28184
v -5.69312 0.749261 -1.34196
v -5.71187 2.06472 -1.3882
v -4.71256 1.53803 -1.25957
v -4.71815 2.06472 -1.28692
v -3.9509 1.52497 0
v -3.92525 2.06472 0
v -4.71256 1.53803 1.25957
v -4.71815 2.06472 1.28692
v -11.5204 0.749068 1.31747
v -11.5016 2.06472 1.36404
v -12.5026 1.53905 1.25577
v -12.4993 2.06472 1.28184
v -5.30842 0.575772 0
v -5.69312 0.749261 1.34196
v -10.5451 0.077853 0
v -8.60504 -0.110055 0
v -10.5381 0.409955 1.37917
v -8.60675 0.239246 1.56666
v -6.67367 0.411362 1.42434
v -6.70559 2.06472 1.48947
v -8.60751 2.06472 1.61856
v -10.5381 0.409955 -1.37917
v -10.5039 2.06472 -1.44625
v -8.60675 0.239246 -1.56666
v -8.60751 2.06472 -1.61856
v -5.71187 2.06472 1.3882
v -6.66594 0.077451 0
v -6.70559 2.06472 -1.48947
v -6.67367 0.411362 -1.42434
v -11.5204 0.749068 -1.31747
v -11.5016 2.06472 -1.36404
v -11.83 0.575537 0
v -10.5039 2.06472 1.44625
vn 0.8965 -0 0.4431
vn -0.0888 -0 0.996
vn -0.8473 -0 -0.5311
vn 0.0661 -0 -0.9978
vn -0.4649 0.8466 -0.2589
vn 0.0089 0.9807 -0.1955
vn -0.0681 -0 -0.9977
vn 0.0909 -0 0.9959
vn -0.0888 -0 -0.996
vn -0.0066 0.9813 -0.1924
vn -0.0681 -0 0.9977
vn 0.0661 -0 0.9978
vn 0.4806 0.8549 -0.1952
vn 0.0909 -0 -0.9959
vn 0.4806 0.8549 0.1952
vn -0.0066 0.9813 0.1924
vn 0.0089 0.9807 0.1955
vn -0.4649 0.8466 0.2589
vn -0.8473 -0 0.5311
vn 0.8965 -0 -0.4431
vn -0.8961 -0.0299 -0.4429
vn 0.1077 -0.0383 -0.9934
vn 0.8531 -0.0294 0.5209
vn -0.0876 -0.0382 0.9954
vn 0.5746 -0.7584 0.3076
vn -0.1007 -0.9693 0.2244
vn 0.072 -0.0329 0.9969
vn -0.095 -0.0331 -0.9949
vn 0.0986 -0.0356 0.9945
vn 0.0983 -0.9701 0.2219
vn 0.072 -0.0329 -0.9969
vn -0.0787 -0.0367 -0.9962
vn -0.3435 -0.9149 0.2119
vn -0.095 -0.0331 0.9949
vn -0.3435 -0.9149 -0.2119
vn 0.0983 -0.9701 -0.2219
vn -0.1007 -0.9693 -0.2244
vn 0.5746 -0.7584 -0.3076
vn 0.8531 -0.0294 -0.5209
vn -0.8961 -0.0299 0.4429
vn -0 1 -0
vn -0.5909 -0.7611 -0.2674
vn -0.5909 -0.7611 0.2674
vn -0.0876 -0.0382 -0.9954
vn -0.0787 -0.0367 0.9962
vn 0.4784 0.8497 0.2216
vn 0.4784 0.8497 -0.2216
vn 0.3356 -0.917 -0.2158
vn 0.1077 -0.0383 0.9934
vn 0.3356 -0.917 0.2158
vn 0.0986 -0.0356 -0.9945
vn -0.4695 0.8592 0.2034
vn -0.4695 0.8592 -0.2034
vt 0.86035 0.017161
vt 0.86134 0.044348
vt 0.839369 0.044348
vt 0.83838 0.017161
vt 0.888511 0.379511
vt 0.86134 0.427393
vt 0.839369 0.427393
vt 0.839445 0.37951
vt 0.464899 0.939993
vt 0.46391 0.905453
vt 0.485881 0.905453
vt 0.48687 0.939993
vt 0.436758 0.570287
vt 0.46391 0.522408
vt 0.485824 0.570287
vt 0.485881 0.522408
vt 0.490382 0.395981
vt 0.5484 0.37471
vt 0.547397 0.422716
vt 0.494814 0.460899
vt 0.472905 0.139985
vt 0.534161 0.135777
vt 0.549403 0.23072
vt 0.479428 0.235524
vt 0.409567 0.809688
vt 0.409449 0.713924
vt 0.48561 0.713923
vt 0.485728 0.809688
vt 0.915644 0.140107
vt 0.915801 0.235864
vt 0.83964 0.235863
vt 0.839483 0.140106
vt 0.436739 0.857571
vt 0.485804 0.85757
vt 0.48595 0.331062
vt 0.549403 0.326704
vt 0.915683 0.331628
vt 0.839522 0.331628
vt 0.888492 0.092228
vt 0.839426 0.092227
vt 0.468713 0.078573
vt 0.527734 0.088169
vt 0.409606 0.618167
vt 0.485767 0.618166
vt 0.411543 0.096101
vt 0.411646 0.144141
vt 0.409449 0.240275
vt 0.422494 0.335368
vt 0.430013 0.382792
vt 0.437531 0.430216
vt 0.86035 0.461933
vt 0.838379 0.461933
vt 0.464899 0.495221
vt 0.48687 0.495221
vt 0.647439 0.018524
vt 0.674968 0.017161
vt 0.649388 0.049732
vt 0.67618 0.04987
vt 0.609671 0.396599
vt 0.676699 0.395563
vt 0.649823 0.446489
vt 0.676668 0.446172
vt 0.73973 0.485252
vt 0.712242 0.486525
vt 0.737959 0.446489
vt 0.711114 0.446172
vt 0.778505 0.099812
vt 0.711465 0.100686
vt 0.738394 0.049732
vt 0.711602 0.04987
vt 0.307913 0.409897
vt 0.31352 0.461064
vt 0.246745 0.428146
vt 0.238444 0.393047
vt 0.28831 0.163876
vt 0.295334 0.260747
vt 0.218495 0.16369
vt 0.215975 0.260492
vt 0.795303 0.346682
vt 0.711052 0.344954
vt 0.804058 0.248242
vt 0.711052 0.24809
vt 0.592126 0.149863
vt 0.676455 0.151501
vt 0.583725 0.248242
vt 0.67673 0.24809
vt 0.778111 0.396599
vt 0.711083 0.395563
vt 0.302595 0.351798
vt 0.230432 0.351015
vt 0.67673 0.344954
vt 0.592479 0.346682
vt 0.609277 0.099812
vt 0.676318 0.100686
vt 0.283897 0.093984
vt 0.218229 0.110688
vt 0.711327 0.151501
vt 0.795656 0.149863
vt 0.352068 0.101944
vt 0.358602 0.154537
vt 0.375128 0.250096
vt 0.375128 0.341563
vt 0.37477 0.384141
vt 0.374702 0.419787
vt 0.67554 0.486525
vt 0.648053 0.485252
vt 0.712815 0.017161
vt 0.740343 0.018524
vt 0.031592 0.108294
vt 0.031672 0.156279
vt 0.019376 0.156147
vt 0.020112 0.105167
vt 0.147786 0.100407
vt 0.141381 0.052851
vt 0.158738 0.095757
vt 0.15112 0.045344
vt 0.114723 0.473179
vt 0.16732 0.435016
vt 0.178215 0.440718
vt 0.115556 0.485447
vt 0.169357 0.338897
vt 0.169395 0.242913
vt 0.181653 0.339029
vt 0.181653 0.24194
vt 0.049949 0.394992
vt 0.057452 0.442474
vt 0.038854 0.39945
vt 0.047428 0.449595
vt 0.168339 0.386957
vt 0.179934 0.389874
vt 0.029438 0.252412
vt 0.042445 0.347511
vt 0.03028 0.349304
vt 0.017161 0.253105
vt 0.084604 0.029429
vt 0.031512 0.060309
vt 0.083771 0.017161
vt 0.020848 0.054187
vt 0.154191 0.147963
vt 0.166356 0.14617
vt 0.345822 0.04242
vt 0.279773 0.017161
vt 0.218252 0.050753
vt 0.411441 0.048062
vt 0.46452 0.017161
vt 0.521307 0.040561
usemtl 
f 1/1/1 2/2/1 3/3/1
f 1/1/1 3/3/1 4/4/1
f 5/5/2 6/6/2 7/7/2
f 5/5/2 7/7/2 8/8/2
f 9/9/3 10/10/3 11/11/3
f 9/9/3 11/11/3 12/12/3
f 13/13/4 14/14/4 15/15/4
f 14/14/4 16/16/4 15/15/4
f 17/17/5 18/18/5 10/19/5
f 17/17/5 10/19/5 9/20/5
f 19/21/6 20/22/6 21/23/6
f 19/21/6 21/23/6 22/24/6
f 23/25/7 21/26/7 24/27/7
f 23/25/7 24/27/7 25/28/7
f 26/29/8 27/30/8 28/31/8
f 26/29/8 28/31/8 29/32/8
f 18/33/9 23/25/9 25/28/9
f 18/33/9 25/28/9 30/34/9
f 22/24/10 21/23/10 31/35/10
f 21/23/10 23/36/10 31/35/10
f 27/30/11 32/37/11 33/38/11
f 27/30/11 33/38/11 28/31/11
f 34/39/12 26/29/12 29/32/12
f 34/39/12 29/32/12 35/40/12
f 36/41/13 13/42/13 19/21/13
f 13/42/13 20/22/13 19/21/13
f 21/26/14 20/43/14 37/44/14
f 21/26/14 37/44/14 24/27/14
f 34/45/15 36/41/15 19/21/15
f 34/45/15 19/21/15 26/46/15
f 27/47/16 22/24/16 31/35/16
f 27/47/16 31/35/16 32/48/16
f 26/46/17 19/21/17 27/47/17
f 19/21/17 22/24/17 27/47/17
f 5/49/18 17/17/18 6/50/18
f 17/17/18 9/20/18 6/50/18
f 6/6/19 9/51/19 12/52/19
f 6/6/19 12/52/19 7/7/19
f 14/14/20 1/53/20 4/54/20
f 14/14/20 4/54/20 16/16/20
f 38/55/21 39/56/21 40/57/21
f 39/56/21 41/58/21 40/57/21
f 42/59/22 43/60/22 44/61/22
f 43/60/22 45/62/22 44/61/22
f 46/63/23 47/64/23 48/65/23
f 47/64/23 49/66/23 48/65/23
f 50/67/24 51/68/24 52/69/24
f 51/68/24 53/70/24 52/69/24
f 54/71/25 46/72/25 48/73/25
f 54/71/25 48/73/25 55/74/25
f 56/75/26 57/76/26 58/77/26
f 57/76/26 59/78/26 58/77/26
f 60/79/27 61/80/27 59/81/27
f 61/80/27 62/82/27 59/81/27
f 63/83/28 64/84/28 65/85/28
f 64/84/28 66/86/28 65/85/28
f 55/87/29 67/88/29 61/80/29
f 55/87/29 61/80/29 60/79/29
f 57/76/30 68/89/30 60/90/30
f 57/76/30 60/90/30 59/78/30
f 65/85/31 66/86/31 69/91/31
f 65/85/31 69/91/31 70/92/31
f 71/93/32 72/94/32 64/84/32
f 71/93/32 64/84/32 63/83/32
f 73/95/33 56/75/33 50/96/33
f 56/75/33 58/77/33 50/96/33
f 59/81/34 62/82/34 74/97/34
f 59/81/34 74/97/34 58/98/34
f 71/99/35 63/100/35 56/75/35
f 71/99/35 56/75/35 73/95/35
f 65/101/36 70/102/36 57/76/36
f 70/102/36 68/89/36 57/76/36
f 63/100/37 65/101/37 57/76/37
f 63/100/37 57/76/37 56/75/37
f 42/103/38 44/104/38 54/71/38
f 44/104/38 46/72/38 54/71/38
f 44/61/39 45/62/39 47/105/39
f 44/61/39 47/105/39 46/106/39
f 52/69/40 53/70/40 39/107/40
f 52/69/40 39/107/40 38/108/40
f 35/109/41 29/110/41 64/111/41
f 35/109/41 64/111/41 72/112/41
f 15/113/41 16/114/41 51/115/41
f 16/114/41 53/116/41 51/115/41
f 12/117/41 11/118/41 49/119/41
f 12/117/41 49/119/41 47/120/41
f 25/121/41 24/122/41 61/123/41
f 24/122/41 62/124/41 61/123/41
f 8/125/41 7/126/41 43/127/41
f 7/126/41 45/128/41 43/127/41
f 30/129/41 25/121/41 61/123/41
f 30/129/41 61/123/41 67/130/41
f 7/126/41 12/117/41 45/128/41
f 12/117/41 47/120/41 45/128/41
f 28/131/41 33/132/41 69/133/41
f 28/131/41 69/133/41 66/134/41
f 4/135/41 3/136/41 39/137/41
f 3/136/41 41/138/41 39/137/41
f 29/110/41 28/131/41 64/111/41
f 28/131/41 66/134/41 64/111/41
f 24/122/41 37/139/41 74/140/41
f 24/122/41 74/140/41 62/124/41
f 16/114/41 4/135/41 39/137/41
f 16/114/41 39/137/41 53/116/41
f 37/139/41 15/113/41 74/140/41
f 15/113/41 51/115/41 74/140/41
f 3/136/41 35/109/41 72/112/41
f 3/136/41 72/112/41 41/138/41
f 40/141/42 71/99/42 73/95/42
f 40/141/42 73/95/42 38/142/42
f 38/142/43 73/95/43 52/143/43
f 73/95/43 50/96/43 52/143/43
f 40/57/44 41/58/44 72/94/44
f 40/57/44 72/94/44 71/93/44
f 58/98/45 74/97/45 50/67/45
f 74/97/45 51/68/45 50/67/45
f 2/144/46 1/145/46 36/41/46
f 2/144/46 36/41/46 34/45/46
f 1/145/47 14/146/47 36/41/47
f 14/146/47 13/42/47 36/41/47
f 2/2/12 34/39/12 3/3/12
f 34/39/12 35/40/12 3/3/12
f 20/43/4 13/13/4 15/15/4
f 20/43/4 15/15/4 37/44/4
f 11/118/41 30/129/41 67/130/41
f 11/118/41 67/130/41 49/119/41
f 33/132/41 8/125/41 69/133/41
f 8/125/41 43/127/41 69/133/41
f 70/102/48 42/103/48 68/89/48
f 42/103/48 54/71/48 68/89/48
f 48/65/49 49/66/49 67/88/49
f 48/65/49 67/88/49 55/87/49
f 68/89/50 54/71/50 55/74/50
f 68/89/50 55/74/50 60/90/50
f 70/92/51 69/91/51 42/59/51
f 69/91/51 43/60/51 42/59/51
f 32/48/52 31/35/52 5/49/52
f 31/35/52 17/17/52 5/49/52
f 10/10/9 18/33/9 30/34/9
f 10/10/9 30/34/9 11/11/9
f 31/35/53 23/36/53 18/18/53
f 31/35/53 18/18/53 17/17/53
f 32/37/2 5/5/2 8/8/2
f 32/37/2 8/8/2 33/38/2
s off
g Cube.001
v -7.65296 5.15073 2.06695
v -7.65296 5.2611 1.97166
v -7.65296 0.840978 -3.14821
v -7.65296 0.730603 -3.05292
v -7.443 0.840978 -3.14821
v -7.443 0.730603 -3.05292
v -7.443 5.2611 1.97166
v -7.443 5.15073 2.06695
vn -1 -0 -0
vn -0 -0.6535 -0.7569
vn 1 -0 -0
vn -0 0.6535 0.7569
vn -0 -0.7569 0.6535
vn -0 0.7569 -0.6535
vt 0.659898 0.741387
vt 0.583725 0.741387
vt 0.583725 0.665214
vt 0.659898 0.665214
vt 0.770393 0.741387
vt 0.69422 0.741387
vt 0.69422 0.665214
vt 0.770393 0.665214
vt 0.659898 0.851882
vt 0.583725 0.851882
vt 0.583725 0.775709
vt 0.659898 0.775709
vt 0.770393 0.851882
vt 0.69422 0.851882
vt 0.69422 0.775709
vt 0.770393 0.775709
vt 0.292148 0.784119
vt 0.292148 0.860292
vt 0.215975 0.860292
vt 0.215975 0.784119
vt 0.880888 0.520847
vt 0.880888 0.59702
vt 0.804715 0.59702
vt 0.804715 0.520847
usemtl 
f 75/147/54 76/148/54 77/149/54
f 75/147/54 77/149/54 78/150/54
f 78/151/55 77/152/55 79/153/55
f 78/151/55 79/153/55 80/154/55
f 80/155/56 79/156/56 81/157/56
f 80/155/56 81/157/56 82/158/56
f 82/159/57 81/160/57 76/161/57
f 82/159/57 76/161/57 75/162/57
f 78/163/58 80/164/58 82/165/58
f 78/163/58 82/165/58 75/166/58
f 79/167/59 77/168/59 76/169/59
f 79/167/59 76/169/59 81/170/59
s off
g Cube.002
v -8.07796 0.126725 -3.79503
v -8.07796 0.194922 -3.85391
v -7.91713 -0.077435 -4.16938
v -7.91713 -0.145632 -4.11051
v -7.19379 -0.077435 -4.16938
v -7.19379 -0.145632 -4.11051
v -7.19379 0.671439 -3.16408
v -7.19379 0.739636 -3.22296
v -7.39924 1.01199 -2.90749
v -7.39924 0.943796 -2.84861
v -7.71168 1.01199 -2.90749
v -7.71168 0.943796 -2.84861
v -7.91713 0.671439 -3.16408
v -7.91713 0.739636 -3.22296
v -7.03296 0.194922 -3.85391
v -8.04345 0.467279 -3.53843
v -7.06747 0.467279 -3.53843
v -7.03296 0.126725 -3.79503
v -7.06747 0.399082 -3.47956
v -8.04345 0.399082 -3.47956
vn -0.933 -0.2353 -0.2725
vn -0 -0.6535 -0.7569
vn 0.8969 0.2889 0.3347
vn -0 0.6535 0.7569
vn -0 -0.7569 0.6535
vn -0 0.7569 -0.6535
vn 0.9966 0.0539 0.0625
vn -0.957 0.1895 0.2195
vn -0.8969 0.2889 0.3347
vn 0.957 0.1895 0.2195
vn 0.933 -0.2353 -0.2725
vn -0.9966 0.0539 0.0625
vt 0.292148 0.60543
vt 0.215975 0.60543
vt 0.215975 0.588495
vt 0.292148 0.588495
vt 0.215975 0.512321
vt 0.292148 0.512321
vt 0.257649 0.970787
vt 0.257649 0.894614
vt 0.283604 0.894614
vt 0.283604 0.970787
vt 0.32647 0.571559
vt 0.32647 0.495385
vt 0.359372 0.495385
vt 0.359372 0.571559
vt 0.602768 0.537783
vt 0.602768 0.613956
vt 0.583725 0.59232
vt 0.583725 0.559418
vt 0.235018 0.656688
vt 0.235018 0.732861
vt 0.215975 0.711226
vt 0.215975 0.678324
vt 0.273105 0.639752
vt 0.273105 0.749797
vt 0.254061 0.746163
vt 0.254061 0.643386
vt 0.640855 0.520847
vt 0.640855 0.630892
vt 0.621811 0.627258
vt 0.621811 0.524481
vt 0.215975 0.970787
vt 0.215975 0.894614
vt 0.234933 0.894614
vt 0.234933 0.970787
vt 0.941165 0.59702
vt 0.941165 0.520847
vt 0.96388 0.59702
vt 0.96388 0.520847
vt 0.91521 0.59702
vt 0.91521 0.520847
vt 0.215975 0.495385
vt 0.292148 0.495385
vt 0.659898 0.537783
vt 0.659898 0.613956
vt 0.292148 0.656688
vt 0.292148 0.732861
vt 0.982839 0.520847
vt 0.982839 0.59702
usemtl 
f 83/171/60 84/172/60 85/173/60
f 83/171/60 85/173/60 86/174/60
f 86/174/61 85/173/61 87/175/61
f 86/174/61 87/175/61 88/176/61
f 89/177/62 90/178/62 91/179/62
f 89/177/62 91/179/62 92/180/62
f 92/181/63 91/182/63 93/183/63
f 92/181/63 93/183/63 94/184/63
f 95/185/64 89/186/64 92/187/64
f 95/185/64 92/187/64 94/188/64
f 90/189/65 96/190/65 93/191/65
f 90/189/65 93/191/65 91/192/65
f 97/193/65 84/194/65 98/195/65
f 97/193/65 98/195/65 99/196/65
f 83/197/64 100/198/64 101/199/64
f 83/197/64 101/199/64 102/200/64
f 100/201/66 97/202/66 99/203/66
f 100/201/66 99/203/66 101/204/66
f 95/205/67 96/206/67 102/207/67
f 96/206/67 98/208/67 102/207/67
f 94/209/68 93/210/68 95/205/68
f 93/210/68 96/206/68 95/205/68
f 99/196/65 98/195/65 96/190/65
f 99/196/65 96/190/65 90/189/65
f 102/200/64 101/199/64 89/186/64
f 102/200/64 89/186/64 95/185/64
f 101/204/69 99/203/69 90/178/69
f 101/204/69 90/178/69 89/177/69
f 88/176/70 87/175/70 97/211/70
f 88/176/70 97/211/70 100/212/70
f 86/213/64 88/214/64 100/198/64
f 86/213/64 100/198/64 83/197/64
f 87/215/65 85/216/65 84/194/65
f 87/215/65 84/194/65 97/193/65
f 102/207/71 98/208/71 84/217/71
f 102/207/71 84/217/71 83/218/71
s off
g Cube.003
v -7.11718 0.126725 3.86396
v -7.11556 0.194922 3.92282
v -7.26765 -0.077435 4.24259
v -7.26927 -0.145632 4.18374
v -7.99234 -0.145632 4.20361
v -7.99073 -0.077435 4.26246
v -8.01835 0.671439 3.25754
v -8.01673 0.739636 3.3164
v -7.82002 1.01199 2.9954
v -7.82164 0.943796 2.93655
v -7.5077 1.01199 2.98682
v -7.50932 0.943796 2.92796
v -7.29527 0.671439 3.23767
v -7.29366 0.739636 3.29653
v -8.16016 0.194922 3.95153
v -8.13433 0.467279 3.63522
v -7.15872 0.467279 3.60841
v -8.16178 0.126725 3.89267
v -8.13595 0.399082 3.57637
v -7.16034 0.399082 3.54956
vn 0.9401 -0.2353 0.2468
vn 0.0208 -0.6535 0.7567
vn -0.9058 0.2889 -0.3099
vn -0.0208 0.6535 -0.7567
vn -0.018 -0.7569 -0.6532
vn 0.018 0.7569 0.6532
vn -0.9979 0.0539 -0.0351
vn 0.9506 0.1895 -0.2458
vn 0.8874 0.2889 -0.3592
vn -0.9627 0.1895 -0.1932
vn -0.9251 -0.2353 0.298
vn 0.9945 0.0539 -0.0898
vt 0.093334 0.629814
vt 0.017161 0.629814
vt 0.017161 0.612878
vt 0.093334 0.612878
vt 0.093334 0.536705
vt 0.017161 0.536705
vt 0.956885 0.707515
vt 0.956885 0.631342
vt 0.982839 0.631342
vt 0.982839 0.707515
vt 0.127656 0.595942
vt 0.127656 0.519769
vt 0.160558 0.519769
vt 0.160558 0.595942
vt 0.713263 0.537783
vt 0.713263 0.613956
vt 0.69422 0.59232
vt 0.69422 0.559418
vt 0.036204 0.681072
vt 0.036204 0.757245
vt 0.017161 0.702707
vt 0.017161 0.735609
vt 0.074291 0.664136
vt 0.074291 0.774181
vt 0.055248 0.66777
vt 0.055248 0.770547
vt 0.75135 0.520847
vt 0.75135 0.630892
vt 0.732306 0.627258
vt 0.732306 0.524481
vt 0.91521 0.707515
vt 0.91521 0.631342
vt 0.934169 0.631342
vt 0.934169 0.707515
vt 0.941165 0.81801
vt 0.941165 0.741837
vt 0.96388 0.741837
vt 0.96388 0.81801
vt 0.91521 0.81801
vt 0.91521 0.741837
vt 0.093334 0.519769
vt 0.017161 0.519769
vt 0.770393 0.537783
vt 0.770393 0.613956
vt 0.093334 0.681072
vt 0.093334 0.757245
vt 0.982839 0.741837
vt 0.982839 0.81801
usemtl 
f 103/219/72 104/220/72 105/221/72
f 103/219/72 105/221/72 106/222/72
f 106/222/73 105/221/73 107/223/73
f 105/221/73 108/224/73 107/223/73
f 109/225/74 110/226/74 111/227/74
f 109/225/74 111/227/74 112/228/74
f 112/229/75 111/230/75 113/231/75
f 112/229/75 113/231/75 114/232/75
f 115/233/76 109/234/76 112/235/76
f 115/233/76 112/235/76 114/236/76
f 110/237/77 116/238/77 111/239/77
f 116/238/77 113/240/77 111/239/77
f 117/241/77 104/242/77 118/243/77
f 104/242/77 119/244/77 118/243/77
f 103/245/76 120/246/76 121/247/76
f 103/245/76 121/247/76 122/248/76
f 120/249/78 117/250/78 118/251/78
f 120/249/78 118/251/78 121/252/78
f 115/253/79 116/254/79 119/255/79
f 115/253/79 119/255/79 122/256/79
f 114/257/80 113/258/80 115/253/80
f 113/258/80 116/254/80 115/253/80
f 118/243/77 119/244/77 110/237/77
f 119/244/77 116/238/77 110/237/77
f 122/248/76 121/247/76 109/234/76
f 122/248/76 109/234/76 115/233/76
f 121/252/81 118/251/81 110/226/81
f 121/252/81 110/226/81 109/225/81
f 107/223/82 108/224/82 120/259/82
f 108/224/82 117/260/82 120/259/82
f 106/261/76 107/262/76 103/245/76
f 107/262/76 120/246/76 103/245/76
f 108/263/77 105/264/77 117/241/77
f 105/264/77 104/242/77 117/241/77
f 122/256/83 119/255/83 104/265/83
f 122/256/83 104/265/83 103/266/83
s off
g Cube.004
v -7.73271 5.15073 -1.98413
v -7.73009 5.2611 -1.88888
v -7.58943 0.840978 3.22906
v -7.59205 0.730603 3.13381
v -7.80192 0.730603 3.13958
v -7.7993 0.840978 3.23483
v -7.93996 5.2611 -1.88311
v -7.94258 5.15073 -1.97836
vn 0.9996 -0 -0.0275
vn 0.0208 -0.6535 0.7567
vn -0.9996 -0 0.0275
vn -0.0208 0.6535 -0.7567
vn -0.018 -0.7569 -0.6532
vn 0.018 0.7569 0.6532
vt 0.880888 0.707515
vt 0.804715 0.707515
vt 0.804715 0.631342
vt 0.880888 0.631342
vt 0.880888 0.81801
vt 0.804715 0.81801
vt 0.880888 0.741837
vt 0.804715 0.741837
vt 0.093334 0.884676
vt 0.017161 0.884676
vt 0.017161 0.808502
vt 0.093334 0.808502
vt 0.880888 0.928505
vt 0.804715 0.928505
vt 0.804715 0.852332
vt 0.880888 0.852332
vt 0.659898 0.886204
vt 0.659898 0.962377
vt 0.583725 0.962377
vt 0.583725 0.886204
vt 0.770393 0.886204
vt 0.770393 0.962377
vt 0.69422 0.886204
vt 0.69422 0.962377
usemtl 
f 123/267/84 124/268/84 125/269/84
f 123/267/84 125/269/84 126/270/84
f 126/271/85 125/272/85 127/273/85
f 125/272/85 128/274/85 127/273/85
f 127/275/86 128/276/86 129/277/86
f 127/275/86 129/277/86 130/278/86
f 130/279/87 129/280/87 124/281/87
f 130/279/87 124/281/87 123/282/87
f 126/283/88 127/284/88 130/285/88
f 126/283/88 130/285/88 123/286/88
f 128/287/89 125/288/89 129/289/89
f 125/288/89 124/290/89 129/289/89
s off
