# Apple ModelIO OBJ File: cortina
mtllib cortina.mtl
g Cube_Material
v 1 1 -1
v -1 1 -1
v -1 1 1
v 1 1 1
v 1 -1 1
v -1 -1 1
v -1 -1 -1
v 1 -1 -1
vn -0 1 -0
vn -0 -0 1
vn -1 -0 -0
vn -0 -1 -0
vn 1 -0 -0
vn -0 -0 -1
vt 0.625 0.5
vt 0.875 0.5
vt 0.875 0.75
vt 0.625 0.75
vt 0.375 0.75
vt 0.625 1
vt 0.375 1
vt 0.375 0
vt 0.625 0
vt 0.625 0.25
vt 0.375 0.25
vt 0.125 0.5
vt 0.375 0.5
vt 0.125 0.75
usemtl Material
f 1/1/1 2/2/1 3/3/1
f 1/1/1 3/3/1 4/4/1
f 5/5/2 4/4/2 3/6/2
f 5/5/2 3/6/2 6/7/2
f 6/8/3 3/9/3 2/10/3
f 6/8/3 2/10/3 7/11/3
f 7/12/4 8/13/4 5/5/4
f 7/12/4 5/5/4 6/14/4
f 8/13/5 1/1/5 4/4/5
f 8/13/5 4/4/5 5/5/5
f 7/11/6 2/10/6 1/1/6
f 7/11/6 1/1/6 8/13/6
s off
g Plane
v 0.233922 -0.618928 -4.30592
v 0.270433 -0.622396 -4.37042
v 0.230252 -1.04545 -4.3894
v 0.193741 -1.04199 -4.31244
v 0.233922 -0.618928 -4.04641
v 0.270433 -0.622396 -4.11243
v 0.193741 -1.04199 -4.00276
v 0.230252 -1.04545 -4.08154
v 0.233922 -0.618928 -4.17693
v 0.270433 -0.622396 -4.24142
v 0.193741 -1.04199 -4.15851
v 0.230252 -1.04545 -4.23547
v 0.233922 -0.618928 -3.91438
v 0.270433 -0.622396 -3.9804
v 0.193741 -1.04199 -3.84521
v 0.230252 -1.04545 -3.92399
v 0.270433 -0.622396 -3.84836
v 0.230252 -1.04545 -3.76643
v 0.335365 0.061247 -4.18776
v 0.298854 0.064715 -4.26871
v 0.274104 -0.19587 -4.29941
v 0.310615 -0.199338 -4.24738
v 0.333599 0.047172 -4.03658
v 0.298472 0.061677 -4.10576
v 0.310615 -0.199338 -4.14331
v 0.274104 -0.19587 -4.19534
v 0.328531 0.006779 -3.85684
v 0.294529 0.030246 -3.94664
v 0.310553 -0.199828 -4.03663
v 0.274104 -0.19587 -4.09006
v 0.327207 -0.003766 -3.68731
v 0.29043 -0.002417 -3.76959
v 0.273619 -0.199732 -3.98221
v 0.309506 -0.208172 -3.92723
v 0.335365 0.061247 -4.34967
v 0.310615 -0.199338 -4.35144
v 0.363364 0.743924 -4.18871
v 0.399875 0.740456 -4.34505
v 0.360115 0.321832 -4.3479
v 0.323604 0.3253 -4.23802
v 0.363171 0.7424 -3.61469
v 0.399875 0.740456 -3.77599
v 0.359347 0.31571 -3.93749
v 0.321155 0.305827 -3.81829
v 0.363364 0.743924 -3.87605
v 0.399875 0.740456 -4.03238
v 0.360115 0.321832 -4.12815
v 0.323513 0.324578 -4.01803
v 0.358031 0.70187 -3.26061
v 0.396404 0.71309 -3.43281
v 0.317525 0.277331 -3.56358
v 0.35516 0.282591 -3.68954
v 0.396476 0.713653 -3.11342
v 0.353837 0.272403 -3.44472
v 0.43856 1.14776 -3.9392
v 0.399389 1.12979 -4.14435
v 0.43856 1.14776 -3.6168
v 0.400198 1.13627 -3.74208
v 0.43856 1.14776 -3.20424
v 0.399397 1.12975 -3.41897
v 0.43856 1.14776 -2.79168
v 0.401144 1.14391 -3.00057
v 0.43856 1.14776 -4.34228
v 0.250003 -0.620235 -4.30603
v 0.209821 -1.04329 -4.31255
v 0.246333 -1.04676 -4.38951
v 0.286514 -0.623703 -4.37053
v 0.250003 -0.620235 -4.04652
v 0.209821 -1.04329 -4.00287
v 0.286514 -0.623703 -4.11254
v 0.246333 -1.04676 -4.08165
v 0.250003 -0.620235 -4.17704
v 0.209821 -1.04329 -4.15862
v 0.286514 -0.623703 -4.24154
v 0.246333 -1.04676 -4.23558
v 0.250003 -0.620235 -3.91449
v 0.209821 -1.04329 -3.84532
v 0.286514 -0.623703 -3.9805
v 0.246333 -1.04676 -3.9241
v 0.286514 -0.623703 -3.84847
v 0.246333 -1.04676 -3.76654
v 0.351446 0.05994 -4.18787
v 0.326696 -0.200645 -4.24749
v 0.290184 -0.197177 -4.29952
v 0.314934 0.063408 -4.26883
v 0.34968 0.045865 -4.03669
v 0.326696 -0.200645 -4.14342
v 0.314553 0.06037 -4.10587
v 0.290184 -0.197177 -4.19546
v 0.344611 0.005472 -3.85695
v 0.326634 -0.201135 -4.03674
v 0.31061 0.028939 -3.94675
v 0.290184 -0.197177 -4.09017
v 0.343288 -0.005073 -3.68742
v 0.325587 -0.209479 -3.92734
v 0.2897 -0.201039 -3.98232
v 0.306511 -0.003724 -3.7697
v 0.326696 -0.200645 -4.35155
v 0.351446 0.05994 -4.34978
v 0.379445 0.742617 -4.18883
v 0.339684 0.323993 -4.23813
v 0.376196 0.320525 -4.348
v 0.415956 0.739149 -4.34516
v 0.379251 0.741093 -3.6148
v 0.337235 0.30452 -3.8184
v 0.375427 0.314403 -3.9376
v 0.415956 0.739149 -3.7761
v 0.379445 0.742617 -3.87616
v 0.339594 0.323271 -4.01814
v 0.376196 0.320525 -4.12826
v 0.415956 0.739149 -4.03249
v 0.374112 0.700563 -3.26072
v 0.333606 0.276024 -3.56369
v 0.412485 0.711783 -3.43292
v 0.37124 0.281284 -3.68965
v 0.412557 0.712346 -3.11353
v 0.369917 0.271096 -3.44483
v 0.454641 1.14645 -3.93932
v 0.41547 1.12848 -4.14446
v 0.454641 1.14645 -3.61691
v 0.416279 1.13496 -3.74219
v 0.454641 1.14645 -3.20435
v 0.415478 1.12844 -3.41908
v 0.454641 1.14645 -2.79179
v 0.417225 1.1426 -3.00068
v 0.454641 1.14645 -4.34239
vn -0.8824 0.0977 -0.4603
vn -0.8911 0.0449 -0.4516
vn -0.885 0.0708 -0.4603
vn -0.8924 0.0178 -0.4509
vn -0.8776 0.1638 0.4505
vn -0.8818 0.1371 0.4513
vn -0.8809 0.1105 0.4601
vn -0.8838 0.0836 0.4603
vn -0.8765 -0.0001 0.4813
vn -0.8627 -0.1111 0.4934
vn -0.8917 -0.2174 0.397
vn -0.8251 -0.3898 0.409
vn -0.7999 0.4522 -0.3946
vn -0.8535 0.2173 -0.4737
vn -0.8545 0.3022 -0.4226
vn -0.8685 0.1126 -0.4828
vn -0.9581 0.1075 -0.2656
vn -0.9488 0.196 -0.2478
vn -0.9501 0.1653 -0.2646
vn -0.944 0.2391 -0.2274
vn -0.9565 -0.1071 0.2715
vn -0.9778 -0.017 0.2088
vn -0.9284 -0.0442 0.3689
vn -0.9631 0.0455 0.2654
vn -0.9776 0.057 0.2024
vn -0.9484 -0.0263 0.3161
vn -0.9837 0.0011 0.1796
vn -0.9767 -0.0445 0.21
vn -0.9625 0.1974 -0.1862
vn -0.9681 0.1487 -0.2017
vn -0.9643 0.1783 -0.1957
vn -0.9735 0.1038 -0.2037
vn -0.9269 0.1104 -0.3587
vn -0.9239 0.2198 -0.3131
vn -0.9165 0.1867 -0.3537
vn -0.9076 0.2911 -0.3026
vn -0.9267 -0.1777 0.3312
vn -0.9567 -0.0603 0.2848
vn -0.9056 -0.061 0.4197
vn -0.9333 0.0266 0.3581
vn -0.8425 0.0797 0.5327
vn -0.8392 0.1107 0.5325
vn -0.8408 0.1416 0.5224
vn -0.8381 0.1704 0.5182
vn -0.8537 0.0042 -0.5207
vn -0.8439 0.0648 -0.5326
vn -0.8514 0.0348 -0.5233
vn -0.8409 0.0959 -0.5326
vn 0.8824 -0.0977 0.4603
vn 0.8911 -0.0449 0.4516
vn 0.885 -0.0708 0.4603
vn 0.8924 -0.0178 0.4509
vn 0.8776 -0.1638 -0.4505
vn 0.8818 -0.1371 -0.4513
vn 0.8809 -0.1105 -0.4601
vn 0.8838 -0.0836 -0.4603
vn 0.8765 0.0001 -0.4813
vn 0.8627 0.1111 -0.4934
vn 0.8917 0.2174 -0.397
vn 0.8251 0.3898 -0.409
vn 0.7999 -0.4522 0.3946
vn 0.8535 -0.2173 0.4737
vn 0.8545 -0.3022 0.4226
vn 0.8685 -0.1126 0.4828
vn 0.9581 -0.1075 0.2656
vn 0.9488 -0.196 0.2478
vn 0.9501 -0.1653 0.2646
vn 0.944 -0.2391 0.2274
vn 0.9565 0.1071 -0.2715
vn 0.9778 0.017 -0.2088
vn 0.9284 0.0442 -0.3689
vn 0.9631 -0.0455 -0.2654
vn 0.9776 -0.057 -0.2024
vn 0.9484 0.0263 -0.3161
vn 0.9837 -0.0011 -0.1796
vn 0.9767 0.0445 -0.21
vn 0.9625 -0.1974 0.1862
vn 0.9681 -0.1487 0.2017
vn 0.9643 -0.1783 0.1957
vn 0.9735 -0.1038 0.2037
vn 0.9269 -0.1104 0.3587
vn 0.9239 -0.2198 0.3131
vn 0.9165 -0.1867 0.3537
vn 0.9076 -0.2911 0.3026
vn 0.9267 0.1777 -0.3312
vn 0.9567 0.0603 -0.2848
vn 0.9056 0.061 -0.4197
vn 0.9333 -0.0266 -0.3581
vn 0.8425 -0.0797 -0.5327
vn 0.8392 -0.1107 -0.5325
vn 0.8408 -0.1416 -0.5224
vn 0.8381 -0.1704 -0.5182
vn 0.8537 -0.0042 0.5207
vn 0.8439 -0.0648 0.5326
vn 0.8514 -0.0348 0.5233
vn 0.8409 -0.0959 0.5326
vn -0.081 -0.9967 0.0063
vn -0.0063 0.0074 -1
vn 0.0813 0.994 0.0738
vn -0.0811 -0.9967 -0.0065
vn -0.081 -0.9967 0.0065
vn 0.0799 0.9916 -0.1021
vn -0.0482 -0.6566 0.7527
vn 0.0813 0.991 0.1061
vn -0.043 -0.5972 0.8009
vn 0.08 0.992 -0.0978
vn -0.0571 -0.7579 0.6499
vn 0.0218 0.185 0.9825
vn -0.0032 0.0451 -0.999
vn 0.0812 0.9961 0.0338
vn -0.0426 -0.5922 0.8046
vn 0.0807 0.9962 -0.0328
vn -0.0811 -0.9967 -0.0063
vn 0.022 0.1881 0.9819
vn 0.0813 0.991 0.1063
vn 0.0797 0.9901 -0.1152
vt 0.610575 0.366364
vt 0.624411 0.366556
vt 0.626285 0.449277
vt 0.610087 0.449023
vt 0.561423 0.365072
vt 0.575547 0.365272
vt 0.551434 0.447481
vt 0.567975 0.447744
vt 0.586143 0.365722
vt 0.599979 0.365914
vt 0.580932 0.448257
vt 0.59713 0.448511
vt 0.536415 0.364414
vt 0.550539 0.364614
vt 0.521593 0.446697
vt 0.538134 0.44696
vt 0.525532 0.363957
vt 0.508292 0.446175
vt 0.592598 0.232126
vt 0.60631 0.232658
vt 0.611063 0.283705
vt 0.602828 0.283317
vt 0.563886 0.234131
vt 0.575429 0.232442
vt 0.583118 0.282799
vt 0.591353 0.283187
vt 0.529624 0.241152
vt 0.545121 0.237809
vt 0.56291 0.282364
vt 0.571411 0.282663
vt 0.497458 0.242375
vt 0.511409 0.243329
vt 0.550963 0.282882
vt 0.542142 0.283454
vt 0.623263 0.232932
vt 0.622538 0.283835
vt 0.593922 0.099605
vt 0.625152 0.100254
vt 0.623988 0.182029
vt 0.601557 0.181611
vt 0.485191 0.097045
vt 0.517371 0.09742
vt 0.546222 0.181185
vt 0.521952 0.183337
vt 0.534702 0.098048
vt 0.565932 0.098697
vt 0.582367 0.180935
vt 0.559886 0.180657
vt 0.417904 0.103226
vt 0.452221 0.101075
vt 0.473552 0.187654
vt 0.499079 0.186441
vt 0.39173 0.099375
vt 0.452651 0.18722
vt 0.549941 0.018683
vt 0.587062 0.024034
vt 0.488877 0.017078
vt 0.510906 0.020762
vt 0.410737 0.015024
vt 0.449673 0.020431
vt 0.332596 0.012969
vt 0.370501 0.015573
vt 0.626285 0.020691
vt 0.028679 0.366364
vt 0.029167 0.449023
vt 0.012969 0.449277
vt 0.014843 0.366556
vt 0.077832 0.365072
vt 0.08782 0.447481
vt 0.063708 0.365272
vt 0.07128 0.447744
vt 0.053112 0.365722
vt 0.058322 0.448257
vt 0.039275 0.365914
vt 0.042124 0.448511
vt 0.102839 0.364414
vt 0.117661 0.446697
vt 0.088715 0.364614
vt 0.101121 0.44696
vt 0.113723 0.363957
vt 0.130962 0.446175
vt 0.046657 0.232126
vt 0.036426 0.283317
vt 0.028191 0.283705
vt 0.032944 0.232658
vt 0.075368 0.234131
vt 0.056136 0.282799
vt 0.063826 0.232442
vt 0.047901 0.283187
vt 0.10963 0.241152
vt 0.076345 0.282364
vt 0.094133 0.237809
vt 0.067843 0.282663
vt 0.141797 0.242375
vt 0.097112 0.283454
vt 0.088291 0.282882
vt 0.127845 0.243329
vt 0.016716 0.283835
vt 0.015992 0.232932
vt 0.045332 0.099605
vt 0.037697 0.181611
vt 0.015267 0.182029
vt 0.014102 0.100254
vt 0.154064 0.097045
vt 0.117302 0.183337
vt 0.093032 0.181185
vt 0.121883 0.09742
vt 0.104552 0.098048
vt 0.079369 0.180657
vt 0.056887 0.180935
vt 0.073322 0.098697
vt 0.22135 0.103226
vt 0.165703 0.187654
vt 0.187033 0.101075
vt 0.140176 0.186441
vt 0.247525 0.099375
vt 0.186603 0.18722
vt 0.089313 0.018683
vt 0.052193 0.024034
vt 0.150378 0.017078
vt 0.128349 0.020762
vt 0.228518 0.015024
vt 0.189582 0.020431
vt 0.306658 0.012969
vt 0.268753 0.015573
vt 0.012969 0.02069
vt 0.401423 0.847022
vt 0.408557 0.831698
vt 0.411695 0.831676
vt 0.404562 0.847
vt 0.34637 0.742496
vt 0.346362 0.824292
vt 0.343224 0.824334
vt 0.343232 0.742538
vt 0.979719 0.091399
vt 0.986976 0.129735
vt 0.983837 0.129714
vt 0.97658 0.091378
vt 0.401423 0.816725
vt 0.404562 0.816704
vt 0.408557 0.801754
vt 0.411695 0.801732
vt 0.987031 0.051479
vt 0.983892 0.051457
vt 0.401423 0.786781
vt 0.404562 0.78676
vt 0.469865 0.771801
vt 0.470162 0.818999
vt 0.466726 0.771788
vt 0.467023 0.818987
vt 0.979719 0.012991
vt 0.97658 0.012969
vt 0.437634 0.844389
vt 0.437649 0.771788
vt 0.440772 0.844427
vt 0.440787 0.771826
vt 0.346381 0.640663
vt 0.346376 0.691579
vt 0.343237 0.691621
vt 0.343243 0.640705
vt 0.987028 0.192585
vt 0.979719 0.23437
vt 0.98389 0.192563
vt 0.97658 0.234348
vt 0.401423 0.87767
vt 0.408557 0.862346
vt 0.411695 0.862325
vt 0.404562 0.877649
vt 0.469865 0.86567
vt 0.466726 0.865657
vt 0.372319 0.938354
vt 0.372346 0.855977
vt 0.375458 0.938399
vt 0.375485 0.856022
vt 0.346367 0.557939
vt 0.343229 0.557982
vt 0.986913 0.273985
vt 0.983774 0.273963
vt 0.437649 0.91597
vt 0.440787 0.916009
vt 0.979719 0.314624
vt 0.97658 0.314602
vt 0.346354 0.475216
vt 0.343215 0.475258
vt 0.408557 0.892995
vt 0.411695 0.892973
vt 0.372319 0.771788
vt 0.375458 0.771833
vt 0.408557 0.77181
vt 0.411695 0.771788
vt 0.346354 0.903876
vt 0.343215 0.903918
vt 0.979719 0.154116
vt 0.97658 0.154095
usemtl Material
f 9/15/7 10/16/7 11/17/7
f 9/15/7 11/17/7 12/18/7
f 13/19/8 14/20/8 15/21/8
f 14/20/8 16/22/8 15/21/8
f 17/23/9 18/24/9 19/25/9
f 18/24/9 20/26/9 19/25/9
f 21/27/10 22/28/10 23/29/10
f 22/28/10 24/30/10 23/29/10
f 25/31/11 21/27/11 26/32/11
f 21/27/11 23/29/11 26/32/11
f 22/28/12 13/19/12 24/30/12
f 13/19/12 15/21/12 24/30/12
f 14/20/13 17/23/13 16/22/13
f 17/23/13 19/25/13 16/22/13
f 18/24/14 9/15/14 12/18/14
f 18/24/14 12/18/14 20/26/14
f 27/33/15 28/34/15 29/35/15
f 27/33/15 29/35/15 30/36/15
f 31/37/16 32/38/16 33/39/16
f 32/38/16 34/40/16 33/39/16
f 35/41/17 36/42/17 37/43/17
f 36/42/17 38/44/17 37/43/17
f 39/45/18 40/46/18 41/47/18
f 39/45/18 41/47/18 42/48/18
f 40/46/19 35/41/19 41/47/19
f 35/41/19 37/43/19 41/47/19
f 32/38/20 27/33/20 34/40/20
f 27/33/20 30/36/20 34/40/20
f 36/42/21 31/37/21 38/44/21
f 31/37/21 33/39/21 38/44/21
f 28/34/22 43/49/22 44/50/22
f 28/34/22 44/50/22 29/35/22
f 45/51/23 46/52/23 47/53/23
f 45/51/23 47/53/23 48/54/23
f 49/55/24 50/56/24 51/57/24
f 49/55/24 51/57/24 52/58/24
f 53/59/25 54/60/25 55/61/25
f 53/59/25 55/61/25 56/62/25
f 57/63/26 58/64/26 59/65/26
f 58/64/26 60/66/26 59/65/26
f 61/67/27 57/63/27 59/65/27
f 61/67/27 59/65/27 62/68/27
f 58/64/28 49/55/28 52/58/28
f 58/64/28 52/58/28 60/66/28
f 50/56/29 53/59/29 56/62/29
f 50/56/29 56/62/29 51/57/29
f 54/60/30 45/51/30 48/54/30
f 54/60/30 48/54/30 55/61/30
f 63/69/31 64/70/31 45/51/31
f 63/69/31 45/51/31 54/60/31
f 65/71/32 66/72/32 53/59/32
f 65/71/32 53/59/32 50/56/32
f 67/73/33 68/74/33 49/55/33
f 67/73/33 49/55/33 58/64/33
f 69/75/34 70/76/34 61/67/34
f 70/76/34 57/63/34 61/67/34
f 70/76/35 67/73/35 58/64/35
f 70/76/35 58/64/35 57/63/35
f 66/72/36 63/69/36 53/59/36
f 63/69/36 54/60/36 53/59/36
f 68/74/37 65/71/37 49/55/37
f 65/71/37 50/56/37 49/55/37
f 64/70/38 71/77/38 45/51/38
f 71/77/38 46/52/38 45/51/38
f 48/54/39 47/53/39 43/49/39
f 48/54/39 43/49/39 28/34/39
f 52/58/40 51/57/40 31/37/40
f 52/58/40 31/37/40 36/42/40
f 56/62/41 55/61/41 27/33/41
f 56/62/41 27/33/41 32/38/41
f 59/65/42 60/66/42 35/41/42
f 59/65/42 35/41/42 40/46/42
f 62/68/43 59/65/43 39/45/43
f 59/65/43 40/46/43 39/45/43
f 60/66/44 52/58/44 36/42/44
f 60/66/44 36/42/44 35/41/44
f 51/57/45 56/62/45 32/38/45
f 51/57/45 32/38/45 31/37/45
f 55/61/46 48/54/46 28/34/46
f 55/61/46 28/34/46 27/33/46
f 30/36/47 29/35/47 9/15/47
f 30/36/47 9/15/47 18/24/47
f 33/39/48 34/40/48 14/20/48
f 34/40/48 17/23/48 14/20/48
f 37/43/49 38/44/49 13/19/49
f 37/43/49 13/19/49 22/28/49
f 42/48/50 41/47/50 21/27/50
f 42/48/50 21/27/50 25/31/50
f 41/47/51 37/43/51 22/28/51
f 41/47/51 22/28/51 21/27/51
f 34/40/52 30/36/52 17/23/52
f 30/36/52 18/24/52 17/23/52
f 38/44/53 33/39/53 13/19/53
f 33/39/53 14/20/53 13/19/53
f 29/35/54 44/50/54 10/16/54
f 29/35/54 10/16/54 9/15/54
f 72/78/55 73/79/55 74/80/55
f 72/78/55 74/80/55 75/81/55
f 76/82/56 77/83/56 78/84/56
f 77/83/56 79/85/56 78/84/56
f 80/86/57 81/87/57 82/88/57
f 81/87/57 83/89/57 82/88/57
f 84/90/58 85/91/58 86/92/58
f 85/91/58 87/93/58 86/92/58
f 88/94/59 89/95/59 84/90/59
f 89/95/59 85/91/59 84/90/59
f 86/92/60 87/93/60 76/82/60
f 87/93/60 77/83/60 76/82/60
f 78/84/61 79/85/61 80/86/61
f 79/85/61 81/87/61 80/86/61
f 82/88/62 83/89/62 73/79/62
f 82/88/62 73/79/62 72/78/62
f 90/96/63 91/97/63 92/98/63
f 90/96/63 92/98/63 93/99/63
f 94/100/64 95/101/64 96/102/64
f 95/101/64 97/103/64 96/102/64
f 98/104/65 99/105/65 100/106/65
f 99/105/65 101/107/65 100/106/65
f 102/108/66 103/109/66 104/110/66
f 102/108/66 104/110/66 105/111/66
f 105/111/67 104/110/67 98/104/67
f 104/110/67 99/105/67 98/104/67
f 96/102/68 97/103/68 90/96/68
f 97/103/68 91/97/68 90/96/68
f 100/106/69 101/107/69 94/100/69
f 101/107/69 95/101/69 94/100/69
f 93/99/70 92/98/70 106/112/70
f 93/99/70 106/112/70 107/113/70
f 108/114/71 109/115/71 110/116/71
f 108/114/71 110/116/71 111/117/71
f 112/118/72 113/119/72 114/120/72
f 112/118/72 114/120/72 115/121/72
f 116/122/73 117/123/73 118/124/73
f 116/122/73 118/124/73 119/125/73
f 120/126/74 121/127/74 122/128/74
f 121/127/74 123/129/74 122/128/74
f 124/130/75 125/131/75 121/127/75
f 124/130/75 121/127/75 120/126/75
f 122/128/76 123/129/76 113/119/76
f 122/128/76 113/119/76 112/118/76
f 115/121/77 114/120/77 117/123/77
f 115/121/77 117/123/77 116/122/77
f 119/125/78 118/124/78 109/115/78
f 119/125/78 109/115/78 108/114/78
f 126/132/79 119/125/79 108/114/79
f 126/132/79 108/114/79 127/133/79
f 128/134/80 115/121/80 116/122/80
f 128/134/80 116/122/80 129/135/80
f 130/136/81 122/128/81 112/118/81
f 130/136/81 112/118/81 131/137/81
f 132/138/82 124/130/82 133/139/82
f 124/130/82 120/126/82 133/139/82
f 133/139/83 120/126/83 122/128/83
f 133/139/83 122/128/83 130/136/83
f 129/135/84 116/122/84 126/132/84
f 116/122/84 119/125/84 126/132/84
f 131/137/85 112/118/85 128/134/85
f 112/118/85 115/121/85 128/134/85
f 127/133/86 108/114/86 134/140/86
f 108/114/86 111/117/86 134/140/86
f 109/115/87 93/99/87 107/113/87
f 109/115/87 107/113/87 110/116/87
f 113/119/88 100/106/88 94/100/88
f 113/119/88 94/100/88 114/120/88
f 117/123/89 96/102/89 90/96/89
f 117/123/89 90/96/89 118/124/89
f 121/127/90 105/111/90 98/104/90
f 121/127/90 98/104/90 123/129/90
f 125/131/91 102/108/91 121/127/91
f 102/108/91 105/111/91 121/127/91
f 123/129/92 98/104/92 100/106/92
f 123/129/92 100/106/92 113/119/92
f 114/120/93 94/100/93 96/102/93
f 114/120/93 96/102/93 117/123/93
f 118/124/94 90/96/94 93/99/94
f 118/124/94 93/99/94 109/115/94
f 91/97/95 82/88/95 72/78/95
f 91/97/95 72/78/95 92/98/95
f 95/101/96 78/84/96 97/103/96
f 78/84/96 80/86/96 97/103/96
f 99/105/97 86/92/97 76/82/97
f 99/105/97 76/82/97 101/107/97
f 103/109/98 88/94/98 84/90/98
f 103/109/98 84/90/98 104/110/98
f 104/110/99 84/90/99 86/92/99
f 104/110/99 86/92/99 99/105/99
f 97/103/100 80/86/100 91/97/100
f 80/86/100 82/88/100 91/97/100
f 101/107/101 76/82/101 95/101/101
f 76/82/101 78/84/101 95/101/101
f 92/98/102 72/78/102 75/81/102
f 92/98/102 75/81/102 106/112/102
f 15/141/103 16/142/103 79/143/103
f 15/141/103 79/143/103 77/144/103
f 47/145/104 46/146/104 111/147/104
f 47/145/104 111/147/104 110/148/104
f 63/149/105 66/150/105 129/151/105
f 63/149/105 129/151/105 126/152/105
f 16/142/106 19/153/106 79/143/106
f 19/153/106 81/154/106 79/143/106
f 19/153/107 20/155/107 81/154/107
f 20/155/107 83/156/107 81/154/107
f 64/157/108 63/149/108 127/158/108
f 63/149/108 126/152/108 127/158/108
f 20/155/106 12/159/106 83/156/106
f 12/159/106 73/160/106 83/156/106
f 62/161/109 39/162/109 125/163/109
f 39/162/109 102/164/109 125/163/109
f 71/165/110 64/157/110 127/158/110
f 71/165/110 127/158/110 134/166/110
f 61/167/111 62/168/111 124/169/111
f 62/168/111 125/170/111 124/169/111
f 44/171/104 43/172/104 107/173/104
f 44/171/104 107/173/104 106/174/104
f 68/175/112 67/176/112 131/177/112
f 67/176/112 130/178/112 131/177/112
f 23/179/103 24/180/103 87/181/103
f 23/179/103 87/181/103 85/182/103
f 39/162/113 42/183/113 103/184/113
f 39/162/113 103/184/113 102/164/113
f 42/185/114 25/186/114 103/187/114
f 25/186/114 88/188/114 103/187/114
f 10/189/115 44/171/115 75/190/115
f 44/171/115 106/174/115 75/190/115
f 67/176/116 70/191/116 133/192/116
f 67/176/116 133/192/116 130/178/116
f 69/193/117 61/167/117 124/169/117
f 69/193/117 124/169/117 132/194/117
f 70/191/118 69/195/118 133/192/118
f 69/195/118 132/196/118 133/192/118
f 11/197/115 10/189/115 74/198/115
f 10/189/115 75/190/115 74/198/115
f 26/199/119 23/179/119 85/182/119
f 26/199/119 85/182/119 89/200/119
f 25/186/120 26/201/120 89/202/120
f 25/186/120 89/202/120 88/188/120
f 43/172/104 47/145/104 107/173/104
f 47/145/104 110/148/104 107/173/104
f 12/159/107 11/203/107 73/160/107
f 11/203/107 74/204/107 73/160/107
f 24/180/119 15/141/119 77/144/119
f 24/180/119 77/144/119 87/181/119
f 46/146/104 71/205/104 111/147/104
f 71/205/104 134/206/104 111/147/104
f 65/207/121 68/175/121 131/177/121
f 65/207/121 131/177/121 128/208/121
f 66/150/122 65/207/122 129/151/122
f 65/207/122 128/208/122 129/151/122
s off
g Plane.002
v 0.339594 -0.202376 -4.34434
v 0.28951 -0.20952 -4.38548
v 0.281224 -0.296764 -4.38548
v 0.329067 -0.313209 -4.34434
v 0.358709 -0.204192 -3.99957
v 0.371457 -0.205403 -4.13835
v 0.348182 -0.315025 -3.99957
v 0.360931 -0.316236 -4.13835
v 0.354497 -0.203792 -3.92722
v 0.34397 -0.314625 -3.92722
v 0.351904 -0.203546 -4.26905
v 0.341378 -0.314378 -4.26905
v 0.328008 -0.214342 -3.89165
v 0.319941 -0.299276 -3.89165
v 0.268038 -0.294347 -3.93427
v 0.276105 -0.209412 -3.93427
v 0.249365 -0.292573 -3.9875
v 0.257432 -0.207639 -3.9875
v 0.251426 -0.292769 -4.05493
v 0.259493 -0.207835 -4.05493
v 0.249274 -0.296367 -4.2162
v 0.257341 -0.211433 -4.2162
v 0.264331 -0.297797 -4.31892
v 0.272397 -0.212863 -4.31892
v 0.280998 -0.29938 -4.38446
v 0.289065 -0.214446 -4.38446
v 0.345647 -0.202951 -4.34697
v 0.33512 -0.313784 -4.34697
v 0.293742 -0.209922 -4.39057
v 0.285455 -0.297166 -4.39057
v 0.365286 -0.204816 -3.99907
v 0.354759 -0.315649 -3.99907
v 0.37805 -0.206029 -4.13854
v 0.367524 -0.316862 -4.13854
v 0.360942 -0.204404 -3.92582
v 0.350415 -0.315237 -3.92582
v 0.347893 -0.314997 -4.27008
v 0.35842 -0.204164 -4.27008
v 0.330435 -0.214573 -3.88549
v 0.322368 -0.299507 -3.88549
v 0.270707 -0.2089 -3.93047
v 0.26264 -0.293834 -3.93047
v 0.250914 -0.20702 -3.98649
v 0.242847 -0.291954 -3.98649
v 0.252898 -0.207208 -4.055
v 0.244831 -0.292143 -4.05499
v 0.25076 -0.210807 -4.21663
v 0.242695 -0.295742 -4.21667
v 0.265931 -0.212248 -4.32022
v 0.257864 -0.297183 -4.32022
v 0.274607 -0.298773 -4.3861
v 0.282674 -0.213839 -4.3861
vn -0.6387 0.0607 0.767
vn -0.9913 0.0942 -0.0919
vn -0.9938 0.0944 -0.0584
vn -0.9845 0.0935 0.1486
vn -0.9824 0.0933 0.1621
vn -0.8105 0.077 -0.5807
vn 0.6301 -0.0598 -0.7742
vn 0.9389 -0.0892 -0.3324
vn 0.9951 -0.0945 0.0307
vn 0.9955 -0.0945 -0.0112
vn 0.9849 -0.0935 0.1457
vn 0.9645 -0.0916 0.2475
vn 0.6467 -0.0614 -0.7602
vn 0.9913 -0.0942 0.0916
vn 0.9938 -0.0944 0.0595
vn 0.9845 -0.0935 -0.1482
vn 0.9819 -0.0933 -0.1646
vn 0.8043 -0.0764 0.5892
vn -0.5972 0.0567 0.8001
vn -0.9382 0.0891 0.3345
vn -0.9951 0.0945 -0.0291
vn -0.9955 0.0945 0.0111
vn -0.9849 0.0936 -0.1456
vn -0.9646 0.0916 -0.2474
vn -0.0946 -0.9955 -0
vn 0.0946 0.9955 -0
vn -0.0156 0.9892 -0.146
vn -0.0955 -0.9952 0.0234
vn -0.0819 0.9754 0.2047
vn 0.0954 0.9952 -0.0234
vn -0.2015 -0.9685 -0.146
vn -0.2641 -0.9425 0.2047
vn -0.7636 0.0725 -0.6416
vn 0.2464 -0.0234 -0.9689
vt 0.678586 0.330296
vt 0.655405 0.296527
vt 0.655405 0.046738
vt 0.678586 0.012969
vt 0.884948 0.330296
vt 0.801253 0.330296
vt 0.884948 0.012969
vt 0.801253 0.012969
vt 0.928508 0.330296
vt 0.928508 0.012969
vt 0.723403 0.330296
vt 0.723403 0.012969
vt 0.950642 0.293221
vt 0.950642 0.050045
vt 0.855966 0.681204
vt 0.896065 0.681204
vt 0.896065 0.92438
vt 0.855966 0.92438
vt 0.383109 0.745849
vt 0.383109 0.71449
vt 0.626285 0.71449
vt 0.626285 0.745849
vt 0.383109 0.673955
vt 0.626285 0.673955
vt 0.372319 0.577211
vt 0.615496 0.577211
vt 0.372319 0.515081
vt 0.615496 0.515081
vt 0.372319 0.475216
vt 0.615496 0.475216
vt 0.932128 0.673562
vt 0.932128 0.356235
vt 0.971954 0.639792
vt 0.971954 0.390004
vt 0.221167 0.475216
vt 0.221167 0.792543
vt 0.137055 0.475216
vt 0.137055 0.792543
vt 0.265277 0.475216
vt 0.265277 0.792543
vt 0.058722 0.792543
vt 0.058722 0.475216
vt 0.012969 0.792543
vt 0.012969 0.475216
vt 0.290408 0.512291
vt 0.290408 0.755468
vt 0.8954 0.655265
vt 0.652224 0.655265
vt 0.652224 0.630114
vt 0.8954 0.630114
vt 0.652224 0.597099
vt 0.8954 0.597099
vt 0.652224 0.555914
vt 0.8954 0.55592
vt 0.663013 0.458946
vt 0.906189 0.458924
vt 0.663013 0.396294
vt 0.906189 0.396294
vt 0.906189 0.356235
vt 0.663013 0.356235
vt 0.675255 0.684795
vt 0.665229 0.724194
vt 0.671396 0.683813
vt 0.661324 0.723414
vt 0.712313 0.753833
vt 0.704838 0.708587
vt 0.716246 0.753211
vt 0.708491 0.707001
vt 0.783429 0.981005
vt 0.814789 0.955416
vt 0.818046 0.957707
vt 0.781961 0.984706
vt 0.81702 0.724121
vt 0.806993 0.684722
vt 0.810852 0.68374
vt 0.820925 0.72334
vt 0.807013 0.68426
vt 0.777441 0.709334
vt 0.804461 0.681204
vt 0.773789 0.707748
vt 0.656196 0.785937
vt 0.657365 0.882983
vt 0.653383 0.882951
vt 0.652224 0.785661
vt 0.75809 0.833123
vt 0.765711 0.916535
vt 0.761739 0.916831
vt 0.75411 0.833006
vt 0.768214 0.960022
vt 0.764321 0.960863
vt 0.824886 0.88291
vt 0.826054 0.785863
vt 0.828868 0.882872
vt 0.830027 0.785609
vt 0.714069 0.959274
vt 0.716571 0.915788
vt 0.720543 0.916084
vt 0.717961 0.960116
vt 0.656158 0.923507
vt 0.667462 0.955489
vt 0.652224 0.924122
vt 0.664205 0.95778
vt 0.826093 0.923434
vt 0.830027 0.924048
vt 0.675238 0.68426
vt 0.67779 0.681204
vt 0.698822 0.981078
vt 0.700291 0.984779
vt 0.724191 0.832376
vt 0.728171 0.832258
vt 0.652224 0.296527
vt 0.652224 0.046738
vt 0.769968 0.754581
vt 0.766034 0.753959
vt 0.932128 0.942676
vt 0.932128 0.6995
vt 0.935934 0.942676
vt 0.935934 0.6995
usemtl Material
f 135/209/123 136/210/123 137/211/123
f 135/209/123 137/211/123 138/212/123
f 139/213/124 140/214/124 141/215/124
f 140/214/124 142/216/124 141/215/124
f 143/217/125 139/213/125 141/215/125
f 143/217/125 141/215/125 144/218/125
f 140/214/126 145/219/126 142/216/126
f 145/219/126 146/220/126 142/216/126
f 145/219/127 135/209/127 138/212/127
f 145/219/127 138/212/127 146/220/127
f 147/221/128 143/217/128 148/222/128
f 143/217/128 144/218/128 148/222/128
f 148/223/129 149/224/129 150/225/129
f 148/223/129 150/225/129 147/226/129
f 149/227/130 151/228/130 152/229/130
f 149/227/130 152/229/130 150/230/130
f 151/228/131 153/231/131 154/232/131
f 151/228/131 154/232/131 152/229/131
f 153/231/132 155/233/132 156/234/132
f 153/231/132 156/234/132 154/232/132
f 155/233/133 157/235/133 158/236/133
f 155/233/133 158/236/133 156/234/133
f 157/235/134 159/237/134 160/238/134
f 157/235/134 160/238/134 158/236/134
f 161/239/135 162/240/135 163/241/135
f 162/240/135 164/242/135 163/241/135
f 165/243/136 166/244/136 167/245/136
f 166/244/136 168/246/136 167/245/136
f 169/247/137 170/248/137 166/244/137
f 169/247/137 166/244/137 165/243/137
f 167/245/138 168/246/138 171/249/138
f 167/245/138 171/249/138 172/250/138
f 172/250/139 171/249/139 162/251/139
f 172/250/139 162/251/139 161/252/139
f 173/253/140 174/254/140 169/247/140
f 174/254/140 170/248/140 169/247/140
f 174/255/141 173/256/141 175/257/141
f 174/255/141 175/257/141 176/258/141
f 176/258/142 175/257/142 177/259/142
f 176/258/142 177/259/142 178/260/142
f 178/260/143 177/259/143 179/261/143
f 178/260/143 179/261/143 180/262/143
f 180/262/144 179/261/144 181/263/144
f 180/262/144 181/263/144 182/264/144
f 182/264/145 181/263/145 183/265/145
f 182/264/145 183/265/145 184/266/145
f 184/266/146 183/265/146 185/267/146
f 183/265/146 186/268/146 185/267/146
f 159/269/147 157/270/147 185/271/147
f 157/270/147 184/272/147 185/271/147
f 146/273/147 138/274/147 171/275/147
f 138/274/147 162/276/147 171/275/147
f 147/277/148 150/278/148 175/279/148
f 147/277/148 175/279/148 173/280/148
f 158/281/148 160/282/148 186/283/148
f 158/281/148 186/283/148 183/284/148
f 136/285/149 135/286/149 163/287/149
f 135/286/149 161/288/149 163/287/149
f 155/289/150 153/290/150 180/291/150
f 155/289/150 180/291/150 182/292/150
f 140/293/148 139/294/148 165/295/148
f 140/293/148 165/295/148 167/296/148
f 143/297/151 147/277/151 169/298/151
f 147/277/151 173/280/151 169/298/151
f 154/299/152 156/300/152 179/301/152
f 156/300/152 181/302/152 179/301/152
f 144/303/147 141/304/147 166/305/147
f 144/303/147 166/305/147 170/306/147
f 151/307/147 149/308/147 178/309/147
f 149/308/147 176/310/147 178/309/147
f 139/294/148 143/297/148 165/295/148
f 143/297/148 169/298/148 165/295/148
f 150/278/148 152/311/148 177/312/148
f 150/278/148 177/312/148 175/279/148
f 138/274/153 137/313/153 164/314/153
f 138/274/153 164/314/153 162/276/153
f 148/315/154 144/303/154 170/306/154
f 148/315/154 170/306/154 174/316/154
f 157/270/147 155/289/147 184/272/147
f 155/289/147 182/292/147 184/272/147
f 142/317/147 146/273/147 171/275/147
f 142/317/147 171/275/147 168/318/147
f 137/211/155 136/210/155 163/319/155
f 137/211/155 163/319/155 164/320/155
f 156/300/148 158/281/148 183/284/148
f 156/300/148 183/284/148 181/302/148
f 135/286/148 145/321/148 172/322/148
f 135/286/148 172/322/148 161/288/148
f 153/290/147 151/307/147 180/291/147
f 151/307/147 178/309/147 180/291/147
f 145/321/148 140/293/148 172/322/148
f 140/293/148 167/296/148 172/322/148
f 160/323/156 159/324/156 186/325/156
f 159/324/156 185/326/156 186/325/156
f 152/311/148 154/299/148 179/301/148
f 152/311/148 179/301/148 177/312/148
f 141/304/147 142/317/147 166/305/147
f 142/317/147 168/318/147 166/305/147
f 149/308/147 148/315/147 176/310/147
f 148/315/147 174/316/147 176/310/147
s off
