# Apple ModelIO OBJ File: estufa_para_texturizar-1
mtllib estufa_para_texturizar-1.mtl
g Cube
v 0.81 0.624542 -1
v 0.81 1 -1
v 0.81 1 1
v 0.81 0.624542 1
v -0.577752 1 1
v -0.577752 1 -1
v -0.712554 1.26442 -1
v -0.712554 1.26442 1
v -0.81 1.26442 -1
v -0.81 1.26442 1
v -0.81 0.999295 -1
v -0.81 1 1
v -0.81 0.624542 1
v 0.81 -1 -1
v 0.81 -0.689585 -1
v 0.81 -0.689585 1
v 0.81 -1 1
v -0.81 -1 1
v -0.81 -0.689585 1
v -0.81 -0.689585 -1
v -0.81 -1 -1
v 0.81 -0.458567 0.654811
v 0.81 -0.458567 -0.654811
v 0.786438 -0.458567 -0.654811
v 0.786438 -0.458567 0.654811
v -0.81 0.624542 -1
v 0.81 0.165182 -0.654811
v 0.81 0.165182 0.654811
v 0.786438 0.165182 -0.654811
v 0.786438 0.165182 0.654811
v 0.878036 0.407705 0.55944
v 0.878036 0.349217 0.55944
v 0.773976 0.349217 0.55944
v 0.773976 0.407705 0.55944
v 0.878036 0.349217 -0.587244
v 0.878036 0.407705 -0.587244
v 0.943156 0.407705 -0.587244
v 0.943156 0.349217 -0.587244
v 0.943156 0.349217 0.55944
v 0.943156 0.407705 0.55944
v 0.943156 0.407705 0.633143
v 0.943156 0.349217 0.633143
v 0.878036 0.407705 0.633143
v 0.878036 0.349217 0.633143
v 0.943156 0.407705 -0.496161
v 0.878036 0.407705 -0.496161
v 0.878036 0.349217 -0.496161
v 0.943156 0.349217 -0.496161
v 0.773976 0.407705 0.633143
v 0.773976 0.349217 0.633143
v 0.773976 0.349217 -0.496161
v 0.773976 0.407705 -0.496161
v 0.773976 0.407705 -0.587244
v 0.773976 0.349217 -0.587244
v -0.752166 -1.06558 -0.9286
v -0.752166 -1.06558 0.9286
v 0.752166 -1.06558 -0.9286
v 0.752166 -1.06558 0.9286
vn 1 -0 -0
vn 0.8909 0.4542 -0
vn -0 1 -0
vn -1 -0 -0
vn -0 -0 1
vn -0 -1 -0
vn -0 -0 -1
vn -0.75 -0.6615 -0
vn -0 -0.7365 -0.6764
vn 0.75 -0.6615 -0
vn -0 -0.7365 0.6764
vt 0.28176 0.349963
vt 0.267323 0.349963
vt 0.267323 0.272965
vt 0.28176 0.272965
vt 0.567629 0.756418
vt 0.567629 0.833416
vt 0.557147 0.833416
vt 0.557147 0.756418
vt 0.682684 0.472291
vt 0.616725 0.472291
vt 0.616725 0.395294
vt 0.682684 0.395294
vt 0.467411 0.955745
vt 0.46278 0.955745
vt 0.46278 0.878747
vt 0.467411 0.878747
vt 0.099663 0.022666
vt 0.099663 0.032872
vt 0.022666 0.032845
vt 0.022666 0.022666
vt 0.221992 0.032845
vt 0.210953 0.032845
vt 0.21736 0.022666
vt 0.221992 0.022666
vt 0.221992 0.0473
vt 0.144994 0.0473
vt 0.144994 0.032845
vt 0.344228 0.349963
vt 0.332291 0.349963
vt 0.332291 0.272965
vt 0.344228 0.272965
vt 0.022666 0.109843
vt 0.022666 0.097892
vt 0.099663 0.097892
vt 0.099663 0.109843
vt 0.931346 0.299544
vt 0.931346 0.349963
vt 0.930226 0.349963
vt 0.930226 0.299544
vt 0.022666 0.0473
vt 0.099663 0.0473
vt 0.299424 0.336673
vt 0.323408 0.336673
vt 0.323408 0.286254
vt 0.299424 0.286254
vt 0.366104 0.929166
vt 0.342119 0.929166
vt 0.342119 0.878747
vt 0.366104 0.878747
vt 0.022666 0.917478
vt 0.022666 0.893464
vt 0.023785 0.893464
vt 0.023785 0.917478
vt 0.903032 0.935027
vt 0.903032 0.884608
vt 0.904152 0.884608
vt 0.904152 0.935027
vt 0.070236 0.893464
vt 0.070236 0.917478
vt 0.069116 0.917478
vt 0.069116 0.893464
vt 0.022666 0.962809
vt 0.024917 0.962809
vt 0.024917 0.967755
vt 0.022666 0.967755
vt 0.951735 0.941075
vt 0.949483 0.941075
vt 0.949483 0.93798
vt 0.951735 0.93798
vt 0.147243 0.892756
vt 0.144994 0.892756
vt 0.144994 0.889919
vt 0.147243 0.889919
vt 0.951735 0.892649
vt 0.949483 0.892649
vt 0.949483 0.889554
vt 0.951735 0.889554
vt 0.565112 0.881585
vt 0.562017 0.881585
vt 0.562017 0.878747
vt 0.565112 0.878747
vt 0.857701 0.887446
vt 0.854606 0.887446
vt 0.854606 0.884608
vt 0.857701 0.884608
vt 0.857701 0.928085
vt 0.854606 0.928085
vt 0.565112 0.922224
vt 0.562017 0.922224
vt 0.147243 0.933396
vt 0.144994 0.933396
vt 0.949483 0.884608
vt 0.951735 0.884608
vt 0.147243 0.936902
vt 0.144994 0.936902
vt 0.565112 0.92573
vt 0.562017 0.92573
vt 0.857701 0.931592
vt 0.854606 0.931592
vt 0.194826 0.930558
vt 0.192574 0.930558
vt 0.192574 0.889919
vt 0.194826 0.889919
vt 0.564268 0.974568
vt 0.562017 0.974568
vt 0.562017 0.971062
vt 0.564268 0.971062
vt 0.344371 0.977334
vt 0.342119 0.977334
vt 0.342119 0.974497
vt 0.344371 0.974497
vt 0.84966 0.887446
vt 0.84966 0.884608
vt 0.84966 0.931592
vt 0.84966 0.928085
vt 0.570058 0.922224
vt 0.570058 0.92573
vt 0.570058 0.878747
vt 0.570058 0.881585
vt 0.0725 0.967755
vt 0.070248 0.967755
vt 0.070248 0.962809
vt 0.0725 0.962809
vt 0.951735 0.946021
vt 0.949483 0.946021
vt 0.099663 0.165354
vt 0.099663 0.179808
vt 0.022666 0.179808
vt 0.033704 0.165354
vt 0.022666 0.165381
vt 0.099663 0.230401
vt 0.099663 0.242351
vt 0.022666 0.242351
vt 0.022666 0.230401
vt 0.221992 0.097892
vt 0.221992 0.109843
vt 0.144994 0.109843
vt 0.144994 0.097892
vt 0.267323 0.150637
vt 0.34432 0.150637
vt 0.341572 0.153385
vt 0.270072 0.153385
vt 0.341572 0.224885
vt 0.270072 0.224885
vt 0.34432 0.227634
vt 0.267323 0.227634
vt 0.027297 0.155174
vt 0.022666 0.155174
usemtl 
f 1/1/1 2/2/1 3/3/1
f 1/1/1 3/3/1 4/4/1
f 5/5/2 6/6/2 7/7/2
f 5/5/2 7/7/2 8/8/2
f 2/9/3 6/10/3 5/11/3
f 2/9/3 5/11/3 3/12/3
f 7/13/3 9/14/3 10/15/3
f 7/13/3 10/15/3 8/16/3
f 9/17/4 11/18/4 12/19/4
f 9/17/4 12/19/4 10/20/4
f 12/21/5 5/22/5 8/23/5
f 12/21/5 8/23/5 10/24/5
f 12/21/5 13/25/5 4/26/5
f 5/22/5 12/21/5 4/26/5
f 3/27/5 5/22/5 4/26/5
f 14/28/1 15/29/1 16/30/1
f 14/28/1 16/30/1 17/31/1
f 18/32/4 19/33/4 20/34/4
f 18/32/4 20/34/4 21/35/4
f 22/36/3 23/37/3 24/38/3
f 22/36/3 24/38/3 25/39/3
f 19/33/4 13/40/4 26/41/4
f 19/33/4 26/41/4 20/34/4
f 27/42/1 23/43/1 15/29/1
f 27/42/1 15/29/1 1/1/1
f 22/44/1 28/45/1 4/4/1
f 22/44/1 4/4/1 16/30/1
f 23/43/1 22/44/1 16/30/1
f 23/43/1 16/30/1 15/29/1
f 28/45/1 27/42/1 1/1/1
f 28/45/1 1/1/1 4/4/1
f 24/46/1 29/47/1 30/48/1
f 24/46/1 30/48/1 25/49/1
f 23/50/5 27/51/5 29/52/5
f 23/50/5 29/52/5 24/53/5
f 27/54/6 28/55/6 30/56/6
f 27/54/6 30/56/6 29/57/6
f 28/58/7 22/59/7 25/60/7
f 28/58/7 25/60/7 30/61/7
f 31/62/7 32/63/7 33/64/7
f 31/62/7 33/64/7 34/65/7
f 35/66/7 36/67/7 37/68/7
f 35/66/7 37/68/7 38/69/7
f 39/70/1 40/71/1 41/72/1
f 39/70/1 41/72/1 42/73/1
f 42/74/5 41/75/5 43/76/5
f 42/74/5 43/76/5 44/77/5
f 32/78/6 39/79/6 42/80/6
f 32/78/6 42/80/6 44/81/6
f 40/82/3 31/83/3 43/84/3
f 40/82/3 43/84/3 41/85/3
f 45/86/3 46/87/3 31/83/3
f 45/86/3 31/83/3 40/82/3
f 47/88/6 48/89/6 39/79/6
f 47/88/6 39/79/6 32/78/6
f 48/90/1 45/91/1 40/71/1
f 48/90/1 40/71/1 39/70/1
f 44/77/5 43/76/5 49/92/5
f 44/77/5 49/92/5 50/93/5
f 38/94/1 37/95/1 45/91/1
f 38/94/1 45/91/1 48/90/1
f 35/96/6 38/97/6 48/89/6
f 35/96/6 48/89/6 47/88/6
f 37/98/3 36/99/3 46/87/3
f 37/98/3 46/87/3 45/86/3
f 32/100/4 31/101/4 46/102/4
f 32/100/4 46/102/4 47/103/4
f 51/104/4 52/105/4 53/106/4
f 51/104/4 53/106/4 54/107/4
f 50/108/4 49/109/4 34/110/4
f 50/108/4 34/110/4 33/111/4
f 43/84/3 31/83/3 34/112/3
f 43/84/3 34/112/3 49/113/3
f 46/87/3 36/99/3 53/114/3
f 46/87/3 53/114/3 52/115/3
f 35/96/6 47/88/6 51/116/6
f 35/96/6 51/116/6 54/117/6
f 32/78/6 44/81/6 50/118/6
f 32/78/6 50/118/6 33/119/6
f 47/120/5 46/121/5 52/122/5
f 47/120/5 52/122/5 51/123/5
f 36/67/7 35/66/7 54/124/7
f 36/67/7 54/124/7 53/125/7
f 2/126/7 1/127/7 26/128/7
f 6/129/7 2/126/7 26/128/7
f 11/130/7 6/129/7 26/128/7
f 15/131/7 14/132/7 21/133/7
f 15/131/7 21/133/7 20/134/7
f 19/135/5 18/136/5 17/137/5
f 19/135/5 17/137/5 16/138/5
f 13/25/5 19/135/5 16/138/5
f 13/25/5 16/138/5 4/26/5
f 1/127/7 15/131/7 20/134/7
f 1/127/7 20/134/7 26/128/7
f 18/139/8 21/140/8 55/141/8
f 18/139/8 55/141/8 56/142/8
f 55/141/6 57/143/6 58/144/6
f 55/141/6 58/144/6 56/142/6
f 21/140/9 14/145/9 57/143/9
f 21/140/9 57/143/9 55/141/9
f 14/145/10 17/146/10 58/144/10
f 14/145/10 58/144/10 57/143/10
f 17/146/11 18/139/11 56/142/11
f 17/146/11 56/142/11 58/144/11
f 6/129/7 11/130/7 7/147/7
f 11/130/7 9/148/7 7/147/7
f 12/19/4 11/18/4 26/41/4
f 12/19/4 26/41/4 13/40/4
s off
g Cylinder.001
v 0.800875 0.812173 0.681442
v 0.800875 0.812173 0.569638
v 0.799656 0.733118 0.602385
v 0.832872 0.811679 0.681442
v 0.831653 0.732625 0.602385
v 0.832872 0.811679 0.569638
v 0.799151 0.700373 0.681442
v 0.831148 0.699879 0.681442
v 0.799656 0.733118 0.7605
v 0.831653 0.732625 0.7605
v 0.800875 0.812173 0.793247
v 0.832872 0.811679 0.793247
v 0.802095 0.891227 0.7605
v 0.834091 0.890733 0.7605
v 0.8026 0.923972 0.681442
v 0.834597 0.923479 0.681442
v 0.802095 0.891227 0.602385
v 0.834091 0.890733 0.602385
vn -0.9999 0.0154 -0
vn 0.9999 -0.0154 -0
vn -0.0059 -0.3826 -0.9239
vn -0.0142 -0.9238 -0.3827
vn -0.0142 -0.9238 0.3827
vn -0.0059 -0.3826 0.9239
vn 0.0059 0.3826 0.9239
vn 0.0142 0.9238 0.3827
vn 0.0142 0.9238 -0.3827
vn 0.0059 0.3826 -0.9239
vt 0.652294 0.553191
vt 0.616725 0.567923
vt 0.616725 0.538458
vt 0.658062 0.308533
vt 0.643329 0.344102
vt 0.622494 0.323266
vt 0.16583 0.361135
vt 0.16583 0.284137
vt 0.195295 0.361135
vt 0.195295 0.284137
vt 0.637561 0.517622
vt 0.672795 0.344102
vt 0.216131 0.284137
vt 0.216131 0.361135
vt 0.667026 0.517622
vt 0.69363 0.323266
vt 0.48235 0.833416
vt 0.48235 0.756419
vt 0.511816 0.833416
vt 0.511816 0.756419
vt 0.687862 0.538458
vt 0.69363 0.293801
vt 0.022666 0.36468
vt 0.022666 0.287682
vt 0.043501 0.287682
vt 0.043501 0.36468
vt 0.687862 0.567923
vt 0.672795 0.272965
vt 0.072967 0.287682
vt 0.072967 0.36468
vt 0.667026 0.588759
vt 0.643329 0.272965
vt 0.093802 0.287682
vt 0.093802 0.36468
vt 0.637561 0.588759
vt 0.622494 0.293801
vt 0.144994 0.844588
vt 0.144994 0.76759
vt 0.17446 0.844588
vt 0.17446 0.76759
vt 0.144994 0.361135
vt 0.144994 0.284137
usemtl 
f 59/149/12 60/150/12 61/151/12
f 62/152/13 63/153/13 64/154/13
f 60/155/14 64/156/14 61/157/14
f 64/156/14 63/158/14 61/157/14
f 59/149/12 61/151/12 65/159/12
f 62/152/13 66/160/13 63/153/13
f 61/157/15 63/158/15 66/161/15
f 61/157/15 66/161/15 65/162/15
f 59/149/12 65/159/12 67/163/12
f 62/152/13 68/164/13 66/160/13
f 65/165/16 66/166/16 67/167/16
f 66/166/16 68/168/16 67/167/16
f 59/149/12 67/163/12 69/169/12
f 62/152/13 70/170/13 68/164/13
f 67/171/17 68/172/17 70/173/17
f 67/171/17 70/173/17 69/174/17
f 59/149/12 69/169/12 71/175/12
f 62/152/13 72/176/13 70/170/13
f 69/174/18 70/173/18 72/177/18
f 69/174/18 72/177/18 71/178/18
f 59/149/12 71/175/12 73/179/12
f 62/152/13 74/180/13 72/176/13
f 71/178/19 72/177/19 74/181/19
f 71/178/19 74/181/19 73/182/19
f 59/149/12 73/179/12 75/183/12
f 62/152/13 76/184/13 74/180/13
f 73/185/20 74/186/20 75/187/20
f 74/186/20 76/188/20 75/187/20
f 59/149/12 75/183/12 60/150/12
f 62/152/13 64/154/13 76/184/13
f 75/189/21 76/190/21 60/155/21
f 76/190/21 64/156/21 60/155/21
s off
g Cylinder.002
v 0.800875 0.812173 0.221761
v 0.800875 0.812173 0.109956
v 0.799656 0.733118 0.142703
v 0.832872 0.811679 0.221761
v 0.831653 0.732625 0.142703
v 0.832872 0.811679 0.109956
v 0.799151 0.700373 0.221761
v 0.831148 0.699879 0.221761
v 0.799656 0.733118 0.300818
v 0.831653 0.732625 0.300818
v 0.800875 0.812173 0.333565
v 0.832872 0.811679 0.333565
v 0.802095 0.891227 0.300818
v 0.834091 0.890733 0.300818
v 0.8026 0.923972 0.221761
v 0.834597 0.923479 0.221761
v 0.802095 0.891227 0.142703
v 0.834091 0.890733 0.142703
vn -0.9999 0.0154 -0
vn 0.9999 -0.0154 -0
vn -0.0059 -0.3826 -0.9239
vn -0.0142 -0.9238 -0.3827
vn -0.0142 -0.9238 0.3827
vn -0.0059 -0.3826 0.9239
vn 0.0059 0.3826 0.9239
vn 0.0142 0.9238 0.3827
vn 0.0142 0.9238 -0.3827
vn 0.0059 0.3826 -0.9239
vt 0.658155 0.058234
vt 0.622586 0.072967
vt 0.622586 0.043501
vt 0.658155 0.174701
vt 0.643422 0.21027
vt 0.622586 0.189434
vt 0.410394 0.349963
vt 0.410394 0.272965
vt 0.43986 0.349963
vt 0.43986 0.272965
vt 0.643422 0.022666
vt 0.672888 0.21027
vt 0.460695 0.272965
vt 0.460695 0.349963
vt 0.672888 0.022666
vt 0.693723 0.189434
vt 0.022666 0.848133
vt 0.022666 0.771136
vt 0.052131 0.848133
vt 0.052131 0.771136
vt 0.693723 0.043501
vt 0.693723 0.159968
vt 0.389651 0.099663
vt 0.389651 0.022666
vt 0.410487 0.022666
vt 0.410487 0.099663
vt 0.693723 0.072967
vt 0.672888 0.139133
vt 0.439952 0.022666
vt 0.439952 0.099663
vt 0.672888 0.093802
vt 0.643422 0.139133
vt 0.460788 0.022666
vt 0.460788 0.099663
vt 0.643422 0.093802
vt 0.622586 0.159968
vt 0.844483 0.472291
vt 0.844483 0.395294
vt 0.873949 0.472291
vt 0.873949 0.395294
vt 0.389559 0.349963
vt 0.389559 0.272965
usemtl 
f 77/191/22 78/192/22 79/193/22
f 80/194/23 81/195/23 82/196/23
f 78/197/24 82/198/24 79/199/24
f 82/198/24 81/200/24 79/199/24
f 77/191/22 79/193/22 83/201/22
f 80/194/23 84/202/23 81/195/23
f 79/199/25 81/200/25 84/203/25
f 79/199/25 84/203/25 83/204/25
f 77/191/22 83/201/22 85/205/22
f 80/194/23 86/206/23 84/202/23
f 83/207/26 84/208/26 85/209/26
f 84/208/26 86/210/26 85/209/26
f 77/191/22 85/205/22 87/211/22
f 80/194/23 88/212/23 86/206/23
f 85/213/27 86/214/27 88/215/27
f 85/213/27 88/215/27 87/216/27
f 77/191/22 87/211/22 89/217/22
f 80/194/23 90/218/23 88/212/23
f 87/216/28 88/215/28 90/219/28
f 87/216/28 90/219/28 89/220/28
f 77/191/22 89/217/22 91/221/22
f 80/194/23 92/222/23 90/218/23
f 89/220/29 90/219/29 92/223/29
f 89/220/29 92/223/29 91/224/29
f 77/191/22 91/221/22 93/225/22
f 80/194/23 94/226/23 92/222/23
f 91/227/30 92/228/30 93/229/30
f 92/228/30 94/230/30 93/229/30
f 77/191/22 93/225/22 78/192/22
f 80/194/23 82/196/23 94/226/23
f 93/231/31 94/232/31 78/197/31
f 94/232/31 82/198/31 78/197/31
s off
g Cylinder.003
v 0.800875 0.812173 -0.234564
v 0.800875 0.812173 -0.346369
v 0.799656 0.733118 -0.313622
v 0.832872 0.811679 -0.234564
v 0.831653 0.732625 -0.313622
v 0.832872 0.811679 -0.346369
v 0.799151 0.700373 -0.234564
v 0.831148 0.699879 -0.234564
v 0.799656 0.733118 -0.155507
v 0.831653 0.732625 -0.155507
v 0.800875 0.812173 -0.12276
v 0.832872 0.811679 -0.12276
v 0.802095 0.891227 -0.155507
v 0.834091 0.890733 -0.155507
v 0.8026 0.923972 -0.234564
v 0.834597 0.923479 -0.234564
v 0.802095 0.891227 -0.313622
v 0.834091 0.890733 -0.313622
vn -0.9999 0.0154 -0
vn 0.9999 -0.0154 -0
vn -0.0059 -0.3826 -0.9239
vn -0.0142 -0.9238 -0.3827
vn -0.0142 -0.9238 0.3827
vn -0.0059 -0.3826 0.9239
vn 0.0059 0.3826 0.9239
vn 0.0142 0.9238 0.3827
vn 0.0142 0.9238 -0.3827
vn 0.0059 0.3826 -0.9239
vt 0.652294 0.669658
vt 0.616725 0.684391
vt 0.616725 0.654925
vt 0.302891 0.675519
vt 0.288158 0.711087
vt 0.267323 0.690252
vt 0.410487 0.221992
vt 0.410487 0.144994
vt 0.439952 0.221992
vt 0.439952 0.144994
vt 0.637561 0.63409
vt 0.317624 0.711087
vt 0.460788 0.144994
vt 0.460788 0.221992
vt 0.667026 0.63409
vt 0.338459 0.690252
vt 0.84966 0.59462
vt 0.84966 0.517622
vt 0.879126 0.59462
vt 0.879126 0.517622
vt 0.687862 0.654925
vt 0.338459 0.660786
vt 0.267323 0.472291
vt 0.267323 0.395294
vt 0.288158 0.395294
vt 0.288158 0.472291
vt 0.687862 0.684391
vt 0.317624 0.639951
vt 0.317624 0.395294
vt 0.317624 0.472291
vt 0.667026 0.705226
vt 0.288158 0.639951
vt 0.338459 0.395294
vt 0.338459 0.472291
vt 0.637561 0.705226
vt 0.267323 0.660786
vt 0.84966 0.716949
vt 0.84966 0.639951
vt 0.879126 0.716949
vt 0.879126 0.639951
vt 0.389651 0.221992
vt 0.389651 0.144994
usemtl 
f 95/233/32 96/234/32 97/235/32
f 98/236/33 99/237/33 100/238/33
f 96/239/34 100/240/34 97/241/34
f 100/240/34 99/242/34 97/241/34
f 95/233/32 97/235/32 101/243/32
f 98/236/33 102/244/33 99/237/33
f 97/241/35 99/242/35 102/245/35
f 97/241/35 102/245/35 101/246/35
f 95/233/32 101/243/32 103/247/32
f 98/236/33 104/248/33 102/244/33
f 101/249/36 102/250/36 103/251/36
f 102/250/36 104/252/36 103/251/36
f 95/233/32 103/247/32 105/253/32
f 98/236/33 106/254/33 104/248/33
f 103/255/37 104/256/37 106/257/37
f 103/255/37 106/257/37 105/258/37
f 95/233/32 105/253/32 107/259/32
f 98/236/33 108/260/33 106/254/33
f 105/258/38 106/257/38 108/261/38
f 105/258/38 108/261/38 107/262/38
f 95/233/32 107/259/32 109/263/32
f 98/236/33 110/264/33 108/260/33
f 107/262/39 108/261/39 110/265/39
f 107/262/39 110/265/39 109/266/39
f 95/233/32 109/263/32 111/267/32
f 98/236/33 112/268/33 110/264/33
f 109/269/40 110/270/40 111/271/40
f 110/270/40 112/272/40 111/271/40
f 95/233/32 111/267/32 96/234/32
f 98/236/33 100/238/33 112/268/33
f 111/273/41 112/274/41 96/239/41
f 112/274/41 100/240/41 96/239/41
s off
g Cylinder.004
v 0.800875 0.812173 -0.676807
v 0.800875 0.812173 -0.788612
v 0.799656 0.733118 -0.755865
v 0.832872 0.811679 -0.676807
v 0.831653 0.732625 -0.755865
v 0.832872 0.811679 -0.788612
v 0.799151 0.700373 -0.676807
v 0.831148 0.699879 -0.676807
v 0.799656 0.733118 -0.59775
v 0.831653 0.732625 -0.59775
v 0.800875 0.812173 -0.565003
v 0.832872 0.811679 -0.565003
v 0.802095 0.891227 -0.59775
v 0.834091 0.890733 -0.59775
v 0.8026 0.923972 -0.676807
v 0.834597 0.923479 -0.676807
v 0.802095 0.891227 -0.755865
v 0.834091 0.890733 -0.755865
vn -0.9999 0.0154 -0
vn 0.9999 -0.0154 -0
vn -0.0059 -0.3826 -0.9239
vn -0.0142 -0.9238 -0.3827
vn -0.0142 -0.9238 0.3827
vn -0.0059 -0.3826 0.9239
vn 0.0059 0.3826 0.9239
vn 0.0142 0.9238 0.3827
vn 0.0142 0.9238 -0.3827
vn 0.0059 0.3826 -0.9239
vt 0.419358 0.675519
vt 0.38379 0.690252
vt 0.38379 0.660786
vt 0.535826 0.675519
vt 0.521093 0.711087
vt 0.500258 0.690252
vt 0.404626 0.472291
vt 0.404626 0.395294
vt 0.434091 0.472291
vt 0.434091 0.395294
vt 0.404626 0.639951
vt 0.550559 0.711087
vt 0.454927 0.395294
vt 0.454927 0.472291
vt 0.434091 0.639951
vt 0.571394 0.690252
vt 0.84966 0.839277
vt 0.84966 0.76228
vt 0.879126 0.839277
vt 0.879126 0.76228
vt 0.454927 0.660786
vt 0.571394 0.660786
vt 0.144994 0.483463
vt 0.144994 0.406466
vt 0.16583 0.406466
vt 0.16583 0.483463
vt 0.454927 0.690252
vt 0.550559 0.639951
vt 0.195295 0.406466
vt 0.195295 0.483463
vt 0.434091 0.711087
vt 0.521093 0.639951
vt 0.216131 0.406466
vt 0.216131 0.483463
vt 0.404626 0.711087
vt 0.500258 0.660786
vt 0.855429 0.349963
vt 0.855429 0.272965
vt 0.884894 0.349963
vt 0.884894 0.272965
vt 0.38379 0.472291
vt 0.38379 0.395294
usemtl 
f 113/275/42 114/276/42 115/277/42
f 116/278/43 117/279/43 118/280/43
f 114/281/44 118/282/44 115/283/44
f 118/282/44 117/284/44 115/283/44
f 113/275/42 115/277/42 119/285/42
f 116/278/43 120/286/43 117/279/43
f 115/283/45 117/284/45 120/287/45
f 115/283/45 120/287/45 119/288/45
f 113/275/42 119/285/42 121/289/42
f 116/278/43 122/290/43 120/286/43
f 119/291/46 120/292/46 121/293/46
f 120/292/46 122/294/46 121/293/46
f 113/275/42 121/289/42 123/295/42
f 116/278/43 124/296/43 122/290/43
f 121/297/47 122/298/47 124/299/47
f 121/297/47 124/299/47 123/300/47
f 113/275/42 123/295/42 125/301/42
f 116/278/43 126/302/43 124/296/43
f 123/300/48 124/299/48 126/303/48
f 123/300/48 126/303/48 125/304/48
f 113/275/42 125/301/42 127/305/42
f 116/278/43 128/306/43 126/302/43
f 125/304/49 126/303/49 128/307/49
f 125/304/49 128/307/49 127/308/49
f 113/275/42 127/305/42 129/309/42
f 116/278/43 130/310/43 128/306/43
f 127/311/50 128/312/50 129/313/50
f 128/312/50 130/314/50 129/313/50
f 113/275/42 129/309/42 114/276/42
f 116/278/43 118/280/43 130/310/43
f 129/315/51 130/316/51 114/281/51
f 130/316/51 118/282/51 114/281/51
s off
g Cylinder.005
v 0.121721 0.95256 -0.028064
v 0.121721 0.95256 -0.308328
v 0.319897 0.95256 -0.226241
v 0.121721 1.0651 -0.028064
v 0.319897 1.0651 -0.226241
v 0.121721 1.0651 -0.308328
v 0.401985 0.95256 -0.028064
v 0.401985 1.0651 -0.028064
v 0.319897 0.95256 0.170112
v 0.319897 1.0651 0.170112
v 0.121721 0.95256 0.252199
v 0.121721 1.0651 0.252199
v -0.076455 0.95256 0.170112
v -0.076455 1.0651 0.170112
v -0.158542 0.95256 -0.028064
v -0.158542 1.0651 -0.028064
v -0.076455 0.95256 -0.226241
v -0.076455 1.0651 -0.226241
vn -0 -1 -0
vn -0 1 -0
vn 0.3827 -0 -0.9239
vn 0.9239 -0 -0.3827
vn 0.9239 -0 0.3827
vn 0.3827 -0 0.9239
vn -0.3827 -0 0.9239
vn -0.9239 -0 0.3827
vn -0.9239 -0 -0.3827
vn -0.3827 -0 -0.9239
vt 0.180562 0.686691
vt 0.144994 0.701424
vt 0.144994 0.671958
vt 0.058234 0.690236
vt 0.043501 0.725804
vt 0.022666 0.704969
vt 0.043501 0.487008
vt 0.043501 0.410011
vt 0.072967 0.410011
vt 0.072967 0.487008
vt 0.16583 0.651123
vt 0.072967 0.725804
vt 0.093802 0.410011
vt 0.093802 0.487008
vt 0.195295 0.651123
vt 0.093802 0.704969
vt 0.855521 0.099663
vt 0.855521 0.022666
vt 0.884987 0.022666
vt 0.884987 0.099663
vt 0.216131 0.671958
vt 0.093802 0.675503
vt 0.500258 0.472291
vt 0.500258 0.395294
vt 0.521093 0.395294
vt 0.521093 0.472291
vt 0.216131 0.701424
vt 0.072967 0.654668
vt 0.550559 0.395294
vt 0.550559 0.472291
vt 0.195295 0.722259
vt 0.043501 0.654668
vt 0.571394 0.395294
vt 0.571394 0.472291
vt 0.16583 0.722259
vt 0.022666 0.675503
vt 0.855521 0.221992
vt 0.855521 0.144994
vt 0.884987 0.144994
vt 0.884987 0.221992
vt 0.022666 0.487008
vt 0.022666 0.410011
usemtl 
f 131/317/52 132/318/52 133/319/52
f 134/320/53 135/321/53 136/322/53
f 132/323/54 136/324/54 135/325/54
f 132/323/54 135/325/54 133/326/54
f 131/317/52 133/319/52 137/327/52
f 134/320/53 138/328/53 135/321/53
f 133/326/55 135/325/55 138/329/55
f 133/326/55 138/329/55 137/330/55
f 131/317/52 137/327/52 139/331/52
f 134/320/53 140/332/53 138/328/53
f 137/333/56 138/334/56 140/335/56
f 137/333/56 140/335/56 139/336/56
f 131/317/52 139/331/52 141/337/52
f 134/320/53 142/338/53 140/332/53
f 139/339/57 140/340/57 142/341/57
f 139/339/57 142/341/57 141/342/57
f 131/317/52 141/337/52 143/343/52
f 134/320/53 144/344/53 142/338/53
f 141/342/58 142/341/58 144/345/58
f 141/342/58 144/345/58 143/346/58
f 131/317/52 143/343/52 145/347/52
f 134/320/53 146/348/53 144/344/53
f 143/346/59 144/345/59 146/349/59
f 143/346/59 146/349/59 145/350/59
f 131/317/52 145/347/52 147/351/52
f 134/320/53 148/352/53 146/348/53
f 145/353/60 146/354/60 148/355/60
f 145/353/60 148/355/60 147/356/60
f 131/317/52 147/351/52 132/318/52
f 134/320/53 136/322/53 148/352/53
f 147/357/61 148/358/61 136/324/61
f 147/357/61 136/324/61 132/323/61
s off
g Cylinder.006
v -0.185025 0.965567 0.6218
v -0.185025 0.965567 0.406315
v -0.032653 0.965567 0.469429
v -0.185025 1.0521 0.6218
v -0.032653 1.0521 0.469429
v -0.185025 1.0521 0.406315
v 0.030461 0.965567 0.6218
v 0.030461 1.0521 0.6218
v -0.032653 0.965567 0.774171
v -0.032653 1.0521 0.774171
v -0.185025 0.965567 0.837285
v -0.185025 1.0521 0.837285
v -0.337396 0.965567 0.774171
v -0.337396 1.0521 0.774171
v -0.40051 0.965567 0.6218
v -0.40051 1.0521 0.6218
v -0.337396 0.965567 0.469429
v -0.337396 1.0521 0.469429
vn -0 -1 -0
vn -0 1 -0
vn 0.3827 -0 -0.9239
vn 0.9239 -0 -0.3827
vn 0.9239 -0 0.3827
vn 0.3827 -0 0.9239
vn -0.3827 -0 0.9239
vn -0.9239 -0 0.3827
vn -0.9239 -0 -0.3827
vn -0.3827 -0 -0.9239
vt 0.763584 0.430862
vt 0.728015 0.445595
vt 0.728015 0.416129
vt 0.768761 0.553191
vt 0.754028 0.588759
vt 0.733193 0.567923
vt 0.526862 0.349963
vt 0.526862 0.272965
vt 0.556327 0.272965
vt 0.556327 0.349963
vt 0.748851 0.395294
vt 0.783494 0.588759
vt 0.577163 0.272965
vt 0.577163 0.349963
vt 0.778316 0.395294
vt 0.804329 0.567923
vt 0.616725 0.944023
vt 0.616725 0.867025
vt 0.646191 0.867025
vt 0.646191 0.944023
vt 0.799152 0.416129
vt 0.804329 0.538458
vt 0.506119 0.099663
vt 0.506119 0.022666
vt 0.526954 0.022666
vt 0.526954 0.099663
vt 0.799152 0.445595
vt 0.783494 0.517622
vt 0.55642 0.022666
vt 0.55642 0.099663
vt 0.778316 0.46643
vt 0.754028 0.517622
vt 0.577255 0.022666
vt 0.577255 0.099663
vt 0.748851 0.46643
vt 0.733193 0.538458
vt 0.691522 0.944023
vt 0.691522 0.867025
vt 0.720988 0.867025
vt 0.720988 0.944023
vt 0.506026 0.349963
vt 0.506026 0.272965
usemtl 
f 149/359/62 150/360/62 151/361/62
f 152/362/63 153/363/63 154/364/63
f 150/365/64 154/366/64 153/367/64
f 150/365/64 153/367/64 151/368/64
f 149/359/62 151/361/62 155/369/62
f 152/362/63 156/370/63 153/363/63
f 151/368/65 153/367/65 156/371/65
f 151/368/65 156/371/65 155/372/65
f 149/359/62 155/369/62 157/373/62
f 152/362/63 158/374/63 156/370/63
f 155/375/66 156/376/66 158/377/66
f 155/375/66 158/377/66 157/378/66
f 149/359/62 157/373/62 159/379/62
f 152/362/63 160/380/63 158/374/63
f 157/381/67 158/382/67 160/383/67
f 157/381/67 160/383/67 159/384/67
f 149/359/62 159/379/62 161/385/62
f 152/362/63 162/386/63 160/380/63
f 159/384/68 160/383/68 162/387/68
f 159/384/68 162/387/68 161/388/68
f 149/359/62 161/385/62 163/389/62
f 152/362/63 164/390/63 162/386/63
f 161/388/69 162/387/69 164/391/69
f 161/388/69 164/391/69 163/392/69
f 149/359/62 163/389/62 165/393/62
f 152/362/63 166/394/63 164/390/63
f 163/395/70 164/396/70 166/397/70
f 163/395/70 166/397/70 165/398/70
f 149/359/62 165/393/62 150/360/62
f 152/362/63 154/364/63 166/394/63
f 165/399/71 166/400/71 154/366/71
f 165/399/71 154/366/71 150/365/71
s off
g Cylinder.007
v 0.446771 0.965567 0.6218
v 0.446771 0.965567 0.406315
v 0.599142 0.965567 0.469429
v 0.446771 1.0521 0.6218
v 0.599142 1.0521 0.469429
v 0.446771 1.0521 0.406315
v 0.662256 0.965567 0.6218
v 0.662256 1.0521 0.6218
v 0.599142 0.965567 0.774171
v 0.599142 1.0521 0.774171
v 0.446771 0.965567 0.837285
v 0.446771 1.0521 0.837285
v 0.2944 0.965567 0.774171
v 0.2944 1.0521 0.774171
v 0.231285 0.965567 0.6218
v 0.231285 1.0521 0.6218
v 0.2944 0.965567 0.469429
v 0.2944 1.0521 0.469429
vn -0 -1 -0
vn -0 1 -0
vn 0.3827 -0 -0.9239
vn 0.9239 -0 -0.3827
vn 0.9239 -0 0.3827
vn 0.3827 -0 0.9239
vn -0.3827 -0 0.9239
vn -0.9239 -0 0.3827
vn -0.9239 -0 -0.3827
vn -0.3827 -0 -0.9239
vt 0.768761 0.669658
vt 0.733193 0.684391
vt 0.733193 0.654925
vt 0.774529 0.308533
vt 0.759797 0.344102
vt 0.738961 0.323266
vt 0.526954 0.221992
vt 0.526954 0.144994
vt 0.55642 0.144994
vt 0.55642 0.221992
vt 0.754028 0.63409
vt 0.789262 0.344102
vt 0.577255 0.144994
vt 0.577255 0.221992
vt 0.783494 0.63409
vt 0.810098 0.323266
vt 0.766319 0.944023
vt 0.766319 0.867025
vt 0.795785 0.867025
vt 0.795785 0.944023
vt 0.804329 0.654925
vt 0.810098 0.293801
vt 0.267323 0.59462
vt 0.267323 0.517622
vt 0.288158 0.517622
vt 0.288158 0.59462
vt 0.804329 0.684391
vt 0.789262 0.272965
vt 0.317624 0.517622
vt 0.317624 0.59462
vt 0.783494 0.705226
vt 0.759797 0.272965
vt 0.338459 0.517622
vt 0.338459 0.59462
vt 0.754028 0.705226
vt 0.738961 0.293801
vt 0.91928 0.472291
vt 0.91928 0.395294
vt 0.948745 0.395294
vt 0.948745 0.472291
vt 0.506119 0.221992
vt 0.506119 0.144994
usemtl 
f 167/401/72 168/402/72 169/403/72
f 170/404/73 171/405/73 172/406/73
f 168/407/74 172/408/74 171/409/74
f 168/407/74 171/409/74 169/410/74
f 167/401/72 169/403/72 173/411/72
f 170/404/73 174/412/73 171/405/73
f 169/410/75 171/409/75 174/413/75
f 169/410/75 174/413/75 173/414/75
f 167/401/72 173/411/72 175/415/72
f 170/404/73 176/416/73 174/412/73
f 173/417/76 174/418/76 176/419/76
f 173/417/76 176/419/76 175/420/76
f 167/401/72 175/415/72 177/421/72
f 170/404/73 178/422/73 176/416/73
f 175/423/77 176/424/77 178/425/77
f 175/423/77 178/425/77 177/426/77
f 167/401/72 177/421/72 179/427/72
f 170/404/73 180/428/73 178/422/73
f 177/426/78 178/425/78 180/429/78
f 177/426/78 180/429/78 179/430/78
f 167/401/72 179/427/72 181/431/72
f 170/404/73 182/432/73 180/428/73
f 179/430/79 180/429/79 182/433/79
f 179/430/79 182/433/79 181/434/79
f 167/401/72 181/431/72 183/435/72
f 170/404/73 184/436/73 182/432/73
f 181/437/80 182/438/80 184/439/80
f 181/437/80 184/439/80 183/440/80
f 167/401/72 183/435/72 168/402/72
f 170/404/73 172/406/73 184/436/73
f 183/441/81 184/442/81 172/408/81
f 183/441/81 172/408/81 168/407/81
s off
g Cylinder.008
v -0.234411 0.965567 -0.623936
v -0.234411 0.965567 -0.839421
v -0.08204 0.965567 -0.776307
v -0.234411 1.0521 -0.623936
v -0.08204 1.0521 -0.776307
v -0.234411 1.0521 -0.839421
v -0.018926 0.965567 -0.623936
v -0.018926 1.0521 -0.623936
v -0.08204 0.965567 -0.471565
v -0.08204 1.0521 -0.471565
v -0.234411 0.965567 -0.408451
v -0.234411 1.0521 -0.408451
v -0.386782 0.965567 -0.471565
v -0.386782 1.0521 -0.471565
v -0.449896 0.965567 -0.623936
v -0.449896 1.0521 -0.623936
v -0.386782 0.965567 -0.776307
v -0.386782 1.0521 -0.776307
vn -0 -1 -0
vn -0 1 -0
vn 0.3827 -0 -0.9239
vn 0.9239 -0 -0.3827
vn 0.9239 -0 0.3827
vn 0.3827 -0 0.9239
vn -0.3827 -0 0.9239
vn -0.9239 -0 0.3827
vn -0.9239 -0 -0.3827
vn -0.3827 -0 -0.9239
vt 0.774622 0.058234
vt 0.739054 0.072967
vt 0.739054 0.043501
vt 0.774622 0.174701
vt 0.759889 0.210269
vt 0.739054 0.189434
vt 0.404626 0.59462
vt 0.404626 0.517622
vt 0.434091 0.517622
vt 0.434091 0.59462
vt 0.759889 0.022666
vt 0.789355 0.210269
vt 0.454927 0.517622
vt 0.454927 0.59462
vt 0.789355 0.022666
vt 0.81019 0.189434
vt 0.924457 0.59462
vt 0.924457 0.517622
vt 0.953923 0.517622
vt 0.953923 0.59462
vt 0.81019 0.043501
vt 0.81019 0.159968
vt 0.500258 0.59462
vt 0.500258 0.517622
vt 0.521093 0.517622
vt 0.521093 0.59462
vt 0.81019 0.072967
vt 0.789355 0.139133
vt 0.550559 0.517622
vt 0.550559 0.59462
vt 0.789355 0.093802
vt 0.759889 0.139133
vt 0.571394 0.517622
vt 0.571394 0.59462
vt 0.759889 0.093802
vt 0.739054 0.159968
vt 0.924457 0.716949
vt 0.924457 0.639951
vt 0.953923 0.639951
vt 0.953923 0.716949
vt 0.38379 0.59462
vt 0.38379 0.517622
usemtl 
f 185/443/82 186/444/82 187/445/82
f 188/446/83 189/447/83 190/448/83
f 186/449/84 190/450/84 189/451/84
f 186/449/84 189/451/84 187/452/84
f 185/443/82 187/445/82 191/453/82
f 188/446/83 192/454/83 189/447/83
f 187/452/85 189/451/85 192/455/85
f 187/452/85 192/455/85 191/456/85
f 185/443/82 191/453/82 193/457/82
f 188/446/83 194/458/83 192/454/83
f 191/459/86 192/460/86 194/461/86
f 191/459/86 194/461/86 193/462/86
f 185/443/82 193/457/82 195/463/82
f 188/446/83 196/464/83 194/458/83
f 193/465/87 194/466/87 196/467/87
f 193/465/87 196/467/87 195/468/87
f 185/443/82 195/463/82 197/469/82
f 188/446/83 198/470/83 196/464/83
f 195/468/88 196/467/88 198/471/88
f 195/468/88 198/471/88 197/472/88
f 185/443/82 197/469/82 199/473/82
f 188/446/83 200/474/83 198/470/83
f 197/472/89 198/471/89 200/475/89
f 197/472/89 200/475/89 199/476/89
f 185/443/82 199/473/82 201/477/82
f 188/446/83 202/478/83 200/474/83
f 199/479/90 200/480/90 202/481/90
f 199/479/90 202/481/90 201/482/90
f 185/443/82 201/477/82 186/444/82
f 188/446/83 190/448/83 202/478/83
f 201/483/91 202/484/91 190/450/91
f 201/483/91 190/450/91 186/449/91
s off
g Cylinder.009
v 0.418034 0.965567 -0.623936
v 0.418034 0.965567 -0.839421
v 0.570405 0.965567 -0.776307
v 0.418034 1.0521 -0.623936
v 0.570405 1.0521 -0.776307
v 0.418034 1.0521 -0.839421
v 0.633519 0.965567 -0.623936
v 0.633519 1.0521 -0.623936
v 0.570405 0.965567 -0.471565
v 0.570405 1.0521 -0.471565
v 0.418034 0.965567 -0.408451
v 0.418034 1.0521 -0.408451
v 0.265663 0.965567 -0.471565
v 0.265663 1.0521 -0.471565
v 0.202549 0.965567 -0.623936
v 0.202549 1.0521 -0.623936
v 0.265663 0.965567 -0.776307
v 0.265663 1.0521 -0.776307
vn -0 -1 -0
vn -0 1 -0
vn 0.3827 -0 -0.9239
vn 0.9239 -0 -0.3827
vn 0.9239 -0 0.3827
vn 0.3827 -0 0.9239
vn -0.3827 -0 0.9239
vn -0.9239 -0 0.3827
vn -0.9239 -0 -0.3827
vn -0.3827 -0 -0.9239
vt 0.652294 0.786126
vt 0.616725 0.800858
vt 0.616725 0.771393
vt 0.768761 0.786126
vt 0.754028 0.821694
vt 0.733193 0.800858
vt 0.16583 0.605792
vt 0.16583 0.528794
vt 0.195295 0.528794
vt 0.195295 0.605792
vt 0.637561 0.750557
vt 0.783494 0.821694
vt 0.216131 0.528794
vt 0.216131 0.605792
vt 0.667026 0.750557
vt 0.804329 0.800858
vt 0.924457 0.839277
vt 0.924457 0.76228
vt 0.953923 0.76228
vt 0.953923 0.839277
vt 0.687862 0.771393
vt 0.804329 0.771393
vt 0.022666 0.609337
vt 0.022666 0.532339
vt 0.043501 0.532339
vt 0.043501 0.609337
vt 0.687862 0.800858
vt 0.783494 0.750557
vt 0.072967 0.532339
vt 0.072967 0.609337
vt 0.667026 0.821694
vt 0.754028 0.750557
vt 0.093802 0.532339
vt 0.093802 0.609337
vt 0.637561 0.821694
vt 0.733193 0.771393
vt 0.267323 0.955745
vt 0.267323 0.878747
vt 0.296788 0.878747
vt 0.296788 0.955745
vt 0.144994 0.605792
vt 0.144994 0.528794
usemtl 
f 203/485/92 204/486/92 205/487/92
f 206/488/93 207/489/93 208/490/93
f 204/491/94 208/492/94 207/493/94
f 204/491/94 207/493/94 205/494/94
f 203/485/92 205/487/92 209/495/92
f 206/488/93 210/496/93 207/489/93
f 205/494/95 207/493/95 210/497/95
f 205/494/95 210/497/95 209/498/95
f 203/485/92 209/495/92 211/499/92
f 206/488/93 212/500/93 210/496/93
f 209/501/96 210/502/96 212/503/96
f 209/501/96 212/503/96 211/504/96
f 203/485/92 211/499/92 213/505/92
f 206/488/93 214/506/93 212/500/93
f 211/507/97 212/508/97 214/509/97
f 211/507/97 214/509/97 213/510/97
f 203/485/92 213/505/92 215/511/92
f 206/488/93 216/512/93 214/506/93
f 213/510/98 214/509/98 216/513/98
f 213/510/98 216/513/98 215/514/98
f 203/485/92 215/511/92 217/515/92
f 206/488/93 218/516/93 216/512/93
f 215/514/99 216/513/99 218/517/99
f 215/514/99 218/517/99 217/518/99
f 203/485/92 217/515/92 219/519/92
f 206/488/93 220/520/93 218/516/93
f 217/521/100 218/522/100 220/523/100
f 217/521/100 220/523/100 219/524/100
f 203/485/92 219/519/92 204/486/92
f 206/488/93 208/490/93 220/520/93
f 219/525/101 220/526/101 208/492/101
f 219/525/101 208/492/101 204/491/101
s off
g Plane
v 0.969454 0.427483 0.406557
v 0.969454 0.427483 -0.397073
v 0.937345 -0.527855 -0.397074
v 0.937345 -0.527855 0.406557
v 0.86733 0.431715 0.406557
v 0.86733 0.431715 -0.397073
v 0.849244 -0.280953 0.406557
v 0.849244 -0.280953 -0.397073
v 0.997669 0.438755 0.406557
v 0.975255 -0.528108 0.406557
v 0.975255 -0.528108 -0.397074
v 0.997669 0.438755 -0.397073
v 0.841953 0.444252 -0.397073
v 0.841953 0.444252 0.406557
v 0.811333 -0.280762 -0.397073
v 0.811333 -0.280762 0.406557
vn -0.9994 0.0336 -0
vn -0.0414 -0.9991 -0
vn 0.9997 -0.0254 -0
vn 0.9997 -0.0232 -0
vn 0.0353 0.9994 -0
vn -0.9991 0.0422 -0
vn -0.0067 -1 -0
vn -0 -0 -1
vn -0.005 -1 -0
vn -0 -0 1
vt 0.267323 0.022666
vt 0.34432 0.022666
vt 0.34432 0.105305
vt 0.267323 0.105305
vt 0.512743 0.878747
vt 0.516686 0.878747
vt 0.516686 0.955745
vt 0.512743 0.955745
vt 0.375374 0.756419
vt 0.437019 0.756419
vt 0.437019 0.833416
vt 0.375374 0.833416
vt 0.221992 0.155174
vt 0.221992 0.238806
vt 0.144994 0.238806
vt 0.144994 0.155174
vt 0.411435 0.955745
vt 0.411435 0.878747
vt 0.417449 0.878747
vt 0.417449 0.955745
vt 0.267323 0.833416
vt 0.267323 0.756419
vt 0.330043 0.756419
vt 0.330043 0.833416
vt 0.22125 0.76759
vt 0.22125 0.844588
vt 0.219791 0.844588
vt 0.219791 0.76759
vt 0.931838 0.02374
vt 0.931778 0.085385
vt 0.930318 0.085384
vt 0.93085 0.022666
vt 0.097462 0.848133
vt 0.097462 0.771136
vt 0.098921 0.771136
vt 0.098921 0.848133
vt 0.93533 0.153117
vt 0.931394 0.153442
vt 0.930318 0.152456
vt 0.936318 0.152042
vt 0.93539 0.106704
vt 0.935773 0.024065
vt 0.936849 0.106711
vt 0.936849 0.023079
vt 0.931778 0.236081
vt 0.930318 0.236088
vt 0.93539 0.214762
vt 0.936849 0.21476
usemtl 
f 221/527/102 222/528/102 223/529/102
f 221/527/102 223/529/102 224/530/102
f 221/531/103 225/532/103 226/533/103
f 221/531/103 226/533/103 222/534/103
f 225/535/104 227/536/104 228/537/104
f 225/535/104 228/537/104 226/538/104
f 229/539/105 230/540/105 231/541/105
f 229/539/105 231/541/105 232/542/105
f 229/543/106 232/544/106 233/545/106
f 229/543/106 233/545/106 234/546/106
f 234/547/107 233/548/107 235/549/107
f 234/547/107 235/549/107 236/550/107
f 224/551/108 223/552/108 231/553/108
f 224/551/108 231/553/108 230/554/108
f 226/555/109 228/556/109 235/557/109
f 226/555/109 235/557/109 233/558/109
f 228/559/110 227/560/110 236/561/110
f 228/559/110 236/561/110 235/562/110
f 225/563/111 221/564/111 229/565/111
f 225/563/111 229/565/111 234/566/111
f 223/567/109 222/568/109 231/569/109
f 222/568/109 232/570/109 231/569/109
f 221/564/111 224/571/111 230/572/111
f 221/564/111 230/572/111 229/565/111
f 227/573/111 225/563/111 236/574/111
f 225/563/111 234/566/111 236/574/111
f 222/568/109 226/555/109 232/570/109
f 226/555/109 233/558/109 232/570/109
s off
