# Apple ModelIO OBJ File: sarten_2_
mtllib sarten_2_.mtl
g sarten_
v 0.018871 0.213288 -0.180117
v 0.018871 0.213288 -0.139098
v 0.018871 0.201401 -0.139098
v 0.018871 0.201401 -0.180117
v -0.012452 0.213288 -0.139098
v -0.012452 0.201401 -0.139098
v -0.012452 0.213288 -0.180117
v -0.012452 0.201401 -0.180117
v -0.012452 0.201614 -0.213065
v 0.018871 0.201614 -0.213065
v -0.012452 0.213074 -0.20991
v 0.018871 0.213074 -0.20991
v 0.010085 0.251976 -0.364217
v 0.018871 0.252756 -0.354061
v 0.018871 0.241296 -0.357216
v 0.010085 0.247164 -0.365542
v -0.003666 0.247164 -0.365542
v -0.012452 0.241296 -0.357216
v -0.003666 0.251976 -0.364217
v -0.012452 0.252756 -0.354061
v 0.018871 0.231904 -0.323097
v 0.018871 0.243364 -0.319943
v -0.012452 0.243364 -0.319943
v -0.012452 0.231904 -0.323097
v 0.011776 0.250902 -0.347325
v -0.005357 0.250902 -0.347325
v -0.005357 0.239442 -0.35048
v 0.011776 0.239442 -0.35048
v 0.011776 0.245218 -0.326679
v -0.005357 0.245218 -0.326679
v 0.011776 0.233758 -0.329833
v -0.005357 0.233758 -0.329833
v -0.048064 0.197497 0.127461
v 0.003805 0.197497 0.137778
v 0.003805 0.195683 0.134593
v -0.046845 0.195683 0.124518
v 0.129028 0.197497 -0.049631
v 0.099647 0.197497 -0.093604
v 0.126085 0.195683 -0.048412
v 0.097394 0.195683 -0.091351
v 0.139346 0.197497 0.002238
v 0.13616 0.195683 0.002238
v 0.055674 0.197497 -0.122986
v 0.109448 0.220966 -0.103405
v 0.060978 0.220966 -0.135791
v 0.099647 0.197497 0.098079
v 0.129028 0.197497 0.054107
v 0.126085 0.195683 0.052888
v 0.097394 0.195683 0.095827
v 0.055674 0.197497 0.127461
v 0.054455 0.195683 0.124518
v 0.003805 0.195683 0.002238
v -0.089784 0.195683 0.095827
v -0.092037 0.197497 0.098079
v -0.121418 0.197497 0.054107
v -0.118475 0.195683 0.052888
v -0.131736 0.197497 0.002238
v -0.12855 0.195683 0.002238
v -0.121418 0.197497 -0.049631
v -0.118475 0.195683 -0.048412
v -0.092037 0.197497 -0.093604
v -0.089784 0.195683 -0.091351
v -0.048064 0.197497 -0.122986
v -0.046845 0.195683 -0.120042
v 0.003805 0.197497 -0.133303
v 0.003805 0.195683 -0.130117
v 0.003805 0.220966 -0.147164
v 0.054455 0.195683 -0.120042
v -0.053368 0.220966 -0.135791
v 0.003805 0.220966 0.151639
v -0.053368 0.220966 0.140266
v 0.141834 0.220966 -0.054936
v 0.153206 0.220966 0.002238
v 0.141834 0.220966 0.059411
v 0.109448 0.220966 0.10788
v 0.060978 0.220966 0.140266
v 0.144008 0.219263 0.060312
v 0.111112 0.219263 0.109544
v 0.061879 0.219263 0.142441
v 0.003805 0.219263 0.153992
v -0.101838 0.220966 0.10788
v -0.134224 0.220966 0.059411
v -0.145596 0.220966 0.002238
v -0.134224 0.220966 -0.054936
v -0.101838 0.220966 -0.103405
v 0.061879 0.219263 -0.137965
v 0.111112 0.219263 -0.105069
v -0.103502 0.219263 -0.105069
v -0.136398 0.219263 -0.055836
v 0.15556 0.219263 0.002238
v -0.136398 0.219263 0.060312
v -0.147949 0.219263 0.002238
v -0.054269 0.219263 -0.137965
v 0.003805 0.215914 0.153992
v 0.061879 0.215914 0.142441
v 0.003805 0.219263 -0.149517
v 0.144008 0.219263 -0.055836
v -0.054269 0.219263 0.142441
v -0.054269 0.215914 0.142441
v 0.061879 0.215914 -0.137965
v 0.003805 0.215914 -0.149517
v -0.103502 0.219263 0.109544
v -0.103502 0.215914 0.109544
v 0.111112 0.215914 -0.105069
v -0.136398 0.215914 0.060312
v 0.111112 0.215914 0.109544
v -0.136398 0.215914 -0.055836
v -0.147949 0.215914 0.002238
v -0.103502 0.215914 -0.105069
v 0.144008 0.215914 0.060312
v 0.15556 0.215914 0.002238
v -0.054269 0.215914 -0.137965
v 0.144008 0.215914 -0.055836
v -0.023866 0.207691 -0.129547
v -0.024903 0.207691 -0.129884
v -0.025662 0.2064 -0.128839
v -0.023866 0.2064 -0.128256
v -0.023866 0.204636 -0.127783
v -0.02594 0.204636 -0.128457
v -0.025662 0.202872 -0.128839
v -0.023866 0.202872 -0.128256
v -0.023866 0.201581 -0.129547
v -0.024903 0.201581 -0.129884
v -0.023866 0.201109 -0.13131
v -0.023866 0.208163 -0.13131
v -0.025544 0.201581 -0.130765
v -0.025544 0.207691 -0.130765
v -0.026772 0.2064 -0.130366
v -0.027221 0.204636 -0.13022
v -0.026772 0.202872 -0.130366
v -0.025544 0.207691 -0.131855
v -0.026772 0.2064 -0.132254
v -0.027221 0.204636 -0.1324
v -0.026772 0.202872 -0.132254
v -0.025544 0.201581 -0.131855
v -0.024903 0.207691 -0.132737
v -0.025662 0.2064 -0.133782
v -0.02594 0.204636 -0.134164
v -0.025662 0.202872 -0.133782
v -0.024903 0.201581 -0.132737
v -0.023866 0.207691 -0.133074
v -0.023866 0.2064 -0.134365
v -0.023866 0.204636 -0.134838
v -0.023866 0.202872 -0.134365
v -0.023866 0.201581 -0.133074
v -0.022071 0.2064 -0.133782
v -0.021793 0.204636 -0.134164
v -0.022071 0.202872 -0.133782
v -0.02283 0.201581 -0.132737
v -0.02283 0.207691 -0.132737
v -0.020961 0.202872 -0.132254
v -0.022189 0.201581 -0.131855
v -0.022189 0.207691 -0.131855
v -0.020961 0.2064 -0.132254
v -0.020512 0.204636 -0.1324
v -0.022189 0.207691 -0.130765
v -0.020961 0.2064 -0.130366
v -0.020512 0.204636 -0.13022
v -0.020961 0.202872 -0.130366
v -0.022189 0.201581 -0.130765
v -0.02283 0.207691 -0.129884
v -0.022071 0.2064 -0.128839
v -0.021793 0.204636 -0.128457
v -0.022071 0.202872 -0.128839
v -0.02283 0.201581 -0.129884
v 0.022096 0.208149 -0.13162
v 0.021059 0.208149 -0.131957
v 0.022096 0.206858 -0.130329
v 0.020301 0.206858 -0.130913
v 0.022096 0.205094 -0.129857
v 0.020023 0.205094 -0.13053
v 0.022096 0.203331 -0.130329
v 0.020301 0.203331 -0.130913
v 0.022096 0.20204 -0.13162
v 0.021059 0.20204 -0.131957
v 0.022096 0.201567 -0.133384
v 0.022096 0.208622 -0.133384
v 0.020419 0.20204 -0.132839
v 0.020419 0.208149 -0.132839
v 0.019191 0.206858 -0.13244
v 0.018741 0.205094 -0.132294
v 0.019191 0.203331 -0.13244
v 0.020419 0.208149 -0.133929
v 0.019191 0.206858 -0.134328
v 0.018741 0.205094 -0.134474
v 0.019191 0.203331 -0.134328
v 0.020419 0.20204 -0.133929
v 0.021059 0.208149 -0.134811
v 0.020301 0.206858 -0.135855
v 0.020023 0.205094 -0.136238
v 0.020301 0.203331 -0.135855
v 0.021059 0.20204 -0.134811
v 0.022096 0.208149 -0.135148
v 0.022096 0.206858 -0.136439
v 0.022096 0.205094 -0.136911
v 0.022096 0.203331 -0.136439
v 0.022096 0.20204 -0.135148
v 0.023892 0.206858 -0.135855
v 0.024169 0.205094 -0.136238
v 0.023892 0.203331 -0.135855
v 0.023133 0.20204 -0.134811
v 0.023133 0.208149 -0.134811
v 0.025001 0.203331 -0.134328
v 0.023773 0.20204 -0.133929
v 0.023773 0.208149 -0.133929
v 0.025001 0.206858 -0.134328
v 0.025451 0.205094 -0.134474
v 0.023773 0.208149 -0.132839
v 0.025001 0.206858 -0.13244
v 0.025451 0.205094 -0.132294
v 0.025001 0.203331 -0.13244
v 0.023773 0.20204 -0.132839
v 0.023133 0.208149 -0.131957
v 0.023892 0.206858 -0.130913
v 0.024169 0.205094 -0.13053
v 0.023892 0.203331 -0.130913
v 0.023133 0.20204 -0.131957
v -0.048212 0.197436 0.12806
v -0.046929 0.195523 0.124869
v 0.003805 0.197437 0.13841
v 0.003805 0.195523 0.134963
v 0.129445 0.197426 -0.049919
v 0.126322 0.19552 -0.048583
v 0.099941 0.197431 -0.094095
v 0.09756 0.195522 -0.091641
v 0.139814 0.197423 0.002238
v 0.136428 0.195519 0.002238
v 0.055822 0.197436 -0.123585
v 0.060989 0.220774 -0.135794
v 0.10946 0.220774 -0.103393
v 0.099941 0.197431 0.098571
v 0.09756 0.195522 0.096116
v 0.126322 0.19552 0.053058
v 0.129445 0.197426 0.054394
v 0.055822 0.197436 0.12806
v 0.054539 0.195523 0.124869
v 0.003805 0.19549 0.002238
v -0.08995 0.195522 0.096116
v -0.092331 0.197431 0.098571
v -0.121835 0.197426 0.054394
v -0.118712 0.19552 0.053058
v -0.132204 0.197423 0.002238
v -0.128817 0.195519 0.002238
v -0.121835 0.197426 -0.049919
v -0.118712 0.19552 -0.048583
v -0.092331 0.197431 -0.094095
v -0.08995 0.195522 -0.091641
v -0.048212 0.197436 -0.123585
v -0.046929 0.195523 -0.120394
v 0.003805 0.197437 -0.133935
v 0.003805 0.195523 -0.130488
v 0.003805 0.220774 -0.147172
v 0.054539 0.195523 -0.120394
v -0.053379 0.220774 -0.135794
v 0.003805 0.220774 0.151648
v -0.053379 0.220774 0.140269
v 0.141834 0.220774 -0.054916
v 0.153195 0.220774 0.002238
v 0.141834 0.220774 0.059391
v 0.10946 0.220774 0.107868
v 0.060989 0.220774 0.140269
v 0.14357 0.21922 0.060011
v 0.110804 0.219224 0.109034
v 0.061725 0.219227 0.14182
v 0.003805 0.219228 0.153339
v -0.10185 0.220774 0.107868
v -0.134224 0.220774 0.059391
v -0.145585 0.220774 0.002238
v -0.134224 0.220774 -0.054916
v -0.10185 0.220774 -0.103393
v 0.061725 0.219227 -0.137345
v 0.110804 0.219224 -0.104558
v -0.13596 0.21922 -0.055536
v -0.103194 0.219224 -0.104558
v 0.155066 0.219219 0.002238
v -0.13596 0.21922 0.060011
v -0.147456 0.219219 0.002238
v -0.054115 0.219227 -0.137345
v 0.061724 0.215914 0.141808
v 0.003805 0.215914 0.153328
v 0.003805 0.219228 -0.148864
v 0.14357 0.21922 -0.055536
v -0.054113 0.215914 0.141808
v -0.054115 0.219227 0.14182
v 0.003805 0.215914 -0.148852
v 0.061724 0.215914 -0.137333
v -0.10319 0.215914 0.10902
v -0.103194 0.219224 0.109034
v 0.1108 0.215914 -0.104545
v -0.135949 0.215914 0.060001
v 0.1108 0.215914 0.10902
v -0.147442 0.215914 0.002238
v -0.135949 0.215914 -0.055525
v -0.10319 0.215914 -0.104545
v 0.155052 0.215914 0.002238
v 0.143559 0.215914 0.060001
v -0.054113 0.215914 -0.137333
v 0.143559 0.215914 -0.055525
vn 1 -0 -0
vn -0 -0 1
vn -1 -0 -0
vn -0 -1 -0.0065
vn -0 1 -0
vn -0 -1 -0
vn -0 1 -0.0072
vn 0.7372 0.1793 -0.6515
vn -0.7372 0.1793 -0.6515
vn -0 0.9971 -0.0765
vn -0 -0.8174 -0.576
vn -0 0.2654 -0.9641
vn -0 -0.9641 -0.2654
vn -0 0.9641 0.2654
vn 0.098 0.8648 -0.4924
vn -0.4175 0.8648 0.279
vn -0.4925 0.8648 0.098
vn -0.4807 0.5012 0.7195
vn -0.4175 0.8648 -0.279
vn -0.279 0.8648 -0.4175
vn 0.279 0.8648 -0.4175
vn 0.4175 0.8648 -0.279
vn 0.4925 0.8648 -0.098
vn 0.4925 0.8648 0.098
vn 0.4175 0.8648 0.279
vn 0.279 0.8648 0.4175
vn 0.098 0.8648 0.4925
vn -0.1688 0.5012 0.8487
vn 0.1688 0.5012 0.8487
vn 0.1688 0.5012 -0.8487
vn -0.7195 0.5012 0.4807
vn -0.8487 0.5012 0.1688
vn -0.8487 0.5012 -0.1688
vn -0.7195 0.5012 -0.4807
vn -0.4807 0.5012 -0.7195
vn 0.4936 0.8047 0.3298
vn -0.1688 0.5012 -0.8487
vn 0.1158 0.8047 0.5823
vn 0.4807 0.5012 -0.7195
vn 0.7195 0.5012 -0.4807
vn 0.8487 0.5012 -0.1688
vn 0.8487 0.5012 0.1688
vn 0.7195 0.5012 0.4807
vn 0.4807 0.5012 0.7195
vn 0.3298 0.8047 -0.4936
vn -0.279 0.8648 0.4175
vn -0.4936 0.8047 -0.3298
vn 0.3298 0.8047 0.4936
vn 0.5823 0.8047 0.1158
vn -0.5823 0.8047 0.1158
vn -0.3298 0.8047 -0.4936
vn 0.1951 -0 0.9808
vn -0.1158 0.8047 -0.5823
vn 0.4936 0.8047 -0.3298
vn -0.1951 -0 0.9808
vn 0.1951 -0 -0.9808
vn 0.5823 0.8047 -0.1158
vn -0.5556 -0 0.8315
vn 0.5556 -0 -0.8315
vn -0.8315 -0 0.5556
vn 0.5556 -0 0.8315
vn -0.9808 -0 -0.1951
vn -0.8315 -0 -0.5556
vn 0.9808 -0 0.1951
vn -0.9808 -0 0.1951
vn -0.5556 -0 -0.8315
vn -0.1951 -0 -0.9808
vn 0.8315 -0 -0.5556
vn -0.5823 0.8047 -0.1158
vn 0.9808 -0 -0.1951
vn -0.1158 0.8047 0.5823
vn -0.3298 0.8047 0.4936
vn 0.8315 -0 0.5556
vn -0.4936 0.8047 0.3298
vn -0.098 0.8648 -0.4924
vn -0.4925 0.8648 -0.098
vn -0.098 0.8648 0.4925
vn 0.1158 0.8047 -0.5823
vn -0.2239 0.6892 0.6892
vn -0.2994 -0.2469 0.9216
vn -0.0838 -0.9625 0.2579
vn -0.0838 0.9625 0.2579
vn -0.2994 0.2469 0.9216
vn -0.2239 -0.6892 0.6892
vn -0.2194 -0.9625 0.1594
vn -0.2194 0.9625 0.1594
vn -0.784 0.2469 0.5696
vn -0.5862 -0.6892 0.4259
vn -0.5862 0.6892 0.4259
vn -0.784 -0.2469 0.5696
vn -0.2712 0.9625 -0
vn -0.969 0.2469 -0
vn -0.7246 -0.6892 -0
vn -0.7246 0.6892 -0
vn -0.969 -0.2469 -0
vn -0.2712 -0.9625 -0
vn -0.2194 0.9625 -0.1594
vn -0.784 0.2469 -0.5696
vn -0.5862 -0.6892 -0.4259
vn -0.5862 0.6892 -0.4259
vn -0.784 -0.2469 -0.5696
vn -0.2194 -0.9625 -0.1594
vn -0.0838 0.9625 -0.2579
vn -0.2994 0.2469 -0.9216
vn -0.2239 -0.6892 -0.6892
vn -0.2239 0.6892 -0.6892
vn -0.2994 -0.2469 -0.9216
vn -0.0838 -0.9625 -0.2579
vn 0.2994 0.2469 -0.9216
vn 0.2239 -0.6892 -0.6892
vn 0.2239 0.6892 -0.6892
vn 0.2994 -0.2469 -0.9216
vn 0.0838 -0.9625 -0.2579
vn 0.0838 0.9625 -0.2579
vn 0.5862 -0.6892 -0.4259
vn 0.5862 0.6892 -0.4259
vn 0.784 -0.2469 -0.5696
vn 0.2194 -0.9625 -0.1594
vn 0.2194 0.9625 -0.1594
vn 0.784 0.2469 -0.5696
vn 0.7246 0.6892 -0
vn 0.969 -0.2469 -0
vn 0.2712 -0.9625 -0
vn 0.2712 0.9625 -0
vn 0.969 0.2469 -0
vn 0.7246 -0.6892 -0
vn 0.5862 0.6892 0.4259
vn 0.784 -0.2469 0.5696
vn 0.2194 -0.9625 0.1594
vn 0.2194 0.9625 0.1594
vn 0.784 0.2469 0.5696
vn 0.5862 -0.6892 0.4259
vn 0.2239 0.6892 0.6892
vn 0.2994 -0.2469 0.9216
vn 0.0838 -0.9625 0.2579
vn 0.0838 0.9625 0.2579
vn 0.2994 0.2469 0.9216
vn 0.2239 -0.6892 0.6892
vn -0 -0.2654 0.9641
vn -0.0961 -0.8702 0.4832
vn 0.4123 -0.8684 -0.2754
vn 0.4878 -0.8676 -0.097
vn 0.4853 -0.4872 -0.7261
vn 0.4123 -0.8684 0.2754
vn 0.2744 -0.8695 0.4106
vn 0.0002 -1 0.0002
vn -0.0001 -1 0.0002
vn -0.2744 -0.8695 0.4106
vn -0.4123 -0.8684 0.2754
vn -0.4878 -0.8676 0.097
vn -0.4878 -0.8676 -0.097
vn -0.4123 -0.8684 -0.2754
vn -0.2744 -0.8695 -0.4106
vn -0.0961 -0.8702 -0.4832
vn 0.1705 -0.4861 -0.8571
vn -0 -1 -0.0002
vn -0.1705 -0.4861 -0.8571
vn -0.1705 -0.4862 0.8571
vn -0 -1 0.0002
vn 0.0002 -1 -0.0002
vn 0.7255 -0.4887 -0.4845
vn 0.0002 -1 -0.0001
vn 0.855 -0.49 -0.17
vn 0.0002 -1 0.0001
vn 0.855 -0.49 0.17
vn 0.0001 -1 0.0002
vn 0.7255 -0.4887 0.4845
vn 0.4853 -0.4872 0.7261
vn -0.547 -0.7532 -0.3654
vn 0.1705 -0.4862 0.8571
vn -0.1329 -0.7321 -0.6681
vn -0.4853 -0.4872 0.7261
vn -0.0002 -1 0.0002
vn -0.7255 -0.4887 0.4845
vn -0.0002 -1 0.0001
vn -0.855 -0.49 0.17
vn -0.0002 -1 -0.0001
vn -0.855 -0.49 -0.17
vn -0.0002 -1 -0.0002
vn -0.7255 -0.4887 -0.4845
vn -0.0001 -1 -0.0002
vn -0.4853 -0.4872 -0.7261
vn -0.3733 -0.7407 0.5585
vn 0.2744 -0.8695 -0.4106
vn 0.547 -0.7532 0.3654
vn -0.3733 -0.7407 -0.5585
vn -0.6351 -0.7621 -0.1263
vn 0.6351 -0.7621 -0.1263
vn 0.3733 -0.7407 0.5585
vn -0.1951 0.0036 -0.9808
vn 0.1329 -0.7321 0.6681
vn -0.547 -0.7532 0.3654
vn 0.1951 0.0036 -0.9808
vn -0.1951 0.0036 0.9808
vn -0.635 -0.7621 0.1263
vn 0.5555 0.0037 -0.8315
vn -0.5555 0.0037 0.8315
vn 0.8314 0.0039 -0.5557
vn -0.5555 0.0037 -0.8315
vn 0.9808 0.0038 0.1951
vn 0.8314 0.0039 0.5557
vn -0.9808 0.0038 -0.1951
vn 0.9808 0.0038 -0.1951
vn 0.5555 0.0037 0.8315
vn 0.1951 0.0036 0.9808
vn -0.8314 0.0039 0.5557
vn 0.6351 -0.7621 0.1263
vn -0.9808 0.0038 0.1951
vn 0.1329 -0.7321 -0.6681
vn 0.3733 -0.7407 -0.5585
vn -0.8314 0.0039 -0.5557
vn 0.547 -0.7532 -0.3654
vn 0.0961 -0.8702 0.4832
vn 0.4878 -0.8676 0.097
vn 0.0001 -1 -0.0002
vn 0.0961 -0.8702 -0.4832
vn -0.1329 -0.7321 0.6681
vt 0.622738 0.5096
vt 0.64496 0.474526
vt 0.609887 0.452304
vt 0.587664 0.487377
vt 0.443811 0.840279
vt 0.485333 0.840279
vt 0.485333 0.807244
vt 0.443811 0.807244
vt 0.166556 0.424017
vt 0.188779 0.459091
vt 0.223852 0.436868
vt 0.20163 0.401795
vt 0.855239 0.477485
vt 0.855239 0.498304
vt 0.896761 0.498304
vt 0.896761 0.477485
vt 0.443811 0.865432
vt 0.485333 0.865432
vt 0.855239 0.452304
vt 0.896761 0.452304
vt 0.205549 0.484167
vt 0.241073 0.465439
vt 0.570443 0.515948
vt 0.605968 0.534676
vt 0.920725 0.276495
vt 0.90158 0.280988
vt 0.90158 0.321731
vt 0.920725 0.317238
vt 0.793618 0.832575
vt 0.802091 0.819907
vt 0.768572 0.815645
vt 0.779541 0.830784
vt 0.189232 0.681006
vt 0.202081 0.662886
vt 0.174313 0.688871
vt 0.166556 0.681614
vt 0.793618 0.850461
vt 0.802091 0.86065
vt 0.855239 0.697012
vt 0.866886 0.718421
vt 0.885114 0.718421
vt 0.896761 0.697012
vt 0.600207 0.666663
vt 0.609436 0.713395
vt 0.635731 0.685391
vt 0.64496 0.732123
vt 0.779541 0.84867
vt 0.175785 0.634881
vt 0.21131 0.616153
vt 0.855239 0.649981
vt 0.896761 0.649981
vt 0.855239 0.752866
vt 0.855239 0.904522
vt 0.896761 0.904522
vt 0.896761 0.752866
vt 0.864644 0.942263
vt 0.855239 0.951547
vt 0.896761 0.951547
vt 0.887356 0.942263
vt 0.864644 0.687727
vt 0.887356 0.687727
vt 0.864644 0.913806
vt 0.887356 0.913806
vt 0.887356 0.659266
vt 0.864644 0.659266
vt 0.335723 0.597272
vt 0.335723 0.527918
vt 0.32875 0.528304
vt 0.32875 0.596028
vt 0.403276 0.030013
vt 0.379994 0.071268
vt 0.409398 0.033367
vt 0.386663 0.073653
vt 0.881759 0.124058
vt 0.881889 0.176563
vt 0.888242 0.175321
vt 0.888115 0.12405
vt 0.367394 0.130964
vt 0.307866 0.064858
vt 0.293977 0.130658
vt 0.881889 0.027042
vt 0.881759 0.071554
vt 0.888115 0.07278
vt 0.888242 0.029314
vt 0.323219 0.462915
vt 0.300113 0.412159
vt 0.293977 0.415266
vt 0.316539 0.464829
vt 0.455179 0.191935
vt 0.50096 0.063136
vt 0.471255 0.027676
vt 0.523694 0.310217
vt 0.535998 0.251924
vt 0.323219 0.660418
vt 0.316539 0.65769
vt 0.300113 0.707743
vt 0.293977 0.703903
vt 0.023642 0.818919
vt 0.023577 0.766414
vt 0.017222 0.767648
vt 0.017286 0.818919
vt 0.023577 0.871424
vt 0.017222 0.87019
vt 0.403276 0.324295
vt 0.433696 0.360609
vt 0.439103 0.356194
vt 0.409398 0.320733
vt 0.379994 0.267901
vt 0.386663 0.265665
vt 0.367394 0.200012
vt 0.374359 0.199371
vt 0.293977 0.206768
vt 0.374359 0.131946
vt 0.307866 0.281599
vt 0.409367 0.528689
vt 0.409367 0.605135
vt 0.535998 0.184498
vt 0.523694 0.118205
vt 0.882129 0.221074
vt 0.799833 0.182034
vt 0.800098 0.231096
vt 0.439103 0.017222
vt 0.79969 0.12416
vt 0.79969 0.066286
vt 0.799833 0.017222
vt 0.370115 0.401092
vt 0.395583 0.457039
vt 0.443811 0.403974
vt 0.473533 0.446905
vt 0.449096 0.401092
vt 0.479286 0.444699
vt 0.493392 0.511156
vt 0.500366 0.586945
vt 0.499458 0.509962
vt 0.506542 0.586945
vt 0.395583 0.674739
vt 0.500959 0.350502
vt 0.370115 0.726903
vt 0.471255 0.366647
vt 0.10564 0.761045
vt 0.105711 0.818919
vt 0.10564 0.876793
vt 0.023393 0.915935
vt 0.105436 0.925856
vt 0.333528 0.34376
vt 0.694875 0.576966
vt 0.708659 0.507362
vt 0.688716 0.57599
vt 0.702716 0.50529
vt 0.92283 0.183739
vt 0.922687 0.232803
vt 0.928648 0.23448
vt 0.928793 0.184644
vt 0.931277 0.560925
vt 0.931206 0.618799
vt 0.93724 0.560925
vt 0.937167 0.619711
vt 0.922687 0.067992
vt 0.92283 0.125865
vt 0.928648 0.067073
vt 0.928793 0.125858
vt 0.734127 0.781009
vt 0.708659 0.725062
vt 0.702716 0.726419
vt 0.728586 0.783247
vt 0.79969 0.337736
vt 0.806606 0.414833
vt 0.816193 0.414707
vt 0.809277 0.33761
vt 0.694875 0.653412
vt 0.688716 0.65364
vt 0.734127 0.455198
vt 0.728586 0.452304
vt 0.499458 0.663928
vt 0.508766 0.663928
vt 0.51585 0.586945
vt 0.679405 0.575463
vt 0.679405 0.653113
vt 0.931206 0.503051
vt 0.937167 0.50214
vt 0.479286 0.729191
vt 0.488594 0.729191
vt 0.693406 0.504763
vt 0.928379 0.017237
vt 0.940346 0.067058
vt 0.940078 0.017222
vt 0.806606 0.265667
vt 0.816193 0.265541
vt 0.940492 0.184629
vt 0.940492 0.125844
vt 0.940346 0.234465
vt 0.948866 0.619711
vt 0.948939 0.560925
vt 0.584567 0.08279
vt 0.570443 0.149631
vt 0.579706 0.148777
vt 0.593829 0.081937
vt 0.570443 0.22694
vt 0.579706 0.226086
vt 0.93696 0.452304
vt 0.948866 0.50214
vt 0.948659 0.452304
vt 0.493392 0.662735
vt 0.473533 0.726986
vt 0.93696 0.669547
vt 0.948659 0.669547
vt 0.443811 0.769917
vt 0.449096 0.772799
vt 0.959511 0.285997
vt 0.9609 0.285955
vt 0.961134 0.281614
vt 0.958728 0.281688
vt 0.627013 0.959262
vt 0.629523 0.958666
vt 0.629523 0.953443
vt 0.627349 0.953959
vt 0.627375 0.949529
vt 0.628631 0.949231
vt 0.627084 0.947159
vt 0.959939 0.288354
vt 0.957801 0.27658
vt 0.960579 0.276495
vt 0.62925 0.948656
vt 0.961832 0.286335
vt 0.52055 0.884874
vt 0.522093 0.884771
vt 0.519778 0.878748
vt 0.521559 0.878628
vt 0.519778 0.872577
vt 0.52132 0.872473
vt 0.521441 0.867955
vt 0.520551 0.868015
vt 0.962749 0.282273
vt 0.523434 0.890878
vt 0.52388 0.889185
vt 0.522779 0.889254
vt 0.524 0.884651
vt 0.523761 0.87849
vt 0.523228 0.872354
vt 0.522542 0.867886
vt 0.521889 0.866283
vt 0.019593 0.972245
vt 0.01809 0.970142
vt 0.017427 0.970733
vt 0.525543 0.884561
vt 0.525543 0.878386
vt 0.931205 0.960724
vt 0.93282 0.961383
vt 0.932122 0.956664
vt 0.933055 0.957044
vt 0.524771 0.889133
vt 0.524771 0.872264
vt 0.934016 0.954646
vt 0.019372 0.969854
vt 0.017222 0.965982
vt 0.019442 0.965482
vt 0.019785 0.960301
vt 0.017222 0.960878
vt 0.935226 0.96131
vt 0.934444 0.957002
vt 0.933376 0.9665
vt 0.936154 0.966415
vt 0.021885 0.965697
vt 0.022606 0.96055
vt 0.937504 0.960533
vt 0.935759 0.956553
vt 0.020782 0.969978
vt 0.938784 0.965517
vt 0.938784 0.959347
vt 0.936498 0.955869
vt 0.021783 0.970467
vt 0.023618 0.966545
vt 0.679405 0.920346
vt 0.681151 0.92072
vt 0.682612 0.914736
vt 0.681101 0.914412
vt 0.024607 0.961528
vt 0.679405 0.931272
vt 0.680483 0.931508
vt 0.681844 0.927181
vt 0.679977 0.926772
vt 0.683307 0.921192
vt 0.684479 0.915145
vt 0.62468 0.948357
vt 0.624934 0.948988
vt 0.679589 0.933013
vt 0.685048 0.91066
vt 0.68397 0.910424
vt 0.957457 0.28713
vt 0.958196 0.286446
vt 0.95645 0.282465
vt 0.95517 0.283649
vt 0.62213 0.958182
vt 0.624189 0.959077
vt 0.62312 0.953023
vt 0.624904 0.953799
vt 0.625963 0.949436
vt 0.683353 0.927518
vt 0.685049 0.921581
vt 0.95517 0.277477
vt 0.962777 0.365678
vt 0.964167 0.365636
vt 0.961995 0.361369
vt 0.964401 0.361295
vt 0.524661 0.937426
vt 0.527171 0.93683
vt 0.524997 0.932123
vt 0.527171 0.931606
vt 0.525023 0.927692
vt 0.526278 0.927394
vt 0.524732 0.925322
vt 0.963205 0.368034
vt 0.963845 0.356176
vt 0.961067 0.356261
vt 0.526897 0.92682
vt 0.965099 0.366016
vt 0.52055 0.825835
vt 0.522093 0.825731
vt 0.519778 0.819709
vt 0.521559 0.819589
vt 0.519778 0.813538
vt 0.52132 0.813434
vt 0.520551 0.808975
vt 0.521441 0.808915
vt 0.966015 0.361954
vt 0.523434 0.831838
vt 0.52388 0.830145
vt 0.522779 0.830215
vt 0.524 0.825611
vt 0.523761 0.819451
vt 0.523228 0.813314
vt 0.522542 0.808846
vt 0.521889 0.807244
vt 0.061423 0.972244
vt 0.05992 0.970142
vt 0.059257 0.970733
vt 0.525543 0.825521
vt 0.525543 0.819347
vt 0.958437 0.408557
vt 0.960052 0.409217
vt 0.960286 0.404878
vt 0.959354 0.404497
vt 0.524771 0.830094
vt 0.524771 0.813224
vt 0.961247 0.402479
vt 0.061201 0.969854
vt 0.059052 0.965982
vt 0.061272 0.965482
vt 0.059052 0.960878
vt 0.061615 0.960301
vt 0.962458 0.409144
vt 0.961675 0.404836
vt 0.960607 0.414333
vt 0.963385 0.414249
vt 0.063715 0.965697
vt 0.064436 0.96055
vt 0.964736 0.408366
vt 0.96299 0.404387
vt 0.062612 0.969978
vt 0.966015 0.413351
vt 0.966015 0.407181
vt 0.963729 0.403702
vt 0.063612 0.970467
vt 0.065448 0.966545
vt 0.719494 0.920346
vt 0.721239 0.92072
vt 0.721189 0.914412
vt 0.722701 0.914736
vt 0.066437 0.961528
vt 0.719494 0.931272
vt 0.720572 0.931508
vt 0.721932 0.927181
vt 0.720065 0.926772
vt 0.723395 0.921192
vt 0.724568 0.915145
vt 0.522328 0.92652
vt 0.522582 0.927152
vt 0.719677 0.933013
vt 0.725136 0.91066
vt 0.724058 0.910424
vt 0.960723 0.366811
vt 0.961462 0.366127
vt 0.958437 0.36333
vt 0.959717 0.362146
vt 0.519778 0.936345
vt 0.521837 0.937241
vt 0.522551 0.931962
vt 0.520768 0.931187
vt 0.523611 0.9276
vt 0.723441 0.927518
vt 0.725137 0.921581
vt 0.958437 0.357158
vt 0.679405 0.835821
vt 0.679405 0.875979
vt 0.701818 0.857851
vt 0.701818 0.817692
vt 0.443812 0.902689
vt 0.443812 0.936478
vt 0.46592 0.933666
vt 0.46592 0.899877
vt 0.90158 0.356176
vt 0.90158 0.396335
vt 0.923992 0.374305
vt 0.923992 0.414464
vt 0.768572 0.898171
vt 0.768572 0.932747
vt 0.790464 0.929671
vt 0.790464 0.895095
vt 0.045908 0.460792
vt 0.038754 0.46279
vt 0.057858 0.525161
vt 0.050406 0.525571
vt 0.150783 0.029862
vt 0.144316 0.033424
vt 0.174216 0.071297
vt 0.167145 0.073815
vt 0.300606 0.819101
vt 0.293977 0.819093
vt 0.300615 0.871897
vt 0.293979 0.870537
vt 0.18689 0.131196
vt 0.25953 0.13101
vt 0.245617 0.065203
vt 0.045901 0.658269
vt 0.038761 0.655381
vt 0.017222 0.702674
vt 0.023791 0.706783
vt 0.057858 0.594495
vt 0.05041 0.593194
vt 0.098269 0.192279
vt 0.082182 0.0277
vt 0.052366 0.063242
vt 0.017222 0.25235
vt 0.029565 0.310758
vt 0.023815 0.411165
vt 0.017222 0.414397
vt 0.248241 0.777444
vt 0.254877 0.778796
vt 0.248036 0.732727
vt 0.254691 0.735211
vt 0.248315 0.83024
vt 0.254944 0.83024
vt 0.248241 0.883036
vt 0.254877 0.881684
vt 0.150835 0.325099
vt 0.144343 0.321332
vt 0.11452 0.356873
vt 0.120227 0.361556
vt 0.17424 0.268524
vt 0.167155 0.266162
vt 0.186897 0.200443
vt 0.179496 0.199761
vt 0.259532 0.207134
vt 0.179493 0.132224
vt 0.245623 0.281977
vt 0.132107 0.527078
vt 0.118974 0.456316
vt 0.029561 0.118412
vt 0.017222 0.184813
vt 0.300764 0.916615
vt 0.382232 0.926127
vt 0.382089 0.877056
vt 0.114476 0.017222
vt 0.382088 0.819202
vt 0.300745 0.766305
vt 0.382232 0.761348
vt 0.094742 0.7266
vt 0.118988 0.673365
vt 0.132112 0.603299
vt 0.710758 0.39776
vt 0.715644 0.399621
vt 0.736456 0.352296
vt 0.741619 0.35361
vt 0.750369 0.286489
vt 0.755686 0.286979
vt 0.750372 0.210365
vt 0.755682 0.209876
vt 0.094716 0.401795
vt 0.052385 0.351149
vt 0.166556 0.723316
vt 0.16676 0.772386
vt 0.082222 0.36735
vt 0.166832 0.83024
vt 0.16676 0.888094
vt 0.248036 0.927753
vt 0.166556 0.937165
vt 0.219921 0.344135
vt 0.79654 0.725008
vt 0.791313 0.725987
vt 0.815852 0.7812
vt 0.820794 0.779531
vt 0.820794 0.454725
vt 0.815804 0.452304
vt 0.796544 0.507958
vt 0.791293 0.506171
vt 0.948447 0.812096
vt 0.943028 0.812096
vt 0.948376 0.86995
vt 0.942961 0.870578
vt 0.587613 0.816819
vt 0.582199 0.816191
vt 0.582266 0.874673
vt 0.587685 0.874673
vt 0.783415 0.578023
vt 0.778019 0.577112
vt 0.764839 0.286134
vt 0.764839 0.209032
vt 0.783413 0.654244
vt 0.778024 0.654312
vt 0.948172 0.705172
vt 0.942766 0.703992
vt 0.942961 0.753615
vt 0.948376 0.754242
vt 0.857909 0.414464
vt 0.867135 0.414115
vt 0.859861 0.337015
vt 0.850638 0.337362
vt 0.629635 0.912714
vt 0.638686 0.91098
vt 0.631179 0.834245
vt 0.62213 0.835977
vt 0.867135 0.265541
vt 0.857918 0.265885
vt 0.638686 0.766568
vt 0.629643 0.768295
vt 0.582004 0.766568
vt 0.570443 0.766582
vt 0.57065 0.816202
vt 0.750763 0.352762
vt 0.570722 0.874673
vt 0.582199 0.933155
vt 0.57065 0.933144
vt 0.582004 0.982777
vt 0.570443 0.982764
vt 0.931484 0.812096
vt 0.931412 0.870567
vt 0.781855 0.505451
vt 0.768572 0.576387
vt 0.768573 0.653586
vt 0.931206 0.704005
vt 0.931412 0.753625
vt 0.587613 0.932527
vt 0.741601 0.134069
vt 0.736463 0.135522
vt 0.715597 0.071129
vt 0.710761 0.073364
vt 0.942766 0.920201
vt 0.931206 0.920187
vt 0.681654 0.030638
vt 0.67719 0.03336
vt 0.294107 0.767649
vt 0.765245 0.208995
vt 0.765245 0.286304
vt 0.593829 0.302094
vt 0.594197 0.301854
vt 0.580112 0.226049
vt 0.580112 0.148947
vt 0.751122 0.132987
vt 0.750754 0.133228
vt 0.619926 0.36523
vt 0.620208 0.364789
vt 0.725025 0.069852
vt 0.724743 0.070293
vt 0.654023 0.405881
vt 0.654158 0.405271
vt 0.690929 0.0292
vt 0.690793 0.02981
vt 0.690929 0.417859
vt 0.690867 0.417189
vt 0.654023 0.017222
vt 0.654084 0.017892
vt 0.725025 0.39934
vt 0.724781 0.398766
vt 0.619926 0.035741
vt 0.62017 0.036316
vt 0.751122 0.353144
vt 0.594188 0.082319
usemtl 
f 1/1/1 2/2/1 3/3/1
f 1/1/1 3/3/1 4/4/1
f 2/5/2 5/6/2 6/7/2
f 2/5/2 6/7/2 3/8/2
f 5/9/3 7/10/3 8/11/3
f 5/9/3 8/11/3 6/12/3
f 8/13/4 9/14/4 10/15/4
f 8/13/4 10/15/4 4/16/4
f 2/5/5 1/17/5 7/18/5
f 2/5/5 7/18/5 5/6/5
f 6/19/6 8/13/6 4/16/6
f 6/19/6 4/16/6 3/20/6
f 7/10/3 11/21/3 8/11/3
f 11/21/3 9/22/3 8/11/3
f 4/4/1 10/23/1 12/24/1
f 4/4/1 12/24/1 1/1/1
f 1/25/7 12/26/7 11/27/7
f 1/25/7 11/27/7 7/28/7
f 13/29/8 14/30/8 15/31/8
f 13/29/8 15/31/8 16/32/8
f 17/33/9 18/34/9 19/35/9
f 18/34/9 20/36/9 19/35/9
f 14/30/10 13/29/10 19/37/10
f 14/30/10 19/37/10 20/38/10
f 18/39/11 17/40/11 16/41/11
f 18/39/11 16/41/11 15/42/11
f 21/43/1 15/44/1 22/45/1
f 15/44/1 14/46/1 22/45/1
f 19/37/12 13/29/12 16/32/12
f 19/37/12 16/32/12 17/47/12
f 23/48/3 20/36/3 18/34/3
f 23/48/3 18/34/3 24/49/3
f 11/21/3 23/48/3 24/49/3
f 11/21/3 24/49/3 9/22/3
f 9/14/13 24/50/13 21/51/13
f 9/14/13 21/51/13 10/15/13
f 12/52/14 22/53/14 23/54/14
f 12/52/14 23/54/14 11/55/14
f 10/23/1 21/43/1 12/24/1
f 21/43/1 22/45/1 12/24/1
f 25/56/14 14/57/14 20/58/14
f 25/56/14 20/58/14 26/59/14
f 27/60/13 18/39/13 15/42/13
f 27/60/13 15/42/13 28/61/13
f 29/62/14 22/53/14 14/57/14
f 29/62/14 14/57/14 25/56/14
f 26/59/14 20/58/14 23/54/14
f 26/59/14 23/54/14 30/63/14
f 28/61/13 15/42/13 21/51/13
f 28/61/13 21/51/13 31/64/13
f 32/65/13 24/50/13 18/39/13
f 32/65/13 18/39/13 27/60/13
f 31/64/13 21/51/13 24/50/13
f 31/64/13 24/50/13 32/65/13
f 30/63/14 23/54/14 22/53/14
f 30/63/14 22/53/14 29/62/14
f 33/66/15 34/67/15 35/68/15
f 33/66/15 35/68/15 36/69/15
f 37/70/16 38/71/16 39/72/16
f 38/71/16 40/73/16 39/72/16
f 41/74/17 37/75/17 39/76/17
f 41/74/17 39/76/17 42/77/17
f 43/78/18 38/71/18 44/79/18
f 43/78/18 44/79/18 45/80/18
f 46/81/19 47/82/19 48/83/19
f 46/81/19 48/83/19 49/84/19
f 50/85/20 46/86/20 49/87/20
f 50/85/20 49/87/20 51/88/20
f 52/89/5 49/90/5 48/91/5
f 52/89/5 53/92/5 36/93/5
f 54/94/21 33/66/21 53/95/21
f 33/66/21 36/69/21 53/95/21
f 55/96/22 54/94/22 56/97/22
f 54/94/22 53/95/22 56/97/22
f 57/98/23 55/99/23 56/100/23
f 57/98/23 56/100/23 58/101/23
f 59/102/24 57/98/24 60/103/24
f 57/98/24 58/101/24 60/103/24
f 61/104/25 59/105/25 60/106/25
f 61/104/25 60/106/25 62/107/25
f 63/108/26 61/104/26 62/107/26
f 63/108/26 62/107/26 64/109/26
f 65/110/27 63/108/27 66/111/27
f 63/108/27 64/109/27 66/111/27
f 65/110/28 43/78/28 67/112/28
f 43/78/28 45/80/28 67/112/28
f 52/89/5 68/113/5 66/111/5
f 69/114/29 63/108/29 67/112/29
f 63/108/29 65/110/29 67/112/29
f 34/67/30 33/66/30 70/115/30
f 33/66/30 71/116/30 70/115/30
f 52/89/5 35/117/5 51/118/5
f 52/89/5 39/72/5 40/73/5
f 38/119/31 37/75/31 72/120/31
f 38/119/31 72/120/31 44/121/31
f 52/89/5 42/122/5 39/72/5
f 37/75/32 41/74/32 72/120/32
f 41/74/32 73/123/32 72/120/32
f 52/89/5 36/93/5 35/117/5
f 52/89/5 48/91/5 42/122/5
f 41/74/33 47/82/33 74/124/33
f 41/74/33 74/124/33 73/123/33
f 52/89/5 51/118/5 49/90/5
f 47/82/34 46/81/34 74/124/34
f 46/81/34 75/125/34 74/124/34
f 46/86/35 50/85/35 75/126/35
f 50/85/35 76/127/35 75/126/35
f 74/128/36 75/129/36 77/130/36
f 75/129/36 78/131/36 77/130/36
f 50/85/37 34/67/37 70/115/37
f 50/85/37 70/115/37 76/127/37
f 76/132/38 70/133/38 79/134/38
f 70/133/38 80/135/38 79/134/38
f 33/66/39 54/94/39 81/136/39
f 33/66/39 81/136/39 71/116/39
f 52/89/5 56/137/5 53/92/5
f 54/94/40 55/96/40 82/138/40
f 54/94/40 82/138/40 81/136/40
f 52/89/5 58/139/5 56/137/5
f 55/99/41 57/98/41 82/140/41
f 57/98/41 83/141/41 82/140/41
f 52/89/5 60/106/5 58/139/5
f 57/98/42 59/102/42 84/142/42
f 57/98/42 84/142/42 83/141/42
f 52/89/5 62/107/5 60/106/5
f 59/102/43 61/143/43 84/142/43
f 61/143/43 85/144/43 84/142/43
f 52/89/5 64/109/5 62/107/5
f 61/104/44 63/108/44 85/145/44
f 63/108/44 69/114/44 85/145/44
f 52/89/5 66/111/5 64/109/5
f 45/146/45 44/147/45 86/148/45
f 44/147/45 87/149/45 86/148/45
f 38/71/46 43/78/46 40/73/46
f 43/78/46 68/113/46 40/73/46
f 84/150/47 85/151/47 88/152/47
f 84/150/47 88/152/47 89/153/47
f 75/129/48 76/132/48 79/134/48
f 75/129/48 79/134/48 78/131/48
f 73/154/49 74/155/49 90/156/49
f 74/155/49 77/157/49 90/156/49
f 82/158/50 83/159/50 91/160/50
f 83/159/50 92/161/50 91/160/50
f 85/162/51 69/163/51 93/164/51
f 85/162/51 93/164/51 88/165/51
f 79/166/52 80/167/52 94/168/52
f 79/166/52 94/168/52 95/169/52
f 69/163/53 67/170/53 93/164/53
f 67/170/53 96/171/53 93/164/53
f 44/147/54 72/172/54 87/149/54
f 72/172/54 97/173/54 87/149/54
f 80/135/55 98/174/55 99/175/55
f 80/135/55 99/175/55 94/176/55
f 96/171/56 86/148/56 100/177/56
f 96/171/56 100/177/56 101/178/56
f 72/179/57 73/154/57 90/156/57
f 72/179/57 90/156/57 97/180/57
f 98/174/58 102/181/58 103/182/58
f 98/174/58 103/182/58 99/175/58
f 86/148/59 87/149/59 104/183/59
f 86/148/59 104/183/59 100/177/59
f 102/184/60 91/160/60 105/185/60
f 102/184/60 105/185/60 103/186/60
f 78/187/61 79/166/61 95/169/61
f 78/187/61 95/169/61 106/188/61
f 92/161/62 89/153/62 107/189/62
f 92/161/62 107/189/62 108/190/62
f 89/153/63 88/152/63 109/191/63
f 89/153/63 109/191/63 107/189/63
f 90/156/64 77/157/64 110/192/64
f 90/156/64 110/192/64 111/193/64
f 91/160/65 92/161/65 108/190/65
f 91/160/65 108/190/65 105/185/65
f 88/194/66 93/195/66 112/196/66
f 88/194/66 112/196/66 109/197/66
f 93/195/67 96/198/67 101/199/67
f 93/195/67 101/199/67 112/196/67
f 87/200/68 97/180/68 113/201/68
f 87/200/68 113/201/68 104/202/68
f 83/159/69 84/150/69 89/153/69
f 83/159/69 89/153/69 92/161/69
f 97/180/70 90/156/70 111/193/70
f 97/180/70 111/193/70 113/201/70
f 70/133/71 71/203/71 98/174/71
f 70/133/71 98/174/71 80/135/71
f 71/203/72 81/204/72 98/174/72
f 81/204/72 102/181/72 98/174/72
f 77/157/73 78/205/73 106/206/73
f 77/157/73 106/206/73 110/192/73
f 81/204/74 82/207/74 91/208/74
f 81/204/74 91/208/74 102/181/74
f 34/67/75 50/85/75 35/68/75
f 50/85/75 51/88/75 35/68/75
f 47/82/76 41/74/76 48/83/76
f 41/74/76 42/77/76 48/83/76
f 68/113/5 52/89/5 40/73/5
f 43/78/77 65/110/77 66/111/77
f 43/78/77 66/111/77 68/113/77
f 67/170/78 45/146/78 86/148/78
f 67/170/78 86/148/78 96/171/78
f 114/209/79 115/210/79 116/211/79
f 114/209/79 116/211/79 117/212/79
f 118/213/80 119/214/80 120/215/80
f 118/213/80 120/215/80 121/216/80
f 122/217/81 123/218/81 124/219/81
f 125/220/82 115/210/82 114/209/82
f 117/212/83 116/211/83 118/221/83
f 116/211/83 119/222/83 118/221/83
f 121/216/84 120/215/84 122/217/84
f 120/215/84 123/218/84 122/217/84
f 123/218/85 126/223/85 124/219/85
f 125/220/86 127/224/86 115/210/86
f 116/225/87 128/226/87 119/227/87
f 128/226/87 129/228/87 119/227/87
f 120/229/88 130/230/88 126/231/88
f 120/229/88 126/231/88 123/232/88
f 115/210/89 127/224/89 116/211/89
f 127/224/89 128/233/89 116/211/89
f 119/227/90 129/228/90 130/230/90
f 119/227/90 130/230/90 120/229/90
f 125/234/91 131/235/91 127/236/91
f 128/226/92 132/237/92 133/238/92
f 128/226/92 133/238/92 129/228/92
f 130/230/93 134/239/93 135/240/93
f 130/230/93 135/240/93 126/231/93
f 127/236/94 131/235/94 132/237/94
f 127/236/94 132/237/94 128/226/94
f 129/228/95 133/238/95 134/239/95
f 129/228/95 134/239/95 130/230/95
f 126/231/96 135/240/96 124/241/96
f 125/242/97 136/243/97 131/244/97
f 132/237/98 137/245/98 138/246/98
f 132/237/98 138/246/98 133/238/98
f 134/247/99 139/248/99 135/249/99
f 139/248/99 140/250/99 135/249/99
f 131/235/100 136/251/100 137/245/100
f 131/235/100 137/245/100 132/237/100
f 133/238/101 138/246/101 134/239/101
f 138/246/101 139/252/101 134/239/101
f 135/249/102 140/250/102 124/253/102
f 125/242/103 141/254/103 136/243/103
f 137/255/104 142/256/104 143/257/104
f 137/255/104 143/257/104 138/258/104
f 139/248/105 144/259/105 145/260/105
f 139/248/105 145/260/105 140/250/105
f 136/243/106 141/254/106 137/255/106
f 141/254/106 142/256/106 137/255/106
f 138/261/107 143/262/107 139/248/107
f 143/262/107 144/259/107 139/248/107
f 140/250/108 145/260/108 124/253/108
f 142/256/109 146/263/109 143/257/109
f 146/263/109 147/264/109 143/257/109
f 144/259/110 148/265/110 145/260/110
f 148/265/110 149/266/110 145/260/110
f 141/254/111 150/267/111 146/263/111
f 141/254/111 146/263/111 142/256/111
f 143/262/112 147/268/112 148/265/112
f 143/262/112 148/265/112 144/259/112
f 145/260/113 149/266/113 124/253/113
f 125/242/114 150/267/114 141/254/114
f 148/265/115 151/269/115 152/270/115
f 148/265/115 152/270/115 149/266/115
f 150/267/116 153/271/116 146/263/116
f 153/271/116 154/272/116 146/263/116
f 147/273/117 155/274/117 151/275/117
f 147/273/117 151/275/117 148/276/117
f 149/266/118 152/270/118 124/253/118
f 125/242/119 153/271/119 150/267/119
f 146/263/120 154/272/120 147/264/120
f 154/272/120 155/277/120 147/264/120
f 153/278/121 156/279/121 157/280/121
f 153/278/121 157/280/121 154/281/121
f 155/274/122 158/282/122 159/283/122
f 155/274/122 159/283/122 151/275/122
f 152/284/123 160/285/123 124/219/123
f 125/286/124 156/279/124 153/278/124
f 154/281/125 157/280/125 158/282/125
f 154/281/125 158/282/125 155/274/125
f 151/275/126 159/283/126 160/287/126
f 151/275/126 160/287/126 152/288/126
f 156/289/127 161/290/127 162/291/127
f 156/289/127 162/291/127 157/292/127
f 158/293/128 163/294/128 159/295/128
f 163/294/128 164/296/128 159/295/128
f 160/285/129 165/297/129 124/219/129
f 125/220/130 161/290/130 156/289/130
f 157/280/131 162/298/131 163/299/131
f 157/280/131 163/299/131 158/282/131
f 159/295/132 164/296/132 160/285/132
f 164/296/132 165/297/132 160/285/132
f 161/290/133 114/209/133 162/291/133
f 114/209/133 117/212/133 162/291/133
f 163/294/134 118/213/134 164/296/134
f 118/213/134 121/216/134 164/296/134
f 165/297/135 122/217/135 124/219/135
f 125/220/136 114/209/136 161/290/136
f 162/291/137 117/212/137 118/221/137
f 162/291/137 118/221/137 163/300/137
f 164/296/138 121/216/138 122/217/138
f 164/296/138 122/217/138 165/297/138
f 166/301/79 167/302/79 168/303/79
f 167/302/79 169/304/79 168/303/79
f 170/305/80 171/306/80 172/307/80
f 171/306/80 173/308/80 172/307/80
f 174/309/81 175/310/81 176/311/81
f 177/312/82 167/302/82 166/301/82
f 168/303/83 169/304/83 171/313/83
f 168/303/83 171/313/83 170/314/83
f 172/307/84 173/308/84 175/310/84
f 172/307/84 175/310/84 174/309/84
f 175/310/85 178/315/85 176/311/85
f 177/312/86 179/316/86 167/302/86
f 169/317/87 180/318/87 171/319/87
f 180/318/87 181/320/87 171/319/87
f 173/321/88 182/322/88 175/323/88
f 182/322/88 178/324/88 175/323/88
f 167/302/89 179/316/89 180/325/89
f 167/302/89 180/325/89 169/304/89
f 171/319/90 181/320/90 182/322/90
f 171/319/90 182/322/90 173/321/90
f 177/326/91 183/327/91 179/328/91
f 180/318/92 184/329/92 185/330/92
f 180/318/92 185/330/92 181/320/92
f 182/322/93 186/331/93 187/332/93
f 182/322/93 187/332/93 178/324/93
f 179/328/94 183/327/94 184/329/94
f 179/328/94 184/329/94 180/318/94
f 181/320/95 185/330/95 186/331/95
f 181/320/95 186/331/95 182/322/95
f 178/324/96 187/332/96 176/333/96
f 177/334/97 188/335/97 183/336/97
f 184/329/98 189/337/98 190/338/98
f 184/329/98 190/338/98 185/330/98
f 186/339/99 191/340/99 192/341/99
f 186/339/99 192/341/99 187/342/99
f 183/327/100 188/343/100 184/329/100
f 188/343/100 189/337/100 184/329/100
f 185/330/101 190/338/101 186/331/101
f 190/338/101 191/344/101 186/331/101
f 187/342/102 192/341/102 176/345/102
f 177/334/103 193/346/103 188/335/103
f 189/347/104 194/348/104 190/349/104
f 194/348/104 195/350/104 190/349/104
f 191/340/105 196/351/105 192/341/105
f 196/351/105 197/352/105 192/341/105
f 188/335/106 193/346/106 194/348/106
f 188/335/106 194/348/106 189/347/106
f 190/353/107 195/354/107 196/351/107
f 190/353/107 196/351/107 191/340/107
f 192/341/108 197/352/108 176/345/108
f 194/348/109 198/355/109 199/356/109
f 194/348/109 199/356/109 195/350/109
f 196/351/110 200/357/110 201/358/110
f 196/351/110 201/358/110 197/352/110
f 193/346/111 202/359/111 194/348/111
f 202/359/111 198/355/111 194/348/111
f 195/354/112 199/360/112 196/351/112
f 199/360/112 200/357/112 196/351/112
f 197/352/113 201/358/113 176/345/113
f 177/334/114 202/359/114 193/346/114
f 200/357/115 203/361/115 201/358/115
f 203/361/115 204/362/115 201/358/115
f 202/359/116 205/363/116 206/364/116
f 202/359/116 206/364/116 198/355/116
f 199/365/117 207/366/117 200/367/117
f 207/366/117 203/368/117 200/367/117
f 201/358/118 204/362/118 176/345/118
f 177/334/119 205/363/119 202/359/119
f 198/355/120 206/364/120 207/369/120
f 198/355/120 207/369/120 199/356/120
f 205/370/121 208/371/121 209/372/121
f 205/370/121 209/372/121 206/373/121
f 207/366/122 210/374/122 211/375/122
f 207/366/122 211/375/122 203/368/122
f 204/376/123 212/377/123 176/311/123
f 177/378/124 208/371/124 205/370/124
f 206/373/125 209/372/125 210/374/125
f 206/373/125 210/374/125 207/366/125
f 203/368/126 211/375/126 212/379/126
f 203/368/126 212/379/126 204/380/126
f 208/381/127 213/382/127 209/383/127
f 213/382/127 214/384/127 209/383/127
f 210/385/128 215/386/128 216/387/128
f 210/385/128 216/387/128 211/388/128
f 212/377/129 217/389/129 176/311/129
f 177/312/130 213/382/130 208/381/130
f 209/372/131 214/390/131 210/374/131
f 214/390/131 215/391/131 210/374/131
f 211/388/132 216/387/132 217/389/132
f 211/388/132 217/389/132 212/377/132
f 213/382/133 166/301/133 168/303/133
f 213/382/133 168/303/133 214/384/133
f 215/386/134 170/305/134 172/307/134
f 215/386/134 172/307/134 216/387/134
f 217/389/135 174/309/135 176/311/135
f 177/312/136 166/301/136 213/382/136
f 214/384/137 168/303/137 215/392/137
f 168/303/137 170/314/137 215/392/137
f 216/387/138 172/307/138 217/389/138
f 172/307/138 174/309/138 217/389/138
f 27/393/1 26/394/1 30/395/1
f 27/393/1 30/395/1 32/396/1
f 32/397/12 30/398/12 29/399/12
f 32/397/12 29/399/12 31/400/12
f 31/401/3 29/402/3 28/403/3
f 29/402/3 25/404/3 28/403/3
f 28/405/139 25/406/139 26/407/139
f 28/405/139 26/407/139 27/408/139
f 218/409/140 219/410/140 220/411/140
f 219/410/140 221/412/140 220/411/140
f 222/413/141 223/414/141 224/415/141
f 223/414/141 225/416/141 224/415/141
f 226/417/142 227/418/142 222/419/142
f 227/418/142 223/420/142 222/419/142
f 228/421/143 229/422/143 230/423/143
f 228/421/143 230/423/143 224/415/143
f 231/424/144 232/425/144 233/426/144
f 231/424/144 233/426/144 234/427/144
f 235/428/145 236/429/145 232/425/145
f 235/428/145 232/425/145 231/424/145
f 237/430/146 233/431/146 232/432/146
f 237/430/147 219/433/147 238/434/147
f 239/435/148 238/436/148 218/409/148
f 238/436/148 219/410/148 218/409/148
f 240/437/149 241/438/149 239/439/149
f 241/438/149 238/440/149 239/439/149
f 242/441/150 243/442/150 240/437/150
f 243/442/150 241/438/150 240/437/150
f 244/443/151 245/444/151 243/442/151
f 244/443/151 243/442/151 242/441/151
f 246/445/152 247/446/152 245/447/152
f 246/445/152 245/447/152 244/448/152
f 248/449/153 249/450/153 247/446/153
f 248/449/153 247/446/153 246/445/153
f 250/451/154 251/452/154 249/450/154
f 250/451/154 249/450/154 248/449/154
f 250/451/155 252/453/155 229/422/155
f 250/451/155 229/422/155 228/421/155
f 237/430/156 251/452/156 253/454/156
f 254/455/157 252/453/157 250/451/157
f 254/455/157 250/451/157 248/449/157
f 220/411/158 255/456/158 256/457/158
f 220/411/158 256/457/158 218/409/158
f 237/430/159 236/458/159 221/459/159
f 237/430/160 225/416/160 223/414/160
f 224/460/161 230/461/161 257/462/161
f 224/460/161 257/462/161 222/419/161
f 237/430/162 223/414/162 227/463/162
f 222/419/163 257/462/163 258/464/163
f 222/419/163 258/464/163 226/417/163
f 237/430/159 221/459/159 219/433/159
f 237/430/164 227/463/164 233/431/164
f 226/417/165 258/464/165 234/465/165
f 258/464/165 259/466/165 234/465/165
f 237/430/166 232/432/166 236/458/166
f 234/427/167 259/467/167 231/424/167
f 259/467/167 260/468/167 231/424/167
f 231/424/168 260/468/168 235/428/168
f 260/468/168 261/469/168 235/428/168
f 259/470/169 262/471/169 260/472/169
f 262/471/169 263/473/169 260/472/169
f 235/428/170 261/469/170 220/411/170
f 261/469/170 255/456/170 220/411/170
f 261/474/171 264/475/171 255/476/171
f 264/475/171 265/477/171 255/476/171
f 218/409/172 256/457/172 266/478/172
f 218/409/172 266/478/172 239/435/172
f 237/430/173 238/434/173 241/479/173
f 239/439/174 266/480/174 267/481/174
f 239/439/174 267/481/174 240/437/174
f 237/430/175 241/479/175 243/482/175
f 240/437/176 267/481/176 268/483/176
f 240/437/176 268/483/176 242/441/176
f 237/430/177 243/482/177 245/447/177
f 242/441/178 268/483/178 244/443/178
f 268/483/178 269/484/178 244/443/178
f 237/430/179 245/447/179 247/446/179
f 244/443/180 269/484/180 246/485/180
f 269/484/180 270/486/180 246/485/180
f 237/430/181 247/446/181 249/450/181
f 246/445/182 270/487/182 248/449/182
f 270/487/182 254/455/182 248/449/182
f 237/430/156 249/450/156 251/452/156
f 229/488/183 271/489/183 272/490/183
f 229/488/183 272/490/183 230/491/183
f 224/415/184 225/416/184 228/421/184
f 225/416/184 253/454/184 228/421/184
f 269/492/185 273/493/185 270/494/185
f 273/493/185 274/495/185 270/494/185
f 260/472/186 263/473/186 261/474/186
f 263/473/186 264/475/186 261/474/186
f 258/496/187 275/497/187 259/498/187
f 275/497/187 262/499/187 259/498/187
f 267/500/188 276/501/188 277/502/188
f 267/500/188 277/502/188 268/503/188
f 270/494/189 274/495/189 254/504/189
f 274/495/189 278/505/189 254/504/189
f 264/475/190 279/506/190 265/477/190
f 279/506/190 280/507/190 265/477/190
f 254/504/191 278/505/191 252/508/191
f 278/505/191 281/509/191 252/508/191
f 230/510/192 272/511/192 282/512/192
f 230/510/192 282/512/192 257/513/192
f 265/514/193 280/515/193 283/516/193
f 265/514/193 283/516/193 284/517/193
f 281/518/194 285/519/194 286/520/194
f 281/518/194 286/520/194 271/521/194
f 257/513/195 282/512/195 275/497/195
f 257/513/195 275/497/195 258/496/195
f 284/517/196 283/516/196 287/522/196
f 284/517/196 287/522/196 288/523/196
f 271/521/197 286/520/197 289/524/197
f 271/521/197 289/524/197 272/525/197
f 288/526/198 287/527/198 290/528/198
f 288/526/198 290/528/198 276/501/198
f 263/473/199 291/529/199 264/475/199
f 291/529/199 279/506/199 264/475/199
f 277/502/200 292/530/200 273/531/200
f 292/530/200 293/532/200 273/531/200
f 273/531/201 293/532/201 274/533/201
f 293/532/201 294/534/201 274/533/201
f 275/497/202 295/535/202 262/499/202
f 295/535/202 296/536/202 262/499/202
f 276/501/203 290/528/203 292/530/203
f 276/501/203 292/530/203 277/502/203
f 274/495/204 294/537/204 278/505/204
f 294/537/204 297/538/204 278/505/204
f 278/505/205 297/538/205 281/509/205
f 297/538/205 285/539/205 281/509/205
f 272/511/206 289/540/206 298/541/206
f 272/511/206 298/541/206 282/512/206
f 268/503/207 277/502/207 269/542/207
f 277/502/207 273/531/207 269/542/207
f 282/512/208 298/541/208 295/535/208
f 282/512/208 295/535/208 275/497/208
f 255/476/209 265/477/209 284/543/209
f 255/476/209 284/543/209 256/544/209
f 256/544/210 284/543/210 288/545/210
f 256/544/210 288/545/210 266/546/210
f 262/499/211 296/536/211 263/547/211
f 296/536/211 291/548/211 263/547/211
f 266/546/212 288/545/212 276/549/212
f 266/546/212 276/549/212 267/550/212
f 220/411/213 221/412/213 236/429/213
f 220/411/213 236/429/213 235/428/213
f 234/465/214 233/551/214 227/418/214
f 234/465/214 227/418/214 226/417/214
f 253/454/215 225/416/215 237/430/215
f 228/421/216 253/454/216 250/451/216
f 253/454/216 251/452/216 250/451/216
f 252/508/217 281/509/217 271/489/217
f 252/508/217 271/489/217 229/488/217
f 94/552/6 280/507/6 279/506/6
f 94/552/6 279/506/6 95/553/6
f 100/554/6 286/555/6 101/199/6
f 286/555/6 285/556/6 101/199/6
f 101/199/6 285/556/6 297/557/6
f 101/199/6 297/557/6 112/196/6
f 99/558/6 283/559/6 280/507/6
f 99/558/6 280/507/6 94/552/6
f 104/560/6 289/561/6 100/554/6
f 289/561/6 286/555/6 100/554/6
f 103/562/6 287/563/6 99/558/6
f 287/563/6 283/559/6 99/558/6
f 113/564/6 298/565/6 104/560/6
f 298/565/6 289/561/6 104/560/6
f 105/566/6 290/567/6 103/562/6
f 290/567/6 287/563/6 103/562/6
f 111/568/6 295/569/6 113/564/6
f 295/569/6 298/565/6 113/564/6
f 108/570/6 292/571/6 105/566/6
f 292/571/6 290/567/6 105/566/6
f 110/572/6 296/573/6 295/569/6
f 110/572/6 295/569/6 111/568/6
f 107/574/6 293/575/6 292/571/6
f 107/574/6 292/571/6 108/570/6
f 106/576/6 291/529/6 296/573/6
f 106/576/6 296/573/6 110/572/6
f 109/197/6 294/577/6 293/575/6
f 109/197/6 293/575/6 107/574/6
f 95/553/6 279/506/6 291/529/6
f 95/553/6 291/529/6 106/576/6
f 112/196/6 297/557/6 294/577/6
f 112/196/6 294/577/6 109/197/6
s off
